<svg width="32" height="32" viewBox="0 0 32 32" fill="none" xmlns="http://www.w3.org/2000/svg">
<path d="M24.9998 27C22.3941 29.6058 16.6259 26.6261 10.9998 21C5.37378 15.374 2.39409 9.6058 4.99984 7.00004L6.99984 5.00004C8.18428 3.8156 9.77678 3.77698 10.9998 5.00004L13.9998 8.00004C15.2229 9.22309 15.1843 10.8156 13.9998 12H12.9998C12.3603 12.6395 12.4056 14.28 12.9998 15C13.573 15.6946 14.3299 16.3301 14.9998 17C15.6698 17.67 16.3053 18.4269 16.9998 19C17.7199 19.5942 19.3603 19.6395 19.9998 19V18C21.1843 16.8156 22.7768 16.777 23.9998 18L26.9998 21C28.2229 22.2231 28.1843 23.8156 26.9998 25L24.9998 27Z" stroke="#1A1A1A" stroke-width="1.75"/>
</svg>
