<svg width="12" height="12" viewBox="0 0 12 12" fill="none" xmlns="http://www.w3.org/2000/svg">
<path d="M1 3C1 1.89543 1.89543 1 3 1H6H7.37868C7.7765 1 8.15804 1.15804 8.43934 1.43934L10.5607 3.56066C10.842 3.84196 11 4.2235 11 4.62132V6V9C11 10.1046 10.1046 11 9 11H3C1.89543 11 1 10.1046 1 9V3Z" stroke="#1A1A1A"/>
<path d="M3.5 7.83325C3.5 7.28097 3.94772 6.83325 4.5 6.83325H7.5C8.05228 6.83325 8.5 7.28097 8.5 7.83325V10.9999H3.5V7.83325Z" stroke="#1A1A1A"/>
<path d="M4 1V3C4 3.27614 4.22386 3.5 4.5 3.5H7.5C7.77614 3.5 8 3.27614 8 3V1" stroke="#1A1A1A"/>
</svg>
