<svg width="16" height="16" viewBox="0 0 16 16" fill="none" xmlns="http://www.w3.org/2000/svg">
<path d="M2 4.66667C2 3.19391 3.19391 2 4.66667 2H8H9.57157C10.102 2 10.6107 2.21071 10.9858 2.58579L13.4142 5.01421C13.7893 5.38929 14 5.89799 14 6.42843V8V11.3333C14 12.8061 12.8061 14 11.3333 14H4.66667C3.19391 14 2 12.8061 2 11.3333V4.66667Z" stroke="#1A1A1A"/>
<path d="M5 10.3333C5 9.59695 5.59695 9 6.33333 9H9.66667C10.403 9 11 9.59695 11 10.3333V14H5V10.3333Z" stroke="#1A1A1A"/>
<path d="M5.59961 2V4.33333C5.59961 4.70152 5.89809 5 6.26628 5H9.73294C10.1011 5 10.3996 4.70152 10.3996 4.33333V2" stroke="#1A1A1A"/>
</svg>
