<svg width="32" height="32" viewBox="0 0 32 32" fill="none" xmlns="http://www.w3.org/2000/svg">
<path d="M2.66699 8.00008C2.66699 5.05456 5.05481 2.66675 8.00033 2.66675H16.0003H19.6768C20.7377 2.66675 21.7551 3.08818 22.5052 3.83832L28.1621 9.49518C28.9122 10.2453 29.3337 11.2627 29.3337 12.3236V16.0001V24.0001C29.3337 26.9456 26.9458 29.3334 24.0003 29.3334H8.00032C5.0548 29.3334 2.66699 26.9456 2.66699 24.0001V8.00008Z" stroke="#1A1A1A" stroke-width="1.75"/>
<path d="M8 20.0002C8 18.5274 9.19391 17.3335 10.6667 17.3335H21.3333C22.8061 17.3335 24 18.5274 24 20.0002V29.3335H8V20.0002Z" stroke="#1A1A1A" stroke-width="1.75"/>
<path d="M10.667 2.66683V8.00016C10.667 8.73654 11.2639 9.3335 12.0003 9.3335H20.0003C20.7367 9.3335 21.3337 8.73654 21.3337 8.00016V2.66683" stroke="#1A1A1A" stroke-width="1.75"/>
</svg>
