<svg width="12" height="12" viewBox="0 0 12 12" fill="none" xmlns="http://www.w3.org/2000/svg">
<path d="M8.7 7.74013C9.71066 7.63978 10.5 6.78707 10.5 5.75C10.5 4.54732 9.39558 3.60131 8.21425 3.77026C8.21212 3.77057 8.21 3.76947 8.20904 3.76755C7.75711 2.8676 6.82568 2.25 5.75 2.25C4.31704 2.25 3.14007 3.346 3.01162 4.74545C3.01139 4.74804 3.00919 4.75003 3.0066 4.75003C2.18692 4.74958 1.5 5.4274 1.5 6.25C1.5 7.07843 2.17157 7.75 3 7.75H3.3" stroke="#1A1A1A" stroke-linecap="round"/>
<path d="M4.875 6.97497L5.82322 6.02675C5.92085 5.92912 6.07914 5.92912 6.17677 6.02675L7.12499 6.97497" stroke="#1A1A1A" stroke-linecap="round"/>
<path d="M6 6.3L6 9" stroke="#1A1A1A" stroke-linecap="round"/>
</svg>
