<svg width="16" height="16" viewBox="0 0 16 16" fill="none" xmlns="http://www.w3.org/2000/svg">
<path d="M11.6 10.3202C12.9476 10.1864 14 9.04943 14 7.66667C14 6.06309 12.5274 4.80175 10.9523 5.02702C10.9495 5.02742 10.9467 5.02597 10.9454 5.0234C10.3428 3.82347 9.1009 3 7.66667 3C5.75605 3 4.18676 4.46133 4.0155 6.32727C4.01518 6.33072 4.01226 6.33338 4.0088 6.33338C2.9159 6.33277 2 7.23654 2 8.33333C2 9.4379 2.89543 10.3333 4 10.3333H4.4" stroke="#1A1A1A" stroke-linecap="round"/>
<path d="M6.5 9.29992L7.76429 8.03563C7.89446 7.90545 8.10552 7.90545 8.23569 8.03563L9.49998 9.29992" stroke="#1A1A1A" stroke-linecap="round"/>
<path d="M8 8.4L8 12" stroke="#1A1A1A" stroke-linecap="round"/>
</svg>
