<svg width="32" height="32" viewBox="0 0 32 32" fill="none" xmlns="http://www.w3.org/2000/svg">
<path d="M24.0003 24.267C26.9949 23.9697 29.3337 21.4432 29.3337 18.3704C29.3337 14.8065 26.0606 12.0033 22.56 12.5046C22.5543 12.5054 22.5487 12.5025 22.5461 12.4974C21.2072 9.83036 18.4472 8 15.2596 8C11.0133 8 7.52569 11.2481 7.14575 15.3953C7.14512 15.4022 7.13927 15.4075 7.13235 15.4075C4.70308 15.4054 2.66699 17.4141 2.66699 19.8519C2.66699 22.3065 4.65684 24.2963 7.11144 24.2963H8.00033" stroke="#1A1A1A" stroke-width="1.75" stroke-linecap="round"/>
<path d="M12.667 21.9999L15.5289 19.138C15.7893 18.8777 16.2114 18.8777 16.4717 19.138L19.3336 21.9999" stroke="#1A1A1A" stroke-width="1.75" stroke-linecap="round"/>
<path d="M16 20L16 28" stroke="#1A1A1A" stroke-width="1.75" stroke-linecap="round"/>
</svg>
