<svg width="12" height="12" viewBox="0 0 12 12" fill="none" xmlns="http://www.w3.org/2000/svg">
<path d="M1.5 5.49775C1.5 4.53249 2.28249 3.75 3.24775 3.75C3.55342 3.75 3.83067 3.57073 3.95611 3.29199L4.027 3.13445C4.26922 2.59618 4.80461 2.25 5.39488 2.25H6H6.60512C7.19539 2.25 7.73078 2.59618 7.973 3.13445L8.04389 3.29198C8.16933 3.57073 8.44658 3.75 8.75225 3.75C9.71751 3.75 10.5 4.53249 10.5 5.49775V7.5C10.5 8.74264 9.49264 9.75 8.25 9.75H3.75C2.50736 9.75 1.5 8.74264 1.5 7.5V5.49775Z" stroke="#1A1A1A"/>
<circle cx="1.35" cy="1.35" r="1.35" transform="matrix(-1 0 0 1 7.34961 5.17505)" stroke="#1A1A1A"/>
</svg>
