<svg width="16" height="16" viewBox="0 0 16 16" fill="none" xmlns="http://www.w3.org/2000/svg">
<path d="M2 7.33033C2 6.04332 3.04332 5 4.33033 5C4.73789 5 5.10756 4.76098 5.27481 4.38931L5.36933 4.17927C5.69229 3.46157 6.40615 3 7.19317 3H8H8.80683C9.59385 3 10.3077 3.46157 10.6307 4.17927L10.7252 4.38931C10.8924 4.76098 11.2621 5 11.6697 5C12.9567 5 14 6.04332 14 7.33033V10C14 11.6569 12.6569 13 11 13H5C3.34315 13 2 11.6569 2 10V7.33033Z" stroke="#1A1A1A"/>
<circle cx="1.8" cy="1.8" r="1.8" transform="matrix(-1 0 0 1 9.7998 6.90002)" stroke="#1A1A1A"/>
</svg>
