<svg width="32" height="32" viewBox="0 0 32 32" fill="none" xmlns="http://www.w3.org/2000/svg">
<path d="M2.66699 13.9419C2.66699 11.0285 5.02881 8.66667 7.94226 8.66667C8.78636 8.66667 9.54925 8.16362 9.88176 7.38777L10.2947 6.42432C10.925 4.95359 12.3711 4 13.9712 4H16.0003H18.0294C19.6295 4 21.0757 4.95359 21.706 6.42432L22.1189 7.38777C22.4514 8.16362 23.2143 8.66667 24.0584 8.66667C26.9718 8.66667 29.3337 11.0285 29.3337 13.9419V20.6667C29.3337 24.3486 26.3489 27.3333 22.667 27.3333H9.33366C5.65176 27.3333 2.66699 24.3486 2.66699 20.6667V13.9419Z" stroke="#1A1A1A" stroke-width="1.75"/>
<circle cx="4" cy="4" r="4" transform="matrix(-1 0 0 1 20 12.6666)" stroke="#1A1A1A" stroke-width="1.75"/>
</svg>
