<svg width="12" height="12" viewBox="0 0 12 12" fill="none" xmlns="http://www.w3.org/2000/svg">
<path d="M2.25 2.25C2.25 1.83579 2.58579 1.5 3 1.5H5.16667C5.58088 1.5 5.91667 1.83579 5.91667 2.25V5.75C5.91667 6.16421 5.58088 6.5 5.16667 6.5H2.25V2.25Z" stroke="#1A1A1A"/>
<path d="M5.91699 2.5H8.61206C9.01875 2.5 9.25531 2.95968 9.01893 3.29062L8.30568 4.28917C8.07043 4.61852 8.0569 5.05719 8.27141 5.40041L9.10553 6.735C9.31367 7.06802 9.07425 7.5 8.68153 7.5H6.41699C6.14085 7.5 5.91699 7.27614 5.91699 7V2.5Z" stroke="#1A1A1A"/>
<path d="M2.25 10.5L2.25 2.5" stroke="#1A1A1A" stroke-linecap="round" stroke-linejoin="round"/>
</svg>
