<svg width="16" height="16" viewBox="0 0 16 16" fill="none" xmlns="http://www.w3.org/2000/svg">
<path d="M3 3C3 2.44771 3.44772 2 4 2H6.88889C7.44117 2 7.88889 2.44772 7.88889 3V7.66667C7.88889 8.21895 7.44117 8.66667 6.88889 8.66667H3V3Z" stroke="#1A1A1A"/>
<path d="M7.88867 3.33331H11.4821C12.0243 3.33331 12.3398 3.94623 12.0246 4.38747L11.0736 5.71888C10.7599 6.158 10.7419 6.7429 11.0279 7.20052L12.1401 8.97998C12.4176 9.42401 12.0984 9.99998 11.5747 9.99998H8.55534C8.18715 9.99998 7.88867 9.7015 7.88867 9.33331V3.33331Z" stroke="#1A1A1A"/>
<path d="M3 14L3 3.33331" stroke="#1A1A1A" stroke-linecap="round" stroke-linejoin="round"/>
</svg>
