<svg preserveAspectRatio="none" width="100%" height="100%" overflow="visible" style="display: block;" viewBox="0 0 52.8775 11.2118" fill="none" xmlns="http://www.w3.org/2000/svg">
<g id="Group">
<g id="Group_2">
<path id="Vector" d="M7.19926 1.03938L7.35559 0.164331H6.01971L5.8776 1.03938H2.21104L1.64258 4.24791L1.44362 3.72595H0.733048L0.661991 5.10761L1.50047 5.12297L1.40099 5.70634L0.56251 5.69098L0.136167 8.17798L0.718836 8.16262L1.27308 6.44322L0.56251 10.2658H1.65679L3.12057 2.08331H10.1552L10.34 1.03938H7.19926Z" fill="var(--fill-0, white)" stroke="var(--stroke-0, white)" stroke-width="0.228571"/>
<path id="Vector_2" d="M10.0414 2.81995H3.57518L2.26772 10.2656H3.36201L4.4705 3.86388H8.83342L7.75335 10.3577L10.0982 10.3423L10.283 9.29842L8.90447 9.31377L10.0414 2.81995Z" fill="var(--fill-0, white)" stroke="var(--stroke-0, white)" stroke-width="0.228571"/>
<path id="Vector_3" d="M5.21337 4.35455H7.20311L6.76519 7.09352H7.90723L5.21337 11.2117L5.73648 9.15639H4.47866L5.21337 4.35455Z" fill="var(--fill-0, #FFD84F)"/>
</g>
<g id="Group_3">
<path id="Vector_4" d="M14.2056 3.14232H15.2715L15.3994 2.0984H14.3477L14.5893 0.118014L13.5093 0.148718L13.2677 2.0984H12.1876L12.0597 3.14232H13.1255L12.7845 5.76748L11.6902 6.08987L11.5623 7.1952L12.6424 6.90351L12.3439 9.20629H11.3065L11.1786 10.2502H13.2961L13.7651 6.58113L14.8878 6.21268L15.0157 5.18411L13.9072 5.44509L14.2056 3.14232Z" fill="var(--fill-0, white)" stroke="var(--stroke-0, white)" stroke-width="0.228571"/>
<path id="Vector_5" d="M18.1278 1.23866H19.8758L20.5153 3.63354H21.6096L20.6858 0.21009H17.5167L15.4702 3.63354H16.6356L18.1278 1.23866Z" fill="var(--fill-0, white)" stroke="var(--stroke-0, white)" stroke-width="0.228571"/>
<path id="Vector_6" d="M15.3703 10.2506H20.6144L20.7565 9.20668H16.5783L17.0615 5.26127H19.7617L19.5059 7.34911L20.6144 7.33376L20.9981 4.21734H16.1093L15.3703 10.2506Z" fill="var(--fill-0, white)" stroke="var(--stroke-0, white)" stroke-width="0.228571"/>
</g>
<path id="Vector_7" d="M32.0123 4.35511L32.1402 3.31119L25.8019 3.35725L26.4556 1.89882H31.2307L31.3586 0.854901H26.9246L27.2515 0.118014H26.0719L25.7451 0.854901H23.386L23.2581 1.89882H25.2761L24.6223 3.35725L22.4906 3.3726L22.3627 4.41652H24.1534L23.1159 6.71929H29.5111L28.4452 8.99136L24.5087 8.33123L24.0681 9.31375L29.8522 10.3116L30.3069 9.31375L29.5537 9.19094L31.188 5.67537H24.7645L25.3329 4.40117L32.0123 4.35511Z" fill="var(--fill-0, white)" stroke="var(--stroke-0, white)" stroke-width="0.228571"/>
<g id="Group_4">
<path id="Vector_8" d="M42.4289 0.655246H38.7624L38.7482 0.148636H37.327L37.3412 0.655246H33.8026L33.6747 1.69917H42.301L42.4289 0.655246Z" fill="var(--fill-0, white)" stroke="var(--stroke-0, white)" stroke-width="0.228571"/>
<path id="Vector_9" d="M41.8893 2.19049H33.8882L33.5329 4.99987H41.5056L41.8751 2.19049H41.8893ZM40.6244 3.9713H34.7267L34.8262 3.23441H40.6955L40.6102 3.9713H40.6244Z" fill="var(--fill-0, white)" stroke="var(--stroke-0, white)" stroke-width="0.228571"/>
<path id="Vector_10" d="M41.5055 5.55265H33.476L33.3623 6.59658H39.8996L39.5017 7.44093H32.9644L32.8365 8.48485H37.9965L37.897 9.37526H36.4689L36.341 10.4038H38.8634L39.0907 8.48485H42.415L42.5429 7.44093H40.6386L41.5055 5.55265Z" fill="var(--fill-0, white)" stroke="var(--stroke-0, white)" stroke-width="0.228571"/>
</g>
<g id="Group_5">
<path id="Vector_11" d="M51.116 0.225366H48.9843L45.9999 4.14008H47.2931L49.4817 1.26929H50.3912L51.4855 4.14008H52.7077L51.116 0.225366Z" fill="var(--fill-0, white)" stroke="var(--stroke-0, white)" stroke-width="0.228571"/>
<path id="Vector_12" d="M46.6388 10.2655L47.7189 10.2502L48.4152 4.46253H47.3352L46.6388 10.2655Z" fill="var(--fill-0, white)" stroke="var(--stroke-0, white)" stroke-width="0.228571"/>
<path id="Vector_13" d="M49.6662 10.2655H50.7462L51.4426 4.46253H50.3625L49.6662 10.2655Z" fill="var(--fill-0, white)" stroke="var(--stroke-0, white)" stroke-width="0.228571"/>
<path id="Vector_14" d="M43.1009 2.8046L44.4225 2.26729L43.4277 10.2656H44.5078L45.7016 0.609295L43.2288 1.60716L43.1009 2.8046Z" fill="var(--fill-0, white)" stroke="var(--stroke-0, white)" stroke-width="0.228571"/>
</g>
</g>
</svg>
