<svg preserveAspectRatio="none" width="100%" height="100%" overflow="visible" style="display: block;" viewBox="0 0 11.3143 8.22857" fill="none" xmlns="http://www.w3.org/2000/svg">
<g id="&#232;&#181;&#132;&#230;&#186;&#144; 4">
<path id="&#232;&#183;&#175;&#229;&#190;&#132;" fill-rule="evenodd" clip-rule="evenodd" d="M11.2485 2.14547C11.1845 2.07204 10.9746 2.06093 10.801 2.09124C10.2665 2.18959 9.39711 2.41695 8.38083 2.95015C7.69183 1.93221 6.89453 0.98939 6.00244 0.137643C5.81162 -0.0458811 5.50672 -0.0458811 5.3159 0.137643C4.42436 0.989981 3.62701 1.93273 2.93717 2.95015C1.92226 2.41695 1.05151 2.1869 0.517345 2.09124C0.346139 2.06093 0.133844 2.07474 0.0670739 2.14547C0.00886389 2.21284 -0.0164746 2.31388 0.0112608 2.58065C0.0643346 3.04581 0.15884 3.7875 0.325595 4.76161C0.513579 5.86438 0.742652 6.95637 0.887835 7.61218C0.967382 7.97129 1.29011 8.22767 1.66374 8.22857H9.64673C10.0209 8.22921 10.3445 7.97214 10.4226 7.61218C10.5671 6.95839 10.7993 5.8664 10.9842 4.76093C11.1485 3.78413 11.2458 3.04514 11.2985 2.57998C11.3338 2.31523 11.3067 2.21149 11.2485 2.14547Z" fill="url(#paint0_linear_0_27)"/>
<path id="&#232;&#183;&#175;&#229;&#190;&#132;_2" d="M5.62051 7.03927C6.42724 5.94761 7.06412 5.20591 7.87084 4.11426H6.51866C6.10777 4.67238 5.69687 5.2497 5.27845 5.80783L4.81105 4.11561H3.44141V4.45243H3.87524L4.62855 7.04095L5.62051 7.03927Z" fill="url(#paint1_linear_0_27)"/>
</g>
<defs>
<linearGradient id="paint0_linear_0_27" x1="14.7056" y1="3.80835" x2="8.75474" y2="-2.78093" gradientUnits="userSpaceOnUse">
<stop stop-color="#F3D275"/>
<stop offset="1" stop-color="#FFF1CA"/>
</linearGradient>
<linearGradient id="paint1_linear_0_27" x1="3.44141" y1="4.11426" x2="3.44141" y2="7.04095" gradientUnits="userSpaceOnUse">
<stop stop-color="#009D57"/>
<stop offset="1" stop-color="#007242"/>
</linearGradient>
</defs>
</svg>
