<svg width="12" height="12" viewBox="0 0 12 12" fill="none" xmlns="http://www.w3.org/2000/svg">
<circle cx="1.5" cy="1.5" r="1.5" transform="matrix(-1 0 0 1 7.83301 3)" stroke="#1A1A1A"/>
<path d="M3.5 8.18795C3.5 7.87444 3.69447 7.59382 3.98802 7.48374C5.39269 6.95699 6.94064 6.95699 8.34532 7.48374C8.63886 7.59382 8.83333 7.87444 8.83333 8.18795V8.76728C8.83333 9.24489 8.41473 9.61442 7.94081 9.55518L7.76225 9.53286C6.70265 9.40041 5.63068 9.40041 4.57108 9.53286L4.39252 9.55518C3.9186 9.61442 3.5 9.24489 3.5 8.76728V8.18795Z" stroke="#1A1A1A" stroke-width="0.75"/>
<path d="M8.5 6.00008C9.05228 6.00008 9.5 5.64441 9.5 5.00008C9.5 4.35575 9.05228 3.66675 8.5 3.66675" stroke="#1A1A1A" stroke-linecap="round"/>
<path d="M9.83333 8.66667L-nan -nanL9.83333 8.66667ZM9.83333 8.66667C10.1412 8.71444 10.5 8.3378 10.5 8V7.66667C10.5 7.42191 10.3789 7.41565 10.1667 7.33333C9.95499 7.25122 9.71844 7.04578 9.5 7" stroke="#1A1A1A" stroke-width="0.75" stroke-linecap="round"/>
<path d="M3.5 6.00008C2.94772 6.00008 2.5 5.64441 2.5 5.00008C2.5 4.35575 2.94772 3.66675 3.5 3.66675" stroke="#1A1A1A" stroke-linecap="round"/>
<path d="M2.16667 8.66667L-nan -nanL2.16667 8.66667ZM2.16667 8.66667C1.8588 8.71444 1.5 8.3378 1.5 8V7.66667C1.5 7.42191 1.62113 7.41565 1.83333 7.33333C2.04501 7.25122 2.28156 7.04578 2.5 7" stroke="#1A1A1A" stroke-width="0.75" stroke-linecap="round"/>
</svg>
