<svg width="16" height="16" viewBox="0 0 16 16" fill="none" xmlns="http://www.w3.org/2000/svg">
<circle cx="2" cy="2" r="2" transform="matrix(-1 0 0 1 10.4434 4)" stroke="#1A1A1A"/>
<path d="M4.66602 10.9172C4.66602 10.4992 4.92531 10.125 5.31671 9.97824C7.1896 9.2759 9.25354 9.2759 11.1264 9.97824C11.5178 10.125 11.7771 10.4992 11.7771 10.9172V11.6896C11.7771 12.3264 11.219 12.8191 10.5871 12.7402L10.349 12.7104C8.93622 12.5338 7.50693 12.5338 6.09412 12.7104L5.85604 12.7402C5.22415 12.8191 4.66602 12.3264 4.66602 11.6896V10.9172Z" stroke="#1A1A1A"/>
<path d="M11.3337 8.00003C12.07 8.00003 12.667 7.5258 12.667 6.66669C12.667 5.80758 12.07 4.88892 11.3337 4.88892" stroke="#1A1A1A" stroke-linecap="round"/>
<path d="M13.1114 11.5555L-nan -nanL13.1114 11.5555ZM13.1114 11.5555C13.5219 11.6192 14.0003 11.117 14.0003 10.6666V10.2221C14.0003 9.8958 13.8388 9.88746 13.5559 9.7777C13.2736 9.66821 12.9583 9.39429 12.667 9.33325" stroke="#1A1A1A" stroke-linecap="round"/>
<path d="M4.66634 8.00003C3.92996 8.00003 3.33301 7.5258 3.33301 6.66669C3.33301 5.80758 3.92996 4.88892 4.66634 4.88892" stroke="#1A1A1A" stroke-linecap="round"/>
<path d="M2.88856 11.5555L-nan -nanL2.88856 11.5555ZM2.88856 11.5555C2.47807 11.6192 1.99967 11.117 1.99967 10.6666V10.2221C1.99967 9.8958 2.16118 9.88746 2.44412 9.7777C2.72635 9.66821 3.04175 9.39429 3.33301 9.33325" stroke="#1A1A1A" stroke-linecap="round"/>
</svg>
