<svg width="12" height="12" viewBox="0 0 12 12" fill="none" xmlns="http://www.w3.org/2000/svg">
<path d="M1.5 4.79297C1.5 4.24068 1.94772 3.79297 2.5 3.79297H9.5C10.0523 3.79297 10.5 4.24068 10.5 4.79297V5.36321C10.5 5.80482 10.2103 6.19414 9.78735 6.32104L6.57469 7.28483C6.19982 7.39729 5.80018 7.39729 5.42531 7.28483L2.21265 6.32104C1.78967 6.19414 1.5 5.80482 1.5 5.36321V4.79297Z" stroke="#1A1A1A"/>
<path d="M6 6.10736L6 5.33594" stroke="#1A1A1A" stroke-linecap="round" stroke-linejoin="round"/>
<path d="M1.875 6.10718L1.875 8.35001C1.875 9.45458 2.77043 10.35 3.875 10.35H8.125C9.22957 10.35 10.125 9.45458 10.125 8.35001V6.10718" stroke="#1A1A1A"/>
<path d="M7.5 3.79285V3.25C7.5 2.69772 7.05228 2.25 6.5 2.25H5.5C4.94772 2.25 4.5 2.69772 4.5 3.25L4.5 3.79285" stroke="#1A1A1A"/>
</svg>
