<svg width="16" height="16" viewBox="0 0 16 16" fill="none" xmlns="http://www.w3.org/2000/svg">
<path d="M2 6.39046C2 5.65408 2.59695 5.05713 3.33333 5.05713H12.6667C13.403 5.05713 14 5.65408 14 6.39046V7.15078C14 7.73959 13.6138 8.25869 13.0498 8.42789L8.76626 9.71294C8.26642 9.86289 7.73358 9.86289 7.23374 9.71294L2.95021 8.42789C2.38623 8.25869 2 7.73959 2 7.15078V6.39046Z" stroke="#1A1A1A"/>
<path d="M8 8.14307L8 7.1145" stroke="#1A1A1A" stroke-linecap="round" stroke-linejoin="round"/>
<path d="M2.5 8.14282L2.5 11.1333C2.5 12.606 3.69391 13.7999 5.16667 13.7999H10.8333C12.3061 13.7999 13.5 12.606 13.5 11.1333V8.14282" stroke="#1A1A1A"/>
<path d="M10 5.05713V4.33333C10 3.59695 9.40305 3 8.66667 3H7.33333C6.59695 3 6 3.59695 6 4.33333L6 5.05713" stroke="#1A1A1A"/>
</svg>
