<svg width="24" height="24" viewBox="0 0 24 24" fill="none" xmlns="http://www.w3.org/2000/svg">
<path d="M2 8.42871C2 7.32414 2.89543 6.42871 4 6.42871H20C21.1046 6.42871 22 7.32414 22 8.42871V10.0835C22 10.9667 21.4207 11.7453 20.5747 11.9991L13.1494 14.2267C12.3996 14.4516 11.6004 14.4516 10.8506 14.2267L3.42531 11.9991C2.57934 11.7453 2 10.9667 2 10.0835V8.42871Z" stroke="#1A1A1A" stroke-width="1.5"/>
<path d="M12 11.5717L12 9.85742" stroke="#1A1A1A" stroke-width="1.5" stroke-linecap="round" stroke-linejoin="round"/>
<path d="M2.83301 11.5713L2.83301 16.9998C2.83301 19.2089 4.62387 20.9998 6.83301 20.9998H17.1663C19.3755 20.9998 21.1663 19.2089 21.1663 16.9998V11.5713" stroke="#1A1A1A" stroke-width="1.5"/>
<path d="M15.3337 6.42855V5C15.3337 3.89543 14.4382 3 13.3337 3H10.667C9.56242 3 8.66699 3.89543 8.66699 5L8.66699 6.42855" stroke="#1A1A1A" stroke-width="1.5"/>
</svg>
