<svg width="32" height="32" viewBox="0 0 32 32" fill="none" xmlns="http://www.w3.org/2000/svg">
<path d="M2.66699 11.2382C2.66699 9.76544 3.8609 8.57153 5.33366 8.57153H26.667C28.1398 8.57153 29.3337 9.76544 29.3337 11.2382V13.4446C29.3337 14.6222 28.5612 15.6604 27.4332 15.9988L17.5328 18.9689C16.5332 19.2688 15.4675 19.2688 14.4678 18.9689L4.5674 15.9988C3.43944 15.6604 2.66699 14.6222 2.66699 13.4446V11.2382Z" stroke="#1A1A1A" stroke-width="1.75"/>
<path d="M16 15.429L16 13.1433" stroke="#1A1A1A" stroke-width="1.75" stroke-linecap="round" stroke-linejoin="round"/>
<path d="M3.77832 15.4285L3.77832 22.6665C3.77832 25.612 6.16613 27.9998 9.11165 27.9998H22.8894C25.8349 27.9998 28.2228 25.612 28.2228 22.6665V15.4285" stroke="#1A1A1A" stroke-width="1.75"/>
<path d="M20.4446 8.5714V6.66667C20.4446 5.19391 19.2506 4 17.7779 4H14.2223C12.7496 4 11.5557 5.19391 11.5557 6.66667L11.5557 8.5714" stroke="#1A1A1A" stroke-width="1.75"/>
</svg>
