<svg width="12" height="12" viewBox="0 0 12 12" fill="none" xmlns="http://www.w3.org/2000/svg">
<path d="M5.42188 2.00439L4.97459 1.78093L4.97453 1.78106L5.42188 2.00439ZM6.68555 1.87939L6.29056 2.18597L6.29087 2.18636L6.68555 1.87939ZM6.8291 2.06396L7.22429 1.75765L7.22378 1.75699L6.8291 2.06396ZM7.00684 3.34229L7.47061 3.52913L7.47066 3.529L7.00684 3.34229ZM6.65039 4.22705L6.18661 4.04021C6.12453 4.1943 6.14304 4.36917 6.23601 4.50685C6.32898 4.64454 6.48426 4.72705 6.65039 4.72705V4.22705ZM10.75 5.52197H11.25V5.5218L10.75 5.52197ZM10.75 5.82373L11.25 5.82376V5.82373H10.75ZM10.6572 6.30518L11.1214 6.49091L11.1215 6.49087L10.6572 6.30518ZM9.87109 8.27002L10.3353 8.45579L10.3353 8.45575L9.87109 8.27002ZM7.66504 9.87256L7.69348 10.3717L7.69357 10.3717L7.66504 9.87256ZM5.09961 9.9624L5.09919 10.4624H5.09919L5.09961 9.9624ZM2.19531 9.84814L2.16434 10.3472L2.16437 10.3472L2.19531 9.84814ZM1 8.56787H0.5V8.56799L1 8.56787ZM3.77051 4.64404V5.14404C3.9377 5.14404 4.09384 5.06047 4.18656 4.92135L3.77051 4.64404ZM5.09961 2.6499L5.51567 2.92721C5.52721 2.90989 5.53766 2.89186 5.54696 2.87324L5.09961 2.6499ZM5.42188 2.00439L5.86916 2.22786C5.9516 2.06285 6.17794 2.04087 6.29056 2.18597L6.68555 1.87939L7.08053 1.57282C6.51601 0.845493 5.38579 0.957876 4.97459 1.78093L5.42188 2.00439ZM6.68555 1.87939L6.29087 2.18636L6.43443 2.37094L6.8291 2.06396L7.22378 1.75699L7.08022 1.57242L6.68555 1.87939ZM6.8291 2.06396L6.43392 2.37028C6.60708 2.59368 6.64872 2.89297 6.54301 3.15557L7.00684 3.34229L7.47066 3.529C7.70896 2.93705 7.61545 2.2623 7.22429 1.75765L6.8291 2.06396ZM7.00684 3.34229L6.54306 3.15544L6.18661 4.04021L6.65039 4.22705L7.11417 4.41389L7.47061 3.52913L7.00684 3.34229ZM6.65039 4.22705V4.72705H9.4541V4.22705V3.72705H6.65039V4.22705ZM9.4541 4.22705V4.72705C9.89378 4.72705 10.2498 5.08302 10.25 5.52215L10.75 5.52197L11.25 5.5218C11.2497 4.53003 10.4454 3.72705 9.4541 3.72705V4.22705ZM10.75 5.52197H10.25V5.82373H10.75H11.25V5.52197H10.75ZM10.75 5.82373L10.25 5.8237C10.25 5.92485 10.2306 6.02542 10.193 6.11948L10.6572 6.30518L11.1215 6.49087C11.2063 6.27886 11.25 6.05227 11.25 5.82376L10.75 5.82373ZM10.6572 6.30518L10.193 6.11944L9.40687 8.08428L9.87109 8.27002L10.3353 8.45575L11.1214 6.49091L10.6572 6.30518ZM9.87109 8.27002L9.40689 8.08425C9.11044 8.82503 8.42259 9.32844 7.63651 9.37337L7.66504 9.87256L7.69357 10.3717C8.87759 10.3041 9.89859 9.54708 10.3353 8.45579L9.87109 8.27002ZM7.66504 9.87256L7.6366 9.37337C6.82412 9.41966 5.85804 9.46304 5.10003 9.4624L5.09961 9.9624L5.09919 10.4624C5.88726 10.4631 6.87694 10.4183 7.69348 10.3717L7.66504 9.87256ZM5.09961 9.9624L5.10003 9.4624C4.23063 9.46167 3.08476 9.40233 2.22625 9.3491L2.19531 9.84814L2.16437 10.3472C3.02495 10.4005 4.19695 10.4616 5.09919 10.4624L5.09961 9.9624ZM2.19531 9.84814L2.22629 9.3491C1.81901 9.32383 1.5001 8.98454 1.5 8.56775L1 8.56787L0.5 8.56799C0.50022 9.50414 1.22123 10.2886 2.16434 10.3472L2.19531 9.84814ZM1 8.56787H1.5V5.93994H1H0.5V8.56787H1ZM1 5.93994H1.5C1.5 5.50042 1.85638 5.14404 2.2959 5.14404V4.64404V4.14404C1.30409 4.14404 0.5 4.94814 0.5 5.93994H1ZM2.2959 4.64404V5.14404H3.77051V4.64404V4.14404H2.2959V4.64404ZM3.77051 4.64404L4.18656 4.92135L5.51567 2.92721L5.09961 2.6499L4.68355 2.3726L3.35445 4.36674L3.77051 4.64404ZM5.09961 2.6499L5.54696 2.87324L5.86922 2.22773L5.42188 2.00439L4.97453 1.78106L4.65226 2.42657L5.09961 2.6499Z" fill="#1A1A1A"/>
<path fill-rule="evenodd" clip-rule="evenodd" d="M3.65918 4.6438V9.62982Z" fill="white"/>
<path d="M3.65918 4.6438V9.62982" stroke="#1A1A1A" stroke-linecap="round" stroke-linejoin="round"/>
</svg>
