<svg width="16" height="16" viewBox="0 0 16 16" fill="none" xmlns="http://www.w3.org/2000/svg">
<path d="M7.22949 2.67163L7.67671 2.89524L7.67673 2.89519L7.22949 2.67163ZM8.91406 2.50562L9.3095 2.19962L9.3091 2.19911L8.91406 2.50562ZM9.10449 2.75171L8.70906 3.0577L8.70938 3.05812L9.10449 2.75171ZM9.3418 4.45581L8.87797 4.26909L8.87793 4.26919L9.3418 4.45581ZM8.86719 5.6355L8.40332 5.44888C8.34133 5.60296 8.3599 5.77777 8.45287 5.9154C8.54585 6.05302 8.7011 6.1355 8.86719 6.1355V5.6355ZM12.6055 5.6355L12.6055 5.1355H12.6055V5.6355ZM14.209 8.40601L14.6732 8.59167L14.6732 8.59167L14.209 8.40601ZM13.1611 11.0261L13.6254 11.2118L13.6254 11.2118L13.1611 11.0261ZM10.2188 13.1628L10.2472 13.662H10.2472L10.2188 13.1628ZM6.79883 13.283L6.7984 13.783H6.79841L6.79883 13.283ZM2.92676 13.1306L2.89578 13.6297L2.89582 13.6297L2.92676 13.1306ZM1.33301 11.4236H0.833008V11.4237L1.33301 11.4236ZM3.06055 6.19214V5.69214H3.06048L3.06055 6.19214ZM5.02637 6.19214V6.69214C5.19356 6.69214 5.34969 6.60857 5.44242 6.46945L5.02637 6.19214ZM6.79883 3.53296L7.21488 3.81027C7.22637 3.79303 7.23678 3.7751 7.24604 3.75657L6.79883 3.53296ZM7.22949 2.67163L7.67673 2.89519C7.84138 2.56581 8.29343 2.52136 8.51903 2.81212L8.91406 2.50562L9.3091 2.19911C8.632 1.32644 7.27601 1.46029 6.78225 2.44807L7.22949 2.67163ZM8.91406 2.50562L8.51863 2.81161L8.70906 3.0577L9.10449 2.75171L9.49993 2.44572L9.3095 2.19962L8.91406 2.50562ZM9.10449 2.75171L8.70938 3.05812C8.97682 3.40297 9.04101 3.86407 8.87797 4.26909L9.3418 4.45581L9.80562 4.64253C10.1014 3.90789 9.98504 3.07126 9.4996 2.4453L9.10449 2.75171ZM9.3418 4.45581L8.87793 4.26919L8.40332 5.44888L8.86719 5.6355L9.33105 5.82212L9.80566 4.64243L9.3418 4.45581ZM8.86719 5.6355V6.1355H12.6055V5.6355V5.1355H8.86719V5.6355ZM12.6055 5.6355L12.6054 6.1355C13.2835 6.13558 13.833 6.6851 13.833 7.36304H14.333H14.833C14.833 6.13269 13.8357 5.13565 12.6055 5.1355L12.6055 5.6355ZM14.333 7.36304H13.833V7.7644H14.333H14.833V7.36304H14.333ZM14.333 7.7644H13.833C13.833 7.91983 13.803 8.07466 13.7447 8.22035L14.209 8.40601L14.6732 8.59167C14.7782 8.32926 14.833 8.0485 14.833 7.7644H14.333ZM14.209 8.40601L13.7447 8.22034L12.6969 10.8405L13.1611 11.0261L13.6254 11.2118L14.6732 8.59167L14.209 8.40601ZM13.1611 11.0261L12.6969 10.8404C12.2783 11.8867 11.3052 12.6001 10.1903 12.6637L10.2188 13.1628L10.2472 13.662C11.7599 13.5758 13.0664 12.609 13.6254 11.2118L13.1611 11.0261ZM10.2188 13.1628L10.1903 12.6637C9.10626 12.7254 7.81477 12.7838 6.79925 12.783L6.79883 13.283L6.79841 13.783C7.84412 13.7838 9.15935 13.724 10.2472 13.662L10.2188 13.1628ZM6.79883 13.283L6.79925 12.783C5.63462 12.782 4.10262 12.7026 2.9577 12.6316L2.92676 13.1306L2.89582 13.6297C4.0428 13.7008 5.60093 13.7819 6.7984 13.783L6.79883 13.283ZM2.92676 13.1306L2.95773 12.6316C2.32537 12.5923 1.83315 12.0657 1.83301 11.4235L1.33301 11.4236L0.833008 11.4237C0.833263 12.5854 1.72761 13.5571 2.89578 13.6297L2.92676 13.1306ZM1.33301 11.4236H1.83301V7.91968H1.33301H0.833008V11.4236H1.33301ZM1.33301 7.91968H1.83301C1.83301 7.24174 2.38253 6.69222 3.06061 6.69214L3.06055 6.19214L3.06048 5.69214C1.83034 5.69229 0.833008 6.68933 0.833008 7.91968H1.33301ZM3.06055 6.19214V6.69214H5.02637V6.19214V5.69214H3.06055V6.19214ZM5.02637 6.19214L5.44242 6.46945L7.21488 3.81027L6.79883 3.53296L6.38278 3.25564L4.61032 5.91482L5.02637 6.19214ZM6.79883 3.53296L7.24604 3.75657L7.67671 2.89524L7.22949 2.67163L6.78228 2.44802L6.35161 3.30935L6.79883 3.53296Z" fill="#1A1A1A"/>
<path fill-rule="evenodd" clip-rule="evenodd" d="M4.87891 6.19165V12.8397Z" fill="white"/>
<path d="M4.87891 6.19165V12.8397" stroke="#1A1A1A" stroke-linecap="round" stroke-linejoin="round"/>
</svg>
