<svg width="24" height="24" viewBox="0 0 24 24" fill="none" xmlns="http://www.w3.org/2000/svg">
<path d="M10.8447 4.0083L11.5155 4.34371L11.5157 4.3435L10.8447 4.0083ZM13.3721 3.75928L13.965 3.30002L13.9647 3.29964L13.3721 3.75928ZM13.6572 4.12744L13.0643 4.5867L13.0646 4.58708L13.6572 4.12744ZM14.0137 6.68311L13.3179 6.40314L13.3179 6.40317L14.0137 6.68311ZM13.3018 8.45264L12.606 8.1727C12.513 8.40383 12.5408 8.66605 12.6803 8.87249C12.8198 9.07893 13.0526 9.20264 13.3018 9.20264V8.45264ZM21.5 11.0444H22.25V11.0444L21.5 11.0444ZM21.3145 12.6099L20.6181 12.3313L20.6181 12.3314L21.3145 12.6099ZM19.7432 16.5396L20.4395 16.8181L20.4396 16.818L19.7432 16.5396ZM15.3291 19.7446L15.3718 20.4934H15.3718L15.3291 19.7446ZM10.1992 19.9243L10.1986 20.6743H10.1986L10.1992 19.9243ZM4.39062 19.6968L4.34417 20.4453L4.34422 20.4453L4.39062 19.6968ZM2 17.1353H1.25V17.1353L2 17.1353ZM2 11.8794L1.25 11.8794V11.8794H2ZM7.54004 9.2876V10.0376C7.79079 10.0376 8.02495 9.91229 8.16405 9.70366L7.54004 9.2876ZM10.1992 5.29932L10.8232 5.71538C10.8405 5.68949 10.8561 5.66255 10.87 5.63473L10.1992 5.29932ZM10.8447 4.0083L11.5157 4.3435C11.7626 3.84927 12.441 3.78253 12.7794 4.21891L13.3721 3.75928L13.9647 3.29964C12.9491 1.99013 10.9143 2.19084 10.1738 3.67311L10.8447 4.0083ZM13.3721 3.75928L12.7791 4.21853L13.0643 4.5867L13.6572 4.12744L14.2502 3.66818L13.965 3.30002L13.3721 3.75928ZM13.6572 4.12744L13.0646 4.58708C13.4658 5.10443 13.5622 5.79583 13.3179 6.40314L14.0137 6.68311L14.7095 6.96307C15.1529 5.86102 14.9779 4.60646 14.2499 3.66781L13.6572 4.12744ZM14.0137 6.68311L13.3179 6.40317L12.606 8.1727L13.3018 8.45264L13.9976 8.73257L14.7095 6.96304L14.0137 6.68311ZM13.3018 8.45264V9.20264H18.9082V8.45264V7.70264H13.3018V8.45264ZM18.9082 8.45264V9.20264C19.9251 9.20264 20.7499 10.0274 20.75 11.0445L21.5 11.0444L22.25 11.0444C22.2498 9.19908 20.7537 7.70264 18.9082 7.70264V8.45264ZM21.5 11.0444H20.75V11.647H21.5H22.25V11.0444H21.5ZM21.5 11.647H20.75C20.75 11.8811 20.7052 12.1136 20.6181 12.3313L21.3145 12.6099L22.0108 12.8884C22.1686 12.4938 22.25 12.0723 22.25 11.647H21.5ZM21.3145 12.6099L20.6181 12.3314L19.0468 16.2611L19.7432 16.5396L20.4396 16.818L22.0108 12.8883L21.3145 12.6099ZM19.7432 16.5396L19.0468 16.261C18.419 17.8304 16.9589 18.9006 15.2864 18.9958L15.3291 19.7446L15.3718 20.4934C17.6407 20.3641 19.6011 18.9141 20.4395 16.8181L19.7432 16.5396ZM15.3291 19.7446L15.2864 18.9958C13.6605 19.0885 11.7234 19.1756 10.1998 19.1743L10.1992 19.9243L10.1986 20.6743C11.7672 20.6756 13.7397 20.5864 15.3718 20.4934L15.3291 19.7446ZM10.1992 19.9243L10.1998 19.1743C8.45269 19.1728 6.15425 19.0547 4.43703 18.9482L4.39062 19.6968L4.34422 20.4453C6.06518 20.552 8.40246 20.6728 10.1986 20.6743L10.1992 19.9243ZM4.39062 19.6968L4.43708 18.9482C3.48873 18.8894 2.75011 18.0989 2.75 17.1352L2 17.1353L1.25 17.1353C1.2502 18.8777 2.5915 20.3366 4.34417 20.4453L4.39062 19.6968ZM2 17.1353H2.75V11.8794H2H1.25V17.1353H2ZM2 11.8794L2.75 11.8794C2.75004 10.8623 3.57475 10.0376 4.5918 10.0376V9.2876V8.5376C2.74626 8.5376 1.25007 10.0339 1.25 11.8794L2 11.8794ZM4.5918 9.2876V10.0376H7.54004V9.2876V8.5376H4.5918V9.2876ZM7.54004 9.2876L8.16405 9.70366L10.8232 5.71538L10.1992 5.29932L9.5752 4.88326L6.91602 8.87154L7.54004 9.2876ZM10.1992 5.29932L10.87 5.63473L11.5155 4.34371L10.8447 4.0083L10.1739 3.67289L9.5284 4.96391L10.1992 5.29932Z" fill="#1A1A1A"/>
<path fill-rule="evenodd" clip-rule="evenodd" d="M7.31836 9.28735V19.2594Z" fill="white"/>
<path d="M7.31836 9.28735V19.2594" stroke="#1A1A1A" stroke-width="1.5" stroke-linecap="round" stroke-linejoin="round"/>
</svg>
