<svg width="32" height="32" viewBox="0 0 32 32" fill="none" xmlns="http://www.w3.org/2000/svg">
<path d="M14.459 5.34375L13.6763 4.95261L13.6763 4.95262L14.459 5.34375ZM17.8281 5.01172L18.5196 4.47557L18.5195 4.4754L17.8281 5.01172ZM18.209 5.50293L17.5175 6.03908L17.5176 6.03917L18.209 5.50293ZM18.6846 8.91113L19.4962 9.23801L19.4963 9.23779L18.6846 8.91113ZM17.7344 11.2705L16.9227 10.9436C16.8141 11.2133 16.8465 11.5193 17.0092 11.7602C17.1719 12.0011 17.4437 12.1455 17.7344 12.1455V11.2705ZM25.2109 11.2705L25.211 10.3955H25.2109V11.2705ZM28.4189 16.8125L29.2314 17.1374L29.2314 17.1374L28.4189 16.8125ZM26.3232 22.0527L27.1356 22.3777L27.1357 22.3776L26.3232 22.0527ZM20.4385 26.3262L20.4882 27.1998L20.4883 27.1998L20.4385 26.3262ZM13.5986 26.5654L13.5979 27.4404H13.5979L13.5986 26.5654ZM5.85352 26.2627L5.79933 27.136L5.79937 27.136L5.85352 26.2627ZM2.66602 22.8467H1.79102V22.8467L2.66602 22.8467ZM2.66602 15.8389L1.79102 15.8387V15.8389H2.66602ZM6.12109 12.3838V11.5088H6.12098L6.12109 12.3838ZM10.0527 12.3838V13.2588C10.3453 13.2588 10.6185 13.1126 10.7808 12.8692L10.0527 12.3838ZM13.5986 7.06543L14.3267 7.55082C14.3468 7.52057 14.3651 7.48909 14.3813 7.45656L13.5986 7.06543ZM14.459 5.34375L15.2417 5.73489C15.6121 4.99369 16.6291 4.89362 17.1368 5.54804L17.8281 5.01172L18.5195 4.4754C17.2217 2.80248 14.6226 3.05898 13.6763 4.95261L14.459 5.34375ZM17.8281 5.01172L17.1366 5.54787L17.5175 6.03908L18.209 5.50293L18.9005 4.96678L18.5196 4.47557L17.8281 5.01172ZM18.209 5.50293L17.5176 6.03917C18.0799 6.76426 18.2152 7.73364 17.8728 8.58447L18.6846 8.91113L19.4963 9.23779C20.0711 7.80941 19.8438 6.18304 18.9004 4.96669L18.209 5.50293ZM18.6846 8.91113L17.8729 8.58426L16.9227 10.9436L17.7344 11.2705L18.546 11.5974L19.4962 9.23801L18.6846 8.91113ZM17.7344 11.2705V12.1455H25.2109V11.2705V10.3955H17.7344V11.2705ZM25.2109 11.2705L25.2108 12.1455C26.6357 12.1457 27.791 13.3013 27.791 14.7266H28.666H29.541C29.541 12.3352 27.6027 10.3958 25.211 10.3955L25.2109 11.2705ZM28.666 14.7266H27.791V15.5293H28.666H29.541V14.7266H28.666ZM28.666 15.5293H27.791C27.791 15.8575 27.7284 16.1829 27.6065 16.4876L28.4189 16.8125L29.2314 17.1374C29.4359 16.626 29.541 16.0801 29.541 15.5293H28.666ZM28.4189 16.8125L27.6065 16.4876L25.5108 21.7278L26.3232 22.0527L27.1357 22.3776L29.2314 17.1374L28.4189 16.8125ZM26.3232 22.0527L25.5108 21.7277C24.6562 23.8641 22.6681 25.3226 20.3887 25.4526L20.4385 26.3262L20.4883 27.1998C23.4637 27.0301 26.0353 25.1282 27.1356 22.3777L26.3232 22.0527ZM20.4385 26.3262L20.3887 25.4526C18.2204 25.5761 15.6345 25.6921 13.5994 25.6904L13.5986 26.5654L13.5979 27.4404C15.6856 27.4422 18.3127 27.3237 20.4882 27.1998L20.4385 26.3262ZM13.5986 26.5654L13.5994 25.6904C11.2656 25.6885 8.19743 25.5313 5.90766 25.3894L5.85352 26.2627L5.79937 27.136C8.0939 27.2783 11.2072 27.4384 13.5979 27.4404L13.5986 26.5654ZM5.85352 26.2627L5.9077 25.3894C4.57623 25.3068 3.54104 24.1968 3.54102 22.8467L2.66602 22.8467L1.79102 22.8467C1.79105 25.1051 3.52919 26.9952 5.79933 27.136L5.85352 26.2627ZM2.66602 22.8467H3.54102V15.8389H2.66602H1.79102V22.8467H2.66602ZM2.66602 15.8389L3.54102 15.839C3.54121 14.4141 4.69631 13.259 6.1212 13.2588L6.12109 12.3838L6.12098 11.5088C3.72974 11.5091 1.79134 13.4475 1.79102 15.8387L2.66602 15.8389ZM6.12109 12.3838V13.2588H10.0527V12.3838V11.5088H6.12109V12.3838ZM10.0527 12.3838L10.7808 12.8692L14.3267 7.55082L13.5986 7.06543L12.8706 6.58004L9.32471 11.8984L10.0527 12.3838ZM13.5986 7.06543L14.3813 7.45656L15.2417 5.73488L14.459 5.34375L13.6763 4.95262L12.8159 6.6743L13.5986 7.06543Z" fill="#1A1A1A"/>
<path fill-rule="evenodd" clip-rule="evenodd" d="M9.75684 12.3835V25.6796Z" fill="white"/>
<path d="M9.75684 12.3835V25.6796" stroke="#1A1A1A" stroke-width="1.75" stroke-linecap="round" stroke-linejoin="round"/>
</svg>
