<svg width="12" height="12" viewBox="0 0 12 12" fill="none" xmlns="http://www.w3.org/2000/svg">
<path d="M2.16016 10.9609L2.33567 11.4291L2.33591 11.429L2.16016 10.9609ZM1.3877 10.1885L1.85592 10.3639L1.85603 10.3636L1.3877 10.1885ZM1.76102 8.64457L1.32411 8.8877L1.76102 8.64457ZM3.69495 10.593L3.44819 11.0279L3.69495 10.593ZM3.2483 10.5524L3.07255 10.0843L3.2483 10.5524ZM6.1875 1.125V1.625C8.7073 1.625 10.75 3.6677 10.75 6.1875H11.25H11.75C11.75 3.11542 9.25958 0.625 6.1875 0.625V1.125ZM11.25 6.1875H10.75C10.75 8.7073 8.7073 10.75 6.1875 10.75V11.25V11.75C9.25958 11.75 11.75 9.25958 11.75 6.1875H11.25ZM6.1875 11.25V10.75C5.37018 10.75 4.60475 10.5343 3.9417 10.1581L3.69495 10.593L3.44819 11.0279C4.25692 11.4867 5.19175 11.75 6.1875 11.75V11.25ZM3.2483 10.5524L3.07255 10.0843L1.9844 10.4928L2.16016 10.9609L2.33591 11.429L3.42405 11.0205L3.2483 10.5524ZM2.16016 10.9609L1.98464 10.4928C1.90453 10.5228 1.82572 10.4445 1.85592 10.3639L1.3877 10.1885L0.91947 10.0131C0.588371 10.8969 1.4513 11.7607 2.33567 11.4291L2.16016 10.9609ZM1.3877 10.1885L1.85603 10.3636L2.26796 9.26186L1.79963 9.08675L1.3313 8.91164L0.919362 10.0134L1.3877 10.1885ZM1.76102 8.64457L2.19794 8.40145C1.83323 7.74605 1.625 6.99184 1.625 6.1875H1.125H0.625C0.625 7.16676 0.878998 8.08779 1.32411 8.8877L1.76102 8.64457ZM1.125 6.1875H1.625C1.625 3.6677 3.6677 1.625 6.1875 1.625V1.125V0.625C3.11542 0.625 0.625 3.11542 0.625 6.1875H1.125ZM1.79963 9.08675L2.26796 9.26186C2.37806 8.9674 2.33815 8.65342 2.19794 8.40145L1.76102 8.64457L1.32411 8.8877C1.32895 8.89639 1.33069 8.90379 1.33111 8.9083C1.33149 8.9124 1.33076 8.91308 1.3313 8.91164L1.79963 9.08675ZM3.69495 10.593L3.9417 10.1581C3.68801 10.0142 3.37025 9.97251 3.07255 10.0843L3.2483 10.5524L3.42405 11.0205C3.42261 11.021 3.4233 11.0203 3.42744 11.0207C3.43199 11.0211 3.43947 11.0229 3.44819 11.0279L3.69495 10.593Z" fill="#1A1A1A"/>
<circle cx="3.5625" cy="6.1875" r="0.5625" fill="#1A1A1A"/>
<circle cx="6.1875" cy="6.1875" r="0.5625" fill="#1A1A1A"/>
<circle cx="8.8125" cy="6.1875" r="0.5625" fill="#1A1A1A"/>
</svg>
