<svg width="16" height="16" viewBox="0 0 16 16" fill="none" xmlns="http://www.w3.org/2000/svg">
<path d="M2.87988 14.6143L3.0553 15.0825L3.05556 15.0824L2.87988 14.6143ZM1.85059 13.584L2.31875 13.7595L2.31878 13.7595L1.85059 13.584ZM4.92622 14.124L4.67946 14.5588L4.92622 14.124ZM8.25 1.5V2C11.7018 2 14.5 4.79822 14.5 8.25H15H15.5C15.5 4.24594 12.2541 1 8.25 1V1.5ZM15 8.25H14.5C14.5 11.7018 11.7018 14.5 8.25 14.5V15V15.5C12.2541 15.5 15.5 12.2541 15.5 8.25H15ZM8.25 15V14.5C7.13035 14.5 6.08137 14.2046 5.17298 13.6891L4.92622 14.124L4.67946 14.5588C5.73359 15.157 6.95199 15.5 8.25 15.5V15ZM4.33077 14.0698L4.1551 13.6017L2.70421 14.1461L2.87988 14.6143L3.05556 15.0824L4.50645 14.5379L4.33077 14.0698ZM2.87988 14.6143L2.70447 14.146C2.46391 14.2362 2.22811 14.0012 2.31875 13.7595L1.85059 13.584L1.38242 13.4084C0.990789 14.4528 2.00981 15.4742 3.0553 15.0825L2.87988 14.6143ZM1.85059 13.584L2.31878 13.7595L2.86862 12.2924L2.40042 12.1169L1.93223 11.9415L1.38239 13.4085L1.85059 13.584ZM2.34906 11.5268L2.78591 11.2835C2.2858 10.3853 2 9.35183 2 8.25H1.5H1C1 9.52709 1.33174 10.7274 1.9122 11.77L2.34906 11.5268ZM1.5 8.25H2C2 4.79822 4.79822 2 8.25 2V1.5V1C4.24594 1 1 4.24594 1 8.25H1.5ZM2.40042 12.1169L2.86862 12.2924C2.99723 11.9493 2.95153 11.581 2.78591 11.2835L2.34906 11.5268L1.9122 11.77C1.94795 11.8342 1.94889 11.897 1.93223 11.9415L2.40042 12.1169ZM4.92622 14.124L5.17298 13.6891C4.87388 13.5194 4.50171 13.4716 4.1551 13.6017L4.33077 14.0698L4.50645 14.5379C4.55134 14.521 4.61487 14.5222 4.67946 14.5588L4.92622 14.124Z" fill="#1A1A1A"/>
<circle cx="4.75" cy="8.25" r="0.75" fill="#1A1A1A"/>
<circle cx="8.25" cy="8.25" r="0.75" fill="#1A1A1A"/>
<circle cx="11.75" cy="8.25" r="0.75" fill="#1A1A1A"/>
</svg>
