<svg width="24" height="24" viewBox="0 0 24 24" fill="none" xmlns="http://www.w3.org/2000/svg">
<path d="M3.77051 21.5605L4.02038 22.2677L4.02045 22.2677L3.77051 21.5605ZM2.23926 20.0293L2.94641 20.2792L2.94644 20.2791L2.23926 20.0293ZM3.16852 17.3984L2.46133 17.1486L3.16852 17.3984ZM3.10227 16.5628L3.76926 16.2198L3.10227 16.5628ZM7.15953 20.7511L6.79585 21.4071L7.15953 20.7511ZM6.29421 20.6685L6.04427 19.9614L6.29421 20.6685ZM12 2V2.75C17.1086 2.75 21.25 6.89137 21.25 12H22H22.75C22.75 6.06294 17.9371 1.25 12 1.25V2ZM22 12H21.25C21.25 17.1086 17.1086 21.25 12 21.25V22V22.75C17.9371 22.75 22.75 17.9371 22.75 12H22ZM12 22V21.25C10.3745 21.25 8.84932 20.8305 7.52321 20.0952L7.15953 20.7511L6.79585 21.4071C8.33835 22.2623 10.1131 22.75 12 22.75V22ZM6.29421 20.6685L6.04427 19.9614L3.52057 20.8534L3.77051 21.5605L4.02045 22.2677L6.54415 21.3756L6.29421 20.6685ZM3.77051 21.5605L3.52063 20.8534C3.16396 20.9794 2.82037 20.6358 2.94641 20.2792L2.23926 20.0293L1.53211 19.7794C0.98596 21.325 2.47479 22.8138 4.02038 22.2677L3.77051 21.5605ZM2.23926 20.0293L2.94644 20.2791L3.8757 17.6481L3.16852 17.3984L2.46133 17.1486L1.53207 19.7795L2.23926 20.0293ZM3.10227 16.5628L3.76926 16.2198C3.11877 14.9548 2.75 13.5216 2.75 12H2H1.25C1.25 13.7669 1.67882 15.4346 2.43528 16.9058L3.10227 16.5628ZM2 12H2.75C2.75 6.89137 6.89137 2.75 12 2.75V2V1.25C6.06294 1.25 1.25 6.06294 1.25 12H2ZM3.16852 17.3984L3.8757 17.6481C4.04742 17.162 3.98834 16.6459 3.76926 16.2198L3.10227 16.5628L2.43528 16.9058C2.48254 16.9977 2.4836 17.0855 2.46133 17.1486L3.16852 17.3984ZM7.15953 20.7511L7.52321 20.0952C7.08754 19.8537 6.55016 19.7826 6.04427 19.9614L6.29421 20.6685L6.54415 21.3756C6.60966 21.3525 6.7015 21.3547 6.79585 21.4071L7.15953 20.7511Z" fill="#1A1A1A"/>
<circle cx="7.0498" cy="12.0498" r="1.25" fill="#1A1A1A"/>
<circle cx="12.0498" cy="12.0498" r="1.25" fill="#1A1A1A"/>
<circle cx="17.0498" cy="12.0498" r="1.25" fill="#1A1A1A"/>
</svg>
