<svg width="32" height="32" viewBox="0 0 32 32" fill="none" xmlns="http://www.w3.org/2000/svg">
<path d="M5.76074 29.2285L6.06798 30.0478L6.06807 30.0478L5.76074 29.2285ZM3.7002 27.1689L2.88091 26.8617L2.88083 26.8619L3.7002 27.1689ZM4.79966 24.237L5.61895 24.5443L4.79966 24.237ZM9.8495 28.2499L10.2813 27.4888L9.8495 28.2499ZM8.6586 28.1414L8.96593 28.9607V28.9607L8.6586 28.1414ZM16.5 3V3.875C23.4726 3.875 29.125 9.52741 29.125 16.5H30H30.875C30.875 8.56091 24.4391 2.125 16.5 2.125V3ZM30 16.5H29.125C29.125 23.4726 23.4726 29.125 16.5 29.125V30V30.875C24.4391 30.875 30.875 24.4391 30.875 16.5H30ZM16.5 30V29.125C14.2373 29.125 12.1163 28.5299 10.2813 27.4888L9.8495 28.2499L9.41775 29.011C11.5088 30.1972 13.9264 30.875 16.5 30.875V30ZM8.6586 28.1414L8.35127 27.3222L5.45341 28.4093L5.76074 29.2285L6.06807 30.0478L8.96593 28.9607L8.6586 28.1414ZM5.76074 29.2285L5.45351 28.4092C4.87041 28.6279 4.30132 28.0584 4.51956 27.476L3.7002 27.1689L2.88083 26.8619C2.13521 28.8517 4.0789 30.7937 6.06798 30.0478L5.76074 29.2285ZM3.7002 27.1689L4.51948 27.4762L5.61895 24.5443L4.79966 24.237L3.98037 23.9298L2.88091 26.8617L3.7002 27.1689ZM4.69697 23.0562L5.46147 22.6306C4.45122 20.816 3.875 18.7266 3.875 16.5H3H2.125C2.125 19.0324 2.78115 21.4139 3.93246 23.4818L4.69697 23.0562ZM3 16.5H3.875C3.875 9.52741 9.52741 3.875 16.5 3.875V3V2.125C8.56091 2.125 2.125 8.56091 2.125 16.5H3ZM4.79966 24.237L5.61895 24.5443C5.8624 23.8951 5.77651 23.1965 5.46147 22.6306L4.69697 23.0562L3.93246 23.4818C4.02028 23.6396 4.02772 23.8035 3.98037 23.9298L4.79966 24.237ZM9.8495 28.2499L10.2813 27.4888C9.71247 27.1662 9.00683 27.0762 8.35127 27.3222L8.6586 28.1414L8.96593 28.9607C9.09341 28.9128 9.25911 28.921 9.41775 29.011L9.8495 28.2499Z" fill="#1A1A1A"/>
<circle cx="9.5" cy="16.5" r="1.5" fill="#1A1A1A"/>
<circle cx="16.5" cy="16.5" r="1.5" fill="#1A1A1A"/>
<circle cx="23.5" cy="16.5" r="1.5" fill="#1A1A1A"/>
</svg>
