<svg preserveAspectRatio="none" width="100%" height="100%" overflow="visible" style="display: block;" viewBox="0 0 13.9007 13.9313" fill="none" xmlns="http://www.w3.org/2000/svg">
<path id="Subtract" fill-rule="evenodd" clip-rule="evenodd" d="M11.8173 13.2266C11.9139 13.6501 12.297 13.9313 12.7313 13.9313H13.4153C13.6383 13.9313 13.7919 13.6924 13.7197 13.4814C13.7037 13.4346 13.6875 13.3856 13.6711 13.3343C13.5894 13.0791 13.5129 12.7934 13.4415 12.477C13.37 12.1708 13.3088 11.8391 13.2577 11.4819C13.2169 11.1247 13.1965 10.7674 13.1965 10.4102V4.06183C13.1965 3.50955 12.7488 3.06183 12.1965 3.06183H4.99992C4.83423 3.06183 4.69992 3.19615 4.69992 3.36183V10.4102C4.69992 10.7776 4.6693 11.14 4.60806 11.4972C4.55703 11.8544 4.49069 12.1861 4.40904 12.4923C4.32739 12.7985 4.24064 13.074 4.14879 13.319C4.12422 13.3845 4.10038 13.4471 4.07727 13.5068C3.99915 13.7085 4.1462 13.9313 4.36254 13.9313H5.08142C5.51185 13.9313 5.89339 13.6556 6.00043 13.2386C6.05322 13.033 6.10961 12.7996 6.16959 12.5382C6.32269 11.9258 6.39923 11.2165 6.39923 10.4102V4.93868C6.39923 4.77299 6.53355 4.63868 6.69923 4.63868H11.1972C11.3629 4.63868 11.4972 4.77299 11.4972 4.93868V10.4255C11.4972 11.2624 11.5584 11.982 11.6809 12.5841C11.7287 12.8232 11.7742 13.0373 11.8173 13.2266ZM2.11267 1.08077V6.56763L0.173783 7.46682C0.0678085 7.51597 0 7.62216 0 7.73898V8.86567C0 9.08562 0.228852 9.2308 0.427834 9.13707L2.11267 8.34349V9.55292C2.11267 9.86931 2.06164 10.2112 1.95958 10.5786C1.85751 10.9358 1.71463 11.3084 1.53092 11.6962C1.35741 12.0738 1.14819 12.4515 0.903241 12.8291C0.774725 13.0326 0.639186 13.2304 0.496623 13.4227C0.344157 13.6283 0.48608 13.9313 0.742044 13.9313H1.75603C2.05018 13.9313 2.33331 13.8045 2.50401 13.565C2.6234 13.3974 2.7379 13.2185 2.84751 13.0281C3.04142 12.6913 3.20982 12.3392 3.35271 11.9718C3.49559 11.5941 3.60786 11.2063 3.68951 10.8083C3.78136 10.4102 3.82729 10.0224 3.82729 9.64477V2.65761C3.82729 2.49193 3.96161 2.35761 4.12729 2.35761H13.6007C13.7664 2.35761 13.9007 2.2233 13.9007 2.05761V1.08077C13.9007 0.915083 13.7664 0.780768 13.6007 0.780768H9.0171C8.97628 0.637882 8.93545 0.5001 8.89463 0.367421C8.88131 0.30527 8.86703 0.24698 8.85178 0.192553C8.81868 0.0744303 8.70702 0 8.58435 0H7.08417C6.89342 0 6.75438 0.181555 6.79727 0.367421C6.82789 0.5001 6.85851 0.637882 6.88913 0.780768H2.41267C2.24698 0.780768 2.11267 0.915083 2.11267 1.08077ZM0.402379 5.46825C0.418042 5.62262 0.547461 5.74094 0.702621 5.74094H1.52091C1.6984 5.74094 1.83713 5.58771 1.81861 5.41119C1.77498 4.99534 1.72501 4.55412 1.6687 4.08755C1.60942 3.59635 1.54662 3.14381 1.48031 2.72991C1.45717 2.58549 1.33207 2.48008 1.18581 2.48008H0.4147C0.234843 2.48008 0.0954447 2.63724 0.115841 2.81594C0.133361 2.96943 0.150882 3.12795 0.168402 3.29147C0.209227 3.57724 0.244948 3.86811 0.275566 4.16409C0.306184 4.44986 0.331699 4.73053 0.352111 5.0061C0.37076 5.16772 0.387516 5.32177 0.402379 5.46825Z" fill="var(--fill-0, #1A1A1A)"/>
</svg>
