<svg preserveAspectRatio="none" width="100%" height="100%" overflow="visible" style="display: block;" viewBox="0 0 13.0735 13.9313" fill="none" xmlns="http://www.w3.org/2000/svg">
<path id="Vector" d="M11.2745 6.96567C11.981 6.96567 12.4647 7.67855 12.186 8.32779C12.0612 8.61849 11.9373 8.89929 11.8141 9.17019C11.508 9.83359 11.2069 10.4511 10.9109 11.0226C10.6149 11.5839 10.319 12.0993 10.023 12.5688C9.82233 12.894 9.61934 13.2075 9.41401 13.5092C9.23231 13.7762 8.92807 13.9313 8.60511 13.9313H6.78353C6.53298 13.9313 6.39189 13.6416 6.54271 13.4416C7.071 12.7408 7.54217 12.0467 7.95623 11.3594C8.38966 10.6455 8.78062 9.9352 9.12912 9.2284C9.22634 9.03124 9.08146 8.80277 8.86163 8.80277H0.647579C0.481893 8.80277 0.347579 8.66845 0.347579 8.50277V7.26567C0.347579 7.09998 0.481893 6.96567 0.647579 6.96567H11.2745ZM0.301768 5.58784C0.0330033 5.58784 -0.100858 5.26087 0.0890509 5.07068C0.397157 4.76213 0.692558 4.45994 0.975255 4.16409C1.42432 3.70482 1.84788 3.25065 2.24592 2.80158C2.64395 2.3423 3.02158 1.88303 3.37879 1.42375C3.62755 1.10393 3.86887 0.776681 4.10278 0.442009C4.29432 0.167956 4.60534 0 4.93969 0H8.26912C8.59162 0 8.89354 0.156039 9.08542 0.415243C9.56062 1.05716 10.1079 1.75054 10.7272 2.49539C11.3717 3.26182 12.1277 4.12487 12.9951 5.08454C13.1699 5.27793 13.0332 5.58784 12.7725 5.58784H10.9179C10.6223 5.58784 10.3418 5.45709 10.1521 5.23037C9.51979 4.47446 8.9256 3.75672 8.36958 3.07714C7.83376 2.40305 7.32722 1.72895 6.84994 1.05486C6.72674 0.880848 6.46616 0.884522 6.34709 1.06138C5.84429 1.80822 5.30393 2.53627 4.726 3.24554C4.15507 3.95701 3.56902 4.63446 2.96785 5.27789C2.78175 5.47708 2.52044 5.58784 2.24784 5.58784H0.301768ZM6.05889 6.32268C5.91589 6.32268 5.79297 6.2217 5.76342 6.08179C5.67196 5.64883 5.566 5.20862 5.44553 4.76115C5.35353 4.38607 5.25417 4.03797 5.14744 3.71687C5.08117 3.51747 5.22676 3.30678 5.43688 3.30678H7.19651C7.32191 3.30678 7.43431 3.38462 7.47604 3.50287C7.58996 3.82564 7.7143 4.21445 7.84907 4.66929C7.97637 5.09895 8.09127 5.5286 8.19377 5.95825C8.2383 6.14494 8.09567 6.32268 7.90374 6.32268H6.05889Z" fill="var(--fill-0, #1A1A1A)"/>
</svg>
