<svg preserveAspectRatio="none" width="100%" height="100%" overflow="visible" style="display: block;" viewBox="0 0 13.8854 13.9313" fill="none" xmlns="http://www.w3.org/2000/svg">
<path id="Vector" d="M6.92465 13.9313C6.37236 13.9313 5.92465 13.4836 5.92465 12.9313V4.87744C5.92465 4.71175 6.05896 4.57744 6.22465 4.57744H12.3496C12.9019 4.57744 13.3496 5.02515 13.3496 5.57744V7.66989C13.3496 8.22102 13.2935 8.74664 13.1812 9.24673C13.1146 9.54326 13.0265 9.82006 12.9169 10.0771C12.7796 10.399 12.4469 10.5786 12.097 10.5786H11.0249C10.7558 10.5786 10.6137 10.2416 10.7719 10.0239C10.9445 9.7865 11.0791 9.54275 11.1757 9.29266C11.3594 8.84359 11.4513 8.30777 11.4513 7.6852V6.54614C11.4513 6.38045 11.3169 6.24614 11.1513 6.24614H8.24546C8.07977 6.24614 7.94546 6.38045 7.94546 6.54614V11.9473C7.94546 12.113 8.07977 12.2473 8.24546 12.2473H13.5854C13.7511 12.2473 13.8854 12.3816 13.8854 12.5473V12.9313C13.8854 13.4836 13.4377 13.9313 12.8854 13.9313H6.92465ZM1.57684 2.28107V0.3C1.57684 0.134314 1.71116 0 1.87684 0H3.34358C3.50927 0 3.64358 0.134315 3.64358 0.3V2.28107H4.81326C4.97895 2.28107 5.11326 2.41538 5.11326 2.58107V3.66507C5.11326 3.83076 4.97895 3.96507 4.81326 3.96507H3.64358V6.65949L4.83912 6.3899C5.02672 6.3476 5.20511 6.49025 5.20511 6.68255V7.90459C5.20511 8.04485 5.10793 8.16639 4.9711 8.19724L3.64358 8.49659V10.0122C3.64358 10.8695 3.58744 11.635 3.47518 12.3086C3.40689 12.7121 3.31784 13.0703 3.20802 13.3832C3.08601 13.7308 2.7401 13.9313 2.3717 13.9313H1.12295C0.881099 13.9313 0.734237 13.6564 0.847403 13.4426C1.3337 12.5242 1.57684 11.3807 1.57684 10.0122V8.95586L0.362665 9.2152C0.175964 9.25508 0 9.11273 0 8.92182V7.69825C0 7.55671 0.098922 7.43443 0.237336 7.40487L1.57684 7.11876V3.96507H0.3C0.134315 3.96507 0 3.83076 0 3.66507V2.58107C0 2.41538 0.134315 2.28107 0.3 2.28107H1.57684ZM11.7343 4.24064C11.634 4.24064 11.5402 4.19057 11.4851 4.10676C11.1313 3.56889 10.8036 3.02666 10.5021 2.48008C10.2607 2.02841 10.0341 1.5589 9.82241 1.07157C9.75058 0.906216 9.51031 0.907004 9.43878 1.07249C9.22995 1.55564 8.99753 2.02994 8.74153 2.49539C8.43253 3.05721 8.11494 3.59326 7.78876 4.10354C7.73399 4.18921 7.63913 4.24064 7.53745 4.24064H5.85402C5.60351 4.24064 5.46152 3.95029 5.60888 3.7477C5.74244 3.56408 5.87321 3.37628 6.00119 3.18431C6.25634 2.81689 6.49109 2.44947 6.70541 2.08205C6.91974 1.71463 7.11366 1.35231 7.28716 0.995096C7.42432 0.712712 7.54234 0.446273 7.64123 0.195778C7.68745 0.0787127 7.79949 0 7.92535 0H11.2136C11.3382 0 11.4494 0.0772531 11.4969 0.192478C11.5973 0.435908 11.7199 0.698344 11.8646 0.979786C12.0585 1.32679 12.2677 1.68911 12.4923 2.06674C12.727 2.44436 12.9669 2.82199 13.2118 3.19962C13.3448 3.39105 13.4763 3.57695 13.6065 3.7573C13.7512 3.95776 13.6092 4.24064 13.362 4.24064H11.7343Z" fill="var(--fill-0, #1A1A1A)"/>
</svg>
