<svg preserveAspectRatio="none" width="100%" height="100%" overflow="visible" style="display: block;" viewBox="0 0 11.3441 13.6252" fill="none" xmlns="http://www.w3.org/2000/svg">
<path id="Vector" d="M10.3441 0C10.8964 0 11.3441 0.447715 11.3441 1V12.6252C11.3441 13.1774 10.8964 13.6252 10.3441 13.6252H0.3C0.134315 13.6252 0 13.4908 0 13.3252V0.3C0 0.134315 0.134315 0 0.3 0H10.3441ZM8.87019 11.8493C9.03588 11.8493 9.17019 11.715 9.17019 11.5493V7.59334H2.45859C2.29291 7.59334 2.15859 7.72766 2.15859 7.89334V11.5493C2.15859 11.715 2.29291 11.8493 2.45859 11.8493H8.87019ZM2.15859 5.51748C2.15859 5.68317 2.29291 5.81748 2.45859 5.81748H9.17019V2.10648C9.17019 1.94079 9.03588 1.80648 8.87019 1.80648H2.45859C2.29291 1.80648 2.15859 1.94079 2.15859 2.10648V5.51748Z" fill="var(--fill-0, #1A1A1A)"/>
</svg>
