<svg width="12" height="12" viewBox="0 0 12 12" fill="none" xmlns="http://www.w3.org/2000/svg">
<path d="M5.56836 1.125C5.84444 1.12507 6.06836 1.3489 6.06836 1.625C6.06829 1.90104 5.8444 2.12493 5.56836 2.125H3.125C2.57272 2.12501 2.125 2.57272 2.125 3.125V8.91309C2.12523 9.46517 2.57287 9.91308 3.125 9.91309H8.91309C9.46509 9.91292 9.91285 9.46507 9.91309 8.91309V6.80762C9.91309 6.53148 10.137 6.30763 10.4131 6.30762C10.6891 6.30778 10.9131 6.53158 10.9131 6.80762V8.91309C10.9129 10.0174 10.0174 10.9129 8.91309 10.9131H3.125C2.02058 10.9131 1.12523 10.0175 1.125 8.91309V3.125C1.125 2.02044 2.02044 1.12501 3.125 1.125H5.56836ZM9.66309 1.125C10.3533 1.12517 10.9131 1.68475 10.9131 2.375V3.99121C10.9129 4.26707 10.6889 4.49104 10.4131 4.49121C10.1371 4.49121 9.9133 4.26717 9.91309 3.99121V2.83203L7.72461 5.02051C7.52941 5.21562 7.21283 5.21554 7.01758 5.02051C6.82234 4.82527 6.8224 4.50875 7.01758 4.31348L9.20605 2.125H8.04688C7.77077 2.125 7.54694 1.90109 7.54688 1.625C7.54688 1.34886 7.77073 1.125 8.04688 1.125H9.66309Z" fill="#1A1A1A"/>
</svg>
