<svg width="16" height="16" viewBox="0 0 16 16" fill="none" xmlns="http://www.w3.org/2000/svg">
<path d="M7.4248 1.6665C7.70082 1.6666 7.92474 1.89048 7.9248 2.1665C7.9248 2.44259 7.70086 2.66641 7.4248 2.6665H4.16699C3.33861 2.6665 2.66706 3.33813 2.66699 4.1665V11.8833C2.66699 12.7117 3.33856 13.3833 4.16699 13.3833H11.8838C12.7122 13.3833 13.3838 12.7117 13.3838 11.8833V9.07666C13.3839 8.80065 13.6078 8.57679 13.8838 8.57666C14.1599 8.57667 14.3837 8.80058 14.3838 9.07666V11.8833C14.3838 13.264 13.2645 14.3833 11.8838 14.3833H4.16699C2.78628 14.3833 1.66699 13.264 1.66699 11.8833V4.1665C1.66706 2.78585 2.78632 1.6665 4.16699 1.6665H7.4248ZM12.8838 1.6665C13.7121 1.66655 14.3837 2.33816 14.3838 3.1665V5.3208C14.3838 5.59691 14.1599 5.82075 13.8838 5.8208C13.6078 5.82064 13.3838 5.59685 13.3838 5.3208V3.37451L10.1816 6.57666C9.98646 6.77153 9.6698 6.77152 9.47461 6.57666C9.27944 6.38149 9.27964 6.06491 9.47461 5.86963L12.6777 2.6665H10.7295C10.4533 2.6665 10.2295 2.44265 10.2295 2.1665C10.2296 1.89042 10.4534 1.6665 10.7295 1.6665H12.8838Z" fill="#1A1A1A"/>
</svg>
