<svg width="24" height="24" viewBox="0 0 24 24" fill="none" xmlns="http://www.w3.org/2000/svg">
<path d="M11.1367 2.5C11.5508 2.50014 11.8867 2.83587 11.8867 3.25C11.8867 3.66413 11.5508 3.99986 11.1367 4H6.25C5.00736 4 4 5.00736 4 6.25V17.8252C4 19.0678 5.00736 20.0752 6.25 20.0752H17.8252C19.0678 20.0752 20.0752 19.0678 20.0752 17.8252V13.6152C20.0752 13.2011 20.4111 12.8654 20.8252 12.8652C21.2394 12.8652 21.5752 13.201 21.5752 13.6152V17.8252C21.5752 19.8963 19.8963 21.5752 17.8252 21.5752H6.25C4.17893 21.5752 2.5 19.8963 2.5 17.8252V6.25C2.5 4.17893 4.17893 2.5 6.25 2.5H11.1367ZM19.3252 2.5C20.5678 2.50005 21.5752 3.50739 21.5752 4.75V7.98145C21.5752 8.39563 21.2394 8.7314 20.8252 8.73145C20.4112 8.73121 20.0752 8.39551 20.0752 7.98145V5.06055L15.2715 9.86426C14.9786 10.1568 14.5038 10.1569 14.2109 9.86426C13.9185 9.57143 13.9184 9.0965 14.2109 8.80371L19.0146 4H16.0938C15.6795 4 15.3438 3.66421 15.3438 3.25C15.3438 2.83579 15.6795 2.5 16.0938 2.5H19.3252Z" fill="#1A1A1A"/>
</svg>
