<svg width="32" height="32" viewBox="0 0 32 32" fill="none" xmlns="http://www.w3.org/2000/svg">
<path d="M14.8486 3.45825C15.3317 3.45844 15.7236 3.85015 15.7236 4.33325C15.7236 4.81639 15.3317 5.20807 14.8486 5.20825H8.33301C6.60715 5.20825 5.20805 6.6074 5.20801 8.33325V23.7668C5.20801 25.4927 6.60712 26.8918 8.33301 26.8918H23.7666C25.4925 26.8918 26.8916 25.4927 26.8916 23.7668V18.1536C26.8916 17.6705 27.2836 17.2788 27.7666 17.2786C28.2498 17.2786 28.6416 17.6704 28.6416 18.1536V23.7668C28.6416 26.4592 26.459 28.6418 23.7666 28.6418H8.33301C5.64062 28.6418 3.45801 26.4592 3.45801 23.7668V8.33325C3.45805 5.6409 5.64065 3.45825 8.33301 3.45825H14.8486ZM25.7676 3.45825C27.3551 3.45854 28.6425 4.74565 28.6426 6.33325V10.6428C28.6424 11.1257 28.2504 11.5175 27.7676 11.5178C27.2845 11.5178 26.8928 11.1259 26.8926 10.6428V6.44556L20.2744 13.0637C19.9327 13.4054 19.3778 13.4054 19.0361 13.0637C18.6948 12.7221 18.6947 12.1681 19.0361 11.8264L25.6543 5.20825H21.458C20.9748 5.20825 20.583 4.8165 20.583 4.33325C20.5831 3.85004 20.9748 3.45825 21.458 3.45825H25.7676Z" fill="#1A1A1A"/>
</svg>
