<svg width="12" height="12" viewBox="0 0 12 12" fill="none" xmlns="http://www.w3.org/2000/svg">
<path d="M1.41003 4.31526C2.43283 1.73986 5.39807 0.422737 8.0487 1.40608C8.85456 1.70511 9.49385 2.16739 9.99987 2.74104V2.2469C9.99987 1.97086 10.2239 1.74824 10.4999 1.74983C10.776 1.75159 10.9999 1.97759 10.9999 2.25373V4.12873C10.9996 4.40465 10.7759 4.62658 10.4999 4.62483L8.62487 4.61311C8.34898 4.61116 8.125 4.3861 8.12487 4.11018C8.12487 3.83415 8.3489 3.61154 8.62487 3.61311L9.4237 3.61799C8.99036 3.05534 8.43405 2.61557 7.70105 2.34358C5.55279 1.54654 3.15921 2.62103 2.33972 4.6844C1.52917 6.72563 2.5195 8.85652 4.6737 9.65608C6.82205 10.4533 9.21558 9.37878 10.035 7.31526C10.137 7.05882 10.4279 6.9333 10.6844 7.03498C10.941 7.13687 11.0665 7.4278 10.9647 7.6844C9.94192 10.26 6.97681 11.5772 4.32605 10.5936C1.6815 9.61217 0.378489 6.913 1.41003 4.31526Z" fill="#1A1A1A"/>
</svg>
