<svg width="16" height="16" viewBox="0 0 16 16" fill="none" xmlns="http://www.w3.org/2000/svg">
<path d="M2.03714 5.78168C3.37298 2.37894 7.25367 0.628528 10.7295 1.93305C11.9035 2.37373 12.8063 3.08072 13.5 3.96332V2.99653C13.5002 2.72054 13.724 2.49867 14 2.50043C14.2761 2.50229 14.5 2.72728 14.5 3.00336V5.50336C14.5 5.77938 14.276 6.00209 14 6.00043L11.5 5.98383C11.2239 5.98207 11 5.75704 11 5.4809C11.0001 5.20477 11.2239 4.98207 11.5 4.98383L13.0098 4.99262C12.3808 4.0416 11.5358 3.30421 10.378 2.86957C7.41395 1.75717 4.1041 3.25266 2.96781 6.14692C1.83946 9.02196 3.2282 12.0154 6.20023 13.1313C9.16412 14.2438 12.4739 12.7479 13.6104 9.85395C13.7112 9.59706 14.0019 9.47017 14.2588 9.57074C14.5158 9.67162 14.6428 9.96219 14.542 10.2192C13.206 13.6217 9.32444 15.3725 5.84867 14.0678C2.3817 12.7662 0.694228 9.2033 2.03714 5.78168Z" fill="#1A1A1A"/>
</svg>
