<svg width="24" height="24" viewBox="0 0 24 24" fill="none" xmlns="http://www.w3.org/2000/svg">
<path d="M2.9244 8.49946C4.92336 3.46559 10.7428 0.980349 15.9078 2.89693C17.6844 3.55622 19.16 4.65271 20.2506 6.01411V4.02095C20.2506 3.60674 20.5864 3.27319 21.0006 3.27583C21.4147 3.27857 21.7506 3.61657 21.7506 4.03071V8.03071C21.7505 8.2294 21.6713 8.41939 21.5308 8.55904C21.3902 8.69875 21.1994 8.77705 21.0006 8.77583L17.0006 8.75044C16.5865 8.7478 16.2507 8.40966 16.2506 7.99556C16.2506 7.58135 16.5864 7.2478 17.0006 7.25044L19.317 7.26411C18.376 5.96845 17.0381 4.9165 15.3853 4.30318C10.9522 2.65843 6.00338 4.80886 4.31795 9.05318C2.63838 13.2839 4.8143 18.0569 9.23592 19.6977C13.669 21.3426 18.6177 19.1919 20.3033 14.9477C20.4562 14.563 20.8921 14.3752 21.2769 14.5278C21.6617 14.6807 21.8505 15.1166 21.6978 15.5014C19.6988 20.535 13.8793 23.0202 8.71444 21.104C3.53824 19.1832 0.920425 13.5467 2.9244 8.49946Z" fill="#1A1A1A"/>
</svg>
