<svg width="32" height="32" viewBox="0 0 32 32" fill="none" xmlns="http://www.w3.org/2000/svg">
<path d="M4.18531 11.7712C6.81626 5.06862 14.4607 1.61993 21.3074 4.19018C23.8289 5.13687 25.7143 6.70819 27.1248 8.67358V5.99389C27.125 5.51085 27.5167 5.12167 27.9998 5.12475C28.4829 5.12793 28.8748 5.52242 28.8748 6.00561V11.0056C28.8747 11.4887 28.4829 11.8777 27.9998 11.8747L22.9998 11.8435C22.5166 11.8404 22.1248 11.4458 22.1248 10.9626C22.1248 10.4794 22.5165 10.0904 22.9998 10.0935L25.991 10.1111C24.7277 8.19427 23.0263 6.70414 20.6921 5.82787C14.7413 3.59395 8.09596 6.59791 5.81422 12.4109C3.54579 18.1906 6.34182 24.2074 12.3074 26.447C18.2582 28.6809 24.9036 25.678 27.1853 19.865C27.3619 19.4154 27.8694 19.1935 28.3191 19.3699C28.7689 19.5464 28.9907 20.0548 28.8142 20.5046C26.1832 27.2071 18.5388 30.6559 11.6921 28.0857C4.86023 25.5208 1.54135 18.5073 4.18531 11.7712Z" fill="#1A1A1A"/>
</svg>
