<svg width="12" height="12" viewBox="0 0 12 12" fill="none" xmlns="http://www.w3.org/2000/svg">
<path d="M5.49512 10.1562L5.94233 9.93264L5.94236 9.93269L5.49512 10.1562ZM6.58594 10.2637L6.19092 9.95715L6.19133 9.95662L6.58594 10.2637ZM6.8291 9.95117L7.22428 10.2575L7.22371 10.2582L6.8291 9.95117ZM7.00684 8.67285L7.47061 8.48601L7.47066 8.48613L7.00684 8.67285ZM6.65039 7.78809L6.18661 7.97493C6.12453 7.82083 6.14304 7.64597 6.23601 7.50828C6.32898 7.3706 6.48426 7.28809 6.65039 7.28809V7.78809ZM10.75 6.19141L11.25 6.19139V6.19141H10.75ZM10.6572 5.70996L11.1214 5.52423L11.1215 5.52427L10.6572 5.70996ZM9.87109 3.74512L10.3353 3.55936L10.3353 3.55938L9.87109 3.74512ZM7.66504 2.14258L7.69348 1.64339L7.69357 1.64339L7.66504 2.14258ZM5.09961 2.05273L5.09919 1.55273H5.09919L5.09961 2.05273ZM2.19531 2.16699L2.16434 1.66795L2.16437 1.66795L2.19531 2.16699ZM1 3.44727H0.5V3.44717L1 3.44727ZM3.77051 7.37109V6.87109C3.9377 6.87109 4.09384 6.95466 4.18656 7.09379L3.77051 7.37109ZM5.09961 9.36523L5.51567 9.08793C5.52715 9.10517 5.53756 9.1231 5.54682 9.14163L5.09961 9.36523ZM5.49512 10.1562L5.94236 9.93269C5.99102 10.0301 6.12413 10.0432 6.19092 9.95715L6.58594 10.2637L6.98096 10.5702C6.46286 11.2379 5.42579 11.1358 5.04788 10.3798L5.49512 10.1562ZM6.58594 10.2637L6.19133 9.95662L6.43449 9.64412L6.8291 9.95117L7.22371 10.2582L6.98055 10.5707L6.58594 10.2637ZM6.8291 9.95117L6.43393 9.64485C6.60709 9.42145 6.64873 9.12219 6.54301 8.85957L7.00684 8.67285L7.47066 8.48613C7.70896 9.07809 7.61548 9.75283 7.22428 10.2575L6.8291 9.95117ZM7.00684 8.67285L6.54306 8.85969L6.18661 7.97493L6.65039 7.78809L7.11417 7.60124L7.47061 8.48601L7.00684 8.67285ZM6.65039 7.78809V7.28809H9.4541V7.78809V8.28809H6.65039V7.78809ZM9.4541 7.78809V7.28809C9.89362 7.28809 10.25 6.93171 10.25 6.49219H10.75H11.25C11.25 7.48399 10.4459 8.28809 9.4541 8.28809V7.78809ZM10.75 6.49219H10.25V6.19141H10.75H11.25V6.49219H10.75ZM10.75 6.19141L10.25 6.19142C10.25 6.09028 10.2306 5.98974 10.193 5.89566L10.6572 5.70996L11.1215 5.52427C11.2063 5.73628 11.25 5.96285 11.25 6.19139L10.75 6.19141ZM10.6572 5.70996L10.193 5.8957L9.40687 3.93085L9.87109 3.74512L10.3353 3.55938L11.1214 5.52423L10.6572 5.70996ZM9.87109 3.74512L9.40688 3.93088C9.11044 3.19009 8.42261 2.6867 7.6365 2.64176L7.66504 2.14258L7.69357 1.64339C8.87759 1.71107 9.8986 2.46803 10.3353 3.55936L9.87109 3.74512ZM7.66504 2.14258L7.6366 2.64177C6.82412 2.59548 5.85804 2.5521 5.10003 2.55273L5.09961 2.05273L5.09919 1.55273C5.88726 1.55207 6.87694 1.59687 7.69348 1.64339L7.66504 2.14258ZM5.09961 2.05273L5.10003 2.55273C4.23063 2.55346 3.08476 2.61281 2.22625 2.66603L2.19531 2.16699L2.16437 1.66795C3.02495 1.6146 4.19695 1.55349 5.09919 1.55273L5.09961 2.05273ZM2.19531 2.16699L2.22629 2.66603C1.81898 2.69131 1.50008 3.0306 1.5 3.44737L1 3.44727L0.5 3.44717C0.500188 2.51096 1.22123 1.72649 2.16434 1.66795L2.19531 2.16699ZM1 3.44727H1.5V6.0752H1H0.5V3.44727H1ZM1 6.0752H1.5C1.5 6.51472 1.85638 6.87109 2.2959 6.87109V7.37109V7.87109C1.30409 7.87109 0.5 7.067 0.5 6.0752H1ZM2.2959 7.37109V6.87109H3.77051V7.37109V7.87109H2.2959V7.37109ZM3.77051 7.37109L4.18656 7.09379L5.51567 9.08793L5.09961 9.36523L4.68355 9.64254L3.35445 7.6484L3.77051 7.37109ZM5.09961 9.36523L5.54682 9.14163L5.94233 9.93264L5.49512 10.1562L5.0479 10.3799L4.6524 9.58884L5.09961 9.36523Z" fill="#1A1A1A"/>
<path fill-rule="evenodd" clip-rule="evenodd" d="M3.65918 7.37085V2.38483Z" fill="white"/>
<path d="M3.65918 7.37085V2.38483" stroke="#1A1A1A" stroke-linecap="round" stroke-linejoin="round"/>
</svg>
