<svg width="16" height="16" viewBox="0 0 16 16" fill="none" xmlns="http://www.w3.org/2000/svg">
<path d="M7.32617 13.5417L7.77339 13.3181L7.77343 13.3182L7.32617 13.5417ZM8.78125 13.6853L9.17642 13.9916L9.17623 13.9919L8.78125 13.6853ZM9.10449 13.2683L8.70932 12.962L8.70939 12.9619L9.10449 13.2683ZM9.3418 11.5642L8.87797 11.7509L8.87793 11.7508L9.3418 11.5642ZM8.86719 10.3845L8.40332 10.5711C8.34133 10.4171 8.3599 10.2422 8.45287 10.1046C8.54585 9.967 8.7011 9.88452 8.86719 9.88452V10.3845ZM12.6055 10.3845L12.6055 10.8845H12.6055V10.3845ZM14.333 8.65698H14.833V8.65702L14.333 8.65698ZM14.209 7.61401L14.6732 7.42835L14.6733 7.42839L14.209 7.61401ZM13.1611 4.9939L13.6254 4.80819L13.6254 4.80823L13.1611 4.9939ZM10.2188 2.85718L10.2472 2.35799H10.2472L10.2188 2.85718ZM6.79883 2.73706L6.7984 2.23706H6.79841L6.79883 2.73706ZM2.92676 2.88843L2.8958 2.38939L2.89582 2.38939L2.92676 2.88843ZM1.33301 4.59644H0.833008V4.59636L1.33301 4.59644ZM1.33301 8.10034L0.833008 8.10035V8.10034H1.33301ZM3.06055 9.82788V10.3279H3.06048L3.06055 9.82788ZM5.02637 9.82788V9.32788C5.19356 9.32788 5.34969 9.41145 5.44242 9.55057L5.02637 9.82788ZM6.79883 12.4871L7.21488 12.2097C7.22637 12.227 7.23678 12.2449 7.24604 12.2635L6.79883 12.4871ZM7.32617 13.5417L7.77343 13.3182C7.89322 13.5579 8.22206 13.5903 8.38627 13.3787L8.78125 13.6853L9.17623 13.9919C8.56052 14.7851 7.32781 14.6635 6.87892 13.7653L7.32617 13.5417ZM8.78125 13.6853L8.38608 13.379L8.70932 12.962L9.10449 13.2683L9.49967 13.5746L9.17642 13.9916L8.78125 13.6853ZM9.10449 13.2683L8.70939 12.9619C8.97684 12.617 9.04103 12.156 8.87797 11.7509L9.3418 11.5642L9.80562 11.3775C10.1014 12.1121 9.98508 12.9488 9.49959 13.5747L9.10449 13.2683ZM9.3418 11.5642L8.87793 11.7508L8.40332 10.5711L8.86719 10.3845L9.33105 10.1979L9.80566 11.3776L9.3418 11.5642ZM8.86719 10.3845V9.88452H12.6055V10.3845V10.8845H8.86719V10.3845ZM12.6055 10.3845L12.6054 9.88452C13.2834 9.88444 13.833 9.33489 13.833 8.65695L14.333 8.65698L14.833 8.65702C14.8329 9.88725 13.8357 10.8844 12.6055 10.8845L12.6055 10.3845ZM14.333 8.65698H13.833V8.25562H14.333H14.833V8.65698H14.333ZM14.333 8.25562H13.833C13.833 8.10026 13.803 7.94534 13.7447 7.79964L14.209 7.61401L14.6733 7.42839C14.7781 7.69072 14.833 7.97153 14.833 8.25562H14.333ZM14.209 7.61401L13.7447 7.79968L12.6969 5.17956L13.1611 4.9939L13.6254 4.80823L14.6732 7.42835L14.209 7.61401ZM13.1611 4.9939L12.6969 5.17961C12.2783 4.13326 11.3052 3.41989 10.1903 3.35637L10.2188 2.85718L10.2472 2.35799C11.7599 2.44417 13.0664 3.41093 13.6254 4.80819L13.1611 4.9939ZM10.2188 2.85718L10.1903 3.35637C9.10626 3.29461 7.81477 3.23621 6.79925 3.23706L6.79883 2.73706L6.79841 2.23706C7.84412 2.23618 9.15935 2.29601 10.2472 2.35799L10.2188 2.85718ZM6.79883 2.73706L6.79925 3.23706C5.63447 3.23805 4.10229 3.31651 2.9577 3.38747L2.92676 2.88843L2.89582 2.38939C4.04313 2.31826 5.60108 2.23808 6.7984 2.23706L6.79883 2.73706ZM2.92676 2.88843L2.95772 3.38747C2.32564 3.42668 1.8331 3.95385 1.83301 4.59651L1.33301 4.59644L0.833008 4.59636C0.833177 3.43493 1.72721 2.46189 2.8958 2.38939L2.92676 2.88843ZM1.33301 4.59644H1.83301V8.10034H1.33301H0.833008V4.59644H1.33301ZM1.33301 8.10034L1.83301 8.10034C1.83301 8.77828 2.38253 9.3278 3.06061 9.32788L3.06055 9.82788L3.06048 10.3279C1.83034 10.3277 0.833017 9.33068 0.833008 8.10035L1.33301 8.10034ZM3.06055 9.82788V9.32788H5.02637V9.82788V10.3279H3.06055V9.82788ZM5.02637 9.82788L5.44242 9.55057L7.21488 12.2097L6.79883 12.4871L6.38278 12.7644L4.61032 10.1052L5.02637 9.82788ZM6.79883 12.4871L7.24604 12.2635L7.77339 13.3181L7.32617 13.5417L6.87896 13.7654L6.35161 12.7107L6.79883 12.4871Z" fill="#1A1A1A"/>
<path fill-rule="evenodd" clip-rule="evenodd" d="M4.87891 9.82788V3.17985Z" fill="white"/>
<path d="M4.87891 9.82788V3.17985" stroke="#1A1A1A" stroke-linecap="round" stroke-linejoin="round"/>
</svg>
