<svg width="24" height="24" viewBox="0 0 24 24" fill="none" xmlns="http://www.w3.org/2000/svg">
<path d="M10.9893 20.3125L10.3183 20.6477L10.3183 20.6476L10.9893 20.3125ZM13.1729 20.5273L13.7657 20.9868L13.7655 20.987L13.1729 20.5273ZM13.6572 19.9023L13.0644 19.4429L13.0646 19.4427L13.6572 19.9023ZM14.0137 17.3467L13.3179 17.6267L13.3179 17.6266L14.0137 17.3467ZM13.3018 15.5771L12.606 15.8571C12.513 15.626 12.5408 15.3637 12.6803 15.1573C12.8198 14.9509 13.0526 14.8271 13.3018 14.8271V15.5771ZM21.5 12.9854H22.25V12.9854L21.5 12.9854ZM21.5 12.3828L22.25 12.3828V12.3828H21.5ZM21.3145 11.4199L20.6181 11.6985L20.6181 11.6984L21.3145 11.4199ZM19.7432 7.49121L20.4395 7.21267L20.4395 7.2127L19.7432 7.49121ZM15.3291 4.28516L15.3718 3.53637H15.3718L15.3291 4.28516ZM10.1992 4.10547L10.1986 3.35547H10.1986L10.1992 4.10547ZM4.39062 4.33301L4.34418 3.58445L4.34422 3.58444L4.39062 4.33301ZM7.54004 14.7422V13.9922C7.79079 13.9922 8.02495 14.1175 8.16405 14.3261L7.54004 14.7422ZM10.1992 18.7305L10.8232 18.3144C10.8406 18.3404 10.8562 18.3674 10.8702 18.3954L10.1992 18.7305ZM10.9893 20.3125L11.6602 19.9773C11.8397 20.3367 12.3337 20.3855 12.5802 20.0677L13.1729 20.5273L13.7655 20.987C12.8423 22.1774 10.9918 21.9957 10.3183 20.6477L10.9893 20.3125ZM13.1729 20.5273L12.58 20.0679L13.0644 19.4429L13.6572 19.9023L14.25 20.3618L13.7657 20.9868L13.1729 20.5273ZM13.6572 19.9023L13.0646 19.4427C13.4659 18.9253 13.5623 18.234 13.3179 17.6267L14.0137 17.3467L14.7094 17.0667C15.153 18.1688 14.9778 19.4233 14.2499 20.362L13.6572 19.9023ZM14.0137 17.3467L13.3179 17.6266L12.606 15.8571L13.3018 15.5771L13.9976 15.2972L14.7095 17.0667L14.0137 17.3467ZM13.3018 15.5771V14.8271H18.9082V15.5771V16.3271H13.3018V15.5771ZM18.9082 15.5771V14.8271C19.9253 14.8271 20.75 14.0025 20.75 12.9853L21.5 12.9854L22.25 12.9854C22.25 14.8309 20.7537 16.3271 18.9082 16.3271V15.5771ZM21.5 12.9854H20.75V12.3828H21.5H22.25V12.9854H21.5ZM21.5 12.3828L20.75 12.3828C20.75 12.1487 20.7052 11.9161 20.6181 11.6985L21.3145 11.4199L22.0108 11.1414C22.1686 11.5359 22.25 11.9576 22.25 12.3828L21.5 12.3828ZM21.3145 11.4199L20.6181 11.6984L19.0468 7.76972L19.7432 7.49121L20.4395 7.2127L22.0108 11.1414L21.3145 11.4199ZM19.7432 7.49121L19.0468 7.76975C18.4189 6.20004 16.9587 5.12922 15.2864 5.03394L15.3291 4.28516L15.3718 3.53637C17.641 3.66566 19.6012 5.11682 20.4395 7.21267L19.7432 7.49121ZM15.3291 4.28516L15.2864 5.03394C13.6605 4.9413 11.7234 4.85419 10.1998 4.85547L10.1992 4.10547L10.1986 3.35547C11.7672 3.35415 13.7397 3.44339 15.3718 3.53637L15.3291 4.28516ZM10.1992 4.10547L10.1998 4.85547C8.45269 4.85694 6.15425 4.97511 4.43703 5.08157L4.39062 4.33301L4.34422 3.58444C6.06518 3.47775 8.40246 3.35698 10.1986 3.35547L10.1992 4.10547ZM4.39062 4.33301L4.43707 5.08157C3.48891 5.1404 2.75 5.93137 2.75 6.89551H2H1.25C1.25 5.15319 2.59111 3.69322 4.34418 3.58445L4.39062 4.33301ZM2 6.89551H2.75V12.1504H2H1.25V6.89551H2ZM2 12.1504H2.75C2.75 13.1675 3.57468 13.9922 4.5918 13.9922V14.7422V15.4922C2.74626 15.4922 1.25 13.9959 1.25 12.1504H2ZM4.5918 14.7422V13.9922H7.54004V14.7422V15.4922H4.5918V14.7422ZM7.54004 14.7422L8.16405 14.3261L10.8232 18.3144L10.1992 18.7305L9.5752 19.1465L6.91602 15.1582L7.54004 14.7422ZM10.1992 18.7305L10.8702 18.3954L11.6602 19.9774L10.9893 20.3125L10.3183 20.6476L9.52823 19.0655L10.1992 18.7305Z" fill="#1A1A1A"/>
<path fill-rule="evenodd" clip-rule="evenodd" d="M7.31836 14.7417V4.76966Z" fill="white"/>
<path d="M7.31836 14.7417V4.76966" stroke="#1A1A1A" stroke-width="1.5" stroke-linecap="round" stroke-linejoin="round"/>
</svg>
