<svg width="32" height="32" viewBox="0 0 32 32" fill="none" xmlns="http://www.w3.org/2000/svg">
<path d="M14.6523 27.083L15.435 26.6918L15.4351 26.6919L14.6523 27.083ZM17.5625 27.3701L16.8712 26.8338L16.8713 26.8336L17.5625 27.3701ZM18.209 26.5371L18.9004 27.0734L18.9002 27.0736L18.209 26.5371ZM18.6846 23.1289L19.4962 22.802L19.4963 22.8022L18.6846 23.1289ZM17.7344 20.7695L16.9227 21.0964C16.8141 20.8267 16.8465 20.5208 17.0092 20.2798C17.1719 20.0389 17.4437 19.8945 17.7344 19.8945V20.7695ZM25.2109 20.7695L25.211 21.6445H25.2109V20.7695ZM28.4189 15.2275L29.2314 14.9026L29.2314 14.9027L28.4189 15.2275ZM26.3232 9.9873L27.1356 9.6623L27.1357 9.66239L26.3232 9.9873ZM20.4385 5.71387L20.4882 4.84028L20.4883 4.84029L20.4385 5.71387ZM13.5986 5.47461L13.5979 4.59961H13.5979L13.5986 5.47461ZM5.85352 5.77734L5.79933 4.90402L5.79937 4.90402L5.85352 5.77734ZM2.66602 9.19336H1.79102V9.19334L2.66602 9.19336ZM2.66602 16.2012L1.79102 16.2013V16.2012H2.66602ZM6.12109 19.6562V20.5312H6.12098L6.12109 19.6562ZM10.0527 19.6562V18.7812C10.3453 18.7812 10.6185 18.9275 10.7808 19.1709L10.0527 19.6562ZM13.5986 24.9746L14.3267 24.4892C14.3468 24.5195 14.3651 24.5509 14.3813 24.5834L13.5986 24.9746ZM14.6523 27.083L15.4351 26.6919C15.7159 27.2539 16.4864 27.3297 16.8712 26.8338L17.5625 27.3701L18.2538 27.9065C17.0788 29.421 14.7261 29.1885 13.8696 27.4741L14.6523 27.083ZM17.5625 27.3701L16.8713 26.8336L17.5177 26.0006L18.209 26.5371L18.9002 27.0736L18.2537 27.9066L17.5625 27.3701ZM18.209 26.5371L17.5176 26.0009C18.0799 25.2758 18.2152 24.3064 17.8728 23.4556L18.6846 23.1289L19.4963 22.8022C20.0711 24.2306 19.8438 25.857 18.9004 27.0734L18.209 26.5371ZM18.6846 23.1289L17.8729 23.4558L16.9227 21.0964L17.7344 20.7695L18.546 20.4427L19.4962 22.802L18.6846 23.1289ZM17.7344 20.7695V19.8945H25.2109V20.7695V21.6445H17.7344V20.7695ZM25.2109 20.7695L25.2108 19.8945C26.6357 19.8944 27.791 18.7387 27.791 17.3135H28.666H29.541C29.541 19.7048 27.6027 21.6442 25.211 21.6445L25.2109 20.7695ZM28.666 17.3135H27.791V16.5107H28.666H29.541V17.3135H28.666ZM28.666 16.5107H27.791C27.791 16.1826 27.7284 15.8572 27.6065 15.5524L28.4189 15.2275L29.2314 14.9027C29.4359 15.414 29.541 15.9599 29.541 16.5107H28.666ZM28.4189 15.2275L27.6065 15.5525L25.5108 10.3122L26.3232 9.9873L27.1357 9.66239L29.2314 14.9026L28.4189 15.2275ZM26.3232 9.9873L25.5108 10.3123C24.6562 8.17591 22.6681 6.71742 20.3887 6.58745L20.4385 5.71387L20.4883 4.84029C23.4637 5.00994 26.0353 6.91181 27.1356 9.6623L26.3232 9.9873ZM20.4385 5.71387L20.3887 6.58745C18.2204 6.46391 15.6345 6.34791 13.5994 6.34961L13.5986 5.47461L13.5979 4.59961C15.6856 4.59787 18.3127 4.71633 20.4882 4.84028L20.4385 5.71387ZM13.5986 5.47461L13.5994 6.34961C11.2656 6.35157 8.19743 6.50871 5.90766 6.65067L5.85352 5.77734L5.79937 4.90402C8.0939 4.76177 11.2072 4.60161 13.5979 4.59961L13.5986 5.47461ZM5.85352 5.77734L5.9077 6.65066C4.57623 6.73328 3.54104 7.84322 3.54102 9.19337L2.66602 9.19336L1.79102 9.19334C1.79105 6.93493 3.52919 5.04488 5.79933 4.90402L5.85352 5.77734ZM2.66602 9.19336H3.54102V16.2012H2.66602H1.79102V9.19336H2.66602ZM2.66602 16.2012L3.54102 16.2011C3.54121 17.626 4.69631 18.7811 6.1212 18.7812L6.12109 19.6562L6.12098 20.5312C3.72974 20.5309 1.79134 18.5925 1.79102 16.2013L2.66602 16.2012ZM6.12109 19.6562V18.7812H10.0527V19.6562V20.5312H6.12109V19.6562ZM10.0527 19.6562L10.7808 19.1709L14.3267 24.4892L13.5986 24.9746L12.8706 25.46L9.32471 20.1416L10.0527 19.6562ZM13.5986 24.9746L14.3813 24.5834L15.435 26.6918L14.6523 27.083L13.8696 27.4742L12.8159 25.3658L13.5986 24.9746Z" fill="#1A1A1A"/>
<path fill-rule="evenodd" clip-rule="evenodd" d="M9.75684 19.6555V6.35946Z" fill="white"/>
<path d="M9.75684 19.6555V6.35946" stroke="#1A1A1A" stroke-width="1.75" stroke-linecap="round" stroke-linejoin="round"/>
</svg>
