<svg width="12" height="12" viewBox="0 0 12 12" fill="none" xmlns="http://www.w3.org/2000/svg">
<mask id="path-1-inside-1_105_4247" fill="white">
<path d="M5.42188 2.00441C5.66869 1.51038 6.34697 1.4432 6.68555 1.87941L6.8291 2.06398C7.11127 2.42801 7.17884 2.91502 7.00684 3.3423L6.65039 4.22707H9.4541C10.1696 4.22707 10.7497 4.80654 10.75 5.52199V5.82375C10.75 5.98857 10.7184 6.15215 10.6572 6.30519L9.87109 8.27003C9.50451 9.18607 8.65009 9.81627 7.66504 9.87257C6.85053 9.91898 5.87265 9.96307 5.09961 9.96242C4.21379 9.96167 3.05486 9.90145 2.19531 9.84816C1.52012 9.80625 1.00016 9.24435 1 8.56789V5.93996C1 5.22429 1.58024 4.64406 2.2959 4.64406H3.77051L5.09961 2.64992L5.42188 2.00441Z"/>
</mask>
<path d="M5.42188 2.00441C5.66869 1.51038 6.34697 1.4432 6.68555 1.87941L6.8291 2.06398C7.11127 2.42801 7.17884 2.91502 7.00684 3.3423L6.65039 4.22707H9.4541C10.1696 4.22707 10.7497 4.80654 10.75 5.52199V5.82375C10.75 5.98857 10.7184 6.15215 10.6572 6.30519L9.87109 8.27003C9.50451 9.18607 8.65009 9.81627 7.66504 9.87257C6.85053 9.91898 5.87265 9.96307 5.09961 9.96242C4.21379 9.96167 3.05486 9.90145 2.19531 9.84816C1.52012 9.80625 1.00016 9.24435 1 8.56789V5.93996C1 5.22429 1.58024 4.64406 2.2959 4.64406H3.77051L5.09961 2.64992L5.42188 2.00441Z" fill="#1A1A1A"/>
<path d="M5.42188 2.00441L4.5273 1.55748L4.52718 1.55774L5.42188 2.00441ZM6.68555 1.87941L5.89558 2.49256L5.89619 2.49335L6.68555 1.87941ZM6.8291 2.06398L7.61947 1.45135L7.61845 1.45004L6.8291 2.06398ZM7.00684 3.3423L7.93439 3.71598L7.93449 3.71574L7.00684 3.3423ZM6.65039 4.22707L5.72283 3.85338C5.59867 4.16157 5.6357 4.51131 5.82163 4.78667C6.00757 5.06204 6.31813 5.22707 6.65039 5.22707V4.22707ZM10.75 5.52199H11.75V5.52164L10.75 5.52199ZM10.75 5.82375L11.75 5.82381V5.82375H10.75ZM10.6572 6.30519L11.5857 6.67666L11.5857 6.67658L10.6572 6.30519ZM9.87109 8.27003L10.7995 8.64157L10.7995 8.6415L9.87109 8.27003ZM7.66504 9.87257L7.72192 10.871L7.72211 10.8709L7.66504 9.87257ZM5.09961 9.96242L5.09877 10.9624H5.09877L5.09961 9.96242ZM2.19531 9.84816L2.13336 10.8462L2.13344 10.8462L2.19531 9.84816ZM1 8.56789H0V8.56812L1 8.56789ZM3.77051 4.64406V5.64406C4.1049 5.64406 4.41716 5.47692 4.60262 5.19866L3.77051 4.64406ZM5.09961 2.64992L5.93172 3.20452C5.95481 3.16988 5.97571 3.13384 5.99431 3.09659L5.09961 2.64992ZM5.42188 2.00441L6.31645 2.45134C6.23451 2.61535 6.00891 2.63857 5.89558 2.49256L6.68555 1.87941L7.47552 1.26626C6.68504 0.24782 5.10288 0.405407 4.5273 1.55748L5.42188 2.00441ZM6.68555 1.87941L5.89619 2.49335L6.03975 2.67792L6.8291 2.06398L7.61845 1.45004L7.4749 1.26547L6.68555 1.87941ZM6.8291 2.06398L6.03873 2.67661C6.10289 2.75939 6.1186 2.87094 6.07918 2.96886L7.00684 3.3423L7.93449 3.71574C8.23908 2.95911 8.11964 2.09663 7.61947 1.45135L6.8291 2.06398ZM7.00684 3.3423L6.07928 2.96862L5.72283 3.85338L6.65039 4.22707L7.57795 4.60075L7.93439 3.71598L7.00684 3.3423ZM6.65039 4.22707V5.22707H9.4541V4.22707V3.22707H6.65039V4.22707ZM9.4541 4.22707V5.22707C9.61796 5.22707 9.74994 5.35953 9.75 5.52234L10.75 5.52199L11.75 5.52164C11.7496 4.25354 10.7213 3.22707 9.4541 3.22707V4.22707ZM10.75 5.52199H9.75V5.82375H10.75H11.75V5.52199H10.75ZM10.75 5.82375L9.75 5.82368C9.75 5.86115 9.74279 5.89871 9.72875 5.9338L10.6572 6.30519L11.5857 6.67658C11.6941 6.40559 11.75 6.11599 11.75 5.82381L10.75 5.82375ZM10.6572 6.30519L9.72878 5.93372L8.94265 7.89856L9.87109 8.27003L10.7995 8.6415L11.5857 6.67666L10.6572 6.30519ZM9.87109 8.27003L8.94268 7.8985C8.71636 8.46402 8.19508 8.84064 7.60797 8.8742L7.66504 9.87257L7.72211 10.8709C9.10509 10.7919 10.2927 9.90812 10.7995 8.64157L9.87109 8.27003ZM7.66504 9.87257L7.60816 8.87419C6.7977 8.92037 5.84343 8.96304 5.10045 8.96242L5.09961 9.96242L5.09877 10.9624C5.90186 10.9631 6.90335 10.9176 7.72192 10.871L7.66504 9.87257ZM5.09961 9.96242L5.10045 8.96242C4.24747 8.9617 3.11467 8.90324 2.25719 8.85008L2.19531 9.84816L2.13344 10.8462C2.99504 10.8997 4.1801 10.9616 5.09877 10.9624L5.09961 9.96242ZM2.19531 9.84816L2.25726 8.85008C2.1179 8.84143 2.00004 8.72475 2 8.56765L1 8.56789L0 8.56812C0.000281572 9.76396 0.922343 10.7711 2.13336 10.8462L2.19531 9.84816ZM1 8.56789H2V5.93996H1H0V8.56789H1ZM1 5.93996H2C2 5.77658 2.13252 5.64406 2.2959 5.64406V4.64406V3.64406C1.02795 3.64406 0 4.67201 0 5.93996H1ZM2.2959 4.64406V5.64406H3.77051V4.64406V3.64406H2.2959V4.64406ZM3.77051 4.64406L4.60262 5.19866L5.93172 3.20452L5.09961 2.64992L4.2675 2.09531L2.93839 4.08945L3.77051 4.64406ZM5.09961 2.64992L5.99431 3.09659L6.31657 2.45108L5.42188 2.00441L4.52718 1.55774L4.20491 2.20325L5.09961 2.64992Z" fill="#1A1A1A" mask="url(#path-1-inside-1_105_4247)"/>
<mask id="mask0_105_4247" style="mask-type:alpha" maskUnits="userSpaceOnUse" x="1" y="1" width="10" height="9">
<mask id="path-3-inside-2_105_4247" fill="white">
<path d="M5.42188 2.00441C5.66869 1.51038 6.34697 1.4432 6.68555 1.87941L6.8291 2.06398C7.11127 2.42801 7.17884 2.91502 7.00684 3.3423L6.65039 4.22707H9.4541C10.1696 4.22707 10.7497 4.80654 10.75 5.52199V5.82375C10.75 5.98857 10.7184 6.15215 10.6572 6.30519L9.87109 8.27003C9.50451 9.18607 8.65009 9.81627 7.66504 9.87257C6.85053 9.91898 5.87265 9.96307 5.09961 9.96242C4.21379 9.96167 3.05486 9.90145 2.19531 9.84816C1.52012 9.80625 1.00016 9.24435 1 8.56789V5.93996C1 5.22429 1.58024 4.64406 2.2959 4.64406H3.77051L5.09961 2.64992L5.42188 2.00441Z"/>
</mask>
<path d="M5.42188 2.00441C5.66869 1.51038 6.34697 1.4432 6.68555 1.87941L6.8291 2.06398C7.11127 2.42801 7.17884 2.91502 7.00684 3.3423L6.65039 4.22707H9.4541C10.1696 4.22707 10.7497 4.80654 10.75 5.52199V5.82375C10.75 5.98857 10.7184 6.15215 10.6572 6.30519L9.87109 8.27003C9.50451 9.18607 8.65009 9.81627 7.66504 9.87257C6.85053 9.91898 5.87265 9.96307 5.09961 9.96242C4.21379 9.96167 3.05486 9.90145 2.19531 9.84816C1.52012 9.80625 1.00016 9.24435 1 8.56789V5.93996C1 5.22429 1.58024 4.64406 2.2959 4.64406H3.77051L5.09961 2.64992L5.42188 2.00441Z" fill="#1A1A1A"/>
<path d="M5.42188 2.00441L4.5273 1.55748L4.52718 1.55774L5.42188 2.00441ZM6.68555 1.87941L5.89558 2.49256L5.89619 2.49335L6.68555 1.87941ZM6.8291 2.06398L7.61947 1.45135L7.61845 1.45004L6.8291 2.06398ZM7.00684 3.3423L7.93439 3.71598L7.93449 3.71574L7.00684 3.3423ZM6.65039 4.22707L5.72283 3.85338C5.59867 4.16157 5.6357 4.51131 5.82163 4.78667C6.00757 5.06204 6.31813 5.22707 6.65039 5.22707V4.22707ZM10.75 5.52199H11.75V5.52164L10.75 5.52199ZM10.75 5.82375L11.75 5.82381V5.82375H10.75ZM10.6572 6.30519L11.5857 6.67666L11.5857 6.67658L10.6572 6.30519ZM9.87109 8.27003L10.7995 8.64157L10.7995 8.6415L9.87109 8.27003ZM7.66504 9.87257L7.72192 10.871L7.72211 10.8709L7.66504 9.87257ZM5.09961 9.96242L5.09877 10.9624H5.09877L5.09961 9.96242ZM2.19531 9.84816L2.13336 10.8462L2.13344 10.8462L2.19531 9.84816ZM1 8.56789H0V8.56812L1 8.56789ZM3.77051 4.64406V5.64406C4.1049 5.64406 4.41716 5.47692 4.60262 5.19866L3.77051 4.64406ZM5.09961 2.64992L5.93172 3.20452C5.95481 3.16988 5.97571 3.13384 5.99431 3.09659L5.09961 2.64992ZM5.42188 2.00441L6.31645 2.45134C6.23451 2.61535 6.00891 2.63857 5.89558 2.49256L6.68555 1.87941L7.47552 1.26626C6.68504 0.24782 5.10288 0.405407 4.5273 1.55748L5.42188 2.00441ZM6.68555 1.87941L5.89619 2.49335L6.03975 2.67792L6.8291 2.06398L7.61845 1.45004L7.4749 1.26547L6.68555 1.87941ZM6.8291 2.06398L6.03873 2.67661C6.10289 2.75939 6.1186 2.87094 6.07918 2.96886L7.00684 3.3423L7.93449 3.71574C8.23908 2.95911 8.11964 2.09663 7.61947 1.45135L6.8291 2.06398ZM7.00684 3.3423L6.07928 2.96862L5.72283 3.85338L6.65039 4.22707L7.57795 4.60075L7.93439 3.71598L7.00684 3.3423ZM6.65039 4.22707V5.22707H9.4541V4.22707V3.22707H6.65039V4.22707ZM9.4541 4.22707V5.22707C9.61796 5.22707 9.74994 5.35953 9.75 5.52234L10.75 5.52199L11.75 5.52164C11.7496 4.25354 10.7213 3.22707 9.4541 3.22707V4.22707ZM10.75 5.52199H9.75V5.82375H10.75H11.75V5.52199H10.75ZM10.75 5.82375L9.75 5.82368C9.75 5.86115 9.74279 5.89871 9.72875 5.9338L10.6572 6.30519L11.5857 6.67658C11.6941 6.40559 11.75 6.11599 11.75 5.82381L10.75 5.82375ZM10.6572 6.30519L9.72878 5.93372L8.94265 7.89856L9.87109 8.27003L10.7995 8.6415L11.5857 6.67666L10.6572 6.30519ZM9.87109 8.27003L8.94268 7.8985C8.71636 8.46402 8.19508 8.84064 7.60797 8.8742L7.66504 9.87257L7.72211 10.8709C9.10509 10.7919 10.2927 9.90812 10.7995 8.64157L9.87109 8.27003ZM7.66504 9.87257L7.60816 8.87419C6.7977 8.92037 5.84343 8.96304 5.10045 8.96242L5.09961 9.96242L5.09877 10.9624C5.90186 10.9631 6.90335 10.9176 7.72192 10.871L7.66504 9.87257ZM5.09961 9.96242L5.10045 8.96242C4.24747 8.9617 3.11467 8.90324 2.25719 8.85008L2.19531 9.84816L2.13344 10.8462C2.99504 10.8997 4.1801 10.9616 5.09877 10.9624L5.09961 9.96242ZM2.19531 9.84816L2.25726 8.85008C2.1179 8.84143 2.00004 8.72475 2 8.56765L1 8.56789L0 8.56812C0.000281572 9.76396 0.922343 10.7711 2.13336 10.8462L2.19531 9.84816ZM1 8.56789H2V5.93996H1H0V8.56789H1ZM1 5.93996H2C2 5.77658 2.13252 5.64406 2.2959 5.64406V4.64406V3.64406C1.02795 3.64406 0 4.67201 0 5.93996H1ZM2.2959 4.64406V5.64406H3.77051V4.64406V3.64406H2.2959V4.64406ZM3.77051 4.64406L4.60262 5.19866L5.93172 3.20452L5.09961 2.64992L4.2675 2.09531L2.93839 4.08945L3.77051 4.64406ZM5.09961 2.64992L5.99431 3.09659L6.31657 2.45108L5.42188 2.00441L4.52718 1.55774L4.20491 2.20325L5.09961 2.64992Z" fill="#1A1A1A" mask="url(#path-3-inside-2_105_4247)"/>
</mask>
<g mask="url(#mask0_105_4247)">
<path fill-rule="evenodd" clip-rule="evenodd" d="M3.65918 4.6438V9.62982Z" fill="white"/>
<path d="M3.65918 4.6438V9.62982" stroke="white" stroke-linecap="round" stroke-linejoin="round"/>
</g>
</svg>
