<svg width="16" height="16" viewBox="0 0 16 16" fill="none" xmlns="http://www.w3.org/2000/svg">
<mask id="path-1-inside-1_105_4239" fill="white">
<path d="M7.22949 2.67168C7.55869 2.0131 8.46271 1.92395 8.91406 2.50566L9.10449 2.75176C9.48093 3.23716 9.57119 3.88603 9.3418 4.45586L8.86719 5.63555H12.6055C13.5596 5.63567 14.333 6.40894 14.333 7.36308V7.76445C14.333 7.98421 14.2906 8.202 14.209 8.40605L13.1611 11.0262C12.6723 12.2479 11.5325 13.088 10.2188 13.1629C9.1328 13.2248 7.82944 13.2839 6.79883 13.283C5.61778 13.282 4.07271 13.2017 2.92676 13.1307C2.02649 13.0748 1.33321 12.3256 1.33301 11.4236V7.91973C1.33301 6.96558 2.10643 6.19231 3.06055 6.19219H5.02637L6.79883 3.53301L7.22949 2.67168Z"/>
</mask>
<path d="M7.22949 2.67168C7.55869 2.0131 8.46271 1.92395 8.91406 2.50566L9.10449 2.75176C9.48093 3.23716 9.57119 3.88603 9.3418 4.45586L8.86719 5.63555H12.6055C13.5596 5.63567 14.333 6.40894 14.333 7.36308V7.76445C14.333 7.98421 14.2906 8.202 14.209 8.40605L13.1611 11.0262C12.6723 12.2479 11.5325 13.088 10.2188 13.1629C9.1328 13.2248 7.82944 13.2839 6.79883 13.283C5.61778 13.282 4.07271 13.2017 2.92676 13.1307C2.02649 13.0748 1.33321 12.3256 1.33301 11.4236V7.91973C1.33301 6.96558 2.10643 6.19231 3.06055 6.19219H5.02637L6.79883 3.53301L7.22949 2.67168Z" fill="#1A1A1A"/>
<path d="M7.22949 2.67168L8.12392 3.11889L8.12397 3.1188L7.22949 2.67168ZM8.91406 2.50566L9.70493 1.89368L9.70413 1.89265L8.91406 2.50566ZM9.10449 2.75176L8.31362 3.36374L8.31427 3.36458L9.10449 2.75176ZM9.3418 4.45586L8.41414 4.08242L8.41406 4.08261L9.3418 4.45586ZM8.86719 5.63555L7.93945 5.2623C7.81547 5.57047 7.85261 5.9201 8.03856 6.19535C8.22451 6.4706 8.53501 6.63555 8.86719 6.63555V5.63555ZM12.6055 5.63555L12.6056 4.63555H12.6055V5.63555ZM14.209 8.40605L15.1375 8.77738L15.1375 8.77737L14.209 8.40605ZM13.1611 11.0262L14.0896 11.3976L14.0896 11.3975L13.1611 11.0262ZM10.2188 13.1629L10.2756 14.1613H10.2756L10.2188 13.1629ZM6.79883 13.283L6.79798 14.283H6.79799L6.79883 13.283ZM2.92676 13.1307L2.86481 14.1287L2.86488 14.1287L2.92676 13.1307ZM1.33301 11.4236H0.333008V11.4239L1.33301 11.4236ZM3.06055 6.19219V5.19219H3.06042L3.06055 6.19219ZM5.02637 6.19219V7.19219C5.36075 7.19219 5.67301 7.02505 5.85846 6.74682L5.02637 6.19219ZM6.79883 3.53301L7.63093 4.08764C7.65391 4.05316 7.67472 4.01728 7.69326 3.98022L6.79883 3.53301ZM7.22949 2.67168L8.12397 3.1188L8.12399 3.11868L8.91406 2.50566L9.70413 1.89265C8.80129 0.729033 6.99333 0.907585 6.33502 2.22456L7.22949 2.67168ZM8.91406 2.50566L8.12319 3.11765L8.31362 3.36374L9.10449 2.75176L9.89536 2.13977L9.70493 1.89368L8.91406 2.50566ZM9.10449 2.75176L8.31427 3.36458C8.47271 3.56888 8.51084 3.84221 8.41414 4.08242L9.3418 4.45586L10.2695 4.82929C10.6315 3.92984 10.4892 2.90545 9.89471 2.13893L9.10449 2.75176ZM9.3418 4.45586L8.41406 4.08261L7.93945 5.2623L8.86719 5.63555L9.79492 6.00879L10.2695 4.8291L9.3418 4.45586ZM8.86719 5.63555V6.63555H12.6055V5.63555V4.63555H8.86719V5.63555ZM12.6055 5.63555L12.6053 6.63555C13.0074 6.6356 13.333 6.96135 13.333 7.36308H14.333H15.333C15.333 5.85653 14.1118 4.63573 12.6056 4.63555L12.6055 5.63555ZM14.333 7.36308H13.333V7.76445H14.333H15.333V7.36308H14.333ZM14.333 7.76445H13.333C13.333 7.85554 13.3154 7.9474 13.2805 8.03473L14.209 8.40605L15.1375 8.77737C15.2658 8.45661 15.333 8.11289 15.333 7.76445H14.333ZM14.209 8.40605L13.2805 8.03472L12.2326 10.6548L13.1611 11.0262L14.0896 11.3975L15.1375 8.77738L14.209 8.40605ZM13.1611 11.0262L12.2327 10.6547C11.8843 11.5256 11.0778 12.1123 10.1619 12.1645L10.2188 13.1629L10.2756 14.1613C11.9872 14.0638 13.4604 12.9702 14.0896 11.3976L13.1611 11.0262ZM10.2188 13.1629L10.1619 12.1645C9.07971 12.2262 7.80009 12.2838 6.79967 12.283L6.79883 13.283L6.79799 14.283C7.85879 14.2839 9.18589 14.2234 10.2756 14.1613L10.2188 13.1629ZM6.79883 13.283L6.79968 12.283C5.65146 12.282 4.13253 12.2035 2.98863 12.1326L2.92676 13.1307L2.86488 14.1287C4.0129 14.1999 5.58409 14.282 6.79798 14.283L6.79883 13.283ZM2.92676 13.1307L2.98871 12.1326C2.62426 12.11 2.33309 11.806 2.33301 11.4234L1.33301 11.4236L0.333008 11.4239C0.33332 12.8452 1.42873 14.0396 2.86481 14.1287L2.92676 13.1307ZM1.33301 11.4236H2.33301V7.91972H1.33301H0.333008V11.4236H1.33301ZM1.33301 7.91972H2.33301C2.33301 7.51799 2.65862 7.19224 3.06067 7.19219L3.06055 6.19219L3.06042 5.19219C1.55425 5.19238 0.333008 6.41317 0.333008 7.91972H1.33301ZM3.06055 6.19219V7.19219H5.02637V6.19219V5.19219H3.06055V6.19219ZM5.02637 6.19219L5.85846 6.74682L7.63093 4.08764L6.79883 3.53301L5.96673 2.97838L4.19427 5.63756L5.02637 6.19219ZM6.79883 3.53301L7.69326 3.98022L8.12392 3.11889L7.22949 2.67168L6.33506 2.22446L5.9044 3.08579L6.79883 3.53301Z" fill="#1A1A1A" mask="url(#path-1-inside-1_105_4239)"/>
<mask id="mask0_105_4239" style="mask-type:alpha" maskUnits="userSpaceOnUse" x="1" y="2" width="14" height="12">
<mask id="path-3-inside-2_105_4239" fill="white">
<path d="M7.22949 2.67136C7.55882 2.01293 8.46281 1.92449 8.91406 2.50632L9.10449 2.75144C9.48096 3.23685 9.57119 3.88569 9.3418 4.45554L8.86719 5.63523H12.6055C13.5595 5.63535 14.3329 6.40876 14.333 7.36277V7.76511C14.333 7.98477 14.2906 8.20276 14.209 8.40671L13.1611 11.0259C12.6724 12.2477 11.5326 13.0887 10.2188 13.1635C9.13281 13.2254 7.82943 13.2836 6.79883 13.2827C5.61778 13.2817 4.07271 13.2024 2.92676 13.1313C2.02638 13.0755 1.33306 12.3254 1.33301 11.4233V7.91941C1.3331 6.96535 2.10649 6.19199 3.06055 6.19187H5.02637L6.79883 3.53269L7.22949 2.67136Z"/>
</mask>
<path d="M7.22949 2.67136C7.55882 2.01293 8.46281 1.92449 8.91406 2.50632L9.10449 2.75144C9.48096 3.23685 9.57119 3.88569 9.3418 4.45554L8.86719 5.63523H12.6055C13.5595 5.63535 14.3329 6.40876 14.333 7.36277V7.76511C14.333 7.98477 14.2906 8.20276 14.209 8.40671L13.1611 11.0259C12.6724 12.2477 11.5326 13.0887 10.2188 13.1635C9.13281 13.2254 7.82943 13.2836 6.79883 13.2827C5.61778 13.2817 4.07271 13.2024 2.92676 13.1313C2.02638 13.0755 1.33306 12.3254 1.33301 11.4233V7.91941C1.3331 6.96535 2.10649 6.19199 3.06055 6.19187H5.02637L6.79883 3.53269L7.22949 2.67136Z" fill="#1A1A1A"/>
<path d="M7.22949 2.67136L6.33513 2.22402L6.33506 2.22415L7.22949 2.67136ZM8.91406 2.50632L8.12386 3.11917L8.12437 3.11983L8.91406 2.50632ZM9.10449 2.75144L9.89469 2.13859L9.89418 2.13793L9.10449 2.75144ZM9.3418 4.45554L8.41414 4.08211L8.41406 4.0823L9.3418 4.45554ZM8.86719 5.63523L7.93945 5.26198C7.81547 5.57016 7.85261 5.91978 8.03856 6.19503C8.22451 6.47028 8.53501 6.63523 8.86719 6.63523V5.63523ZM12.6055 5.63523L12.6056 4.63523H12.6055V5.63523ZM14.333 7.36277H15.333V7.36261L14.333 7.36277ZM14.333 7.76511L15.333 7.76537V7.76511H14.333ZM14.209 8.40671L15.1374 8.77816L15.1375 8.7781L14.209 8.40671ZM13.1611 11.0259L12.2327 10.6544L12.2327 10.6545L13.1611 11.0259ZM10.2188 13.1635L10.2756 14.1619H10.2756L10.2188 13.1635ZM6.79883 13.2827L6.79798 14.2827H6.79799L6.79883 13.2827ZM2.92676 13.1313L2.86483 14.1294L2.86488 14.1294L2.92676 13.1313ZM1.33301 11.4233H0.333008V11.4234L1.33301 11.4233ZM1.33301 7.91941L0.333008 7.91931V7.91941H1.33301ZM3.06055 6.19187V5.19187H3.06042L3.06055 6.19187ZM5.02637 6.19187V7.19187C5.36075 7.19187 5.67301 7.02474 5.85846 6.7465L5.02637 6.19187ZM6.79883 3.53269L7.63093 4.08732C7.65391 4.05284 7.67472 4.01697 7.69326 3.9799L6.79883 3.53269ZM7.22949 2.67136L8.12386 3.1187L8.12386 3.11917L8.91406 2.50632L9.70426 1.89347C8.80229 0.730474 6.99419 0.906361 6.33513 2.22402L7.22949 2.67136ZM8.91406 2.50632L8.12437 3.11983L8.3148 3.36494L9.10449 2.75144L9.89418 2.13793L9.70375 1.89282L8.91406 2.50632ZM9.10449 2.75144L8.31429 3.36429C8.47272 3.56856 8.51086 3.84185 8.41414 4.08211L9.3418 4.45554L10.2695 4.82898C10.6315 3.92953 10.4892 2.90515 9.89469 2.13859L9.10449 2.75144ZM9.3418 4.45554L8.41406 4.0823L7.93945 5.26198L8.86719 5.63523L9.79492 6.00847L10.2695 4.82878L9.3418 4.45554ZM8.86719 5.63523V6.63523H12.6055V5.63523V4.63523H8.86719V5.63523ZM12.6055 5.63523L12.6053 6.63523C13.0071 6.63528 13.3329 6.96104 13.333 7.36293L14.333 7.36277L15.333 7.36261C15.3328 5.85647 14.1118 4.63542 12.6056 4.63523L12.6055 5.63523ZM14.333 7.36277H13.333V7.76511H14.333H15.333V7.36277H14.333ZM14.333 7.76511L13.333 7.76486C13.333 7.85623 13.3153 7.94835 13.2805 8.03532L14.209 8.40671L15.1375 8.7781C15.2658 8.45718 15.3329 8.1133 15.333 7.76537L14.333 7.76511ZM14.209 8.40671L13.2805 8.03526L12.2327 10.6544L13.1611 11.0259L14.0896 11.3973L15.1374 8.77816L14.209 8.40671ZM13.1611 11.0259L12.2327 10.6545C11.8841 11.5258 11.0775 12.113 10.1619 12.1652L10.2188 13.1635L10.2756 14.1619C11.9877 14.0644 13.4607 12.9696 14.0896 11.3972L13.1611 11.0259ZM10.2188 13.1635L10.1619 12.1652C9.08045 12.2268 7.80045 12.2835 6.79967 12.2827L6.79883 13.2827L6.79799 14.2827C7.85841 14.2836 9.18517 14.2241 10.2756 14.1619L10.2188 13.1635ZM6.79883 13.2827L6.79968 12.2827C5.65116 12.2817 4.13187 12.2041 2.98863 12.1332L2.92676 13.1313L2.86488 14.1294C4.01355 14.2006 5.58439 14.2817 6.79798 14.2827L6.79883 13.2827ZM2.92676 13.1313L2.98868 12.1332C2.62472 12.1107 2.33303 11.8064 2.33301 11.4233L1.33301 11.4233L0.333008 11.4234C0.333085 12.8444 1.42803 14.0403 2.86483 14.1294L2.92676 13.1313ZM1.33301 11.4233H2.33301V7.91941H1.33301H0.333008V11.4233H1.33301ZM1.33301 7.91941L2.33301 7.91951C2.33305 7.51768 2.65877 7.19192 3.06067 7.19187L3.06055 6.19187L3.06042 5.19187C1.55421 5.19206 0.333155 6.41301 0.333008 7.91931L1.33301 7.91941ZM3.06055 6.19187V7.19187H5.02637V6.19187V5.19187H3.06055V6.19187ZM5.02637 6.19187L5.85846 6.7465L7.63093 4.08732L6.79883 3.53269L5.96673 2.97806L4.19427 5.63724L5.02637 6.19187ZM6.79883 3.53269L7.69326 3.9799L8.12392 3.11857L7.22949 2.67136L6.33506 2.22415L5.9044 3.08548L6.79883 3.53269Z" fill="#1A1A1A" mask="url(#path-3-inside-2_105_4239)"/>
</mask>
<g mask="url(#mask0_105_4239)">
<path fill-rule="evenodd" clip-rule="evenodd" d="M4.87891 5.19165V13.8397Z" fill="white"/>
<path d="M4.87891 5.19165V13.8397" stroke="white" stroke-linecap="round" stroke-linejoin="round"/>
</g>
</svg>
