<svg width="24" height="24" viewBox="0 0 24 24" fill="none" xmlns="http://www.w3.org/2000/svg">
<mask id="path-1-inside-1_105_4223" fill="white">
<path d="M10.8447 4.00828C11.3385 3.02004 12.695 2.88631 13.3721 3.75926L13.6572 4.12742C14.2218 4.85543 14.3576 5.82841 14.0137 6.68309L13.3018 8.45262H18.9082C20.3394 8.45262 21.4999 9.61321 21.5 11.0444V11.647C21.5 11.9767 21.4369 12.3037 21.3145 12.6098L19.7432 16.5395C19.01 18.3722 17.2998 19.6323 15.3291 19.7446C13.7001 19.8374 11.7453 19.9256 10.1992 19.9243C8.42758 19.9228 6.10971 19.8033 4.39062 19.6968C3.04011 19.613 2.00016 18.4883 2 17.1352V11.8794C2.00005 10.4481 3.1605 9.28758 4.5918 9.28758H7.54004L10.1992 5.2993L10.8447 4.00828Z"/>
</mask>
<path d="M10.8447 4.00828C11.3385 3.02004 12.695 2.88631 13.3721 3.75926L13.6572 4.12742C14.2218 4.85543 14.3576 5.82841 14.0137 6.68309L13.3018 8.45262H18.9082C20.3394 8.45262 21.4999 9.61321 21.5 11.0444V11.647C21.5 11.9767 21.4369 12.3037 21.3145 12.6098L19.7432 16.5395C19.01 18.3722 17.2998 19.6323 15.3291 19.7446C13.7001 19.8374 11.7453 19.9256 10.1992 19.9243C8.42758 19.9228 6.10971 19.8033 4.39062 19.6968C3.04011 19.613 2.00016 18.4883 2 17.1352V11.8794C2.00005 10.4481 3.1605 9.28758 4.5918 9.28758H7.54004L10.1992 5.2993L10.8447 4.00828Z" fill="#1A1A1A"/>
<path d="M10.8447 4.00828L12.1864 4.6791L12.1866 4.67867L10.8447 4.00828ZM13.3721 3.75926L14.558 2.84075L14.5574 2.83999L13.3721 3.75926ZM13.6572 4.12742L12.4713 5.04594L12.4719 5.0467L13.6572 4.12742ZM14.0137 6.68309L12.6221 6.12317L12.6221 6.12322L14.0137 6.68309ZM13.3018 8.45262L11.9102 7.89275C11.7242 8.35501 11.7799 8.87945 12.0588 9.29232C12.3377 9.7052 12.8035 9.95262 13.3018 9.95262V8.45262ZM21.5 11.0444H23V11.0443L21.5 11.0444ZM21.3145 12.6098L19.9217 12.0528L19.9217 12.0529L21.3145 12.6098ZM19.7432 16.5395L21.1359 17.0967L21.136 17.0964L19.7432 16.5395ZM15.3291 19.7446L15.4144 21.2422V21.2422L15.3291 19.7446ZM10.1992 19.9243L10.198 21.4243H10.198L10.1992 19.9243ZM4.39062 19.6968L4.29772 21.1939L4.29781 21.1939L4.39062 19.6968ZM2 17.1352H0.5V17.1354L2 17.1352ZM2 11.8794L0.5 11.8793V11.8794H2ZM7.54004 9.28758V10.7876C8.04154 10.7876 8.50986 10.537 8.78807 10.1197L7.54004 9.28758ZM10.1992 5.2993L11.4472 6.13142C11.4818 6.07965 11.513 6.02578 11.5409 5.97012L10.1992 5.2993ZM10.8447 4.00828L12.1866 4.67867L12.1868 4.67853L13.3721 3.75926L14.5574 2.83999C13.2032 1.09391 10.4902 1.36161 9.50287 3.33789L10.8447 4.00828ZM13.3721 3.75926L12.1862 4.67777L12.4713 5.04594L13.6572 4.12742L14.8431 3.20891L14.558 2.84075L13.3721 3.75926ZM13.6572 4.12742L12.4719 5.0467C12.7098 5.3534 12.7669 5.76323 12.6221 6.12317L14.0137 6.68309L15.4052 7.24301C15.9482 5.89359 15.7339 4.35746 14.8425 3.20815L13.6572 4.12742ZM14.0137 6.68309L12.6221 6.12322L11.9102 7.89275L13.3018 8.45262L14.6934 9.01249L15.4053 7.24295L14.0137 6.68309ZM13.3018 8.45262V9.95262H18.9082V8.45262V6.95262H13.3018V8.45262ZM18.9082 8.45262V9.95262C19.5109 9.95262 19.9999 10.4415 20 11.0446L21.5 11.0444L23 11.0443C22.9998 8.78491 21.168 6.95262 18.9082 6.95262V8.45262ZM21.5 11.0444H20V11.647H21.5H23V11.0444H21.5ZM21.5 11.647H20C20 11.7855 19.9734 11.9235 19.9217 12.0528L21.3145 12.6098L22.7072 13.1669C22.9004 12.6839 23 12.1678 23 11.647H21.5ZM21.3145 12.6098L19.9217 12.0529L18.3504 15.9826L19.7432 16.5395L21.136 17.0964L22.7072 13.1668L21.3145 12.6098ZM19.7432 16.5395L18.3505 15.9824C17.8279 17.2886 16.618 18.1687 15.2438 18.247L15.3291 19.7446L15.4144 21.2422C17.9816 21.0959 20.1921 19.4559 21.1359 17.0967L19.7432 16.5395ZM15.3291 19.7446L15.2438 18.247C13.6208 18.3395 11.7015 18.4256 10.2005 18.4243L10.1992 19.9243L10.198 21.4243C11.7891 21.4256 13.7793 21.3353 15.4144 21.2422L15.3291 19.7446ZM10.1992 19.9243L10.2005 18.4243C8.4778 18.4229 6.19878 18.306 4.48344 18.1996L4.39062 19.6968L4.29781 21.1939C6.02065 21.3007 8.37735 21.4228 10.198 21.4243L10.1992 19.9243ZM4.39062 19.6968L4.48353 18.1996C3.93735 18.1657 3.50007 17.7095 3.5 17.1351L2 17.1352L0.5 17.1354C0.500245 19.2671 2.14288 21.0602 4.29772 21.1939L4.39062 19.6968ZM2 17.1352H3.5V11.8794H2H0.5V17.1352H2ZM2 11.8794L3.5 11.8794C3.50002 11.2765 3.98899 10.7876 4.5918 10.7876V9.28758V7.78758C2.33202 7.78758 0.500085 9.61971 0.5 11.8793L2 11.8794ZM4.5918 9.28758V10.7876H7.54004V9.28758V7.78758H4.5918V9.28758ZM7.54004 9.28758L8.78807 10.1197L11.4472 6.13142L10.1992 5.2993L8.95119 4.46718L6.29201 8.45546L7.54004 9.28758ZM10.1992 5.2993L11.5409 5.97012L12.1864 4.6791L10.8447 4.00828L9.50309 3.33746L8.85758 4.62848L10.1992 5.2993Z" fill="#1A1A1A" mask="url(#path-1-inside-1_105_4223)"/>
<mask id="mask0_105_4223" style="mask-type:alpha" maskUnits="userSpaceOnUse" x="2" y="3" width="20" height="17">
<mask id="path-3-inside-2_105_4223" fill="white">
<path d="M10.8447 4.00764C11.3386 3.0197 12.6951 2.8858 13.3721 3.75862L13.6572 4.12776C14.2219 4.85582 14.3577 5.82871 14.0137 6.68342L13.3018 8.45295H18.9082C20.3395 8.45295 21.5 9.61343 21.5 11.0448V11.6473C21.5 11.977 21.4369 12.3041 21.3145 12.6102L19.7432 16.5389C19.0101 18.3717 17.2999 19.6327 15.3291 19.7449C13.7001 19.8378 11.7453 19.9259 10.1992 19.9246C8.42758 19.9231 6.10971 19.8037 4.39062 19.6971C3.04001 19.6133 2 18.4878 2 17.1346V11.8797C2 10.4484 3.16047 9.28791 4.5918 9.28791H7.54004L10.1992 5.29963L10.8447 4.00764Z"/>
</mask>
<path d="M10.8447 4.00764C11.3386 3.0197 12.6951 2.8858 13.3721 3.75862L13.6572 4.12776C14.2219 4.85582 14.3577 5.82871 14.0137 6.68342L13.3018 8.45295H18.9082C20.3395 8.45295 21.5 9.61343 21.5 11.0448V11.6473C21.5 11.977 21.4369 12.3041 21.3145 12.6102L19.7432 16.5389C19.0101 18.3717 17.2999 19.6327 15.3291 19.7449C13.7001 19.8378 11.7453 19.9259 10.1992 19.9246C8.42758 19.9231 6.10971 19.8037 4.39062 19.6971C3.04001 19.6133 2 18.4878 2 17.1346V11.8797C2 10.4484 3.16047 9.28791 4.5918 9.28791H7.54004L10.1992 5.29963L10.8447 4.00764Z" fill="#1A1A1A"/>
<path d="M10.8447 4.00764L9.50302 3.33695L9.50288 3.33723L10.8447 4.00764ZM13.3721 3.75862L14.5591 2.84162L14.5573 2.83931L13.3721 3.75862ZM13.6572 4.12776L12.4702 5.04475L12.4719 5.047L13.6572 4.12776ZM14.0137 6.68342L12.6221 6.12337L12.6221 6.12356L14.0137 6.68342ZM13.3018 8.45295L11.9102 7.89309C11.7242 8.35535 11.7799 8.87978 12.0588 9.29266C12.3377 9.70553 12.8035 9.95295 13.3018 9.95295V8.45295ZM21.5 11.0448H23V11.0447L21.5 11.0448ZM21.5 11.6473L23 11.6473V11.6473H21.5ZM21.3145 12.6102L19.9217 12.0531L19.9217 12.0532L21.3145 12.6102ZM19.7432 16.5389L21.1359 17.096L21.1359 17.0959L19.7432 16.5389ZM15.3291 19.7449L15.4144 21.2425V21.2425L15.3291 19.7449ZM10.1992 19.9246L10.198 21.4246H10.198L10.1992 19.9246ZM4.39062 19.6971L4.29773 21.1942L4.29781 21.1942L4.39062 19.6971ZM7.54004 9.28791V10.7879C8.04154 10.7879 8.50986 10.5373 8.78807 10.12L7.54004 9.28791ZM10.1992 5.29963L11.4472 6.13175C11.4819 6.07986 11.5132 6.02585 11.5411 5.97005L10.1992 5.29963ZM10.8447 4.00764L12.1864 4.67833L12.1868 4.67792L13.3721 3.75862L14.5573 2.83931C13.203 1.09309 10.4904 1.36171 9.50302 3.33695L10.8447 4.00764ZM13.3721 3.75862L12.185 4.67561L12.4702 5.04475L13.6572 4.12776L14.8443 3.21077L14.5591 2.84163L13.3721 3.75862ZM13.6572 4.12776L12.4719 5.047C12.7099 5.35388 12.7669 5.7636 12.6221 6.12337L14.0137 6.68342L15.4052 7.24347C15.9484 5.89382 15.7338 4.35776 14.8426 3.20852L13.6572 4.12776ZM14.0137 6.68342L12.6221 6.12356L11.9102 7.89309L13.3018 8.45295L14.6934 9.01282L15.4053 7.24329L14.0137 6.68342ZM13.3018 8.45295V9.95295H18.9082V8.45295V6.95295H13.3018V8.45295ZM18.9082 8.45295V9.95295C19.5111 9.95295 20 10.4419 20 11.0448L21.5 11.0448L23 11.0447C23 8.78501 21.168 6.95295 18.9082 6.95295V8.45295ZM21.5 11.0448H20V11.6473H21.5H23V11.0448H21.5ZM21.5 11.6473L20 11.6472C20 11.7858 19.9734 11.9239 19.9217 12.0531L21.3145 12.6102L22.7072 13.1673C22.9004 12.6843 23 12.1681 23 11.6473L21.5 11.6473ZM21.3145 12.6102L19.9217 12.0532L18.3504 15.9819L19.7432 16.5389L21.1359 17.0959L22.7072 13.1672L21.3145 12.6102ZM19.7432 16.5389L18.3504 15.9818C17.8278 17.2885 16.6176 18.1691 15.2438 18.2474L15.3291 19.7449L15.4144 21.2425C17.9821 21.0962 20.1923 19.4549 21.1359 17.096L19.7432 16.5389ZM15.3291 19.7449L15.2438 18.2474C13.6208 18.3398 11.7014 18.4259 10.2005 18.4246L10.1992 19.9246L10.198 21.4246C11.7891 21.426 13.7794 21.3357 15.4144 21.2425L15.3291 19.7449ZM10.1992 19.9246L10.2005 18.4246C8.4778 18.4232 6.19878 18.3063 4.48344 18.2L4.39062 19.6971L4.29781 21.1942C6.02065 21.301 8.37735 21.4231 10.198 21.4246L10.1992 19.9246ZM4.39062 19.6971L4.48352 18.2C3.9378 18.1661 3.5 17.7096 3.5 17.1346H2H0.5C0.5 19.266 2.14221 21.0605 4.29773 21.1942L4.39062 19.6971ZM2 17.1346H3.5V11.8797H2H0.5V17.1346H2ZM2 11.8797H3.5C3.5 11.2768 3.9889 10.7879 4.5918 10.7879V9.28791V7.78791C2.33204 7.78791 0.5 9.61996 0.5 11.8797H2ZM4.5918 9.28791V10.7879H7.54004V9.28791V7.78791H4.5918V9.28791ZM7.54004 9.28791L8.78807 10.12L11.4472 6.13175L10.1992 5.29963L8.95119 4.46751L6.29201 8.45579L7.54004 9.28791ZM10.1992 5.29963L11.5411 5.97005L12.1866 4.67806L10.8447 4.00764L9.50288 3.33723L8.85738 4.62922L10.1992 5.29963Z" fill="#1A1A1A" mask="url(#path-3-inside-2_105_4223)"/>
</mask>
<g mask="url(#mask0_105_4223)">
<path fill-rule="evenodd" clip-rule="evenodd" d="M7.31836 8.28735V20.2594Z" fill="white"/>
<path d="M7.31836 8.28735V20.2594" stroke="white" stroke-width="1.5" stroke-linecap="round" stroke-linejoin="round"/>
</g>
</svg>
