<svg width="32" height="32" viewBox="0 0 32 32" fill="none" xmlns="http://www.w3.org/2000/svg">
<mask id="path-1-inside-1_105_4231" fill="white">
<path d="M14.459 5.34354C15.1173 4.02612 16.9254 3.84784 17.8281 5.01151L18.209 5.50272C18.9618 6.47343 19.1432 7.77131 18.6846 8.91092L17.7344 11.2703H25.2109C27.1192 11.2705 28.666 12.8181 28.666 14.7264V15.5291C28.666 15.9686 28.5821 16.4042 28.4189 16.8123L26.3232 22.0525C25.3457 24.496 23.0659 26.1761 20.4385 26.326C18.2665 26.4497 15.66 26.5669 13.5986 26.5652C11.2364 26.5632 8.14567 26.4046 5.85352 26.2625C4.05271 26.1507 2.66605 24.6508 2.66602 22.8465V15.8387C2.66627 13.9306 4.21303 12.3838 6.12109 12.3836H10.0527L13.5986 7.06522L14.459 5.34354Z"/>
</mask>
<path d="M14.459 5.34354C15.1173 4.02612 16.9254 3.84784 17.8281 5.01151L18.209 5.50272C18.9618 6.47343 19.1432 7.77131 18.6846 8.91092L17.7344 11.2703H25.2109C27.1192 11.2705 28.666 12.8181 28.666 14.7264V15.5291C28.666 15.9686 28.5821 16.4042 28.4189 16.8123L26.3232 22.0525C25.3457 24.496 23.0659 26.1761 20.4385 26.326C18.2665 26.4497 15.66 26.5669 13.5986 26.5652C11.2364 26.5632 8.14567 26.4046 5.85352 26.2625C4.05271 26.1507 2.66605 24.6508 2.66602 22.8465V15.8387C2.66627 13.9306 4.21303 12.3838 6.12109 12.3836H10.0527L13.5986 7.06522L14.459 5.34354Z" fill="#1A1A1A"/>
<path d="M14.459 5.34354L12.8936 4.56125L12.8936 4.56127L14.459 5.34354ZM17.8281 5.01151L19.2111 3.93921L19.2109 3.93887L17.8281 5.01151ZM18.209 5.50272L16.826 6.57502L16.8261 6.5752L18.209 5.50272ZM18.6846 8.91092L20.3079 9.56468L20.308 9.56424L18.6846 8.91092ZM17.7344 11.2703L16.1111 10.6165C15.8939 11.1559 15.9587 11.7679 16.2841 12.2497C16.6095 12.7315 17.153 13.0203 17.7344 13.0203V11.2703ZM25.2109 11.2703L25.2112 9.5203H25.2109V11.2703ZM28.4189 16.8123L30.0438 17.4621L30.0439 17.462L28.4189 16.8123ZM26.3232 22.0525L27.948 22.7025L27.9481 22.7024L26.3232 22.0525ZM20.4385 26.326L20.538 28.0731L20.5381 28.0731L20.4385 26.326ZM13.5986 26.5652L13.5972 28.3152H13.5972L13.5986 26.5652ZM5.85352 26.2625L5.74514 28.0091L5.74523 28.0091L5.85352 26.2625ZM2.66602 22.8465H0.916016V22.8465L2.66602 22.8465ZM2.66602 15.8387L0.916016 15.8384V15.8387H2.66602ZM6.12109 12.3836V10.6336H6.12087L6.12109 12.3836ZM10.0527 12.3836V14.1336C10.6378 14.1336 11.1842 13.8412 11.5088 13.3544L10.0527 12.3836ZM13.5986 7.06522L15.0547 8.036C15.095 7.9755 15.1316 7.91254 15.1641 7.84749L13.5986 7.06522ZM14.459 5.34354L16.0244 6.12582C16.1068 5.96084 16.3328 5.93898 16.4454 6.08415L17.8281 5.01151L19.2109 3.93887C17.5181 1.7567 14.1278 2.09141 12.8936 4.56125L14.459 5.34354ZM17.8281 5.01151L16.4451 6.08381L16.826 6.57502L18.209 5.50272L19.592 4.43042L19.2111 3.93921L17.8281 5.01151ZM18.209 5.50272L16.8261 6.5752C17.198 7.05466 17.2873 7.69553 17.0611 8.2576L18.6846 8.91092L20.308 9.56424C20.9991 7.84709 20.7257 5.89221 19.5918 4.43023L18.209 5.50272ZM18.6846 8.91092L17.0613 8.25717L16.1111 10.6165L17.7344 11.2703L19.3577 11.9241L20.3079 9.56468L18.6846 8.91092ZM17.7344 11.2703V13.0203H25.2109V11.2703V9.5203H17.7344V11.2703ZM25.2109 11.2703L25.2107 13.0203C26.1522 13.0204 26.916 13.7841 26.916 14.7263H28.666H30.416C30.416 11.852 28.0861 9.52066 25.2112 9.5203L25.2109 11.2703ZM28.666 14.7263H26.916V15.5291H28.666H30.416V14.7263H28.666ZM28.666 15.5291H26.916C26.916 15.7459 26.8746 15.9611 26.794 16.1625L28.4189 16.8123L30.0439 17.462C30.2896 16.8474 30.416 16.1912 30.416 15.5291H28.666ZM28.4189 16.8123L26.7941 16.1625L24.6984 21.4027L26.3232 22.0525L27.9481 22.7024L30.0438 17.4621L28.4189 16.8123ZM26.3232 22.0525L24.6984 21.4025C23.9666 23.2319 22.2703 24.4687 20.3389 24.5788L20.4385 26.326L20.5381 28.0731C23.8615 27.8836 26.7249 25.7601 27.948 22.7025L26.3232 22.0525ZM20.4385 26.326L20.3389 24.5788C18.1743 24.7021 15.609 24.8169 13.6001 24.8152L13.5986 26.5652L13.5972 28.3152C15.7111 28.317 18.3588 28.1973 20.538 28.0731L20.4385 26.326ZM13.5986 26.5652L13.6001 24.8152C11.2948 24.8133 8.24919 24.6576 5.9618 24.5158L5.85352 26.2625L5.74523 28.0091C8.04214 28.1515 11.178 28.3132 13.5972 28.3152L13.5986 26.5652ZM5.85352 26.2625L5.96189 24.5158C5.09975 24.4623 4.41603 23.7425 4.41602 22.8464L2.66602 22.8465L0.916016 22.8465C0.91606 25.559 3.00567 27.8391 5.74514 28.0091L5.85352 26.2625ZM2.66602 22.8465H4.41602V15.8387H2.66602H0.916016V22.8465H2.66602ZM2.66602 15.8387L4.41602 15.8389C4.41614 14.8971 5.17959 14.1337 6.12132 14.1336L6.12109 12.3836L6.12087 10.6336C3.24646 10.6339 0.916406 12.9641 0.916016 15.8384L2.66602 15.8387ZM6.12109 12.3836V14.1336H10.0527V12.3836V10.6336H6.12109V12.3836ZM10.0527 12.3836L11.5088 13.3544L15.0547 8.036L13.5986 7.06522L12.1426 6.09443L8.59669 11.4128L10.0527 12.3836ZM13.5986 7.06522L15.1641 7.84749L16.0244 6.12581L14.459 5.34354L12.8936 4.56127L12.0332 6.28295L13.5986 7.06522Z" fill="#1A1A1A" mask="url(#path-1-inside-1_105_4231)"/>
<mask id="mask0_105_4231" style="mask-type:alpha" maskUnits="userSpaceOnUse" x="2" y="4" width="27" height="23">
<mask id="path-3-inside-2_105_4231" fill="white">
<path d="M14.459 5.34354C15.1173 4.02612 16.9254 3.84784 17.8281 5.01151L18.209 5.50272C18.9618 6.47343 19.1432 7.77131 18.6846 8.91092L17.7344 11.2703H25.2109C27.1192 11.2705 28.666 12.8181 28.666 14.7264V15.5291C28.666 15.9686 28.5821 16.4042 28.4189 16.8123L26.3232 22.0525C25.3457 24.496 23.0659 26.1761 20.4385 26.326C18.2665 26.4497 15.66 26.5669 13.5986 26.5652C11.2364 26.5632 8.14567 26.4046 5.85352 26.2625C4.05271 26.1507 2.66605 24.6508 2.66602 22.8465V15.8387C2.66627 13.9306 4.21303 12.3838 6.12109 12.3836H10.0527L13.5986 7.06522L14.459 5.34354Z"/>
</mask>
<path d="M14.459 5.34354C15.1173 4.02612 16.9254 3.84784 17.8281 5.01151L18.209 5.50272C18.9618 6.47343 19.1432 7.77131 18.6846 8.91092L17.7344 11.2703H25.2109C27.1192 11.2705 28.666 12.8181 28.666 14.7264V15.5291C28.666 15.9686 28.5821 16.4042 28.4189 16.8123L26.3232 22.0525C25.3457 24.496 23.0659 26.1761 20.4385 26.326C18.2665 26.4497 15.66 26.5669 13.5986 26.5652C11.2364 26.5632 8.14567 26.4046 5.85352 26.2625C4.05271 26.1507 2.66605 24.6508 2.66602 22.8465V15.8387C2.66627 13.9306 4.21303 12.3838 6.12109 12.3836H10.0527L13.5986 7.06522L14.459 5.34354Z" fill="#1A1A1A"/>
<path d="M14.459 5.34354L12.8936 4.56125L12.8936 4.56127L14.459 5.34354ZM17.8281 5.01151L19.2111 3.93921L19.2109 3.93887L17.8281 5.01151ZM18.209 5.50272L16.826 6.57502L16.8261 6.5752L18.209 5.50272ZM18.6846 8.91092L20.3079 9.56468L20.308 9.56424L18.6846 8.91092ZM17.7344 11.2703L16.1111 10.6165C15.8939 11.1559 15.9587 11.7679 16.2841 12.2497C16.6095 12.7315 17.153 13.0203 17.7344 13.0203V11.2703ZM25.2109 11.2703L25.2112 9.5203H25.2109V11.2703ZM28.4189 16.8123L30.0438 17.4621L30.0439 17.462L28.4189 16.8123ZM26.3232 22.0525L27.948 22.7025L27.9481 22.7024L26.3232 22.0525ZM20.4385 26.326L20.538 28.0731L20.5381 28.0731L20.4385 26.326ZM13.5986 26.5652L13.5972 28.3152H13.5972L13.5986 26.5652ZM5.85352 26.2625L5.74514 28.0091L5.74523 28.0091L5.85352 26.2625ZM2.66602 22.8465H0.916016V22.8465L2.66602 22.8465ZM2.66602 15.8387L0.916016 15.8384V15.8387H2.66602ZM6.12109 12.3836V10.6336H6.12087L6.12109 12.3836ZM10.0527 12.3836V14.1336C10.6378 14.1336 11.1842 13.8412 11.5088 13.3544L10.0527 12.3836ZM13.5986 7.06522L15.0547 8.036C15.095 7.9755 15.1316 7.91254 15.1641 7.84749L13.5986 7.06522ZM14.459 5.34354L16.0244 6.12582C16.1068 5.96084 16.3328 5.93898 16.4454 6.08415L17.8281 5.01151L19.2109 3.93887C17.5181 1.7567 14.1278 2.09141 12.8936 4.56125L14.459 5.34354ZM17.8281 5.01151L16.4451 6.08381L16.826 6.57502L18.209 5.50272L19.592 4.43042L19.2111 3.93921L17.8281 5.01151ZM18.209 5.50272L16.8261 6.5752C17.198 7.05466 17.2873 7.69553 17.0611 8.2576L18.6846 8.91092L20.308 9.56424C20.9991 7.84709 20.7257 5.89221 19.5918 4.43023L18.209 5.50272ZM18.6846 8.91092L17.0613 8.25717L16.1111 10.6165L17.7344 11.2703L19.3577 11.9241L20.3079 9.56468L18.6846 8.91092ZM17.7344 11.2703V13.0203H25.2109V11.2703V9.5203H17.7344V11.2703ZM25.2109 11.2703L25.2107 13.0203C26.1522 13.0204 26.916 13.7841 26.916 14.7263H28.666H30.416C30.416 11.852 28.0861 9.52066 25.2112 9.5203L25.2109 11.2703ZM28.666 14.7263H26.916V15.5291H28.666H30.416V14.7263H28.666ZM28.666 15.5291H26.916C26.916 15.7459 26.8746 15.9611 26.794 16.1625L28.4189 16.8123L30.0439 17.462C30.2896 16.8474 30.416 16.1912 30.416 15.5291H28.666ZM28.4189 16.8123L26.7941 16.1625L24.6984 21.4027L26.3232 22.0525L27.9481 22.7024L30.0438 17.4621L28.4189 16.8123ZM26.3232 22.0525L24.6984 21.4025C23.9666 23.2319 22.2703 24.4687 20.3389 24.5788L20.4385 26.326L20.5381 28.0731C23.8615 27.8836 26.7249 25.7601 27.948 22.7025L26.3232 22.0525ZM20.4385 26.326L20.3389 24.5788C18.1743 24.7021 15.609 24.8169 13.6001 24.8152L13.5986 26.5652L13.5972 28.3152C15.7111 28.317 18.3588 28.1973 20.538 28.0731L20.4385 26.326ZM13.5986 26.5652L13.6001 24.8152C11.2948 24.8133 8.24919 24.6576 5.9618 24.5158L5.85352 26.2625L5.74523 28.0091C8.04214 28.1515 11.178 28.3132 13.5972 28.3152L13.5986 26.5652ZM5.85352 26.2625L5.96189 24.5158C5.09975 24.4623 4.41603 23.7425 4.41602 22.8464L2.66602 22.8465L0.916016 22.8465C0.91606 25.559 3.00567 27.8391 5.74514 28.0091L5.85352 26.2625ZM2.66602 22.8465H4.41602V15.8387H2.66602H0.916016V22.8465H2.66602ZM2.66602 15.8387L4.41602 15.8389C4.41614 14.8971 5.17959 14.1337 6.12132 14.1336L6.12109 12.3836L6.12087 10.6336C3.24646 10.6339 0.916406 12.9641 0.916016 15.8384L2.66602 15.8387ZM6.12109 12.3836V14.1336H10.0527V12.3836V10.6336H6.12109V12.3836ZM10.0527 12.3836L11.5088 13.3544L15.0547 8.036L13.5986 7.06522L12.1426 6.09443L8.59669 11.4128L10.0527 12.3836ZM13.5986 7.06522L15.1641 7.84749L16.0244 6.12581L14.459 5.34354L12.8936 4.56127L12.0332 6.28295L13.5986 7.06522Z" fill="#1A1A1A" mask="url(#path-3-inside-2_105_4231)"/>
</mask>
<g mask="url(#mask0_105_4231)">
<path fill-rule="evenodd" clip-rule="evenodd" d="M9.75684 11.3835V26.6796Z" fill="white"/>
<path d="M9.75684 11.3835V26.6796" stroke="white" stroke-width="1.75" stroke-linecap="round" stroke-linejoin="round"/>
</g>
</svg>
