<svg width="12" height="12" viewBox="0 0 12 12" fill="none" xmlns="http://www.w3.org/2000/svg">
<rect x="2" y="4.5" width="8" height="6" rx="2" stroke="#1A1A1A"/>
<path d="M6 8L6 7" stroke="#1A1A1A" stroke-linecap="round" stroke-linejoin="round"/>
<path d="M7.2308 2.6426C7.38864 2.86918 7.70028 2.9249 7.92686 2.76706C8.15345 2.60922 8.20917 2.29758 8.05133 2.07099L7.64106 2.35679L7.2308 2.6426ZM4.04115 1.94664C3.86957 2.16301 3.90588 2.47751 4.12225 2.64908C4.33862 2.82066 4.65311 2.78435 4.82469 2.56799L4.43292 2.25732L4.04115 1.94664ZM4 4.5H4.5V3.5H4H3.5V4.5H4ZM4 3.5H4.5C4.5 2.67157 5.17157 2 6 2V1.5V1C4.61929 1 3.5 2.11929 3.5 3.5H4ZM7.64106 2.35679L8.05133 2.07099C7.75317 1.643 7.32862 1.31898 6.83712 1.14432L6.6697 1.61546L6.50227 2.08659C6.79717 2.19139 7.05191 2.3858 7.2308 2.6426L7.64106 2.35679ZM6.6697 1.61546L6.83712 1.14432C6.34563 0.969661 5.81181 0.953108 5.31044 1.09698L5.44835 1.57758L5.58626 2.05819C5.88709 1.97186 6.20738 1.9818 6.50227 2.08659L6.6697 1.61546ZM5.44835 1.57758L5.31044 1.09698C4.80906 1.24085 4.36525 1.53794 4.04115 1.94664L4.43292 2.25732L4.82469 2.56799C5.01915 2.32277 5.28544 2.14451 5.58626 2.05819L5.44835 1.57758Z" fill="#1A1A1A"/>
</svg>
