<svg width="16" height="16" viewBox="0 0 16 16" fill="none" xmlns="http://www.w3.org/2000/svg">
<rect x="2.66699" y="6" width="10.6667" height="8" rx="2.66667" stroke="#1A1A1A"/>
<path d="M8 10.6667L8 9.33337" stroke="#1A1A1A" stroke-linecap="round" stroke-linejoin="round"/>
<path d="M9.77847 3.42819C9.93631 3.65478 10.248 3.7105 10.4745 3.55266C10.7011 3.39481 10.7568 3.08317 10.599 2.85659L10.1887 3.14239L9.77847 3.42819ZM5.51944 2.69908C5.34787 2.91545 5.38417 3.22994 5.60054 3.40152C5.81691 3.5731 6.1314 3.53679 6.30298 3.32042L5.91121 3.00975L5.51944 2.69908ZM5.33398 6H5.83398V4.66667H5.33398H4.83398V6H5.33398ZM5.33398 4.66667H5.83398C5.83398 3.47005 6.80403 2.5 8.00065 2.5V2V1.5C6.25175 1.5 4.83398 2.91777 4.83398 4.66667H5.33398ZM10.1887 3.14239L10.599 2.85659C10.2213 2.31447 9.68357 1.90404 9.06101 1.68281L8.89358 2.15394L8.72616 2.62508C9.15212 2.77645 9.52007 3.05727 9.77847 3.42819L10.1887 3.14239ZM8.89358 2.15394L9.06101 1.68281C8.43845 1.46157 7.76228 1.4406 7.1272 1.62284L7.26512 2.10345L7.40303 2.58405C7.83755 2.45936 8.30019 2.47371 8.72616 2.62508L8.89358 2.15394ZM7.26512 2.10345L7.1272 1.62284C6.49213 1.80508 5.92997 2.1814 5.51944 2.69908L5.91121 3.00975L6.30298 3.32042C6.58387 2.96622 6.96851 2.70874 7.40303 2.58405L7.26512 2.10345Z" fill="#1A1A1A"/>
</svg>
