<svg width="32" height="32" viewBox="0 0 32 32" fill="none" xmlns="http://www.w3.org/2000/svg">
<rect x="5.33301" y="12" width="21.3333" height="16" rx="5.33333" stroke="#1A1A1A" stroke-width="1.75"/>
<path d="M16 21.3333L16 18.6666" stroke="#1A1A1A" stroke-width="1.75" stroke-linecap="round" stroke-linejoin="round"/>
<path d="M19.6575 6.78494C19.9338 7.18146 20.4791 7.27898 20.8757 7.00275C21.2722 6.72652 21.3697 6.18115 21.0935 5.78463L20.3755 6.28479L19.6575 6.78494ZM11.1349 5.47583C10.8346 5.85448 10.8982 6.40484 11.2768 6.7051C11.6554 7.00537 12.2058 6.94183 12.5061 6.56318L11.8205 6.01951L11.1349 5.47583ZM10.666 12H11.541V9.33333H10.666H9.79102V12H10.666ZM10.666 9.33333H11.541C11.541 6.87106 13.5371 4.875 15.9993 4.875V4V3.125C12.5706 3.125 9.79102 5.90457 9.79102 9.33333H10.666ZM20.3755 6.28479L21.0935 5.78463C20.3531 4.72178 19.2988 3.91714 18.0782 3.4834L17.7852 4.30788L17.4922 5.13237C18.3687 5.44385 19.1258 6.02168 19.6575 6.78494L20.3755 6.28479ZM17.7852 4.30788L18.0782 3.4834C16.8577 3.04966 15.532 3.00855 14.2869 3.36584L14.5283 4.20689L14.7696 5.04795C15.6637 4.79138 16.6157 4.8209 17.4922 5.13237L17.7852 4.30788ZM14.5283 4.20689L14.2869 3.36584C13.0419 3.72312 11.9397 4.46089 11.1349 5.47583L11.8205 6.01951L12.5061 6.56318C13.084 5.83433 13.8755 5.30452 14.7696 5.04795L14.5283 4.20689Z" fill="#1A1A1A"/>
</svg>
