<svg width="12" height="12" viewBox="0 0 12 12" fill="none" xmlns="http://www.w3.org/2000/svg">
<path d="M3.25 4.83337H8.58333L8.33305 9.08812C8.28642 9.88097 7.62986 10.5 6.83564 10.5H4.99769C4.20348 10.5 3.54692 9.88097 3.50028 9.08812L3.25 4.83337Z" stroke="#1A1A1A"/>
<circle cx="1" cy="1" r="1" transform="matrix(-1 0 0 1 6.91699 6.5)" stroke="#1A1A1A" stroke-width="0.75"/>
<path d="M2.25 4.00002C2.25 3.53978 2.6231 3.16669 3.08333 3.16669H8.75C9.21024 3.16669 9.58333 3.53978 9.58333 4.00002C9.58333 4.46026 9.21024 4.83335 8.75 4.83335H3.08333C2.6231 4.83335 2.25 4.46026 2.25 4.00002Z" stroke="#1A1A1A" stroke-width="0.75"/>
<path d="M3.25 2.5C3.25 1.94771 3.69772 1.5 4.25 1.5H7.58333C8.13562 1.5 8.58333 1.94772 8.58333 2.5V2.66667C8.58333 2.94281 8.35948 3.16667 8.08333 3.16667H3.75C3.47386 3.16667 3.25 2.94281 3.25 2.66667V2.5Z" stroke="#1A1A1A" stroke-width="0.75"/>
</svg>
