<svg width="16" height="16" viewBox="0 0 16 16" fill="none" xmlns="http://www.w3.org/2000/svg">
<path d="M4.33301 6.44446H11.4441L11.1104 12.1175C11.0482 13.1746 10.1728 14 9.11386 14H6.66326C5.60431 14 4.7289 13.1746 4.66671 12.1175L4.33301 6.44446Z" stroke="#1A1A1A"/>
<circle cx="1.33333" cy="1.33333" r="1.33333" transform="matrix(-1 0 0 1 9.22266 8.66669)" stroke="#1A1A1A"/>
<path d="M3 5.33334C3 4.71969 3.49746 4.22223 4.11111 4.22223H11.6667C12.2803 4.22223 12.7778 4.71969 12.7778 5.33334C12.7778 5.94699 12.2803 6.44445 11.6667 6.44445H4.11111C3.49746 6.44445 3 5.94699 3 5.33334Z" stroke="#1A1A1A"/>
<path d="M4.33301 3.33333C4.33301 2.59695 4.92996 2 5.66634 2H10.1108C10.8472 2 11.4441 2.59695 11.4441 3.33333V3.55556C11.4441 3.92375 11.1456 4.22222 10.7775 4.22222H4.99967C4.63148 4.22222 4.33301 3.92375 4.33301 3.55556V3.33333Z" stroke="#1A1A1A"/>
</svg>
