<svg width="32" height="32" viewBox="0 0 32 32" fill="none" xmlns="http://www.w3.org/2000/svg">
<path d="M8 13H24L23.2215 26.2349C23.0971 28.3491 21.3463 30 19.2284 30H12.7716C10.6537 30 8.90289 28.3491 8.77852 26.2349L8 13Z" stroke="#1A1A1A" stroke-width="1.75"/>
<circle cx="3" cy="3" r="3" transform="matrix(-1 0 0 1 19 18)" stroke="#1A1A1A" stroke-width="1.75"/>
<path d="M5 10.5C5 9.11929 6.11929 8 7.5 8H24.5C25.8807 8 27 9.11929 27 10.5C27 11.8807 25.8807 13 24.5 13H7.5C6.11929 13 5 11.8807 5 10.5Z" stroke="#1A1A1A" stroke-width="1.75"/>
<path d="M8 5.66667C8 4.19391 9.19391 3 10.6667 3H21.3333C22.8061 3 24 4.19391 24 5.66667V6.66667C24 7.40305 23.403 8 22.6667 8H9.33333C8.59695 8 8 7.40305 8 6.66667V5.66667Z" stroke="#1A1A1A" stroke-width="1.75"/>
</svg>
