<svg width="12" height="12" viewBox="0 0 12 12" fill="none" xmlns="http://www.w3.org/2000/svg">
<path d="M1.5 5.25022C1.5 3.91907 2.64934 2.87893 3.97388 3.01139L5.73134 3.18713C5.91 3.205 6.09 3.205 6.26866 3.18713L8.02612 3.01139C9.35066 2.87893 10.5 3.91907 10.5 5.25022V7.95C10.5 9.56696 8.38685 10.1798 7.52169 8.8138C6.90504 7.84014 5.49614 7.80762 4.83522 8.75179L4.70731 8.93452C3.71883 10.3466 1.5 9.64721 1.5 7.9235V5.25022Z" stroke="#1A1A1A"/>
<circle cx="8.7" cy="5.23906" r="0.45" fill="#1A1A1A"/>
<circle cx="7.79961" cy="6.58916" r="0.45" fill="#1A1A1A"/>
<path d="M4.2002 6.81392L4.2002 5.01392" stroke="#1A1A1A" stroke-linecap="round" stroke-linejoin="round"/>
<path d="M3.29961 5.91406H5.09961" stroke="#1A1A1A" stroke-linecap="round" stroke-linejoin="round"/>
</svg>
