<svg width="12" height="12" viewBox="0 0 12 12" fill="none" xmlns="http://www.w3.org/2000/svg">
<path d="M2.03675 3.28946H9.52436C10.2223 3.28946 10.788 3.85519 10.788 4.55306C10.788 4.68972 10.7659 4.82547 10.7224 4.95503L10.1249 6.73552C9.86581 7.50766 9.14237 8.02796 8.32787 8.02796H4.38387C3.4456 8.02796 2.64851 7.34156 2.50933 6.41373L1.96515 2.78612C1.87236 2.16756 1.34097 1.70996 0.715453 1.70996H0.540039" stroke="#1A1A1A" stroke-linecap="round" stroke-linejoin="round"/>
<path fill-rule="evenodd" clip-rule="evenodd" d="M3.46696 10.8323C3.07207 10.8323 2.75195 10.5122 2.75195 10.1173C2.75195 9.72244 3.07207 9.40234 3.46696 9.40234C3.86185 9.40234 4.18197 9.72244 4.18197 10.1173C4.18197 10.5122 3.86185 10.8323 3.46696 10.8323Z" fill="#1A1A1A"/>
<path fill-rule="evenodd" clip-rule="evenodd" d="M8.80715 10.8323C8.41261 10.8323 8.09277 10.5125 8.09277 10.1179C8.09277 9.7234 8.41261 9.40356 8.80715 9.40356C9.20169 9.40356 9.52152 9.7234 9.52152 10.1179C9.52152 10.5125 9.20169 10.8323 8.80715 10.8323Z" fill="#1A1A1A"/>
</svg>
