<svg width="16" height="16" viewBox="0 0 16 16" fill="none" xmlns="http://www.w3.org/2000/svg">
<path d="M2.71631 4.38603H12.6998C13.6303 4.38603 14.3847 5.14034 14.3847 6.07083C14.3847 6.25304 14.3551 6.43405 14.2972 6.60679L13.5005 8.98077C13.1551 10.0103 12.1905 10.704 11.1045 10.704H5.84581C4.59478 10.704 3.532 9.78883 3.34642 8.55172L2.62085 3.71491C2.49713 2.89016 1.78861 2.28003 0.954589 2.28003H0.720703" stroke="#1A1A1A" stroke-linecap="round" stroke-linejoin="round"/>
<path fill-rule="evenodd" clip-rule="evenodd" d="M4.39065 14.6166C3.81624 14.6166 3.35059 14.151 3.35059 13.5766C3.35059 13.0022 3.81624 12.5366 4.39065 12.5366C4.96506 12.5366 5.43071 13.0022 5.43071 13.5766C5.43071 14.151 4.96506 14.6166 4.39065 14.6166Z" fill="#1A1A1A"/>
<path fill-rule="evenodd" clip-rule="evenodd" d="M11.9707 14.6181C11.3963 14.6181 10.9307 14.1525 10.9307 13.5781C10.9307 13.0037 11.3963 12.5381 11.9707 12.5381C12.545 12.5381 13.0107 13.0037 13.0107 13.5781C13.0107 14.1525 12.545 14.6181 11.9707 14.6181Z" fill="#1A1A1A"/>
</svg>
