<svg width="24" height="24" viewBox="0 0 24 24" fill="none" xmlns="http://www.w3.org/2000/svg">
<path d="M4.07349 6.57892H19.0487C20.4445 6.57892 21.5761 7.71039 21.5761 9.10612C21.5761 9.37944 21.5317 9.65095 21.4448 9.91007L20.2498 13.471C19.7316 15.0153 18.2847 16.0559 16.6557 16.0559H8.76774C6.89119 16.0559 5.29702 14.6831 5.01865 12.8275L3.9303 5.57224C3.74472 4.33512 2.68194 3.41992 1.43091 3.41992H1.08008" stroke="#1A1A1A" stroke-width="1.5" stroke-linecap="round" stroke-linejoin="round"/>
<path fill-rule="evenodd" clip-rule="evenodd" d="M6.93392 21.6648C6.14415 21.6648 5.50391 21.0246 5.50391 20.2349C5.50391 19.4451 6.14415 18.8049 6.93392 18.8049C7.7237 18.8049 8.36394 19.4451 8.36394 20.2349C8.36394 21.0246 7.7237 21.6648 6.93392 21.6648Z" fill="#1A1A1A"/>
<path fill-rule="evenodd" clip-rule="evenodd" d="M17.6143 21.6646C16.8252 21.6646 16.1855 21.025 16.1855 20.2359C16.1855 19.4468 16.8252 18.8071 17.6143 18.8071C18.4034 18.8071 19.043 19.4468 19.043 20.2359C19.043 21.025 18.4034 21.6646 17.6143 21.6646Z" fill="#1A1A1A"/>
</svg>
