<svg width="32" height="32" viewBox="0 0 32 32" fill="none" xmlns="http://www.w3.org/2000/svg">
<path d="M5.43165 8.77206H25.3986C27.2597 8.77206 28.7684 10.2807 28.7684 12.1417C28.7684 12.5061 28.7093 12.8681 28.5934 13.2136L27.0001 17.9615C26.3092 20.0206 24.38 21.4081 22.208 21.4081H11.6906C9.18858 21.4081 7.06302 19.5777 6.69186 17.1034L5.24073 7.42981C4.99329 5.78032 3.57624 4.56006 1.9082 4.56006H1.44043" stroke="#1A1A1A" stroke-width="1.75" stroke-linecap="round" stroke-linejoin="round"/>
<path fill-rule="evenodd" clip-rule="evenodd" d="M9.24555 28.8864C8.19252 28.8864 7.33887 28.0328 7.33887 26.9798C7.33887 25.9268 8.19252 25.0732 9.24555 25.0732C10.2986 25.0732 11.1522 25.9268 11.1522 26.9798C11.1522 28.0328 10.2986 28.8864 9.24555 28.8864Z" fill="#1A1A1A"/>
<path fill-rule="evenodd" clip-rule="evenodd" d="M23.4861 28.8862C22.434 28.8862 21.5811 28.0333 21.5811 26.9812C21.5811 25.9291 22.434 25.0762 23.4861 25.0762C24.5382 25.0762 25.3911 25.9291 25.3911 26.9812C25.3911 28.0333 24.5382 28.8862 23.4861 28.8862Z" fill="#1A1A1A"/>
</svg>
