<svg width="16" height="16" viewBox="0 0 16 16" fill="none" xmlns="http://www.w3.org/2000/svg">
<path d="M3.33301 2.33331H12.6663V12.977C12.6663 13.5306 12.0308 13.843 11.5925 13.5049L10.7052 12.8205C10.482 12.6483 10.1747 12.6351 9.93754 12.7875L8.72068 13.5698C8.28147 13.8522 7.71787 13.8522 7.27866 13.5698L6.06181 12.7875C5.82468 12.6351 5.5173 12.6483 5.2941 12.8205L4.40688 13.5049C3.96859 13.843 3.33301 13.5306 3.33301 12.977V2.33331Z" stroke="#1A1A1A"/>
<path d="M8.33301 6.33333H10.333" stroke="#1A1A1A" stroke-linecap="round" stroke-linejoin="round"/>
<path d="M2 2.33333H14" stroke="#1A1A1A" stroke-linecap="round" stroke-linejoin="round"/>
<path d="M8.33301 8.99996H10.333" stroke="#1A1A1A" stroke-linecap="round" stroke-linejoin="round"/>
<path d="M5.91699 6.33333H6.25033" stroke="#1A1A1A" stroke-linecap="round" stroke-linejoin="round"/>
<path d="M5.91699 8.99996H6.25033" stroke="#1A1A1A" stroke-linecap="round" stroke-linejoin="round"/>
</svg>
