<svg width="12" height="12" viewBox="0 0 12 12" fill="none" xmlns="http://www.w3.org/2000/svg">
<path d="M5.7858 4.10593C5.88296 3.94448 6.11704 3.94448 6.2142 4.10593L6.686 4.88989C6.7209 4.94789 6.77784 4.98926 6.84379 5.00454L7.73518 5.21098C7.91875 5.2535 7.99109 5.47612 7.86756 5.61842L7.26776 6.30938C7.22338 6.3605 7.20164 6.42743 7.20749 6.49488L7.2866 7.40643C7.30289 7.59416 7.11352 7.73175 6.94001 7.65824L6.09752 7.30132C6.03519 7.27491 5.96481 7.27491 5.90248 7.30132L5.05999 7.65824C4.88648 7.73175 4.69711 7.59416 4.7134 7.40643L4.79251 6.49488C4.79836 6.42743 4.77662 6.3605 4.73224 6.30938L4.13244 5.61842C4.00891 5.47612 4.08125 5.2535 4.26482 5.21098L5.15621 5.00454C5.22216 4.98926 5.2791 4.94789 5.314 4.88989L5.7858 4.10593Z" stroke="#1A1A1A"/>
<circle cx="6" cy="6" r="4.5" stroke="#1A1A1A"/>
</svg>
