<svg width="16" height="16" viewBox="0 0 16 16" fill="none" xmlns="http://www.w3.org/2000/svg">
<path d="M7.7144 5.47457C7.84395 5.2593 8.15605 5.2593 8.2856 5.47457L8.91466 6.51985C8.9612 6.59719 9.03712 6.65235 9.12506 6.67271L10.3136 6.94798C10.5583 7.00467 10.6548 7.30149 10.4901 7.49122L9.69035 8.41251C9.63118 8.48067 9.60218 8.56991 9.60998 8.65984L9.71547 9.87524C9.73719 10.1255 9.4847 10.309 9.25335 10.211L8.13003 9.73509C8.04692 9.69988 7.95308 9.69988 7.86997 9.73509L6.74665 10.211C6.5153 10.309 6.26281 10.1255 6.28453 9.87524L6.39002 8.65984C6.39782 8.56991 6.36882 8.48067 6.30965 8.41251L5.50992 7.49122C5.34522 7.30149 5.44166 7.00467 5.68643 6.94798L6.87494 6.67271C6.96288 6.65235 7.0388 6.59719 7.08534 6.51986L7.7144 5.47457Z" stroke="#1A1A1A"/>
<circle cx="8" cy="8" r="6" stroke="#1A1A1A"/>
</svg>
