<svg width="24" height="24" viewBox="0 0 24 24" fill="none" xmlns="http://www.w3.org/2000/svg">
<path d="M11.5716 6.71186C11.7659 6.38895 12.2341 6.38895 12.4284 6.71186L13.8657 9.10021C13.9355 9.21621 14.0494 9.29895 14.1813 9.3295L16.8969 9.95844C17.2641 10.0435 17.4088 10.4887 17.1617 10.7733L15.3344 12.8783C15.2457 12.9806 15.2022 13.1144 15.2139 13.2493L15.4549 16.0264C15.4875 16.4018 15.1087 16.677 14.7617 16.53L12.195 15.4426C12.0704 15.3898 11.9296 15.3898 11.805 15.4426L9.2383 16.53C8.89128 16.677 8.51254 16.4018 8.54512 16.0264L8.78614 13.2493C8.79784 13.1144 8.75435 12.9806 8.66559 12.8783L6.8383 10.7733C6.59124 10.4887 6.73591 10.0435 7.10306 9.95844L9.81868 9.3295C9.95058 9.29895 10.0645 9.21621 10.1343 9.10021L11.5716 6.71186Z" stroke="#1A1A1A" stroke-width="1.5"/>
<circle cx="12" cy="12" r="10" stroke="#1A1A1A" stroke-width="1.5"/>
</svg>
