<svg width="32" height="32" viewBox="0 0 32 32" fill="none" xmlns="http://www.w3.org/2000/svg">
<path d="M15.4288 8.94915C15.6879 8.5186 16.3121 8.5186 16.5712 8.94915L18.4876 12.1336C18.5807 12.2883 18.7326 12.3986 18.9084 12.4393L22.5292 13.2779C23.0188 13.3913 23.2117 13.9849 22.8823 14.3644L20.4459 17.1711C20.3275 17.3074 20.2695 17.4859 20.2852 17.6658L20.6065 21.3685C20.6499 21.8691 20.145 22.236 19.6823 22.04L16.2601 20.5902C16.0938 20.5198 15.9062 20.5198 15.7399 20.5902L12.3177 22.04C11.855 22.236 11.3501 21.8691 11.3935 21.3685L11.7148 17.6658C11.7305 17.4859 11.6725 17.3074 11.5541 17.1711L9.11773 14.3644C8.78832 13.9849 8.98121 13.3913 9.47075 13.2779L13.0916 12.4393C13.2674 12.3986 13.4193 12.2883 13.5124 12.1336L15.4288 8.94915Z" stroke="#1A1A1A" stroke-width="1.75"/>
<circle cx="16" cy="16" r="14" stroke="#1A1A1A" stroke-width="1.75"/>
</svg>
