<svg width="12" height="12" viewBox="0 0 12 12" fill="none" xmlns="http://www.w3.org/2000/svg">
<path d="M9.40485 10.1405C8.42178 11.1235 6.24564 9.9994 4.12312 7.87688C2.0006 5.75436 0.876461 3.57822 1.85952 2.59515L2.61405 1.84062C3.0609 1.39377 3.6617 1.3792 4.12312 1.84062L5.25492 2.97242C5.71634 3.43384 5.70177 4.03464 5.25492 4.48148C5.24221 4.49419 4.47917 5.14533 4.875 5.625C5.09123 5.88703 5.37943 6.11506 5.63218 6.36781C5.88494 6.62057 6.12468 6.90612 6.38672 7.12235C6.87198 7.52279 7.5 6.75 7.51851 6.74508C7.96536 6.29823 8.56616 6.28366 9.02758 6.74508L10.1594 7.87688C10.6208 8.3383 10.6062 8.9391 10.1594 9.38594L9.40485 10.1405Z" stroke="#1A1A1A"/>
<path d="M7.84835 4.52665L10.5 1.875" stroke="#1A1A1A" stroke-linecap="round" stroke-linejoin="round"/>
<path d="M7.84835 1.84835L10.5 4.5" stroke="#1A1A1A" stroke-linecap="round" stroke-linejoin="round"/>
</svg>
