<svg width="16" height="16" viewBox="0 0 16 16" fill="none" xmlns="http://www.w3.org/2000/svg">
<path d="M12.5398 13.5206C11.229 14.8314 8.32753 13.3325 5.49749 10.5025C2.66746 7.67248 1.16861 4.77096 2.47936 3.46021L3.48541 2.45416C4.0812 1.85837 4.88227 1.83894 5.49749 2.45416L7.00656 3.96323C7.62178 4.57845 7.60235 5.37952 7.00656 5.97531C6.98961 5.99226 5.97223 6.86044 6.5 7.5C6.78831 7.84938 7.17257 8.15341 7.50958 8.49042C7.84659 8.82743 8.16624 9.20816 8.51562 9.49646C9.16264 10.0304 10 9 10.0247 8.99344C10.6205 8.39764 11.4215 8.37822 12.0368 8.99344L13.5458 10.5025C14.1611 11.1177 14.1416 11.9188 13.5458 12.5146L12.5398 13.5206Z" stroke="#1A1A1A"/>
<path d="M10.4645 6.03553L14 2.5" stroke="#1A1A1A" stroke-linecap="round" stroke-linejoin="round"/>
<path d="M10.4645 2.46447L14 6" stroke="#1A1A1A" stroke-linecap="round" stroke-linejoin="round"/>
</svg>
