<svg width="32" height="32" viewBox="0 0 32 32" fill="none" xmlns="http://www.w3.org/2000/svg">
<path d="M24.9998 28C22.3941 30.6058 16.6259 27.6261 10.9998 22C5.37378 16.374 2.39409 10.6058 4.99984 8.00004L6.99984 6.00004C8.18428 4.8156 9.77678 4.77698 10.9998 6.00004L13.9998 9.00004C16.8931 11.8932 10.5866 13.0756 12.9998 16C13.573 16.6946 14.3299 17.3301 14.9998 18C15.6698 18.67 16.3053 19.4269 16.9998 20C19.8709 22.3693 20.7205 15.7207 23.9998 19L26.9998 22C28.2229 23.2231 28.1843 24.8156 26.9998 26L24.9998 28Z" stroke="#1A1A1A" stroke-width="1.75"/>
<path d="M20.9289 12.0711L28 5" stroke="#1A1A1A" stroke-width="1.75" stroke-linecap="round" stroke-linejoin="round"/>
<path d="M20.9289 4.92893L28 12" stroke="#1A1A1A" stroke-width="1.75" stroke-linecap="round" stroke-linejoin="round"/>
</svg>
