<svg width="12" height="12" viewBox="0 0 12 12" fill="none" xmlns="http://www.w3.org/2000/svg">
<path d="M5.28418 1.67755C6.29571 1.46081 7.24991 2.23195 7.25 3.26642V4.12775L9.57422 4.82501C10.4201 5.07879 10.9999 5.85787 11 6.74103V9.2674C11.2154 9.32303 11.3749 9.51704 11.375 9.74982C11.375 9.98263 11.2154 10.1766 11 10.2322V10.2498H1V10.2322C0.784587 10.1766 0.625 9.98263 0.625 9.74982C0.62506 9.51704 0.784596 9.32303 1 9.2674V3.909C1.0002 3.14302 1.53522 2.48076 2.28418 2.32013L5.28418 1.67755ZM6.25 3.26642C6.24991 2.86864 5.8831 2.57185 5.49414 2.65509L2.49414 3.29865C2.20611 3.36037 2.0002 3.61447 2 3.909V9.24982H6.25V3.26642ZM7.25 9.24982H10V6.74103C9.99994 6.29948 9.71005 5.9099 9.28711 5.78302L7.25 5.17072V9.24982ZM8.625 6.24982C8.9011 6.24982 9.12493 6.47374 9.125 6.74982V8.24982C9.125 8.52596 8.90114 8.74982 8.625 8.74982C8.34886 8.74982 8.125 8.52596 8.125 8.24982V6.74982C8.12507 6.47374 8.3489 6.24982 8.625 6.24982ZM5.25 6.99982C5.5261 6.99982 5.74993 7.22374 5.75 7.49982C5.75 7.77596 5.52614 7.99982 5.25 7.99982H3.375C3.09886 7.99982 2.875 7.77596 2.875 7.49982C2.87507 7.22374 3.0989 6.99982 3.375 6.99982H5.25ZM5.25 4.74982C5.5261 4.74982 5.74993 4.97374 5.75 5.24982C5.75 5.52596 5.52614 5.74982 5.25 5.74982H3.375C3.09886 5.74982 2.875 5.52596 2.875 5.24982C2.87507 4.97374 3.0989 4.74982 3.375 4.74982H5.25Z" fill="#1A1A1A"/>
</svg>
