<svg width="16" height="16" viewBox="0 0 16 16" fill="none" xmlns="http://www.w3.org/2000/svg">
<path d="M7.08105 2.39959C8.326 2.13295 9.49999 3.08243 9.5 4.35565V5.62811L12.7188 6.59393C13.776 6.9113 14.5 7.88459 14.5 8.98846V12.5627L14.5879 12.5715C14.7874 12.6122 14.9375 12.7887 14.9375 13.0002C14.9375 13.2117 14.7874 13.3882 14.5879 13.4289L14.5 13.4377V13.5002H1.5V13.4377L1.41211 13.4289C1.21262 13.3882 1.06253 13.2117 1.0625 13.0002C1.0625 12.7887 1.21261 12.6122 1.41211 12.5715L1.5 12.5627V5.21307C1.5 4.27 2.15892 3.45462 3.08105 3.25701L7.08105 2.39959ZM8.5 4.35565C8.49999 3.71901 7.91255 3.24471 7.29004 3.37811L3.29004 4.23455C2.82914 4.33348 2.5 4.74165 2.5 5.21307V12.5002H8.5V4.35565ZM9.5 12.5002H13.5V8.98846C13.5 8.32605 13.0651 7.74228 12.4307 7.55194L9.5 6.67108V12.5002ZM11.5 8.50018C11.7761 8.50018 12 8.72404 12 9.00018V11.0002C12 11.2763 11.7761 11.5002 11.5 11.5002C11.2239 11.5002 11 11.2763 11 11.0002V9.00018C11 8.72404 11.2239 8.50018 11.5 8.50018ZM7 9.50018C7.27614 9.50018 7.5 9.72404 7.5 10.0002C7.49996 10.2763 7.27612 10.5002 7 10.5002H4C3.72388 10.5002 3.50004 10.2763 3.5 10.0002C3.5 9.72404 3.72386 9.50018 4 9.50018H7ZM7 6.50018C7.27614 6.50018 7.5 6.72404 7.5 7.00018C7.49996 7.27629 7.27612 7.50018 7 7.50018H4C3.72388 7.50018 3.50004 7.27629 3.5 7.00018C3.5 6.72404 3.72386 6.50018 4 6.50018H7Z" fill="#1A1A1A"/>
</svg>
