<svg width="24" height="24" viewBox="0 0 24 24" fill="none" xmlns="http://www.w3.org/2000/svg">
<path d="M11.1465 3.8202C13.007 3.43814 14.7499 4.85934 14.75 6.75867V8.43153L19.0127 9.62782C20.631 10.082 21.75 11.5573 21.75 13.2382V19.2499H22C22.4142 19.2499 22.75 19.5857 22.75 19.9999C22.7499 20.4141 22.4142 20.7499 22 20.7499H2C1.58582 20.7499 1.25006 20.4141 1.25 19.9999C1.25 19.5857 1.58579 19.2499 2 19.2499H2.25V8.09364C2.25 6.66942 3.25141 5.4417 4.64648 5.15516L11.1465 3.8202ZM13.25 6.75867C13.2499 5.80906 12.3785 5.0989 11.4482 5.28992L4.94824 6.62391C4.25068 6.76716 3.75 7.38152 3.75 8.09364V19.2499H13.25V6.75867ZM14.75 19.2499H20.25V13.2382C20.25 12.2297 19.5784 11.3446 18.6074 11.0722L14.75 9.98817V19.2499ZM17 13.2499C17.4142 13.2499 17.75 13.5857 17.75 13.9999V16.9999C17.7499 17.4141 17.4142 17.7499 17 17.7499C16.5858 17.7499 16.2501 17.4141 16.25 16.9999V13.9999C16.25 13.5857 16.5858 13.2499 17 13.2499ZM10 14.2499C10.4142 14.2499 10.75 14.5857 10.75 14.9999C10.7499 15.4141 10.4142 15.7499 10 15.7499H7C6.58582 15.7499 6.25006 15.4141 6.25 14.9999C6.25 14.5857 6.58579 14.2499 7 14.2499H10ZM10 10.2499C10.4142 10.2499 10.75 10.5857 10.75 10.9999C10.7499 11.4141 10.4142 11.7499 10 11.7499H7C6.58582 11.7499 6.25006 11.4141 6.25 10.9999C6.25 10.5857 6.58579 10.2499 7 10.2499H10Z" fill="#1A1A1A"/>
</svg>
