<svg width="32" height="32" viewBox="0 0 32 32" fill="none" xmlns="http://www.w3.org/2000/svg">
<path d="M14.1885 4.92135C16.6004 4.40485 18.8747 6.24385 18.875 8.71042V11.3481L25.4004 13.3061C27.4623 13.9247 28.8748 15.8234 28.875 17.976V25.1245H29C29.4831 25.1245 29.8747 25.5165 29.875 25.9995C29.875 26.4827 29.4832 26.8745 29 26.8745H3C2.51675 26.8745 2.125 26.4827 2.125 25.9995C2.12526 25.5165 2.51691 25.1245 3 25.1245H3.125V10.4243C3.12543 8.59747 4.40213 7.01899 6.18848 6.6362L14.1885 4.92135ZM17.125 8.71042C17.1247 7.35784 15.8773 6.34894 14.5547 6.63229L6.55469 8.34714C5.57527 8.55706 4.87543 9.42269 4.875 10.4243V25.1245H17.125V8.71042ZM18.875 25.1245H27.125V17.976C27.1248 16.5964 26.2198 15.3796 24.8984 14.9829L18.875 13.1753V25.1245ZM23 17.1245C23.4831 17.1245 23.8747 17.5165 23.875 17.9995V21.9995C23.875 22.4827 23.4832 22.8745 23 22.8745C22.5168 22.8745 22.125 22.4827 22.125 21.9995V17.9995C22.1253 17.5165 22.5169 17.1245 23 17.1245ZM13 19.1245C13.4831 19.1245 13.8747 19.5165 13.875 19.9995C13.875 20.4827 13.4832 20.8745 13 20.8745H9C8.51675 20.8745 8.125 20.4827 8.125 19.9995C8.12526 19.5165 8.51691 19.1245 9 19.1245H13ZM13 13.1245C13.4831 13.1245 13.8747 13.5165 13.875 13.9995C13.875 14.4827 13.4832 14.8745 13 14.8745H9C8.51675 14.8745 8.125 14.4827 8.125 13.9995C8.12526 13.5165 8.51691 13.1245 9 13.1245H13Z" fill="#1A1A1A"/>
</svg>
