<svg width="12" height="12" viewBox="0 0 12 12" fill="none" xmlns="http://www.w3.org/2000/svg">
<path d="M5.5 3C5.5 2.72386 5.27528 2.49678 5.00129 2.53121C4.38688 2.60841 3.79638 2.82757 3.27772 3.17412C2.61992 3.61365 2.10723 4.23836 1.80448 4.96927C1.50173 5.70017 1.42252 6.50444 1.57686 7.28036C1.7312 8.05629 2.11216 8.76902 2.67157 9.32843C3.23098 9.88784 3.94371 10.2688 4.71964 10.4231C5.49556 10.5775 6.29983 10.4983 7.03073 10.1955C7.76164 9.89277 8.38635 9.38008 8.82588 8.72228C9.17243 8.20362 9.39159 7.61312 9.46879 6.99871C9.50322 6.72472 9.27614 6.5 9 6.5H6.25C5.83579 6.5 5.5 6.16421 5.5 5.75V3Z" stroke="#1A1A1A"/>
<path d="M7 2C7 1.72386 7.22498 1.49634 7.4983 1.53565C7.78655 1.57711 8.06914 1.65448 8.33939 1.76642C8.76403 1.94231 9.14987 2.20012 9.47487 2.52513C9.79988 2.85013 10.0577 3.23597 10.2336 3.66061C10.3455 3.93086 10.4229 4.21345 10.4643 4.5017C10.5037 4.77502 10.2761 5 10 5L7.5 5C7.22386 5 7 4.77614 7 4.5V2Z" stroke="#1A1A1A"/>
</svg>
