<svg width="16" height="16" viewBox="0 0 16 16" fill="none" xmlns="http://www.w3.org/2000/svg">
<path d="M7.33333 4.00004C7.33333 3.63185 7.0337 3.32908 6.66839 3.37498C5.84917 3.47793 5.06184 3.77013 4.37029 4.2322C3.49323 4.81824 2.80964 5.65119 2.40598 6.62573C2.00231 7.60027 1.89669 8.67262 2.10248 9.70719C2.30827 10.7418 2.81622 11.6921 3.5621 12.4379C4.30798 13.1838 5.25829 13.6918 6.29285 13.8976C7.32742 14.1034 8.39977 13.9977 9.37431 13.5941C10.3489 13.1904 11.1818 12.5068 11.7678 11.6297C12.2299 10.9382 12.5221 10.1509 12.6251 9.33166C12.671 8.96634 12.3682 8.66671 12 8.66671H8.33333C7.78105 8.66671 7.33333 8.21899 7.33333 7.66671V4.00004Z" stroke="#1A1A1A"/>
<path d="M9.33333 2.66667C9.33333 2.29848 9.6333 1.99512 9.99774 2.04754C10.3821 2.10282 10.7589 2.20598 11.1192 2.35523C11.6854 2.58975 12.1998 2.9335 12.6332 3.36684C13.0665 3.80018 13.4102 4.31462 13.6448 4.88081C13.794 5.24114 13.8972 5.61793 13.9525 6.00226C14.0049 6.3667 13.7015 6.66667 13.3333 6.66667L10 6.66667C9.63181 6.66667 9.33333 6.36819 9.33333 6V2.66667Z" stroke="#1A1A1A"/>
</svg>
