<svg width="32" height="32" viewBox="0 0 32 32" fill="none" xmlns="http://www.w3.org/2000/svg">
<path d="M14.6667 7.99996C14.6667 7.26358 14.0674 6.65804 13.3368 6.74985C11.6983 6.95573 10.1237 7.54013 8.74058 8.46428C6.98646 9.63635 5.61929 11.3023 4.81195 13.2513C4.00462 15.2004 3.79338 17.3451 4.20496 19.4143C4.61653 21.4834 5.63243 23.384 7.12419 24.8758C8.61595 26.3675 10.5166 27.3834 12.5857 27.795C14.6548 28.2066 16.7995 27.9953 18.7486 27.188C20.6977 26.3807 22.3636 25.0135 23.5357 23.2594C24.4598 21.8763 25.0442 20.3016 25.2501 18.6632C25.3419 17.9326 24.7364 17.3333 24 17.3333H16.6667C15.5621 17.3333 14.6667 16.4379 14.6667 15.3333V7.99996Z" stroke="#1A1A1A" stroke-width="1.75"/>
<path d="M18.6667 5.33333C18.6667 4.59695 19.2666 3.99024 19.9955 4.09508C20.7641 4.20564 21.5177 4.41195 22.2384 4.71046C23.3708 5.1795 24.3997 5.86699 25.2663 6.73367C26.133 7.60035 26.8205 8.62925 27.2895 9.76162C27.588 10.4823 27.7944 11.2359 27.9049 12.0045C28.0098 12.7334 27.403 13.3333 26.6667 13.3333L20 13.3333C19.2636 13.3333 18.6667 12.7364 18.6667 12V5.33333Z" stroke="#1A1A1A" stroke-width="1.75"/>
</svg>
