<svg width="12" height="12" viewBox="0 0 12 12" fill="none" xmlns="http://www.w3.org/2000/svg">
<path d="M6 1C8.76142 1 11 3.23858 11 6C11 8.76142 8.76142 11 6 11C3.23858 11 1 8.76142 1 6C1 3.23858 3.23858 1 6 1ZM6.5 3.75C6.5 4.02614 6.27614 4.25 6 4.25C5.72386 4.25 5.5 4.02614 5.5 3.75V2.03125C3.69071 2.25688 2.25791 3.69073 2.03223 5.5H3.75C4.02614 5.5 4.25 5.72386 4.25 6C4.25 6.27614 4.02614 6.5 3.75 6.5H2.03223C2.25791 8.30923 3.69077 9.74209 5.5 9.96777V8.25C5.5 7.97386 5.72386 7.75 6 7.75C6.27614 7.75 6.5 7.97386 6.5 8.25V9.96777C8.30923 9.74209 9.74209 8.30923 9.96777 6.5H8.25C7.97386 6.5 7.75 6.27614 7.75 6C7.75 5.72386 7.97386 5.5 8.25 5.5H9.96777C9.74209 3.69073 8.30929 2.25688 6.5 2.03125V3.75Z" fill="#1A1A1A"/>
</svg>
