<svg width="16" height="16" viewBox="0 0 16 16" fill="none" xmlns="http://www.w3.org/2000/svg">
<path d="M8 1.5C11.5899 1.5 14.5 4.41015 14.5 8C14.5 11.5899 11.5899 14.5 8 14.5C4.41015 14.5 1.5 11.5899 1.5 8C1.5 4.41015 4.41015 1.5 8 1.5ZM8.4375 5C8.4375 5.24162 8.24162 5.4375 8 5.4375C7.75838 5.4375 7.5625 5.24162 7.5625 5V2.51855C4.8739 2.7302 2.7302 4.8739 2.51855 7.5625H5C5.24162 7.5625 5.4375 7.75838 5.4375 8C5.4375 8.24162 5.24162 8.4375 5 8.4375H2.51855C2.7302 11.1261 4.87393 13.2688 7.5625 13.4805V11C7.5625 10.7584 7.75838 10.5625 8 10.5625C8.24162 10.5625 8.4375 10.7584 8.4375 11V13.4805C11.1261 13.2688 13.2698 11.1261 13.4814 8.4375H11C10.7584 8.4375 10.5625 8.24162 10.5625 8C10.5625 7.75838 10.7584 7.5625 11 7.5625H13.4814C13.2698 4.8739 11.1261 2.7302 8.4375 2.51855V5Z" fill="#1A1A1A"/>
</svg>
