<svg width="32" height="32" viewBox="0 0 32 32" fill="none" xmlns="http://www.w3.org/2000/svg">
<path d="M16 2.125C23.663 2.125 29.875 8.33705 29.875 16C29.875 23.663 23.663 29.875 16 29.875C8.33705 29.875 2.125 23.663 2.125 16C2.125 8.33705 8.33705 2.125 16 2.125ZM16.8691 3.90527C16.8725 3.93642 16.875 3.96797 16.875 4V10C16.875 10.4832 16.4832 10.875 16 10.875C15.5168 10.875 15.125 10.4832 15.125 10V4C15.125 3.968 15.1265 3.93638 15.1299 3.90527C9.12691 4.33092 4.33092 9.12691 3.90527 15.1299C3.93638 15.1265 3.968 15.125 4 15.125H10C10.4832 15.125 10.875 15.5168 10.875 16C10.875 16.4832 10.4832 16.875 10 16.875H4C3.96797 16.875 3.93642 16.8725 3.90527 16.8691C4.33047 22.8725 9.12662 27.6681 15.1299 28.0938C15.1266 28.063 15.125 28.0317 15.125 28V22C15.125 21.5168 15.5168 21.125 16 21.125C16.4832 21.125 16.875 21.5168 16.875 22V28C16.875 28.0317 16.8724 28.0629 16.8691 28.0938C22.8728 27.6685 27.6685 22.8728 28.0938 16.8691C28.0629 16.8724 28.0317 16.875 28 16.875H22C21.5168 16.875 21.125 16.4832 21.125 16C21.125 15.5168 21.5168 15.125 22 15.125H28C28.0317 15.125 28.063 15.1266 28.0938 15.1299C27.6681 9.12662 22.8725 4.33047 16.8691 3.90527Z" fill="#1A1A1A"/>
</svg>
