<svg width="12" height="12" viewBox="0 0 12 12" fill="none" xmlns="http://www.w3.org/2000/svg">
<path d="M2.25 3.7942C2.25 3.61262 2.34845 3.44531 2.50718 3.35712L5.60718 1.6349C5.75819 1.55101 5.94181 1.55101 6.09282 1.6349L9.19282 3.35712C9.35155 3.44531 9.45 3.61262 9.45 3.7942V5.55798C9.45 7.37382 8.46554 9.04692 6.87822 9.92877L6.09282 10.3651C5.94181 10.449 5.75819 10.449 5.60718 10.3651L4.82178 9.92877C3.23446 9.04692 2.25 7.37382 2.25 5.55798V3.7942Z" stroke="#1A1A1A"/>
<path d="M4.5 5.55005H7.2" stroke="#1A1A1A" stroke-linecap="round"/>
<path d="M4.5 6.8999H7.2" stroke="#1A1A1A" stroke-linecap="round"/>
<path d="M5.84961 5.55005V8.25005" stroke="#1A1A1A" stroke-linecap="round"/>
<path d="M4.5 4.19995L5.85 5.09995L7.2 4.19995" stroke="#1A1A1A" stroke-linecap="round"/>
</svg>
