<svg width="16" height="16" viewBox="0 0 16 16" fill="none" xmlns="http://www.w3.org/2000/svg">
<path d="M3 5.05894C3 4.81682 3.13126 4.59374 3.3429 4.47616L7.47624 2.17987C7.67759 2.06801 7.92241 2.06801 8.12376 2.17987L12.2571 4.47616C12.4687 4.59374 12.6 4.81682 12.6 5.05894V7.41065C12.6 9.83176 11.2874 12.0626 9.17095 13.2384L8.12376 13.8201C7.92241 13.932 7.67759 13.932 7.47624 13.8201L6.42905 13.2384C4.31261 12.0626 3 9.83176 3 7.41064V5.05894Z" stroke="#1A1A1A"/>
<path d="M6 7.3999H9.6" stroke="#1A1A1A" stroke-linecap="round"/>
<path d="M6 9.19995H9.6" stroke="#1A1A1A" stroke-linecap="round"/>
<path d="M7.7998 7.3999V10.9999" stroke="#1A1A1A" stroke-linecap="round"/>
<path d="M6 5.6001L7.8 6.8001L9.6 5.6001" stroke="#1A1A1A" stroke-linecap="round"/>
</svg>
