<svg preserveAspectRatio="none" width="100%" height="100%" overflow="visible" style="display: block;" viewBox="0 0 23.6119 20.6689" fill="none" xmlns="http://www.w3.org/2000/svg">
<g id="&#231;&#188;&#150;&#231;&#187;&#132;">
<path id="&#229;&#189;&#162;&#231;&#138;&#182;" d="M3.70169 15.4454L2.95628 15.5282L3.70169 15.4454ZM2.42145 3.92383V3.17383H1.58349L1.67604 4.00666L2.42145 3.92383ZM22.8389 5.68529L23.5774 5.81602V5.81602L22.8389 5.68529ZM21.083 15.6051L20.3444 15.4743V15.4743L21.083 15.6051ZM6.47976 17.6693V16.9193H6.1864V17.6693V18.4193H6.47976V17.6693ZM6.1864 17.6693V16.9193C5.29469 16.9193 4.54558 16.2488 4.4471 15.3626L3.70169 15.4454L2.95628 15.5282C3.13917 17.1741 4.53037 18.4193 6.1864 18.4193V17.6693ZM3.70169 15.4454L4.4471 15.3626L3.16686 3.841L2.42145 3.92383L1.67604 4.00666L2.95628 15.5282L3.70169 15.4454ZM2.42145 3.92383V4.67383H21.3619V3.92383V3.17383H2.42145V3.92383ZM21.3619 3.92383V4.67383C21.7761 4.67383 22.1119 5.00961 22.1119 5.42383H22.8619H23.6119C23.6119 4.18119 22.6045 3.17383 21.3619 3.17383V3.92383ZM22.8619 5.42383H22.1119C22.1119 5.46766 22.108 5.5114 22.1004 5.55456L22.8389 5.68529L23.5774 5.81602C23.6004 5.68654 23.6119 5.55531 23.6119 5.42383H22.8619ZM22.8389 5.68529L22.1004 5.55456L20.3444 15.4743L21.083 15.6051L21.8215 15.7358L23.5774 5.81602L22.8389 5.68529ZM21.083 15.6051L20.3444 15.4743C20.1965 16.3102 19.4701 16.9193 18.6212 16.9193V17.6693V18.4193C20.1976 18.4193 21.5467 17.288 21.8215 15.7358L21.083 15.6051ZM18.6212 17.6693V16.9193H18.5916V17.6693V18.4193H18.6212V17.6693ZM14.337 17.6693V16.9193H10.9071V17.6693V18.4193H14.337V17.6693Z" fill="var(--stroke-0, #333333)"/>
<path id="&#232;&#183;&#175;&#229;&#190;&#132;" d="M0.75 0.75C1.45178 0.75 2.04429 1.2714 2.13352 1.96748L2.62274 5.78385" stroke="var(--stroke-0, #333333)" stroke-width="1.5" stroke-linecap="round"/>
<circle id="&#230;&#164;&#173;&#229;&#156;&#134;&#229;&#189;&#162;" cx="8.61084" cy="17.6689" r="2.25" stroke="var(--stroke-0, #333333)" stroke-width="1.5"/>
<circle id="&#230;&#164;&#173;&#229;&#156;&#134;&#229;&#189;&#162;&#229;&#164;&#135;&#228;&#187;&#189; 2" cx="16.6108" cy="17.6689" r="2.25" stroke="var(--stroke-0, #333333)" stroke-width="1.5"/>
</g>
</svg>
