<svg preserveAspectRatio="none" width="100%" height="100%" overflow="visible" style="display: block;" viewBox="0 0 14 14" fill="none" xmlns="http://www.w3.org/2000/svg">
<path id="&#229;&#133;&#179;&#233;&#151;&#173;" fill-rule="evenodd" clip-rule="evenodd" d="M11.9497 2.05025C14.6834 4.78392 14.6834 9.21608 11.9497 11.9497C9.21608 14.6834 4.78392 14.6834 2.05025 11.9497C-0.683417 9.21608 -0.683417 4.78392 2.05025 2.05025C4.78392 -0.683418 9.21608 -0.683418 11.9497 2.05025ZM3.03498 7.17706C3.03498 6.76284 3.37077 6.42706 3.78498 6.42706H6.28482V3.92706C6.28482 3.51284 6.62061 3.17706 7.03482 3.17706C7.44903 3.17706 7.78482 3.51284 7.78482 3.92706V6.42706H10.285C10.6992 6.42706 11.035 6.76284 11.035 7.17706C11.035 7.59127 10.6992 7.92706 10.285 7.92706H7.78482V10.4271C7.78482 10.8413 7.44903 11.1771 7.03482 11.1771C6.62061 11.1771 6.28482 10.8413 6.28482 10.4271V7.92706H3.78498C3.37077 7.92706 3.03498 7.59127 3.03498 7.17706Z" fill="var(--fill-0, #DCDCDC)"/>
</svg>
