<svg width="14" height="14" overflow="visible" style="display: block;" viewBox="0 0 14.1562 14" fill="none" xmlns="http://www.w3.org/2000/svg">
<g id="Icon frame">
<path id="Icon color" fill-rule="evenodd" clip-rule="evenodd" d="M6.96404 3.03596C6.70776 2.77968 6.29224 2.77968 6.03596 3.03596C5.77968 3.29224 5.77968 3.70776 6.03596 3.96404L9.07192 7L6.03596 10.036C5.77968 10.2922 5.77968 10.7078 6.03596 10.964C6.29224 11.2203 6.70776 11.2203 6.96404 10.964L10 7.92808L13.036 10.964C13.2922 11.2203 13.7078 11.2203 13.964 10.964C14.2203 10.7078 14.2203 10.2922 13.964 10.036L10.9281 7L13.964 3.96404C14.2203 3.70776 14.2203 3.29224 13.964 3.03596C13.7078 2.77968 13.2922 2.77968 13.036 3.03596L10 6.07192L6.96404 3.03596Z" fill="var(--fill-0, white)"/>
</g>
</svg>
