<svg width="12" height="12" viewBox="0 0 12 12" fill="none" xmlns="http://www.w3.org/2000/svg">
<path d="M8.62125 6.32859L8.25438 5.98887L8.62125 6.32859ZM5.67212 3.37945L5.3324 3.01258L5.67212 3.37945ZM9.98239 2.69888L9.48598 2.6391L9.98239 2.69888ZM9.30182 2.01831L9.36161 2.51473V2.51473L9.30182 2.01831ZM3.63041 6.32859L4.08078 6.54577L3.63041 6.32859ZM5.67212 8.3703L5.45494 7.91993V7.91993L5.67212 8.3703ZM4.43767 5.06761C4.24241 4.87235 3.92583 4.87235 3.73057 5.06761C3.5353 5.26287 3.5353 5.57945 3.73057 5.77472L4.08412 5.42116L4.43767 5.06761ZM6.22599 8.27014C6.42125 8.4654 6.73783 8.4654 6.93309 8.27014C7.12836 8.07487 7.12836 7.75829 6.93309 7.56303L6.57954 7.91658L6.22599 8.27014ZM3.7571 9.17756C3.95237 8.9823 3.95237 8.66572 3.7571 8.47046C3.56184 8.27519 3.24526 8.27519 3.05 8.47046L3.40355 8.82401L3.7571 9.17756ZM1.91571 9.60474C1.72045 9.8 1.72045 10.1166 1.91571 10.3118C2.11098 10.5071 2.42756 10.5071 2.62282 10.3118L2.26927 9.95829L1.91571 9.60474ZM2.62282 8.04328C2.81808 7.84802 2.81808 7.53144 2.62282 7.33617C2.42756 7.14091 2.11098 7.14091 1.91571 7.33617L2.26927 7.68973L2.62282 8.04328ZM1.462 7.78989C1.26674 7.98515 1.26674 8.30173 1.462 8.49699C1.65726 8.69226 1.97385 8.69226 2.16911 8.49699L1.81555 8.14344L1.462 7.78989ZM4.66453 10.085C4.85979 9.88973 4.85979 9.57314 4.66453 9.37788C4.46927 9.18262 4.15268 9.18262 3.95742 9.37788L4.31098 9.73144L4.66453 10.085ZM3.50371 9.8316C3.30845 10.0269 3.30845 10.3434 3.50371 10.5387C3.69897 10.734 4.01555 10.734 4.21082 10.5387L3.85726 10.1851L3.50371 9.8316ZM5.44526 9.95829L5.9395 9.8826L5.93778 9.87137L5.93555 9.86023L5.44526 9.95829ZM2.04241 6.55544L2.14047 6.06515L2.12933 6.06293L2.1181 6.06121L2.04241 6.55544ZM3.66847 4.51374L3.66847 4.01374L3.66847 4.51374ZM3.59294 4.5072L3.68656 4.01604L3.59294 4.5072ZM7.48697 8.33223H6.98697H7.48697ZM7.4935 8.40776L7.98466 8.31414L7.4935 8.40776ZM4.76469 8.3703L5.11824 8.01674L3.98396 6.88246L3.63041 7.23601L3.27685 7.58957L4.41114 8.72385L4.76469 8.3703ZM8.62125 6.32859L8.25438 5.98887C7.46988 6.83608 6.18264 7.56901 5.45494 7.91993L5.67212 8.3703L5.88929 8.82067C6.64683 8.45537 8.07281 7.65678 8.98812 6.6683L8.62125 6.32859ZM3.63041 6.32859L4.08078 6.54577C4.43169 5.81806 5.16462 4.53082 6.01183 3.74632L5.67212 3.37945L5.3324 3.01258C4.34392 3.9279 3.54534 5.35387 3.18004 6.11141L3.63041 6.32859ZM9.98239 2.69888L9.48598 2.6391C9.36454 3.64737 9.08163 5.0955 8.25438 5.98887L8.62125 6.32859L8.98812 6.6683C10.0556 5.51547 10.3576 3.76511 10.4788 2.75867L9.98239 2.69888ZM5.67212 3.37945L6.01183 3.74632C6.90521 2.91907 8.35333 2.63616 9.36161 2.51473L9.30182 2.01831L9.24203 1.5219C8.23559 1.64311 6.48524 1.94508 5.3324 3.01258L5.67212 3.37945ZM9.98239 2.69888L10.4788 2.75867C10.5184 2.43029 10.4643 2.06674 10.1991 1.80158C9.93397 1.53643 9.57041 1.48235 9.24203 1.5219L9.30182 2.01831L9.36161 2.51473C9.43646 2.50571 9.47902 2.51183 9.49701 2.51642C9.51214 2.52028 9.50467 2.52135 9.49201 2.50869C9.47935 2.49603 9.48042 2.48856 9.48428 2.50369C9.48887 2.52168 9.49499 2.56425 9.48598 2.6391L9.98239 2.69888ZM3.63041 7.23601L3.98396 6.88246C3.97576 6.87426 3.9775 6.87349 3.97891 6.87782C3.97956 6.87982 3.97616 6.87144 3.97822 6.84545C3.98318 6.78318 4.01292 6.68649 4.08078 6.54577L3.63041 6.32859L3.18004 6.11141C3.09684 6.28393 3.0013 6.51567 2.98137 6.76616C2.95965 7.03927 3.02896 7.34167 3.27685 7.58957L3.63041 7.23601ZM4.76469 8.3703L4.41114 8.72385C4.65903 8.97174 4.96144 9.04105 5.23455 9.01933C5.48503 8.9994 5.71677 8.90386 5.88929 8.82067L5.67212 8.3703L5.45494 7.91993C5.31421 7.98779 5.21753 8.01752 5.15525 8.02248C5.12926 8.02455 5.12088 8.02115 5.12288 8.0218C5.12721 8.02321 5.12645 8.02495 5.11824 8.01674L4.76469 8.3703ZM4.08412 5.42116L3.73057 5.77472L6.22599 8.27014L6.57954 7.91658L6.93309 7.56303L4.43767 5.06761L4.08412 5.42116ZM3.40355 8.82401L3.05 8.47046L1.91571 9.60474L2.26927 9.95829L2.62282 10.3118L3.7571 9.17756L3.40355 8.82401ZM2.26927 7.68973L1.91571 7.33617L1.462 7.78989L1.81555 8.14344L2.16911 8.49699L2.62282 8.04328L2.26927 7.68973ZM4.31098 9.73144L3.95742 9.37788L3.50371 9.8316L3.85726 10.1851L4.21082 10.5387L4.66453 10.085L4.31098 9.73144ZM6.8064 4.06002L6.45284 3.70647C6.1702 3.98911 6.05522 4.38424 6.054 4.73621C6.05278 5.08884 6.16549 5.48736 6.45284 5.77472L6.8064 5.42116L7.15995 5.06761C7.10724 5.0149 7.05344 4.89934 7.054 4.73967C7.05455 4.57933 7.1096 4.46392 7.15995 4.41358L6.8064 4.06002ZM6.8064 5.42116L6.45284 5.77472C6.77301 6.09488 7.17164 6.13964 7.51493 6.0405C7.82733 5.95028 8.09684 5.74525 8.29423 5.54786L7.94068 5.19431L7.58713 4.84075C7.45152 4.97636 7.32393 5.05479 7.23746 5.07976C7.21869 5.08519 7.2054 5.08702 7.19713 5.08752C7.18918 5.08799 7.18571 5.08725 7.18533 5.08717C7.18524 5.08715 7.18461 5.08712 7.1823 5.08583C7.1798 5.08444 7.17208 5.07974 7.15995 5.06761L6.8064 5.42116ZM7.94068 5.19431L8.29423 5.54786C8.48277 5.35932 8.69091 5.09505 8.69307 4.74635C8.69524 4.39565 8.48854 4.12764 8.29423 3.93333L7.94068 4.28688L7.58713 4.64043C7.65391 4.70722 7.68319 4.74898 7.69462 4.76942C7.70362 4.78551 7.69289 4.77253 7.69309 4.74015C7.69329 4.70805 7.704 4.69573 7.69443 4.71256C7.68251 4.7335 7.65297 4.77491 7.58713 4.84075L7.94068 5.19431ZM7.94068 4.28688L8.29423 3.93333C8.09128 3.73038 7.81885 3.52723 7.50567 3.43956C7.16338 3.34374 6.76837 3.39095 6.45284 3.70647L6.8064 4.06002L7.15995 4.41358C7.17118 4.40235 7.17826 4.39805 7.18046 4.39682C7.18249 4.39569 7.18309 4.39563 7.18336 4.39557C7.18339 4.39556 7.19852 4.39202 7.2361 4.40254C7.3218 4.42653 7.45 4.50331 7.58713 4.64043L7.94068 4.28688ZM7.48697 8.82401L7.13341 8.47046L5.77227 9.8316L6.12583 10.1851L6.47938 10.5387L7.84052 9.17756L7.48697 8.82401ZM5.44526 9.95829L5.93555 9.86023L5.70869 8.72595L5.2184 8.82401L4.72811 8.92207L4.95497 10.0564L5.44526 9.95829ZM7.48697 7.46287H6.98697V8.33223H7.48697H7.98697V7.46287H7.48697ZM6.12583 10.1851L5.77227 9.8316C5.77065 9.83322 5.77938 9.82436 5.80055 9.81905C5.82102 9.81391 5.84543 9.81418 5.86958 9.82217C5.89375 9.83016 5.9131 9.84437 5.92592 9.85999C5.93917 9.87614 5.94019 9.8871 5.9395 9.8826L5.44526 9.95829L4.95102 10.034C5.0047 10.3845 5.23414 10.6653 5.55562 10.7716C5.87685 10.8778 6.22876 10.7893 6.47938 10.5387L6.12583 10.1851ZM7.48697 8.82401L7.84052 9.17756C8.05232 8.96577 8.03819 8.68941 8.03086 8.59535C8.02203 8.4823 7.99069 8.34574 7.98466 8.31414L7.4935 8.40776L7.00235 8.50137C7.00636 8.52244 7.0108 8.544 7.01439 8.56147C7.01823 8.58022 7.02145 8.596 7.02439 8.61139C7.03045 8.6432 7.03302 8.66203 7.03389 8.67314C7.03491 8.6863 7.03206 8.6715 7.03839 8.64073C7.04528 8.60723 7.06717 8.5367 7.13341 8.47046L7.48697 8.82401ZM3.17669 4.51374L2.82314 4.16018L1.462 5.52132L1.81555 5.87488L2.16911 6.22843L3.53025 4.86729L3.17669 4.51374ZM2.04241 6.55544L1.94435 7.04574L3.07864 7.27259L3.17669 6.7823L3.27475 6.29201L2.14047 6.06515L2.04241 6.55544ZM4.53783 4.51374L4.53783 4.01374L3.66847 4.01374L3.66847 4.51374L3.66847 5.01374H4.53783L4.53783 4.51374ZM1.81555 5.87488L1.462 5.52132C1.21138 5.77194 1.12288 6.12386 1.2291 6.44508C1.3354 6.76656 1.61621 6.996 1.96672 7.04968L2.04241 6.55544L2.1181 6.06121C2.11361 6.06052 2.12456 6.06153 2.14071 6.07479C2.15633 6.08761 2.17054 6.10695 2.17854 6.13113C2.18652 6.15527 2.18679 6.17968 2.18165 6.20015C2.17634 6.22132 2.16748 6.23005 2.16911 6.22843L1.81555 5.87488ZM3.17669 4.51374L3.53025 4.86729C3.46401 4.93353 3.39347 4.95542 3.35997 4.96231C3.3292 4.96865 3.3144 4.96579 3.32756 4.96682C3.33867 4.96768 3.3575 4.97026 3.38931 4.97632C3.4047 4.97925 3.42049 4.98247 3.43924 4.98632C3.4567 4.9899 3.47826 4.99434 3.49933 4.99836L3.59294 4.5072L3.68656 4.01604C3.65496 4.01002 3.51841 3.97867 3.40535 3.96985C3.3113 3.96251 3.03494 3.94839 2.82314 4.16018L3.17669 4.51374ZM3.66847 4.51374L3.66847 4.01374C3.66619 4.01374 3.67335 4.01352 3.68656 4.01604L3.59294 4.5072L3.49933 4.99836C3.56232 5.01036 3.62007 5.01374 3.66847 5.01374L3.66847 4.51374ZM7.48697 8.33223H6.98697C6.98697 8.38063 6.99034 8.43838 7.00235 8.50137L7.4935 8.40776L7.98466 8.31414C7.98718 8.32735 7.98697 8.33451 7.98697 8.33223H7.48697Z" fill="#1A1A1A"/>
</svg>
