<svg width="16" height="16" viewBox="0 0 16 16" fill="none" xmlns="http://www.w3.org/2000/svg">
<path d="M11.494 8.43812L11.1272 8.0984L11.494 8.43812ZM7.56184 4.50594L7.22213 4.13907L7.56184 4.50594ZM13.3089 3.59851L12.8125 3.53873L13.3089 3.59851ZM12.4014 2.69109L12.4612 3.1875V3.1875L12.4014 2.69109ZM4.83957 8.43812L5.28994 8.65529L4.83957 8.43812ZM7.56184 11.1604L7.34467 10.71V10.71L7.56184 11.1604ZM5.79807 6.87466C5.60281 6.6794 5.28623 6.6794 5.09096 6.87466C4.8957 7.06992 4.8957 7.38651 5.09096 7.58177L5.44452 7.22822L5.79807 6.87466ZM8.41819 10.909C8.61345 11.1043 8.93004 11.1043 9.1253 10.909C9.32056 10.7137 9.32056 10.3972 9.1253 10.2019L8.77175 10.5554L8.41819 10.909ZM4.89064 12.1189C5.08591 11.9236 5.08591 11.6071 4.89064 11.4118C4.69538 11.2165 4.3788 11.2165 4.18354 11.4118L4.53709 11.7653L4.89064 12.1189ZM2.67116 12.9242C2.4759 13.1194 2.4759 13.436 2.67116 13.6313C2.86642 13.8265 3.18301 13.8265 3.37827 13.6313L3.02471 13.2777L2.67116 12.9242ZM3.37827 10.6065C3.57353 10.4113 3.57353 10.0947 3.37827 9.89942C3.183 9.70415 2.86642 9.70415 2.67116 9.89942L3.02471 10.253L3.37827 10.6065ZM2.06621 10.5044C1.87095 10.6996 1.87095 11.0162 2.06621 11.2115C2.26147 11.4067 2.57805 11.4067 2.77332 11.2115L2.41976 10.8579L2.06621 10.5044ZM6.10055 13.3288C6.29581 13.1335 6.29581 12.817 6.10055 12.6217C5.90528 12.4264 5.5887 12.4264 5.39344 12.6217L5.74699 12.9752L6.10055 13.3288ZM4.78849 13.2266C4.59323 13.4219 4.59323 13.7385 4.78849 13.9338C4.98375 14.129 5.30033 14.129 5.49559 13.9338L5.14204 13.5802L4.78849 13.2266ZM7.25937 13.2777L7.75361 13.202L7.75189 13.1908L7.74966 13.1797L7.25937 13.2777ZM2.72224 8.74059L2.8203 8.2503L2.80916 8.24807L2.79793 8.24635L2.72224 8.74059ZM4.89032 6.01831L4.89032 6.51831L4.89032 6.01831ZM4.78962 6.0096L4.88323 5.51844L4.78962 6.0096ZM9.98165 11.1096H9.48165H9.98165ZM9.99036 11.2103L10.4815 11.1167L9.99036 11.2103ZM6.35194 11.1604L6.7055 10.8068L5.19312 9.29446L4.83957 9.64802L4.48601 10.0016L5.99839 11.5139L6.35194 11.1604ZM11.494 8.43812L11.1272 8.0984C10.0594 9.25156 8.31991 10.2397 7.34467 10.71L7.56184 11.1604L7.77902 11.6108C8.7841 11.1261 10.6623 10.0723 11.8609 8.77783L11.494 8.43812ZM4.83957 8.43812L5.28994 8.65529C5.76022 7.68005 6.7484 5.94061 7.90156 4.87281L7.56184 4.50594L7.22213 4.13907C5.9277 5.33768 4.87386 7.21586 4.3892 8.22094L4.83957 8.43812ZM13.3089 3.59851L12.8125 3.53873C12.6506 4.88279 12.2702 6.86399 11.1272 8.0984L11.494 8.43812L11.8609 8.77783C13.2442 7.28396 13.6436 5.00053 13.8053 3.6583L13.3089 3.59851ZM7.56184 4.50594L7.90156 4.87281C9.13597 3.72976 11.1172 3.34937 12.4612 3.1875L12.4014 2.69109L12.3417 2.19467C10.9994 2.35633 8.716 2.75577 7.22213 4.13907L7.56184 4.50594ZM13.3089 3.59851L13.8053 3.6583C13.8546 3.24921 13.7841 2.82408 13.48 2.51996C13.1759 2.21584 12.7508 2.1454 12.3417 2.19467L12.4014 2.69109L12.4612 3.1875C12.6978 3.15901 12.7653 3.21945 12.7729 3.22707C12.7805 3.23469 12.841 3.30215 12.8125 3.53872L13.3089 3.59851ZM4.83957 9.64802L5.19312 9.29446C5.14869 9.25003 5.12988 9.20583 5.13718 9.11405C5.14628 8.99965 5.1969 8.84823 5.28994 8.65529L4.83957 8.43812L4.3892 8.22094C4.28083 8.44567 4.1644 8.73215 4.14033 9.03476C4.11446 9.35999 4.19636 9.71192 4.48601 10.0016L4.83957 9.64802ZM6.35194 11.1604L5.99839 11.5139C6.28805 11.8036 6.63997 11.8855 6.9652 11.8596C7.26782 11.8356 7.55429 11.7191 7.77902 11.6108L7.56184 11.1604L7.34467 10.71C7.15174 10.8031 7.00031 10.8537 6.88591 10.8628C6.79413 10.8701 6.74993 10.8513 6.7055 10.8068L6.35194 11.1604ZM5.44452 7.22822L5.09096 7.58177L8.41819 10.909L8.77175 10.5554L9.1253 10.2019L5.79807 6.87466L5.44452 7.22822ZM4.53709 11.7653L4.18354 11.4118L2.67116 12.9242L3.02471 13.2777L3.37827 13.6313L4.89064 12.1189L4.53709 11.7653ZM3.02471 10.253L2.67116 9.89942L2.06621 10.5044L2.41976 10.8579L2.77332 11.2115L3.37827 10.6065L3.02471 10.253ZM5.74699 12.9752L5.39344 12.6217L4.78849 13.2266L5.14204 13.5802L5.49559 13.9338L6.10055 13.3288L5.74699 12.9752ZM9.07422 5.41336L8.72067 5.05981C8.38252 5.39795 8.2392 5.87817 8.23769 6.31552C8.23618 6.75354 8.37663 7.23773 8.72067 7.58177L9.07422 7.22822L9.42777 6.87466C9.31838 6.76527 9.23684 6.56403 9.23769 6.31898C9.23853 6.07326 9.32193 5.87276 9.42777 5.76692L9.07422 5.41336ZM9.07422 7.22822L8.72067 7.58177C9.09751 7.95861 9.56291 8.01222 9.97268 7.89388C10.3516 7.78445 10.6873 7.53218 10.9402 7.27929L10.5866 6.92574L10.233 6.57219C10.0419 6.76329 9.84816 6.88897 9.69521 6.93314C9.6243 6.95362 9.57616 6.95266 9.54444 6.94584C9.5165 6.93984 9.47774 6.92463 9.42777 6.87466L9.07422 7.22822ZM10.5866 6.92574L10.9402 7.27929C11.1842 7.03526 11.4207 6.72371 11.4231 6.32743C11.4256 5.92916 11.1911 5.61327 10.9402 5.36229L10.5866 5.71584L10.233 6.06939C10.4355 6.27183 10.423 6.3389 10.4231 6.32123C10.4232 6.30554 10.433 6.37223 10.233 6.57219L10.5866 6.92574ZM10.5866 5.71584L10.9402 5.36229C10.6805 5.10266 10.3413 4.85286 9.96166 4.74658C9.55289 4.63215 9.09169 4.68879 8.72067 5.05981L9.07422 5.41336L9.42777 5.76692C9.50074 5.69395 9.56902 5.67511 9.69208 5.70956C9.84426 5.75216 10.0392 5.87559 10.233 6.06939L10.5866 5.71584ZM9.98165 11.7653L9.62809 11.4118L7.81324 13.2266L8.16679 13.5802L8.52035 13.9338L10.3352 12.1189L9.98165 11.7653ZM7.25937 13.2777L7.74966 13.1797L7.44718 11.6673L6.95689 11.7653L6.4666 11.8634L6.76908 13.3758L7.25937 13.2777ZM9.98165 9.95049H9.48165L9.48165 11.1096H9.98165L10.4816 11.1096V9.95049H9.98165ZM8.16679 13.5802L7.81324 13.2266C7.79091 13.249 7.77624 13.2531 7.77367 13.2537C7.77039 13.2545 7.77071 13.2538 7.7728 13.2545C7.77492 13.2552 7.77423 13.2558 7.77141 13.2524C7.76902 13.2495 7.75879 13.2359 7.75361 13.202L7.25937 13.2777L6.76513 13.3534C6.82779 13.7626 7.09325 14.083 7.45885 14.2039C7.82419 14.3247 8.22832 14.2258 8.52035 13.9338L8.16679 13.5802ZM9.98165 11.7653L10.3352 12.1189C10.5614 11.8927 10.55 11.5929 10.5407 11.4734C10.5299 11.3349 10.4918 11.1709 10.4815 11.1167L9.99036 11.2103L9.4992 11.304C9.5043 11.3307 9.50996 11.3582 9.5148 11.3818C9.51991 11.4067 9.52443 11.4288 9.52859 11.4507C9.53711 11.4953 9.54184 11.5274 9.5437 11.5512C9.54572 11.5771 9.54269 11.5745 9.54679 11.5546C9.55146 11.5319 9.56906 11.4708 9.62809 11.4118L9.98165 11.7653ZM4.23462 6.01831L3.88106 5.66476L2.06621 7.47961L2.41976 7.83317L2.77332 8.18672L4.58817 6.37187L4.23462 6.01831ZM2.72224 8.74059L2.62418 9.23088L4.13656 9.53336L4.23462 9.04307L4.33267 8.55278L2.8203 8.2503L2.72224 8.74059ZM6.04947 6.01831L6.04947 5.51831L4.89032 5.51831L4.89032 6.01831L4.89032 6.51831L6.04947 6.51831L6.04947 6.01831ZM2.41976 7.83317L2.06621 7.47961C1.77419 7.77164 1.67525 8.17577 1.79606 8.54111C1.91695 8.90671 2.23737 9.17217 2.64655 9.23483L2.72224 8.74059L2.79793 8.24635C2.7641 8.24117 2.75048 8.23094 2.74758 8.22855C2.74414 8.22573 2.7448 8.22505 2.7455 8.22716C2.74619 8.22925 2.74542 8.22957 2.74624 8.22629C2.74689 8.22372 2.75099 8.20905 2.77332 8.18672L2.41976 7.83317ZM4.23462 6.01831L4.58817 6.37187C4.52914 6.4309 4.46806 6.44851 4.44539 6.45317C4.42545 6.45728 4.42286 6.45424 4.44873 6.45626C4.47256 6.45812 4.50463 6.46286 4.54931 6.47137C4.57113 6.47553 4.59326 6.48005 4.61816 6.48516C4.64178 6.49 4.66929 6.49566 4.696 6.50076L4.78962 6.0096L4.88323 5.51844C4.82905 5.50811 4.66502 5.4701 4.52652 5.45929C4.40704 5.44997 4.10728 5.43854 3.88106 5.66476L4.23462 6.01831ZM4.89032 6.01831L4.89032 5.51831C4.87959 5.51831 4.87832 5.5175 4.88323 5.51844L4.78962 6.0096L4.696 6.50076C4.76729 6.51434 4.83347 6.51831 4.89032 6.51831L4.89032 6.01831ZM9.98165 11.1096H9.48165C9.48165 11.1665 9.48562 11.2327 9.4992 11.304L9.99036 11.2103L10.4815 11.1167C10.4825 11.1216 10.4816 11.1204 10.4816 11.1096L9.98165 11.1096Z" fill="#1A1A1A"/>
</svg>
