<svg width="24" height="24" viewBox="0 0 24 24" fill="none" xmlns="http://www.w3.org/2000/svg">
<path d="M18.3033 12.8089L17.7534 12.2989L18.3033 12.8089ZM11.2322 5.73783L11.7422 6.28773L11.2322 5.73783ZM21.6606 4.27232L22.4043 4.36958L21.6606 4.27232ZM19.7688 2.38046L19.866 3.12413V3.12413L19.7688 2.38046ZM6.4941 12.6506L7.16753 12.9808L6.4941 12.6506ZM11.3905 17.547L11.0603 16.8736V16.8736L11.3905 17.547ZM8.22703 10.1572C7.93414 9.86432 7.45927 9.86432 7.16637 10.1572C6.87348 10.4501 6.87348 10.925 7.16637 11.2179L7.6967 10.6875L8.22703 10.1572ZM12.8232 16.8747C13.1161 17.1676 13.591 17.1676 13.8839 16.8747C14.1768 16.5818 14.1768 16.107 13.8839 15.8141L13.3536 16.3444L12.8232 16.8747ZM6.45927 18.6425C6.75216 18.3496 6.75216 17.8747 6.45927 17.5818C6.16637 17.2889 5.6915 17.2889 5.39861 17.5818L5.92894 18.1122L6.45927 18.6425ZM2.57018 20.4103C2.27729 20.7032 2.27729 21.178 2.57018 21.4709C2.86307 21.7638 3.33795 21.7638 3.63084 21.4709L3.10051 20.9406L2.57018 20.4103ZM4.33795 16.5212C4.63084 16.2283 4.63084 15.7534 4.33795 15.4605C4.04505 15.1676 3.57018 15.1676 3.27729 15.4605L3.80762 15.9908L4.33795 16.5212ZM1.86307 16.8747C1.57018 17.1676 1.57018 17.6425 1.86307 17.9354C2.15597 18.2283 2.63084 18.2283 2.92373 17.9354L2.3934 17.4051L1.86307 16.8747ZM8.58059 20.7638C8.87348 20.4709 8.87348 19.996 8.58059 19.7032C8.28769 19.4103 7.81282 19.4103 7.51992 19.7032L8.05026 20.2335L8.58059 20.7638ZM6.10571 21.1174C5.81282 21.4103 5.81282 21.8851 6.10571 22.178C6.39861 22.4709 6.87348 22.4709 7.16637 22.178L6.63604 21.6477L6.10571 21.1174ZM10.5958 21.082L11.3383 20.9759V20.9759L10.5958 21.082ZM15.7577 17.6172L16.5002 17.5111V17.5111L15.7577 17.6172ZM2.95907 13.4453L3.06513 12.7028L3.06513 12.7028L2.95907 13.4453ZM6.42389 8.2834L6.31782 9.02586L6.31782 9.02586L6.42389 8.2834ZM9.21965 17.1603L9.74998 16.63L7.41112 14.2911L6.88079 14.8215L6.35046 15.3518L8.68932 17.6906L9.21965 17.1603ZM18.3033 12.8089L17.7534 12.2989C15.8597 14.3406 12.7851 16.028 11.0603 16.8736L11.3905 17.547L11.7206 18.2204C13.4609 17.3673 16.7565 15.5795 18.8532 13.3189L18.3033 12.8089ZM6.4941 12.6506L7.16753 12.9808C8.01306 11.256 9.70048 8.18137 11.7422 6.28773L11.2322 5.73783L10.7222 5.18793C8.46157 7.28458 6.67381 10.5802 5.82067 12.3205L6.4941 12.6506ZM21.6606 4.27232L20.917 4.17506C20.6131 6.49841 19.8058 10.086 17.7534 12.2989L18.3033 12.8089L18.8532 13.3189C21.2487 10.7361 22.0958 6.72859 22.4043 4.36958L21.6606 4.27232ZM11.2322 5.73783L11.7422 6.28773C13.9551 4.23532 17.5427 3.42799 19.866 3.12413L19.7688 2.38046L19.6715 1.6368C17.3125 1.94532 13.305 2.79243 10.7222 5.18793L11.2322 5.73783ZM21.6606 4.27232L22.4043 4.36958C22.6154 2.75571 21.2854 1.42572 19.6715 1.6368L19.7688 2.38046L19.866 3.12413C20.503 3.04082 21.0003 3.5381 20.917 4.17506L21.6606 4.27232ZM6.88079 14.8215L7.41112 14.2911C7.04794 13.9279 6.95921 13.4057 7.16753 12.9808L6.4941 12.6506L5.82067 12.3205C5.31248 13.3571 5.56267 14.564 6.35046 15.3518L6.88079 14.8215ZM9.21965 17.1603L8.68932 17.6906C9.47711 18.4784 10.684 18.7286 11.7206 18.2204L11.3905 17.547L11.0603 16.8736C10.6354 17.0819 10.1132 16.9932 9.74998 16.63L9.21965 17.1603ZM7.6967 10.6875L7.16637 11.2179L12.8232 16.8747L13.3536 16.3444L13.8839 15.8141L8.22703 10.1572L7.6967 10.6875ZM5.92894 18.1122L5.39861 17.5818L2.57018 20.4103L3.10051 20.9406L3.63084 21.4709L6.45927 18.6425L5.92894 18.1122ZM3.80762 15.9908L3.27729 15.4605L1.86307 16.8747L2.3934 17.4051L2.92373 17.9354L4.33795 16.5212L3.80762 15.9908ZM8.05026 20.2335L7.51992 19.7032L6.10571 21.1174L6.63604 21.6477L7.16637 22.178L8.58059 20.7638L8.05026 20.2335ZM13.7071 7.50556L13.1768 6.97523C12.1028 8.04917 12.1028 9.79037 13.1768 10.8643L13.7071 10.334L14.2374 9.80366C13.7493 9.3155 13.7493 8.52404 14.2374 8.03589L13.7071 7.50556ZM13.7071 10.334L13.1768 10.8643C14.2507 11.9383 15.9919 11.9383 17.0659 10.8643L16.5355 10.334L16.0052 9.80366C15.5171 10.2918 14.7256 10.2918 14.2374 9.80366L13.7071 10.334ZM16.5355 10.334L17.0659 10.8643C18.1398 9.79038 18.1398 8.04917 17.0659 6.97523L16.5355 7.50556L16.0052 8.03589C16.4934 8.52404 16.4934 9.3155 16.0052 9.80366L16.5355 10.334ZM16.5355 7.50556L17.0659 6.97523C15.9919 5.90129 14.2507 5.90129 13.1768 6.97523L13.7071 7.50556L14.2374 8.03589C14.7256 7.54773 15.5171 7.54773 16.0052 8.03589L16.5355 7.50556ZM15.4749 18.4657L14.9445 17.9354L11.7626 21.1174L12.2929 21.6477L12.8232 22.178L16.0052 18.996L15.4749 18.4657ZM10.5958 21.082L11.3383 20.9759L10.914 18.0061L10.1716 18.1122L9.42911 18.2182L9.85338 21.1881L10.5958 21.082ZM15.4749 15.6373L14.7324 15.7434L15.0153 17.7233L15.7577 17.6172L16.5002 17.5111L16.2173 15.5312L15.4749 15.6373ZM12.2929 21.6477L11.7626 21.1174C11.6169 21.263 11.3674 21.1799 11.3383 20.9759L10.5958 21.082L9.85338 21.1881C10.0573 22.6157 11.8035 23.1977 12.8232 22.178L12.2929 21.6477ZM15.4749 18.4657L16.0052 18.996C16.3947 18.6066 16.5781 18.0564 16.5002 17.5111L15.7577 17.6172L15.0153 17.7233C15.0264 17.8011 15.0002 17.8797 14.9445 17.9354L15.4749 18.4657ZM5.57536 8.56624L5.04503 8.03591L1.86305 11.2179L2.39338 11.7482L2.92371 12.2786L6.10569 9.09657L5.57536 8.56624ZM2.95907 13.4453L2.853 14.1877L5.82285 14.612L5.92891 13.8695L6.03498 13.1271L3.06513 12.7028L2.95907 13.4453ZM8.40379 8.56624L8.50985 7.82378L6.52996 7.54094L6.42389 8.2834L6.31782 9.02586L8.29772 9.3087L8.40379 8.56624ZM2.39338 11.7482L1.86305 11.2179C0.843346 12.2376 1.42542 13.9838 2.853 14.1877L2.95907 13.4453L3.06513 12.7028C2.86119 12.6737 2.77804 12.4242 2.92371 12.2786L2.39338 11.7482ZM5.57536 8.56624L6.10569 9.09657C6.16133 9.04093 6.23992 9.01473 6.31782 9.02586L6.42389 8.2834L6.52996 7.54094C5.98467 7.46304 5.43452 7.64642 5.04503 8.03591L5.57536 8.56624Z" fill="#1A1A1A"/>
</svg>
