<svg width="32" height="32" viewBox="0 0 32 32" fill="none" xmlns="http://www.w3.org/2000/svg">
<path d="M24.8281 16.7991L24.1861 16.2046L24.8281 16.7991ZM15.6357 7.60668L15.0412 6.96466L15.6357 7.60668ZM29.0707 5.48536L28.202 5.38073L29.0707 5.48536ZM26.9494 3.36404L27.0541 4.23276L27.0541 4.23276L26.9494 3.36404ZM9.27176 16.7991L10.0599 17.1791L9.27176 16.7991ZM15.6357 23.163L15.2557 22.3749V22.3749L15.6357 23.163ZM11.3047 13.3519C10.963 13.0102 10.409 13.0102 10.0673 13.3519C9.72554 13.6936 9.72554 14.2477 10.0673 14.5894L10.686 13.9706L11.3047 13.3519ZM17.8454 22.3675C18.1871 22.7092 18.7412 22.7092 19.0829 22.3675C19.4246 22.0258 19.4246 21.4718 19.0829 21.1301L18.4641 21.7488L17.8454 22.3675ZM9.18337 25.196C9.52508 24.8543 9.52508 24.3002 9.18337 23.9585C8.84166 23.6168 8.28764 23.6168 7.94593 23.9585L8.56465 24.5772L9.18337 25.196ZM4.4104 27.4941C4.06869 27.8358 4.06869 28.3898 4.4104 28.7315C4.75211 29.0732 5.30612 29.0732 5.64783 28.7315L5.02912 28.1128L4.4104 27.4941ZM5.64783 21.6604C5.98954 21.3187 5.98954 20.7647 5.64783 20.423C5.30612 20.0813 4.7521 20.0813 4.4104 20.423L5.02911 21.0417L5.64783 21.6604ZM2.99618 21.8372C2.65447 22.1789 2.65447 22.7329 2.99618 23.0746C3.33789 23.4164 3.89191 23.4164 4.23362 23.0746L3.6149 22.4559L2.99618 21.8372ZM12.0118 28.0244C12.3535 27.6827 12.3535 27.1287 12.0118 26.787C11.6701 26.4452 11.1161 26.4452 10.7744 26.787L11.3931 27.4057L12.0118 28.0244ZM9.36014 28.2012C9.01843 28.5429 9.01843 29.0969 9.36014 29.4386C9.70185 29.7803 10.2559 29.7803 10.5976 29.4386L9.97886 28.8199L9.36014 28.2012ZM14.9286 28.1128L15.7935 27.9803L15.7905 27.9607L15.7866 27.9412L14.9286 28.1128ZM4.32201 17.5062L4.49361 16.6482L4.47411 16.6443L4.45446 16.6413L4.32201 17.5062ZM9.37326 11.1422L9.37326 10.2672L9.37326 11.1422ZM9.1719 11.125L9.33271 10.2649L9.1719 11.125ZM21.3098 23.2629L20.4497 23.4237L21.3098 23.2629ZM12.8073 23.163L13.426 22.5443L9.89047 19.0088L9.27176 19.6275L8.65304 20.2462L12.1886 23.7817L12.8073 23.163ZM24.8281 16.7991L24.1861 16.2046C21.6514 18.9419 17.5443 21.2713 15.2557 22.3749L15.6357 23.163L16.0158 23.9512C18.3566 22.8224 22.7065 20.3781 25.4701 17.3936L24.8281 16.7991ZM9.27176 16.7991L10.0599 17.1791C11.1635 14.8905 13.4929 10.7834 16.2302 8.2487L15.6357 7.60668L15.0412 6.96466C12.0567 9.72826 9.61241 14.0782 8.48361 16.419L9.27176 16.7991ZM29.0707 5.48536L28.202 5.38073C27.8237 8.52225 26.9288 13.2426 24.1861 16.2046L24.8281 16.7991L25.4701 17.3936C28.6333 13.9775 29.5615 8.7283 29.9395 5.58999L29.0707 5.48536ZM15.6357 7.60668L16.2302 8.2487C19.1922 5.50597 23.9125 4.61112 27.0541 4.23276L26.9494 3.36404L26.8448 2.49532C23.7065 2.87329 18.4572 3.80148 15.0412 6.96466L15.6357 7.60668ZM29.0707 5.48536L29.9395 5.58999C30.0485 4.68434 29.8868 3.79561 29.263 3.17179C28.6392 2.54797 27.7504 2.38624 26.8448 2.49532L26.9494 3.36404L27.0541 4.23276C27.6578 4.16005 27.9206 4.30429 28.0256 4.40923C28.1305 4.51417 28.2747 4.777 28.202 5.38073L29.0707 5.48536ZM9.27176 19.6275L9.89047 19.0088C9.71454 18.8328 9.65204 18.6391 9.67456 18.3559C9.70023 18.0332 9.83791 17.6395 10.0599 17.1791L9.27176 16.7991L8.48361 16.419C8.23478 16.935 7.98194 17.565 7.93007 18.2172C7.87505 18.9089 8.04796 19.6411 8.65304 20.2462L9.27176 19.6275ZM12.8073 23.163L12.1886 23.7817C12.7936 24.3868 13.5259 24.5597 14.2176 24.5047C14.8697 24.4528 15.4998 24.2 16.0158 23.9512L15.6357 23.163L15.2557 22.3749C14.7953 22.5969 14.4016 22.7346 14.0789 22.7602C13.7957 22.7827 13.6019 22.7203 13.426 22.5443L12.8073 23.163ZM10.686 13.9706L10.0673 14.5894L17.8454 22.3675L18.4641 21.7488L19.0829 21.1301L11.3047 13.3519L10.686 13.9706ZM8.56465 24.5772L7.94593 23.9585L4.4104 27.4941L5.02912 28.1128L5.64783 28.7315L9.18337 25.196L8.56465 24.5772ZM5.02911 21.0417L4.4104 20.423L2.99618 21.8372L3.6149 22.4559L4.23362 23.0746L5.64783 21.6604L5.02911 21.0417ZM11.3931 27.4057L10.7744 26.787L9.36014 28.2012L9.97886 28.8199L10.5976 29.4386L12.0118 28.0244L11.3931 27.4057ZM19.1713 9.728L18.5525 9.10928C17.8303 9.83151 17.5129 10.8719 17.5095 11.838C17.5062 12.8053 17.8172 13.854 18.5525 14.5894L19.1713 13.9706L19.79 13.3519C19.4653 13.0272 19.2573 12.4736 19.2595 11.8441C19.2617 11.2133 19.4743 10.6624 19.79 10.3467L19.1713 9.728ZM19.1713 13.9706L18.5525 14.5894C19.3453 15.3821 20.3167 15.4967 21.1901 15.2445C22.0094 15.0078 22.7525 14.4553 23.3255 13.8823L22.7068 13.2635L22.0881 12.6448C21.6232 13.1097 21.1285 13.4407 20.7045 13.5632C20.3346 13.67 20.0572 13.6192 19.79 13.3519L19.1713 13.9706ZM22.7068 13.2635L23.3255 13.8823C23.883 13.3247 24.3635 12.6684 24.3685 11.863C24.3735 11.0542 23.898 10.3889 23.3255 9.81639L22.7068 10.4351L22.0881 11.0538C22.5756 11.5413 22.619 11.7713 22.6185 11.8522C22.618 11.9366 22.5685 12.1644 22.0881 12.6448L22.7068 13.2635ZM22.7068 10.4351L23.3255 9.81639C22.7379 9.22879 21.9873 8.68196 21.1666 8.45222C20.295 8.20822 19.3323 8.32952 18.5525 9.10928L19.1713 9.728L19.79 10.3467C20.0481 10.0885 20.3232 10.0334 20.6949 10.1374C21.1175 10.2557 21.6157 10.5814 22.0881 11.0538L22.7068 10.4351ZM21.2926 24.5772L20.6739 23.9585L16.4312 28.2012L17.0499 28.8199L17.6686 29.4386L21.9113 25.196L21.2926 24.5772ZM14.9286 28.1128L15.7866 27.9412L15.0795 24.4056L14.2215 24.5772L13.3635 24.7488L14.0706 28.2844L14.9286 28.1128ZM21.2926 20.3346L20.4176 20.3346L20.4176 23.0615L21.2926 23.0615L22.1676 23.0615L22.1676 20.3346H21.2926ZM17.0499 28.8199L16.4312 28.2012C16.2653 28.3671 16.1186 28.3645 16.0366 28.3374C15.9551 28.3104 15.8308 28.2236 15.7935 27.9803L14.9286 28.1128L14.0637 28.2452C14.1945 29.0992 14.7437 29.7531 15.4872 29.9989C16.2303 30.2446 17.0603 30.047 17.6686 29.4386L17.0499 28.8199ZM21.2926 24.5772L21.9113 25.196C22.3461 24.7612 22.3276 24.1726 22.3053 23.904C22.2805 23.6033 22.196 23.2418 22.1698 23.1021L21.3098 23.2629L20.4497 23.4237C20.4612 23.4852 20.4741 23.5483 20.4858 23.6054C20.4979 23.6648 20.5091 23.7191 20.5197 23.7738C20.541 23.8847 20.5552 23.9742 20.5613 24.0483C20.5677 24.1261 20.5621 24.1523 20.5637 24.1444C20.5662 24.1318 20.5863 24.0461 20.6739 23.9585L21.2926 24.5772ZM7.85754 11.1422L7.23882 10.5235L2.99618 14.7661L3.6149 15.3849L4.23362 16.0036L8.47626 11.7609L7.85754 11.1422ZM4.32201 17.5062L4.15041 18.3642L7.68594 19.0713L7.85754 18.2133L8.02914 17.3553L4.49361 16.6482L4.32201 17.5062ZM12.1002 11.1422L12.1002 10.2672L9.37326 10.2672L9.37326 11.1422L9.37326 12.0172L12.1002 12.0172L12.1002 11.1422ZM3.6149 15.3849L2.99618 14.7661C2.3878 15.3745 2.19015 16.2045 2.43586 16.9476C2.68172 17.6911 3.33555 18.2403 4.18955 18.3711L4.32201 17.5062L4.45446 16.6413C4.21123 16.604 4.12434 16.4797 4.09738 16.3982C4.07026 16.3162 4.06767 16.1695 4.23362 16.0036L3.6149 15.3849ZM7.85754 11.1422L8.47626 11.7609C8.38872 11.8485 8.303 11.8686 8.29038 11.8711C8.28247 11.8727 8.30865 11.867 8.38646 11.8735C8.46059 11.8796 8.5501 11.8937 8.66095 11.9151C8.71564 11.9256 8.77002 11.9368 8.82941 11.949C8.88644 11.9607 8.94959 11.9736 9.01108 11.9851L9.1719 11.125L9.33271 10.2649C9.19297 10.2388 8.83148 10.1543 8.53076 10.1294C8.26215 10.1072 7.67361 10.0887 7.23882 10.5235L7.85754 11.1422ZM9.37326 11.1422L9.37326 10.2672C9.34606 10.2672 9.33425 10.2652 9.33271 10.2649L9.1719 11.125L9.01108 11.9851C9.14239 12.0097 9.26531 12.0172 9.37326 12.0172L9.37326 11.1422ZM21.2926 23.0615L20.4176 23.0615C20.4176 23.1695 20.4251 23.2924 20.4497 23.4237L21.3098 23.2629L22.1698 23.1021C22.1696 23.1005 22.1676 23.0887 22.1676 23.0615L21.2926 23.0615Z" fill="#1A1A1A"/>
</svg>
