<svg width="12" height="12" viewBox="0 0 12 12" fill="none" xmlns="http://www.w3.org/2000/svg">
<path d="M8 2.25V1.75V1.75V2.25ZM10.5 6.5H11V6.5H10.5ZM8 9V9.5V9.5V9ZM2.3252 10.543L2.65028 10.9229L2.65062 10.9226L2.3252 10.543ZM1.5 10.1631H1L1 10.1633L1.5 10.1631ZM1.5 4.75H1V4.75H1.5ZM4 2.25V1.75V1.75V2.25ZM1.5059 6.75499L1.82887 6.3733L1.5059 6.75499ZM1.5118 6.75188L1.01425 6.80136L1.5118 6.75188ZM8 2.25V2.75C9.10457 2.75 10 3.64543 10 4.75H10.5H11C11 3.09315 9.65685 1.75 8 1.75V2.25ZM10.5 4.75H10V6.5H10.5H11V4.75H10.5ZM10.5 6.5H10C10 7.60457 9.10457 8.5 8 8.5V9V9.5C9.65685 9.5 11 8.15685 11 6.5H10.5ZM8 9V8.5H4.49497V9V9.5H8V9ZM3.84412 9.2408L3.51869 8.8612L1.99977 10.1634L2.3252 10.543L2.65062 10.9226L4.16955 9.6204L3.84412 9.2408ZM2.3252 10.543L2.00011 10.1631L2 10.1629L1.5 10.1631L1 10.1633C1.00031 11.0169 2.00151 11.478 2.65028 10.9229L2.3252 10.543ZM1.5 10.1631H2V6.75773H1.5H1V10.1631H1.5ZM1.5118 6.75188L2.00934 6.70241C2.00299 6.63851 2 6.57116 2 6.5H1.5H1C1 6.59882 1.00413 6.69963 1.01425 6.80136L1.5118 6.75188ZM1.5 6.5H2V4.75H1.5H1V6.5H1.5ZM1.5 4.75H2C2 3.64543 2.89543 2.75 4 2.75V2.25V1.75C2.34315 1.75 1 3.09315 1 4.75H1.5ZM4 2.25V2.75H8V2.25V1.75H4V2.25ZM1.5059 6.75499L1.18293 7.13668C1.53004 7.4304 2.05391 7.15058 2.00934 6.70241L1.5118 6.75188L1.01425 6.80136C0.970321 6.35962 1.48668 6.08376 1.82887 6.3733L1.5059 6.75499ZM1.5 6.75773H2C2 7.18035 1.50556 7.40968 1.18293 7.13668L1.5059 6.75499L1.82887 6.3733C1.50158 6.09636 1 6.329 1 6.75773H1.5ZM4.49497 9V8.5C4.13686 8.5 3.79057 8.62812 3.51869 8.8612L3.84412 9.2408L4.16955 9.6204C4.26017 9.54271 4.3756 9.5 4.49497 9.5V9Z" fill="#1A1A1A"/>
<circle cx="3.66699" cy="5.75" r="0.5" fill="#1A1A1A"/>
<circle cx="6.00098" cy="5.75" r="0.5" fill="#1A1A1A"/>
<circle cx="8.33398" cy="5.75" r="0.5" fill="#1A1A1A"/>
</svg>
