<svg width="16" height="16" viewBox="0 0 16 16" fill="none" xmlns="http://www.w3.org/2000/svg">
<path d="M10.667 3L10.667 2.5H10.667V3ZM14 6.33301H14.5V6.33296L14 6.33301ZM14 8.66699L14.5 8.66704V8.66699H14ZM10.667 12V12.5H10.667L10.667 12ZM3.10059 14.0566L2.77519 13.677L3.10059 14.0566ZM2 13.5508H1.5L1.5 13.551L2 13.5508ZM2 8.66699H1.5V8.66704L2 8.66699ZM2 6.33301L1.5 6.33296V6.33301H2ZM5.33301 3V2.5H5.33296L5.33301 3ZM2.00862 9.00726L1.68655 9.38971L2.00862 9.00726ZM2.01723 9.0027L1.51974 9.05267L2.01723 9.0027ZM5.12551 12.321L5.45091 12.7006L5.12551 12.321ZM10.667 3L10.6669 3.5C12.2315 3.50015 13.4999 4.76847 13.5 6.33306L14 6.33301L14.5 6.33296C14.4998 4.21616 12.7838 2.5002 10.667 2.5L10.667 3ZM14 6.33301H13.5V8.66699H14H14.5V6.33301H14ZM14 8.66699L13.5 8.66694C13.4999 10.2315 12.2315 11.4999 10.6669 11.5L10.667 12L10.667 12.5C12.7838 12.4998 14.4998 10.7838 14.5 8.66704L14 8.66699ZM10.667 12V11.5H5.99323V12V12.5H10.667V12ZM5.12551 12.321L4.80011 11.9414L2.77519 13.677L3.10059 14.0566L3.42598 14.4363L5.45091 12.7006L5.12551 12.321ZM3.10059 14.0566L2.77519 13.677C2.66701 13.7697 2.50005 13.6928 2.5 13.5506L2 13.5508L1.5 13.551C1.50036 14.5475 2.66939 15.0848 3.42598 14.4363L3.10059 14.0566ZM2 13.5508H2.5V9.01127H2H1.5V13.5508H2ZM2.01723 9.0027L2.51473 8.95273C2.50517 8.85752 2.50001 8.76227 2.5 8.66694L2 8.66699L1.5 8.66704C1.50001 8.79838 1.50712 8.92705 1.51974 9.05267L2.01723 9.0027ZM2 8.66699H2.5V6.33301H2H1.5V8.66699H2ZM2 6.33301L2.5 6.33306C2.50015 4.76847 3.76847 3.50015 5.33306 3.5L5.33301 3L5.33296 2.5C3.21616 2.5002 1.5002 4.21616 1.5 6.33296L2 6.33301ZM5.33301 3V3.5H10.667V3V2.5H5.33301V3ZM2.00862 9.00726L1.68655 9.38971C2.03498 9.68313 2.55989 9.40235 2.51473 8.95273L2.01723 9.0027L1.51974 9.05267C1.47552 8.61245 1.98947 8.33746 2.33069 8.6248L2.00862 9.00726ZM2 9.01127H2.5C2.5 9.43188 2.00837 9.66072 1.68655 9.38971L2.00862 9.00726L2.33069 8.6248C2.00205 8.34806 1.5 8.58174 1.5 9.01127H2ZM5.99323 12V11.5C5.55559 11.5 5.13239 11.6566 4.80011 11.9414L5.12551 12.321L5.45091 12.7006C5.60194 12.5712 5.79431 12.5 5.99323 12.5V12Z" fill="#1A1A1A"/>
<circle cx="4.88932" cy="7.66667" r="0.666667" fill="#1A1A1A"/>
<circle cx="8.00065" cy="7.66667" r="0.666667" fill="#1A1A1A"/>
<circle cx="11.112" cy="7.66667" r="0.666667" fill="#1A1A1A"/>
</svg>
