<svg width="32" height="32" viewBox="0 0 32 32" fill="none" xmlns="http://www.w3.org/2000/svg">
<path d="M9.25102 25.642L9.82046 26.3063L9.25102 25.642ZM23.333 4V4.875C26.5317 4.875 29.125 7.46834 29.125 10.667H30H30.875C30.875 6.50184 27.4982 3.125 23.333 3.125V4ZM30 10.667H29.125V18.333H30H30.875V10.667H30ZM30 18.333H29.125C29.125 21.5317 26.5317 24.125 23.333 24.125V25V25.875C27.4982 25.875 30.875 22.4982 30.875 18.333H30ZM23.333 25V24.125H10.9865V25V25.875H23.333V25ZM9.25102 25.642L8.68158 24.9776L4.63173 28.4489L5.20117 29.1133L5.77061 29.7776L9.82046 26.3063L9.25102 25.642ZM5.20117 29.1133L4.63173 28.4489C4.33472 28.7035 3.875 28.4926 3.875 28.1006H3H2.125C2.125 29.9869 4.33783 31.0057 5.77061 29.7776L5.20117 29.1133ZM3 28.1006H3.875V10.667H3H2.125V28.1006H3ZM3 10.667H3.875C3.875 7.46834 6.46834 4.875 9.66699 4.875V4V3.125C5.50184 3.125 2.125 6.50184 2.125 10.667H3ZM9.66699 4V4.875H23.333V4V3.125H9.66699V4ZM10.9865 25V24.125C10.141 24.125 9.32348 24.4274 8.68158 24.9776L9.25102 25.642L9.82046 26.3063C10.1452 26.028 10.5588 25.875 10.9865 25.875V25Z" fill="#1A1A1A"/>
<circle cx="9.5" cy="14.5" r="1.5" fill="#1A1A1A"/>
<circle cx="16.5" cy="14.5" r="1.5" fill="#1A1A1A"/>
<circle cx="23.5" cy="14.5" r="1.5" fill="#1A1A1A"/>
</svg>
