<svg width="12" height="12" viewBox="0 0 12 12" fill="none" xmlns="http://www.w3.org/2000/svg">
<path d="M10.5 4.25H11V4.25H10.5ZM9.5 5.75L9 5.75V5.75H9.5ZM8.5 9.25V9.75V9.25ZM1.5 7.25H1V7.25H1.5ZM2.5 5.75H3V5.75L2.5 5.75ZM3.5 2.25V1.75V2.25ZM1.66922 4.63394L1.81282 4.155L1.66922 4.63394ZM1.66922 6.86606L1.52561 6.38713L1.66922 6.86606ZM10.3308 6.86607L10.1872 7.345L10.3308 6.86607ZM8.5 2.25V2.75C9.32843 2.75 10 3.42157 10 4.25H10.5H11C11 2.86929 9.88071 1.75 8.5 1.75V2.25ZM10.5 4.25H10V4.42329H10.5H11V4.25H10.5ZM10.3308 4.63393L10.1872 4.155C9.50161 4.36055 9 4.995 9 5.75L9.5 5.75L10 5.75C10 5.45004 10.1989 5.19546 10.4744 5.11287L10.3308 4.63393ZM9.5 5.75H9C9 6.505 9.50161 7.13945 10.1872 7.345L10.3308 6.86607L10.4744 6.38713C10.1989 6.30454 10 6.04996 10 5.75H9.5ZM10.5 7.07671H10V7.25H10.5H11V7.07671H10.5ZM10.5 7.25H10C10 8.07843 9.32843 8.75 8.5 8.75V9.25V9.75C9.88071 9.75 11 8.63071 11 7.25H10.5ZM8.5 9.25V8.75H3.5V9.25V9.75H8.5V9.25ZM3.5 9.25V8.75C2.67157 8.75 2 8.07843 2 7.25H1.5H1C1 8.63071 2.11929 9.75 3.5 9.75V9.25ZM1.5 7.25H2V7.07671H1.5H1V7.25H1.5ZM1.66922 6.86606L1.81282 7.345C2.49838 7.13944 3 6.505 3 5.75H2.5H2C2 6.04995 1.80108 6.30453 1.52561 6.38713L1.66922 6.86606ZM2.5 5.75L3 5.75C3 4.995 2.49838 4.36056 1.81282 4.155L1.66922 4.63394L1.52561 5.11287C1.80108 5.19547 2 5.45005 2 5.75L2.5 5.75ZM1.5 4.42329H2V4.25H1.5H1V4.42329H1.5ZM1.5 4.25H2C2 3.42157 2.67157 2.75 3.5 2.75V2.25V1.75C2.11929 1.75 1 2.86929 1 4.25H1.5ZM3.5 2.25V2.75H8.5V2.25V1.75H3.5V2.25ZM1.66922 4.63394L1.81282 4.155C1.88576 4.17687 2 4.25986 2 4.42329H1.5H1C1 4.78572 1.26205 5.03385 1.52561 5.11287L1.66922 4.63394ZM1.5 7.07671H2C2 7.24014 1.88576 7.32313 1.81282 7.345L1.66922 6.86606L1.52561 6.38713C1.26205 6.46615 1 6.71428 1 7.07671H1.5ZM10.3308 6.86607L10.1872 7.345C10.1142 7.32313 10 7.24014 10 7.07671H10.5H11C11 6.71428 10.7379 6.46615 10.4744 6.38713L10.3308 6.86607ZM10.5 4.42329H10C10 4.25986 10.1142 4.17687 10.1872 4.155L10.3308 4.63393L10.4744 5.11287C10.7379 5.03385 11 4.78572 11 4.42329H10.5Z" fill="#1A1A1A"/>
<path d="M5 5.19995H7" stroke="#1A1A1A" stroke-width="0.65625" stroke-linecap="round"/>
<path d="M5 6.19995H7" stroke="#1A1A1A" stroke-width="0.65625" stroke-linecap="round"/>
<path d="M6 5.19995V7.19995" stroke="#1A1A1A" stroke-width="0.65625" stroke-linecap="round"/>
<path d="M5 4.19995L6 5.19995L7 4.19995" stroke="#1A1A1A" stroke-width="0.65625" stroke-linecap="round"/>
</svg>
