<svg width="16" height="16" viewBox="0 0 16 16" fill="none" xmlns="http://www.w3.org/2000/svg">
<path d="M2.22567 6.17656L2.08193 6.65545L2.22567 6.17656ZM4.66667 3V2.5C2.91777 2.5 1.5 3.91776 1.5 5.66667H2H2.5C2.5 4.47005 3.47005 3.5 4.66667 3.5V3ZM11.3333 3V2.5H4.66667V3V3.5H11.3333V3ZM14 5.66667H14.5C14.5 3.91776 13.0822 2.5 11.3333 2.5V3V3.5C12.53 3.5 13.5 4.47005 13.5 5.66667H14ZM14 5.89563H14.5V5.66667H14H13.5V5.89563H14ZM12.6667 7.66667H13.1667C13.1667 7.19009 13.4829 6.78608 13.9181 6.65545L13.7743 6.17656L13.6306 5.69767C12.7842 5.95171 12.1667 6.73642 12.1667 7.66667H12.6667ZM13.7743 9.15677L13.9181 8.67788C13.4829 8.54726 13.1667 8.14324 13.1667 7.66667H12.6667H12.1667C12.1667 8.59692 12.7842 9.38162 13.6306 9.63567L13.7743 9.15677ZM14 9.66667H14.5V9.43771H14H13.5V9.66667H14ZM11.3333 12.3333V12.8333C13.0822 12.8333 14.5 11.4156 14.5 9.66667H14H13.5C13.5 10.8633 12.53 11.8333 11.3333 11.8333V12.3333ZM4.66667 12.3333V12.8333H11.3333V12.3333V11.8333H4.66667V12.3333ZM2 9.66667H1.5C1.5 11.4156 2.91777 12.8333 4.66667 12.8333V12.3333V11.8333C3.47005 11.8333 2.5 10.8633 2.5 9.66667H2ZM2 9.43771H1.5V9.66667H2H2.5V9.43771H2ZM2.22567 9.15677L2.36941 9.63567C3.21579 9.38162 3.83333 8.59691 3.83333 7.66667H3.33333H2.83333C2.83333 8.14324 2.51711 8.54726 2.08193 8.67788L2.22567 9.15677ZM3.33333 7.66667H3.83333C3.83333 6.73642 3.21579 5.95171 2.36941 5.69767L2.22567 6.17656L2.08193 6.65545C2.51711 6.78608 2.83333 7.19009 2.83333 7.66667H3.33333ZM2 5.66667H1.5V5.89563H2H2.5V5.66667H2ZM2.22567 6.17656L2.36941 5.69767C2.39676 5.70587 2.42543 5.72268 2.45006 5.75239C2.47622 5.78393 2.5 5.83389 2.5 5.89563H2H1.5C1.5 6.29132 1.7868 6.56687 2.08193 6.65545L2.22567 6.17656ZM2 9.43771H2.5C2.5 9.49944 2.47622 9.5494 2.45006 9.58095C2.42543 9.61065 2.39675 9.62746 2.36941 9.63567L2.22567 9.15677L2.08193 8.67788C1.7868 8.76646 1.5 9.04201 1.5 9.43771H2ZM13.7743 9.15677L13.6306 9.63567C13.6032 9.62746 13.5746 9.61065 13.5499 9.58095C13.5238 9.5494 13.5 9.49944 13.5 9.43771H14H14.5C14.5 9.04201 14.2132 8.76647 13.9181 8.67788L13.7743 9.15677ZM14 5.89563H13.5C13.5 5.83389 13.5238 5.78393 13.5499 5.75239C13.5746 5.72268 13.6032 5.70587 13.6306 5.69767L13.7743 6.17656L13.9181 6.65545C14.2132 6.56687 14.5 6.29132 14.5 5.89563H14Z" fill="#1A1A1A"/>
<path d="M6.5 7H9.5" stroke="#1A1A1A" stroke-width="0.875" stroke-linecap="round"/>
<path d="M6.5 8.5H9.5" stroke="#1A1A1A" stroke-width="0.875" stroke-linecap="round"/>
<path d="M8 7V10" stroke="#1A1A1A" stroke-width="0.875" stroke-linecap="round"/>
<path d="M6.5 5.5L8 6.5L9.5 5.5" stroke="#1A1A1A" stroke-width="0.875" stroke-linecap="round"/>
</svg>
