<svg width="12" height="12" viewBox="0 0 12 12" fill="none" xmlns="http://www.w3.org/2000/svg">
<path d="M5.48592 2.35423C5.71911 1.96674 6.28089 1.96674 6.51408 2.35423L7.35015 3.74348C7.43392 3.88269 7.57057 3.98197 7.72886 4.01863L9.30847 4.38447C9.74906 4.48651 9.92266 5.0208 9.62619 5.36232L8.56329 6.58677C8.45679 6.70946 8.40459 6.8701 8.41864 7.03196L8.55883 8.64732C8.59793 9.09787 8.14345 9.42808 7.72703 9.25166L6.23405 8.61916C6.08445 8.55578 5.91555 8.55578 5.76595 8.61916L4.27298 9.25166C3.85655 9.42808 3.40207 9.09787 3.44117 8.64732L3.58136 7.03196C3.59541 6.8701 3.54321 6.70946 3.43671 6.58677L2.37381 5.36232C2.07734 5.0208 2.25094 4.48651 2.69153 4.38447L4.27114 4.01863C4.42943 3.98197 4.56608 3.88269 4.64985 3.74348L5.48592 2.35423Z" stroke="#1A1A1A"/>
</svg>
