<svg width="16" height="16" viewBox="0 0 16 16" fill="none" xmlns="http://www.w3.org/2000/svg">
<path d="M7.31455 3.13898C7.62548 2.62232 8.37452 2.62232 8.68545 3.13898L9.8002 4.99131C9.9119 5.17692 10.0941 5.3093 10.3051 5.35817L12.4113 5.84596C12.9987 5.98202 13.2302 6.69439 12.8349 7.14976L11.4177 8.78235C11.2757 8.94595 11.2061 9.16013 11.2249 9.37595L11.4118 11.5298C11.4639 12.1305 10.8579 12.5708 10.3027 12.3355L8.31207 11.4922C8.1126 11.4077 7.8874 11.4077 7.68793 11.4922L5.6973 12.3355C5.14207 12.5708 4.53609 12.1305 4.58822 11.5298L4.77515 9.37595C4.79388 9.16013 4.72428 8.94595 4.58228 8.78235L3.16508 7.14976C2.76979 6.69439 3.00126 5.98202 3.58871 5.84596L5.69486 5.35817C5.9059 5.3093 6.0881 5.17692 6.1998 4.99131L7.31455 3.13898Z" stroke="#1A1A1A"/>
</svg>
