<svg width="32" height="32" viewBox="0 0 32 32" fill="none" xmlns="http://www.w3.org/2000/svg">
<path d="M14.1291 3.27795C14.751 2.24464 16.249 2.24464 16.8709 3.27795L19.9233 8.35C20.1467 8.72122 20.5111 8.98597 20.9332 9.08372L26.7002 10.4194C27.8751 10.6915 28.3381 12.1162 27.5475 13.027L23.6669 17.4973C23.3829 17.8245 23.2437 18.2529 23.2812 18.6845L23.793 24.5821C23.8973 25.7835 22.6853 26.6641 21.5749 26.1936L16.1241 23.8844C15.7252 23.7154 15.2748 23.7154 14.8759 23.8844L9.42514 26.1936C8.31468 26.6641 7.10271 25.7835 7.20699 24.5821L7.71881 18.6845C7.75627 18.2529 7.61709 17.8245 7.33307 17.4973L3.45251 13.027C2.66194 12.1162 3.12487 10.6915 4.29977 10.4194L10.0668 9.08372C10.4889 8.98597 10.8533 8.72122 11.0767 8.35L14.1291 3.27795Z" stroke="#1A1A1A" stroke-width="1.75"/>
</svg>
