<svg width="15" height="15" overflow="visible" style="display: block;" viewBox="0 0 11.25 13.6696" fill="none" xmlns="http://www.w3.org/2000/svg">
<path id="Exclude" fill-rule="evenodd" clip-rule="evenodd" d="M11.25 5.625C11.25 9.0573 8.23414 11.987 6.61899 13.3098C6.0334 13.7895 5.2166 13.7895 4.63101 13.3098C3.01586 11.987 0 9.0573 0 5.625C0 2.5184 2.5184 0 5.625 0C8.7316 0 11.25 2.5184 11.25 5.625ZM5.625 8.375C7.00571 8.375 8.125 7.25571 8.125 5.875C8.125 4.49429 7.00571 3.375 5.625 3.375C4.24429 3.375 3.125 4.49429 3.125 5.875C3.125 7.25571 4.24429 8.375 5.625 8.375Z" fill="var(--fill-0, white)"/>
</svg>
