<svg width="19.11" height="19.12" overflow="visible" style="display: block;" viewBox="0 0 19.1077 19.1236" fill="none" xmlns="http://www.w3.org/2000/svg">
<g id="Group 1312321163">
<path id="Rectangle 74" d="M1.58252 1.92055C1.89075 0.85986 3.00049 0.249872 4.06118 0.558105L17.1871 4.37245C18.2478 4.68068 18.8578 5.79042 18.5495 6.85111L17.8573 9.2332L13.6156 8.00056L9.37381 6.76792L1.53048 4.48868C1.17691 4.38593 0.973584 4.01602 1.07633 3.66246L1.58252 1.92055Z" fill="var(--fill-0, #0F764A)"/>
<g id="&#231;&#148;&#159;&#233;&#178;&#156;-&#232;&#148;&#172;&#232;&#143;&#156;4 1" clip-path="url(#clip0_0_98)">
<path id="Vector" d="M17.0596 4.10521C17.0596 4.10521 18.861 10.4256 14.1556 10.7828C9.45022 11.14 8.39423 9.46282 7.71094 7.87883L17.0596 4.10521Z" fill="var(--fill-0, #036029)"/>
<path id="Vector_2" d="M11.6562 1.80686C11.6562 1.80686 12.1842 1.10804 13.7061 1.44968C15.228 1.79133 17.3555 3.65485 17.2623 4.97484C17.1692 6.29483 16.9983 6.46565 17.2623 6.916C17.5263 7.36635 16.9983 7.708 16.548 7.87882C16.0976 8.04964 16.3772 9.10564 15.8336 9.10564C15.3056 9.10564 15.1193 9.01246 14.6845 9.10564C14.2341 9.19881 13.5353 8.04964 13.5353 8.04964L11.9358 4.78849L11.6562 1.90003" fill="var(--fill-0, #3B8234)"/>
<path id="Vector_3" d="M7.92749 8.5C7.92749 8.5 6.49879 5.23884 8.64184 2.95603C8.81266 2.69204 9.09219 2.42804 10.0705 2.42804C11.0489 2.42804 11.0334 1.27887 11.6545 1.44969C12.2757 1.62051 12.1825 2.24169 12.8969 2.24169C13.6112 2.24169 13.7044 1.80687 14.046 2.24169C14.4032 2.67651 14.4032 3.29768 14.9312 3.65485C15.4592 4.01203 15.8164 3.91885 15.9096 4.35367C16.0027 4.78849 15.4592 5.50284 15.6456 5.76684C15.8319 6.03084 16.4686 6.55884 15.8474 7.18001C15.2263 7.80118 14.8691 7.80118 14.8691 8.236C14.8691 8.67082 15.1331 9.12117 14.5119 9.38517C13.8907 9.64917 13.2696 9.64917 13.1764 10.0063C13.0832 10.3635 12.8192 10.5343 12.4621 10.6275C12.1049 10.7207 11.3905 10.0995 11.0334 10.1927C10.6762 10.2548 9.26301 10.7828 7.92749 8.5Z" fill="var(--fill-0, #86C958)"/>
<path id="Vector_4" d="M8.09375 8.67081C8.09375 8.67081 9.52245 4.54001 13.9638 4.61766C13.9638 4.61766 10.4076 4.61766 8.62175 9.36963C8.63728 9.36963 8.18693 9.02798 8.09375 8.67081Z" fill="var(--fill-0, white)"/>
<path id="Vector_5" d="M8.80916 7.61484C8.80916 7.61484 7.73763 6.12403 8.90233 4.27604C8.90233 4.27604 8.18798 6.65202 8.99551 7.2732L8.80916 7.61484ZM10.859 5.50285C10.859 5.50285 10.6882 3.74804 12.1945 3.03369C12.1945 3.03369 10.9522 3.99651 11.2162 5.3165L10.859 5.50285ZM10.1447 6.46567C10.1447 6.46567 11.4802 7.95649 13.9649 7.25767C13.9649 7.25767 12.1014 8.40684 9.95833 6.82285L10.1447 6.46567ZM8.90233 8.40684C9.61668 9.29201 11.6666 9.29201 11.6666 9.29201C9.70986 9.19883 9.08868 8.06519 9.08868 8.06519L8.90233 8.40684Z" fill="var(--fill-0, white)"/>
</g>
<g id="Group 1312321158">
<path id="Vector_6" d="M9.10822 7.85121C9.35973 5.46359 7.56682 4.02342 5.22182 3.7764C2.87682 3.52939 0.869638 4.56927 0.618134 6.95689C0.352676 9.47724 1.52091 11.2014 4.40767 11.5055C7.29442 11.8096 8.85655 10.2405 9.10822 7.85121Z" fill="var(--fill-0, #FFE55A)"/>
<path id="Vector_7" d="M9.10712 7.67908C9.26251 6.2039 8.61903 5.17936 7.54306 4.55902C7.6152 5.19301 8.11455 6.31194 6.2188 8.75355C4.82878 10.5452 2.84183 10.7954 2.07759 10.6626C2.6688 11.1043 3.44377 11.4051 4.41331 11.5072C7.29867 11.8095 8.85836 10.0407 9.10712 7.67908Z" fill="var(--fill-0, #FFD646)"/>
<path id="Vector_8" d="M8.36974 8.12839L8.20312 7.70199Z" fill="var(--fill-0, #F84323)"/>
<path id="Vector_9" d="M7.74234 8.5607L7.28137 8.32113Z" fill="var(--fill-0, #F84323)"/>
<path id="Vector_10" d="M7.54802 9.36731L7.02434 9.37845Z" fill="var(--fill-0, #F84323)"/>
<path id="Vector_11" d="M7.70748 10.1467L7.26711 10.386Z" fill="var(--fill-0, #F84323)"/>
</g>
<path id="Rectangle 3155" d="M0 9.79026C0 9.42207 0.298477 9.1236 0.666667 9.1236H17.3333C17.7015 9.1236 18 9.42207 18 9.79026V17.1236C18 18.2282 17.1046 19.1236 16 19.1236H2C0.89543 19.1236 0 18.2282 0 17.1236V9.79026Z" fill="url(#paint0_linear_0_98)"/>
</g>
<defs>
<linearGradient id="paint0_linear_0_98" x1="18" y1="14.1236" x2="-8.38189e-09" y2="14.1236" gradientUnits="userSpaceOnUse">
<stop stop-color="#0C6C4E"/>
<stop offset="1" stop-color="#128840"/>
</linearGradient>
<clipPath id="clip0_0_98">
<rect width="9.93876" height="9.93876" fill="white" transform="translate(7.46094 1.1236)"/>
</clipPath>
</defs>
</svg>
