<svg width="12" height="12" viewBox="0 0 12 12" fill="none" xmlns="http://www.w3.org/2000/svg">
<path d="M5.54196 2.06864C5.9866 1.56048 6.78616 1.59008 7.19137 2.13016L8.71481 4.16239C8.77689 4.24512 8.88486 4.28044 8.98434 4.25223L10.5215 3.81376L10.6386 3.78837C11.2228 3.70278 11.7405 4.2242 11.6201 4.82645L10.8564 8.64286C10.6692 9.57723 9.84848 10.2502 8.89548 10.2503H3.47946C2.52659 10.25 1.70569 9.57718 1.51852 8.64286L0.754851 4.82645C0.634458 4.22433 1.15227 3.70306 1.7363 3.78837L1.85348 3.81376L3.42966 4.26395C3.52253 4.29049 3.62275 4.2603 3.68649 4.18778L5.54196 2.06864ZM6.39157 2.73075C6.36774 2.69897 6.32007 2.69695 6.29391 2.72684L4.43942 4.84696C4.12076 5.21065 3.62023 5.3587 3.15524 5.22587L1.77634 4.83036L2.49899 8.44657C2.5926 8.91356 3.0032 9.24998 3.47946 9.25028H8.89548C9.37186 9.25018 9.78224 8.91361 9.87595 8.44657L10.5976 4.83036L9.25876 5.21415C8.76073 5.35622 8.22578 5.17633 7.91501 4.762L6.39157 2.73075ZM4.65134 5.92802C4.89833 5.80452 5.19874 5.90466 5.32223 6.15165L5.79489 7.09794L7.18747 5.98466C7.4031 5.81215 7.71809 5.84715 7.89059 6.06278C8.06308 6.27841 8.02809 6.59341 7.81247 6.76591L6.11813 8.1204C5.77652 8.39324 5.27004 8.28275 5.07419 7.89188L4.4277 6.59891C4.30429 6.35209 4.40471 6.05167 4.65134 5.92802Z" fill="#1A1A1A"/>
</svg>
