<svg width="16" height="16" viewBox="0 0 16 16" fill="none" xmlns="http://www.w3.org/2000/svg">
<path d="M7.51423 2.8672C8.0374 2.26941 8.97801 2.30491 9.45466 2.94044L11.4869 5.64943C11.6112 5.81513 11.8248 5.88701 12.024 5.83009L14.0738 5.24415C14.7935 5.03868 15.4754 5.66834 15.3287 6.40236L14.3111 11.4902C14.0774 12.6588 13.0516 13.5 11.8599 13.5H4.63923C3.44753 13.5 2.42177 12.6588 2.18806 11.4902L1.17048 6.40236C1.0237 5.6683 1.70558 5.03861 2.42536 5.24415L4.52692 5.84474C4.713 5.89789 4.91315 5.839 5.0406 5.69337L7.51423 2.8672ZM8.65485 3.54005C8.55952 3.41301 8.37081 3.4059 8.26618 3.5254L5.79352 6.35158C5.41117 6.78855 4.81081 6.96614 4.25251 6.80665L2.15095 6.20607L3.16852 11.294C3.30875 11.9951 3.92421 12.5 4.63923 12.5H11.8599C12.5749 12.5 13.1904 11.9951 13.3306 11.294L14.3482 6.20607L12.2984 6.79201C11.7007 6.96262 11.06 6.74633 10.6871 6.24904L8.65485 3.54005ZM6.27595 8.05275C6.52292 7.92931 6.82336 8.02943 6.94685 8.27638L7.6695 9.72267L9.68708 8.10939C9.90271 7.93694 10.2177 7.9719 10.3902 8.18751C10.5627 8.40312 10.5277 8.71812 10.3121 8.89064L8.05329 10.6973C7.68045 10.9955 7.12718 10.8743 6.91364 10.4473L6.05231 8.72365C5.92883 8.47666 6.02896 8.17624 6.27595 8.05275Z" fill="#1A1A1A"/>
</svg>
