<svg width="24" height="24" viewBox="0 0 24 24" fill="none" xmlns="http://www.w3.org/2000/svg">
<path d="M10.5009 4.74686C11.251 3.74842 12.7489 3.74846 13.499 4.74686L16.7402 9.06132C16.9382 9.32495 17.2857 9.42848 17.5957 9.3162L20.5371 8.24979C21.6164 7.85873 22.7169 8.77574 22.5273 9.908L21.2363 17.6189C20.9337 19.4258 19.3691 20.7498 17.5371 20.7498H6.46286C4.63091 20.7497 3.06625 19.4257 2.76364 17.6189L1.47262 9.908C1.28301 8.77578 2.3836 7.85886 3.46286 8.24979L6.40426 9.3162C6.71428 9.42856 7.06164 9.32492 7.25973 9.06132L10.5009 4.74686ZM12.2998 5.64725C12.1497 5.44797 11.8502 5.44793 11.7002 5.64725L8.45895 9.96268C7.86467 10.7537 6.8227 11.0636 5.89255 10.7264L2.95212 9.65995L4.24313 17.3719C4.42485 18.4557 5.36385 19.2497 6.46286 19.2498H17.5371C18.6361 19.2498 19.5751 18.4558 19.7568 17.3719L21.0478 9.65995L18.1074 10.7264C17.1772 11.0635 16.1352 10.7537 15.541 9.96268L12.2998 5.64725ZM14.4931 12.4471C14.7983 12.1672 15.2727 12.1879 15.5527 12.493C15.8326 12.7982 15.8119 13.2725 15.5068 13.5525L12.582 16.2361C12.0516 16.7225 11.2074 16.5929 10.8476 15.9695L9.35055 13.3748C9.14368 13.0161 9.2665 12.5575 9.62497 12.3504C9.98365 12.1434 10.4423 12.2662 10.6494 12.6248L11.9121 14.8142L14.4931 12.4471Z" fill="#1A1A1A"/>
</svg>
