<svg width="32" height="32" viewBox="0 0 32 32" fill="none" xmlns="http://www.w3.org/2000/svg">
<path d="M15.1235 5.81595C16.1175 4.68051 17.9054 4.74749 18.811 5.95462L22.8745 11.3736C23.1543 11.7465 23.6352 11.9079 24.0835 11.7798L28.1831 10.6089C29.5325 10.2236 30.8115 11.4037 30.5366 12.7798L28.5015 22.9556C28.0457 25.2342 26.0449 26.8745 23.7212 26.8745H9.27977C6.95596 26.8745 4.95525 25.2343 4.4995 22.9556L2.46434 12.7798C2.1894 11.4035 3.46828 10.2233 4.81786 10.6089L9.02099 11.8101C9.43965 11.9297 9.89046 11.7969 10.1772 11.4693L15.1235 5.81595ZM17.4106 7.0054C17.1723 6.68795 16.7015 6.66979 16.4399 6.96829L11.4936 12.6216C10.7608 13.4589 9.61045 13.7984 8.54052 13.4927L4.33739 12.2915C4.24757 12.2659 4.16221 12.3445 4.18017 12.4361L6.21532 22.6128C6.50761 24.0733 7.79028 25.1245 9.27977 25.1245H23.7212C25.2106 25.1245 26.4934 24.0733 26.7856 22.6128L28.8208 12.4361C28.8387 12.3446 28.7533 12.2661 28.6636 12.2915L24.564 13.4624C23.4182 13.7896 22.189 13.3766 21.4741 12.4234L17.4106 7.0054ZM19.4536 16.3159C19.8309 16.0144 20.3822 16.0756 20.6841 16.4527C20.9859 16.8299 20.9244 17.3812 20.5474 17.6831L16.0298 21.2964C15.3462 21.8431 14.3324 21.6203 13.9409 20.8374L12.2183 17.3911C12.0024 16.9591 12.177 16.4335 12.6089 16.2173C13.0408 16.0016 13.5664 16.1763 13.7827 16.6079L15.2983 19.6402L19.4536 16.3159Z" fill="#1A1A1A"/>
</svg>
