<svg width="12" height="12" viewBox="0 0 12 12" fill="none" xmlns="http://www.w3.org/2000/svg">
<path d="M8 2.25V1.75V1.75V2.25ZM10.5 4.75H11V4.75H10.5ZM8 9.75V10.25V10.25V9.75ZM4 9.75V10.25V10.25V9.75ZM2.32227 10.5576L2.64433 10.9401L2.64465 10.9398L2.32227 10.5576ZM4 2.25V1.75V1.75V2.25ZM3.88562 9.74713L3.86065 10.2465L3.88562 9.74713ZM2.98279 10.0005L2.66041 9.61826L2.98279 10.0005ZM8 2.25V2.75C9.10457 2.75 10 3.64543 10 4.75H10.5H11C11 3.09315 9.65685 1.75 8 1.75V2.25ZM10.5 4.75H10V7.25H10.5H11V4.75H10.5ZM10.5 7.25H10C10 8.35457 9.10457 9.25 8 9.25V9.75V10.25C9.65685 10.25 11 8.90685 11 7.25H10.5ZM8 9.75V9.25H4V9.75V10.25H8V9.75ZM4 9.75V9.25C3.97012 9.25 3.94032 9.24924 3.91058 9.24775L3.88562 9.74713L3.86065 10.2465C3.9067 10.2488 3.95315 10.25 4 10.25V9.75ZM2.98279 10.0005L2.66041 9.61826L1.99988 10.1754L2.32227 10.5576L2.64465 10.9398L3.30517 10.3826L2.98279 10.0005ZM2.32227 10.5576L2.0002 10.1752L2 10.1748H1.5H1C1 11.0245 1.99357 11.4881 2.64433 10.9401L2.32227 10.5576ZM1.5 10.1748H2V4.75H1.5H1V10.1748H1.5ZM1.5 4.75H2C2 3.64543 2.89543 2.75 4 2.75V2.25V1.75C2.34315 1.75 1 3.09315 1 4.75H1.5ZM4 2.25V2.75H8V2.25V1.75H4V2.25ZM3.88562 9.74713L3.91058 9.24775C3.52085 9.22827 3.04219 9.29622 2.66041 9.61826L2.98279 10.0005L3.30517 10.3826C3.418 10.2875 3.60412 10.2337 3.86065 10.2465L3.88562 9.74713Z" fill="#1A1A1A"/>
<path d="M7.2041 4.18165C7.37972 4.22556 7.48694 4.40349 7.44336 4.57911L7.35742 4.92189H7.875C8.05619 4.92189 8.20308 5.06883 8.20312 5.25001C8.20312 5.43123 8.05622 5.57814 7.875 5.57814H7.19336L6.98242 6.42189H7.5C7.68119 6.42189 7.82808 6.56883 7.82812 6.75001C7.82812 6.93123 7.68122 7.07814 7.5 7.07814H6.81836L6.69336 7.58009C6.64926 7.75567 6.4706 7.86227 6.29492 7.81837C6.11948 7.77427 6.01296 7.59646 6.05664 7.42091L6.14258 7.07814H5.31836L5.19531 7.5713C5.15129 7.74666 4.97276 7.85731 4.7959 7.81837C4.61881 7.77918 4.51077 7.60438 4.55469 7.42872L4.64258 7.07814H4.125C3.94378 7.07814 3.79688 6.93123 3.79688 6.75001C3.79692 6.56883 3.94381 6.42189 4.125 6.42189H4.80664L5.01758 5.57814H4.5C4.31878 5.57814 4.17187 5.43123 4.17188 5.25001C4.17192 5.06883 4.31881 4.92189 4.5 4.92189H5.18164L5.30469 4.4297C5.3486 4.25404 5.52799 4.14246 5.70508 4.18165C5.88195 4.221 5.99017 4.39576 5.94629 4.5713L5.8584 4.92189H6.68164L6.80664 4.41993C6.8508 4.24459 7.02861 4.138 7.2041 4.18165ZM5.69434 5.57814L5.4834 6.42189H6.30664L6.51758 5.57814H5.69434Z" fill="#1A1A1A"/>
</svg>
