<svg width="16" height="16" viewBox="0 0 16 16" fill="none" xmlns="http://www.w3.org/2000/svg">
<path d="M10.667 3L10.667 2.5H10.667V3ZM14 6.33301H14.5V6.33296L14 6.33301ZM14 9.66699L14.5 9.66704V9.66699H14ZM10.667 13V13.5H10.667L10.667 13ZM5.33301 13L5.33296 13.5H5.33301V13ZM3.0957 14.0771L3.41756 14.4598L3.41791 14.4595L3.0957 14.0771ZM2 13.5674H1.5L1.5 13.5676L2 13.5674ZM2 6.33301L1.5 6.33296V6.33301H2ZM5.33301 3V2.5H5.33296L5.33301 3ZM5.178 12.9964L5.20101 12.497L5.178 12.9964ZM3.97308 13.3378L3.65087 12.9554L3.97308 13.3378ZM10.667 3L10.6669 3.5C12.2315 3.50015 13.4999 4.76847 13.5 6.33306L14 6.33301L14.5 6.33296C14.4998 4.21616 12.7838 2.5002 10.667 2.5L10.667 3ZM14 6.33301H13.5V9.66699H14H14.5V6.33301H14ZM14 9.66699L13.5 9.66694C13.4999 11.2315 12.2315 12.4999 10.6669 12.5L10.667 13L10.667 13.5C12.7838 13.4998 14.4998 11.7838 14.5 9.66704L14 9.66699ZM10.667 13V12.5H5.33301V13V13.5H10.667V13ZM5.33301 13L5.33306 12.5C5.28877 12.5 5.24474 12.499 5.20101 12.497L5.178 12.9964L5.15498 13.4959C5.214 13.4986 5.27333 13.5 5.33296 13.5L5.33301 13ZM3.97308 13.3378L3.65087 12.9554L2.7735 13.6948L3.0957 14.0771L3.41791 14.4595L4.29529 13.7201L3.97308 13.3378ZM3.0957 14.0771L2.77385 13.6945C2.66544 13.7857 2.50007 13.7087 2.5 13.5671L2 13.5674L1.5 13.5676C1.50047 14.5591 2.65898 15.0979 3.41756 14.4598L3.0957 14.0771ZM2 13.5674H2.5V6.33301H2H1.5V13.5674H2ZM2 6.33301L2.5 6.33306C2.50015 4.76847 3.76847 3.50015 5.33306 3.5L5.33301 3L5.33296 2.5C3.21616 2.5002 1.5002 4.21616 1.5 6.33296L2 6.33301ZM5.33301 3V3.5H10.667V3V2.5H5.33301V3ZM5.178 12.9964L5.20101 12.497C4.70309 12.474 4.11423 12.5649 3.65087 12.9554L3.97308 13.3378L4.29529 13.7201C4.49187 13.5544 4.79078 13.4791 5.15498 13.4959L5.178 12.9964Z" fill="#1A1A1A"/>
<path d="M9.60645 5.57595C9.84047 5.63472 9.98315 5.87207 9.9248 6.10622L9.81055 6.56228H10.5C10.7416 6.56228 10.9374 6.7582 10.9375 6.99978C10.9375 7.2414 10.7416 7.43728 10.5 7.43728H9.5918L9.31055 8.56228H10C10.2416 8.56228 10.4374 8.7582 10.4375 8.99978C10.4375 9.2414 10.2416 9.43728 10 9.43728H9.0918L8.9248 10.1062C8.86607 10.3404 8.62784 10.4831 8.39355 10.4246C8.1593 10.3659 8.01661 10.1277 8.0752 9.89333L8.18945 9.43728H7.0918L6.92773 10.0945C6.86916 10.3284 6.63037 10.4764 6.39453 10.4246C6.15849 10.3723 6.01386 10.1392 6.07227 9.90505L6.18945 9.43728H5.5C5.25838 9.43728 5.0625 9.2414 5.0625 8.99978C5.06256 8.7582 5.25841 8.56228 5.5 8.56228H6.4082L6.68945 7.43728H6C5.75838 7.43728 5.5625 7.2414 5.5625 6.99978C5.56256 6.7582 5.75841 6.56228 6 6.56228H6.9082L7.07227 5.90505C7.13085 5.67109 7.36957 5.52401 7.60547 5.57595C7.84145 5.62818 7.98602 5.86042 7.92773 6.0945L7.81055 6.56228H8.9082L9.0752 5.89333C9.13394 5.65912 9.37215 5.51737 9.60645 5.57595ZM7.5918 7.43728L7.31055 8.56228H8.4082L8.68945 7.43728H7.5918Z" fill="#1A1A1A"/>
</svg>
