<svg width="24" height="24" viewBox="0 0 24 24" fill="none" xmlns="http://www.w3.org/2000/svg">
<path d="M3.625 21.7002L4.09352 22.2858L4.09354 22.2858L3.625 21.7002ZM6.45216 19.4383L6.9207 20.0239L6.45216 19.4383ZM17 3V3.75C19.3472 3.75 21.25 5.65279 21.25 8H22H22.75C22.75 4.82436 20.1756 2.25 17 2.25V3ZM22 8H21.25V14H22H22.75V8H22ZM22 14H21.25C21.25 16.3472 19.3472 18.25 17 18.25V19V19.75C20.1756 19.75 22.75 17.1756 22.75 14H22ZM17 19V18.25H7.7016V19V19.75H17V19ZM6.45216 19.4383L5.98361 18.8527L3.15646 21.1146L3.625 21.7002L4.09354 22.2858L6.9207 20.0239L6.45216 19.4383ZM3.625 21.7002L3.15648 21.1145C2.99305 21.2453 2.75 21.1289 2.75 20.9189H2H1.25C1.25 22.386 2.94742 23.2027 4.09352 22.2858L3.625 21.7002ZM2 20.9189H2.75V8H2H1.25V20.9189H2ZM2 8H2.75C2.75 5.65279 4.65279 3.75 7 3.75V3V2.25C3.82436 2.25 1.25 4.82436 1.25 8H2ZM7 3V3.75H17V3V2.25H7V3ZM7.7016 19V18.25C7.07712 18.25 6.47124 18.4625 5.98361 18.8527L6.45216 19.4383L6.9207 20.0239C7.14235 19.8466 7.41775 19.75 7.7016 19.75V19Z" fill="#1A1A1A"/>
<path d="M14.5996 6.82711C14.7197 6.4308 15.1439 6.18663 15.5469 6.28219C15.9498 6.37781 16.1796 6.77739 16.0596 7.17379L15.7334 8.24996H17C17.4141 8.24996 17.7499 8.58587 17.75 8.99996C17.75 9.41417 17.4142 9.74996 17 9.74996H15.2793L14.5215 12.25H16C16.4141 12.25 16.7499 12.5859 16.75 13C16.75 13.4142 16.4142 13.75 16 13.75H14.0674L13.7295 14.8662C13.6095 15.2626 13.1853 15.5067 12.7822 15.4111C12.3795 15.3153 12.1505 14.9168 12.2705 14.5205L12.5039 13.75H10.0674L9.72949 14.8662C9.60946 15.2626 9.18526 15.5067 8.78223 15.4111C8.37948 15.3153 8.15052 14.9168 8.27051 14.5205L8.50391 13.75H7C6.58579 13.75 6.25 13.4142 6.25 13C6.25015 12.5859 6.58588 12.25 7 12.25H8.95801L9.71484 9.74996H8C7.58579 9.74996 7.25 9.41417 7.25 8.99996C7.25015 8.58587 7.58588 8.24996 8 8.24996H10.1689L10.5996 6.82711C10.7197 6.4308 11.1439 6.18663 11.5469 6.28219C11.9498 6.37781 12.1796 6.77739 12.0596 7.17379L11.7334 8.24996H14.1689L14.5996 6.82711ZM11.2793 9.74996L10.5225 12.25H12.958L13.7148 9.74996H11.2793Z" fill="#1A1A1A"/>
</svg>
