<svg width="32" height="32" viewBox="0 0 32 32" fill="none" xmlns="http://www.w3.org/2000/svg">
<path d="M29.334 18.667L30.209 18.667V18.667H29.334ZM22.667 25.333V26.208V26.208V25.333ZM4.83301 28.9336L5.37953 29.6169L5.3796 29.6169L4.83301 28.9336ZM2.66699 27.8926H1.79199V27.8926L2.66699 27.8926ZM8.60356 25.9173L8.05697 25.234L8.60356 25.9173ZM22.667 4V4.875C25.8656 4.875 28.459 7.46834 28.459 10.667H29.334H30.209C30.209 6.50184 26.8321 3.125 22.667 3.125V4ZM29.334 10.667H28.459V18.667H29.334H30.209V10.667H29.334ZM29.334 18.667L28.459 18.667C28.4588 21.8654 25.8657 24.458 22.667 24.458V25.333V26.208C26.8319 26.208 30.2088 22.8321 30.209 18.667L29.334 18.667ZM22.667 25.333V24.458H10.2694V25.333V26.208H22.667V25.333ZM8.60356 25.9173L8.05697 25.234L4.28642 28.2503L4.83301 28.9336L5.3796 29.6169L9.15015 26.6006L8.60356 25.9173ZM4.83301 28.9336L4.28648 28.2503C3.98627 28.4904 3.54201 28.2766 3.54199 27.8925L2.66699 27.8926L1.79199 27.8926C1.79209 29.7443 3.93375 30.7733 5.37953 29.6169L4.83301 28.9336ZM2.66699 27.8926H3.54199V10.667H2.66699H1.79199V27.8926H2.66699ZM2.66699 10.667H3.54199C3.54199 7.46834 6.13534 4.875 9.33398 4.875V4V3.125C5.16884 3.125 1.79199 6.50184 1.79199 10.667H2.66699ZM9.33398 4V4.875H22.667V4V3.125H9.33398V4ZM10.2694 25.333V24.458C9.46518 24.458 8.68494 24.7317 8.05697 25.234L8.60356 25.9173L9.15015 26.6006C9.46783 26.3465 9.86254 26.208 10.2694 26.208V25.333Z" fill="#1A1A1A"/>
<path d="M19.5889 9.13065C19.7292 8.66852 20.2234 8.38444 20.6934 8.49589C21.1635 8.60739 21.431 9.07248 21.291 9.53495L20.8096 11.1248H22.667C23.1502 11.1248 23.542 11.5165 23.542 11.9998C23.542 12.483 23.1502 12.8748 22.667 12.8748H20.2803L19.1953 16.4578H21.334C21.8171 16.4578 22.2088 16.8497 22.209 17.3328C22.209 17.8161 21.8172 18.2078 21.334 18.2078H18.665L18.1855 19.7928C18.0455 20.2553 17.5503 20.54 17.0801 20.4285C16.6102 20.3169 16.3427 19.8517 16.4824 19.3894L16.8398 18.2078H13.3311L12.8516 19.7928C12.7115 20.2552 12.2172 20.54 11.7471 20.4285C11.277 20.317 11.0096 19.8518 11.1494 19.3894L11.5068 18.2078H9.33398C8.85074 18.2078 8.45898 17.8161 8.45898 17.3328C8.45916 16.8497 8.85084 16.4578 9.33398 16.4578H12.0371L13.1211 12.8748H10.667C10.1839 12.8746 9.792 12.4829 9.79199 11.9998C9.79199 11.5167 10.1839 11.125 10.667 11.1248H13.6514L14.2549 9.13065C14.3951 8.66842 14.8903 8.38443 15.3604 8.49589C15.8303 8.60752 16.0979 9.07258 15.958 9.53495L15.4766 11.1248H18.9854L19.5889 9.13065ZM14.9463 12.8748L13.8613 16.4578H17.3701L18.4551 12.8748H14.9463Z" fill="#1A1A1A"/>
</svg>
