<svg preserveAspectRatio="none" width="100%" height="100%" overflow="visible" style="display: block;" viewBox="0 0 20.9941 17.0117" fill="none" xmlns="http://www.w3.org/2000/svg">
<g id="Group 1312321543">
<path id="Vector" d="M1.51953 16.2886C1.51953 16.2886 3.53625 12.1931 10.6367 10.4175Z" fill="var(--fill-0, white)"/>
<path id="Union" d="M8.51465 1.7041C8.98486 1.70413 9.40967 1.98416 9.5957 2.41602L15.459 16.0254C15.6599 16.4917 15.3173 17.0117 14.8096 17.0117H13.5967C13.1265 17.0116 12.7016 16.7316 12.5156 16.2998L10.4873 11.5918C7.48111 12.4346 5.56075 13.7093 4.39551 14.7559C3.77347 15.3145 3.35966 15.815 3.1084 16.1611C3.05621 16.233 3.01027 16.2977 2.97168 16.3555C2.93319 16.4332 2.88812 16.5053 2.83496 16.5713C2.81643 16.6028 2.80471 16.626 2.79785 16.6387C2.79548 16.6431 2.79398 16.6464 2.79297 16.6484C2.7934 16.6476 2.79328 16.6459 2.79395 16.6445L2.7959 16.6426V16.6416C2.79516 16.6411 2.79208 16.6397 2.78027 16.6338C2.56148 16.869 2.25379 17.0116 1.9209 17.0117H0.707031C0.199459 17.0115 -0.142246 16.4916 0.0585938 16.0254L5.9209 2.41602C6.10694 1.98413 6.53268 1.7041 7.00293 1.7041H8.51465ZM18.4727 6.88477C18.9929 6.88477 19.415 7.30689 19.415 7.82715V16.0693C19.415 16.5896 18.9929 17.0117 18.4727 17.0117H17.5312C17.011 17.0117 16.5889 16.5896 16.5889 16.0693V7.82715C16.5889 7.30689 17.011 6.88477 17.5312 6.88477H18.4727ZM5.3125 10.9336C6.44615 10.2875 7.8153 9.68284 9.45508 9.19629L7.75879 5.25781L5.3125 10.9336ZM17.498 0.307617C17.6498 -0.102451 18.2301 -0.102451 18.3818 0.307617L18.8398 1.54492C18.9445 1.82743 19.1667 2.05071 19.4492 2.15527L20.6865 2.6123C21.0966 2.76404 21.0966 3.34435 20.6865 3.49609L19.4492 3.9541C19.1667 4.05871 18.9444 4.28189 18.8398 4.56445L18.3818 5.80176C18.23 6.21159 17.6499 6.21152 17.498 5.80176L17.04 4.56445C16.9355 4.28183 16.7123 4.05868 16.4297 3.9541L15.1924 3.49609C14.7828 3.34415 14.7827 2.76412 15.1924 2.6123L16.4297 2.15527C16.7123 2.05071 16.9354 1.82749 17.04 1.54492L17.498 0.307617Z" fill="var(--fill-0, white)"/>
</g>
</svg>
