<svg preserveAspectRatio="none" width="100%" height="100%" overflow="visible" style="display: block;" viewBox="0 0 24.3405 21.1499" fill="none" xmlns="http://www.w3.org/2000/svg">
<g id="Group 9100">
<g id="&#229;&#189;&#162;&#231;&#138;&#182;&#231;&#187;&#147;&#229;&#144;&#136;">
<mask id="path-1-inside-1_0_5" fill="white">
<path d="M20.3392 3.5C22.8212 3.5 24.7042 5.737 24.2806 8.18262L23.0677 15.1826C22.7401 17.0733 21.1174 18.4602 19.2063 18.498C19.233 18.3863 19.2503 18.2703 19.2503 18.1504C19.2503 17.6591 19.0127 17.2238 18.6478 16.9502H19.1263C20.318 16.9502 21.3369 16.0922 21.5403 14.918L22.7532 7.91797C23.0126 6.42007 21.8594 5.0498 20.3392 5.0498H3.82354L4.89873 14.7695C5.03613 16.0107 6.08459 16.9501 7.3333 16.9502H8.35186C7.98688 17.2238 7.75029 17.6591 7.75029 18.1504C7.75033 18.271 7.76636 18.3877 7.79326 18.5H7.3333C5.29445 18.4999 3.58191 16.966 3.35771 14.9395L2.09209 3.5H20.3392ZM16.8519 16.9502C16.4869 17.2238 16.2503 17.6591 16.2503 18.1504C16.2503 18.271 16.2664 18.3877 16.2933 18.5H10.7063C10.7332 18.3877 10.7503 18.271 10.7503 18.1504C10.7503 17.6591 10.5127 17.2238 10.1478 16.9502H16.8519Z"/>
</mask>
<path d="M24.2806 8.18262L26.0049 8.48139L26.0049 8.48128L24.2806 8.18262ZM23.0677 15.1826L24.792 15.4814V15.4814L23.0677 15.1826ZM19.2063 18.498L17.504 18.0926L16.9801 20.2924L19.241 20.2477L19.2063 18.498ZM19.2503 18.1504L21.0003 18.1509V18.1504H19.2503ZM18.6478 16.9502V15.2002H13.3959L17.598 18.3504L18.6478 16.9502ZM21.5403 14.918L23.2646 15.2167V15.2167L21.5403 14.918ZM22.7532 7.91797L24.4775 8.21674L24.4776 8.21656L22.7532 7.91797ZM3.82354 5.0498V3.2998H1.86928L2.08414 5.24222L3.82354 5.0498ZM4.89873 14.7695L3.15934 14.9619L3.15936 14.9621L4.89873 14.7695ZM7.3333 16.9502L7.33319 18.7002H7.3333V16.9502ZM8.35186 16.9502L9.40157 18.3504L13.6037 15.2002H8.35186V16.9502ZM7.75029 18.1504H6.00029V18.1509L7.75029 18.1504ZM7.79326 18.5V20.25H10.0118L9.49514 18.0924L7.79326 18.5ZM7.3333 18.5L7.33323 20.25H7.3333V18.5ZM3.35771 14.9395L5.0971 14.747L5.0971 14.747L3.35771 14.9395ZM2.09209 3.5V1.75H0.137797L0.352703 3.69244L2.09209 3.5ZM16.8519 16.9502L17.9016 18.3504L22.1037 15.2002H16.8519V16.9502ZM16.2503 18.1504H14.5003V18.1509L16.2503 18.1504ZM16.2933 18.5V20.25H18.5118L17.9951 18.0924L16.2933 18.5ZM10.7063 18.5L9.00447 18.0924L8.48776 20.25H10.7063V18.5ZM10.7503 18.1504L12.5003 18.1509V18.1504H10.7503ZM10.1478 16.9502V15.2002H4.89594L9.09804 18.3504L10.1478 16.9502ZM20.3392 3.5V5.25C21.7354 5.25 22.7945 6.50837 22.5562 7.88396L24.2806 8.18262L26.0049 8.48128C26.6138 4.96563 23.9071 1.75 20.3392 1.75V3.5ZM24.2806 8.18262L22.5563 7.88385L21.3434 14.8838L23.0677 15.1826L24.792 15.4814L26.0049 8.48139L24.2806 8.18262ZM23.0677 15.1826L21.3434 14.8838C21.1592 15.9466 20.2469 16.7271 19.1717 16.7484L19.2063 18.498L19.241 20.2477C21.9879 20.1933 24.3209 18.2001 24.792 15.4814L23.0677 15.1826ZM19.2063 18.498L20.9087 18.9034C20.9587 18.6936 21.0002 18.4387 21.0003 18.1509L19.2503 18.1504L17.5003 18.1498C17.5003 18.1019 17.5072 18.0789 17.504 18.0926L19.2063 18.498ZM19.2503 18.1504H21.0003C21.0003 17.0804 20.4806 16.137 19.6975 15.55L18.6478 16.9502L17.598 18.3504C17.5449 18.3106 17.5003 18.2379 17.5003 18.1504H19.2503ZM18.6478 16.9502V18.7002H19.1263V16.9502V15.2002H18.6478V16.9502ZM19.1263 16.9502V18.7002C21.1697 18.7002 22.9159 17.2292 23.2646 15.2167L21.5403 14.918L19.816 14.6192C19.7578 14.9552 19.4663 15.2002 19.1263 15.2002V16.9502ZM21.5403 14.918L23.2646 15.2167L24.4775 8.21674L22.7532 7.91797L21.0289 7.6192L19.816 14.6192L21.5403 14.918ZM22.7532 7.91797L24.4776 8.21656C24.9222 5.64886 22.9454 3.2998 20.3392 3.2998V5.0498V6.7998C20.7734 6.7998 21.103 7.19128 21.0289 7.61938L22.7532 7.91797ZM20.3392 5.0498V3.2998H3.82354V5.0498V6.7998H20.3392V5.0498ZM3.82354 5.0498L2.08414 5.24222L3.15934 14.9619L4.89873 14.7695L6.63812 14.5771L5.56293 4.85739L3.82354 5.0498ZM4.89873 14.7695L3.15936 14.9621C3.39483 17.0891 5.19194 18.7001 7.33319 18.7002L7.3333 16.9502L7.33341 15.2002C6.97723 15.2002 6.67743 14.9322 6.63811 14.577L4.89873 14.7695ZM7.3333 16.9502V18.7002H8.35186V16.9502V15.2002H7.3333V16.9502ZM8.35186 16.9502L7.30215 15.55C6.51704 16.1386 6.00029 17.0828 6.00029 18.1504H7.75029H9.50029C9.50029 18.2355 9.45673 18.3091 9.40157 18.3504L8.35186 16.9502ZM7.75029 18.1504L6.00029 18.1509C6.00038 18.4271 6.03717 18.6812 6.09139 18.9076L7.79326 18.5L9.49514 18.0924C9.49554 18.0941 9.50028 18.1148 9.50029 18.1498L7.75029 18.1504ZM7.79326 18.5V16.75H7.3333V18.5V20.25H7.79326V18.5ZM7.3333 18.5L7.33337 16.75C6.18676 16.75 5.22324 15.8872 5.0971 14.747L3.35771 14.9395L1.61833 15.1319C1.94058 18.0447 4.40214 20.2499 7.33323 20.25L7.3333 18.5ZM3.35771 14.9395L5.0971 14.747L3.83148 3.30756L2.09209 3.5L0.352703 3.69244L1.61833 15.1319L3.35771 14.9395ZM2.09209 3.5V5.25H20.3392V3.5V1.75H2.09209V3.5ZM16.8519 16.9502L15.8021 15.55C15.017 16.1386 14.5003 17.0828 14.5003 18.1504H16.2503H18.0003C18.0003 18.2355 17.9567 18.3091 17.9016 18.3504L16.8519 16.9502ZM16.2503 18.1504L14.5003 18.1509C14.5004 18.4271 14.5372 18.6812 14.5914 18.9076L16.2933 18.5L17.9951 18.0924C17.9955 18.0941 18.0003 18.1148 18.0003 18.1498L16.2503 18.1504ZM16.2933 18.5V16.75H10.7063V18.5V20.25H16.2933V18.5ZM10.7063 18.5L12.4082 18.9076C12.46 18.6914 12.5002 18.436 12.5003 18.1509L10.7503 18.1504L9.00029 18.1498C9.00031 18.106 9.00652 18.0839 9.00447 18.0924L10.7063 18.5ZM10.7503 18.1504H12.5003C12.5003 17.0804 11.9806 16.137 11.1975 15.55L10.1478 16.9502L9.09804 18.3504C9.0449 18.3106 9.00029 18.2379 9.00029 18.1504H10.7503ZM10.1478 16.9502V18.7002H16.8519V16.9502V15.2002H10.1478V16.9502Z" fill="var(--stroke-0, #1A1A1A)" mask="url(#path-1-inside-1_0_5)"/>
</g>
<path id="&#232;&#183;&#175;&#229;&#190;&#132;" d="M0.75 0C0.335786 0 0 0.335786 0 0.75C0 1.16421 0.335786 1.5 0.75 1.5V0.75V0ZM2.56628 2.39933L3.30944 2.29822V2.29822L2.56628 2.39933ZM0.75 0.75V1.5C1.2626 1.5 1.74143 1.89998 1.82313 2.50045L2.56628 2.39933L3.30944 2.29822C3.13363 1.00614 2.06401 0 0.75 0V0.75ZM2.56628 2.39933L1.82313 2.50045L2.60685 8.26045L3.35 8.15933L4.09315 8.05822L3.30944 2.29822L2.56628 2.39933Z" fill="var(--stroke-0, #1A1A1A)"/>
<circle id="&#230;&#164;&#173;&#229;&#156;&#134;&#229;&#189;&#162;" cx="9.24981" cy="18.1499" r="2.25" stroke="var(--stroke-0, #1A1A1A)" stroke-width="1.5"/>
<circle id="&#230;&#164;&#173;&#229;&#156;&#134;&#229;&#189;&#162;&#229;&#164;&#135;&#228;&#187;&#189; 2" cx="17.7498" cy="18.1499" r="2.25" stroke="var(--stroke-0, #1A1A1A)" stroke-width="1.5"/>
</g>
</svg>
