<svg preserveAspectRatio="none" width="100%" height="100%" overflow="visible" style="display: block;" viewBox="0 0 24.3408 21.1499" fill="none" xmlns="http://www.w3.org/2000/svg">
<g id="Group 9099">
<g id="&#229;&#189;&#162;&#231;&#138;&#182;&#231;&#187;&#147;&#229;&#144;&#136;">
<mask id="path-1-inside-1_0_5" fill="white">
<path d="M20.3395 3.5C22.8215 3.5 24.7045 5.737 24.2809 8.18262L23.068 15.1826C22.7404 17.0733 21.1177 18.4602 19.2067 18.498C19.2333 18.3863 19.2506 18.2703 19.2506 18.1504C19.2506 17.6887 19.0416 17.2752 18.7135 17H19.1266C20.3426 17 21.3828 16.1249 21.5904 14.9268L22.8033 7.92676C23.0681 6.39823 21.8908 5 20.3395 5H3.76818L4.84924 14.7754C4.98959 16.0417 6.05953 16.9999 7.33361 17H8.28674C7.95865 17.2752 7.75061 17.6887 7.75061 18.1504C7.75064 18.271 7.76667 18.3877 7.79357 18.5H7.33361C5.29476 18.4999 3.58223 16.966 3.35803 14.9395L2.0924 3.5H20.3395ZM16.7867 17C16.4587 17.2752 16.2506 17.6887 16.2506 18.1504C16.2506 18.271 16.2667 18.3877 16.2936 18.5H10.7067C10.7336 18.3877 10.7506 18.271 10.7506 18.1504C10.7506 17.6887 10.5416 17.2752 10.2135 17H16.7867Z"/>
</mask>
<path d="M24.2809 8.18262L25.7589 8.43871L25.7589 8.43861L24.2809 8.18262ZM23.068 15.1826L24.546 15.4387V15.4387L23.068 15.1826ZM19.2067 18.498L17.7475 18.1506L17.2985 20.0361L19.2363 19.9978L19.2067 18.498ZM19.2506 18.1504L20.7506 18.1509V18.1504H19.2506ZM18.7135 17V15.5H14.5907L17.7496 18.1493L18.7135 17ZM21.5904 14.9268L23.0684 15.1828V15.1828L21.5904 14.9268ZM22.8033 7.92676L24.2813 8.18285L24.2813 8.18278L22.8033 7.92676ZM3.76818 5V3.5H2.09315L2.27727 5.16488L3.76818 5ZM4.84924 14.7754L3.35833 14.9403L3.35837 14.9406L4.84924 14.7754ZM7.33361 17L7.33352 18.5H7.33361V17ZM8.28674 17L9.25064 18.1493L12.4095 15.5H8.28674V17ZM7.75061 18.1504H6.25061V18.1509L7.75061 18.1504ZM7.79357 18.5V20H9.69522L9.25233 18.1507L7.79357 18.5ZM7.33361 18.5L7.33356 20H7.33361V18.5ZM3.35803 14.9395L4.84893 14.7745L4.84893 14.7745L3.35803 14.9395ZM2.0924 3.5V2H0.417295L0.601499 3.66495L2.0924 3.5ZM16.7867 17L17.7506 18.1493L20.9095 15.5H16.7867V17ZM16.2506 18.1504H14.7506V18.1509L16.2506 18.1504ZM16.2936 18.5V20H18.1952L17.7523 18.1507L16.2936 18.5ZM10.7067 18.5L9.24791 18.1507L8.80502 20H10.7067V18.5ZM10.7506 18.1504L12.2506 18.1509V18.1504H10.7506ZM10.2135 17V15.5H6.09069L9.2496 18.1493L10.2135 17ZM20.3395 3.5V5C21.8908 5 23.0676 6.39817 22.8029 7.92662L24.2809 8.18262L25.7589 8.43861C26.3413 5.07583 23.7523 2 20.3395 2V3.5ZM24.2809 8.18262L22.8029 7.92653L21.59 14.9265L23.068 15.1826L24.546 15.4387L25.7589 8.43871L24.2809 8.18262ZM23.068 15.1826L21.59 14.9265C21.3854 16.1076 20.3716 16.9747 19.177 16.9983L19.2067 18.498L19.2363 19.9978C21.8639 19.9458 24.0954 18.0391 24.546 15.4387L23.068 15.1826ZM19.2067 18.498L20.6659 18.8455C20.7125 18.6497 20.7505 18.4146 20.7506 18.1509L19.2506 18.1504L17.7506 18.1499C17.7506 18.126 17.7541 18.1228 17.7475 18.1506L19.2067 18.498ZM19.2506 18.1504H20.7506C20.7506 17.2262 20.3305 16.3984 19.6774 15.8507L18.7135 17L17.7496 18.1493C17.7508 18.1503 17.7514 18.1514 17.7513 18.1511C17.7511 18.1508 17.7508 18.1501 17.7506 18.1493C17.7504 18.1483 17.7506 18.1485 17.7506 18.1504H19.2506ZM18.7135 17V18.5H19.1266V17V15.5H18.7135V17ZM19.1266 17V18.5C21.0719 18.5 22.7362 17.1003 23.0684 15.1828L21.5904 14.9268L20.1125 14.6707C20.0295 15.1496 19.6134 15.5 19.1266 15.5V17ZM21.5904 14.9268L23.0684 15.1828L24.2813 8.18285L22.8033 7.92676L21.3254 7.67067L20.1125 14.6707L21.5904 14.9268ZM22.8033 7.92676L24.2813 8.18278C24.7051 5.73671 22.8211 3.5 20.3395 3.5V5V6.5C20.9604 6.5 21.4312 7.05974 21.3254 7.67073L22.8033 7.92676ZM20.3395 5V3.5H3.76818V5V6.5H20.3395V5ZM3.76818 5L2.27727 5.16488L3.35833 14.9403L4.84924 14.7754L6.34015 14.6105L5.25909 4.83512L3.76818 5ZM4.84924 14.7754L3.35837 14.9406C3.58291 16.9665 5.29477 18.4999 7.33352 18.5L7.33361 17L7.3337 15.5C6.82429 15.5 6.39627 15.1169 6.34011 14.6101L4.84924 14.7754ZM7.33361 17V18.5H8.28674V17V15.5H7.33361V17ZM8.28674 17L7.32284 15.8507C6.66802 16.3999 6.25061 17.2284 6.25061 18.1504H7.75061H9.25061C9.25061 18.1479 9.25085 18.1474 9.25068 18.1481C9.25055 18.1487 9.25033 18.1493 9.25011 18.1498C9.24987 18.1503 9.25006 18.1498 9.25064 18.1493L8.28674 17ZM7.75061 18.1504L6.25061 18.1509C6.25069 18.4048 6.28451 18.6393 6.33482 18.8493L7.79357 18.5L9.25233 18.1507C9.24883 18.1361 9.2506 18.1371 9.25061 18.1499L7.75061 18.1504ZM7.79357 18.5V17H7.33361V18.5V20H7.79357V18.5ZM7.33361 18.5L7.33367 17C6.0596 17 4.98908 16.0413 4.84893 14.7745L3.35803 14.9395L1.86712 15.1044C2.17537 17.8906 4.52993 19.9999 7.33356 20L7.33361 18.5ZM3.35803 14.9395L4.84893 14.7745L3.58331 3.33505L2.0924 3.5L0.601499 3.66495L1.86712 15.1044L3.35803 14.9395ZM2.0924 3.5V5H20.3395V3.5V2H2.0924V3.5ZM16.7867 17L15.8228 15.8507C15.168 16.3999 14.7506 17.2284 14.7506 18.1504H16.2506H17.7506C17.7506 18.1479 17.7508 18.1474 17.7507 18.1481C17.7506 18.1487 17.7503 18.1493 17.7501 18.1498C17.7499 18.1503 17.7501 18.1498 17.7506 18.1493L16.7867 17ZM16.2506 18.1504L14.7506 18.1509C14.7507 18.4048 14.7845 18.6393 14.8348 18.8493L16.2936 18.5L17.7523 18.1507C17.7488 18.1361 17.7506 18.1371 17.7506 18.1499L16.2506 18.1504ZM16.2936 18.5V17H10.7067V18.5V20H16.2936V18.5ZM10.7067 18.5L12.1654 18.8493C12.2136 18.648 12.2505 18.4124 12.2506 18.1509L10.7506 18.1504L9.25061 18.1499C9.25061 18.1295 9.2535 18.1273 9.24791 18.1507L10.7067 18.5ZM10.7506 18.1504H12.2506C12.2506 17.2262 11.8305 16.3984 11.1774 15.8507L10.2135 17L9.2496 18.1493C9.25083 18.1503 9.25139 18.1514 9.25126 18.1511C9.25109 18.1508 9.25083 18.1501 9.25064 18.1493C9.25043 18.1483 9.25061 18.1485 9.25061 18.1504H10.7506ZM10.2135 17V18.5H16.7867V17V15.5H10.2135V17Z" fill="var(--stroke-0, #1A1A1A)" mask="url(#path-1-inside-1_0_5)"/>
</g>
<path id="&#232;&#183;&#175;&#229;&#190;&#132;" d="M0.75 0C0.335786 0 0 0.335786 0 0.75C0 1.16421 0.335786 1.5 0.75 1.5V0.75V0ZM2.56628 2.39933L3.30944 2.29822V2.29822L2.56628 2.39933ZM0.75 0.75V1.5C1.2626 1.5 1.74143 1.89998 1.82313 2.50045L2.56628 2.39933L3.30944 2.29822C3.13363 1.00614 2.06401 0 0.75 0V0.75ZM2.56628 2.39933L1.82313 2.50045L2.60685 8.26045L3.35 8.15933L4.09315 8.05822L3.30944 2.29822L2.56628 2.39933Z" fill="var(--stroke-0, #1A1A1A)"/>
<circle id="&#230;&#164;&#173;&#229;&#156;&#134;&#229;&#189;&#162;" cx="9.25012" cy="18.1499" r="2.225" stroke="var(--stroke-0, #1A1A1A)" stroke-width="1.55"/>
<circle id="&#230;&#164;&#173;&#229;&#156;&#134;&#229;&#189;&#162;&#229;&#164;&#135;&#228;&#187;&#189; 2" cx="17.7501" cy="18.1499" r="2.225" stroke="var(--stroke-0, #1A1A1A)" stroke-width="1.55"/>
</g>
</svg>
