<svg preserveAspectRatio="none" width="100%" height="100%" overflow="visible" style="display: block;" viewBox="0 0 24 21.9999" fill="none" xmlns="http://www.w3.org/2000/svg">
<g id="Union">
<mask id="path-1-inside-1_0_4" fill="white">
<path fill-rule="evenodd" clip-rule="evenodd" d="M19.2197 0.21967C19.5126 -0.0732233 19.9874 -0.0732233 20.2803 0.21967C20.5732 0.512563 20.5732 0.987324 20.2803 1.28022L17.5246 4.03589C17.9196 4.079 18.3016 4.16119 18.6666 4.27866C18.6831 4.2583 18.7008 4.23861 18.7197 4.21967L21.2197 1.71967C21.5126 1.42678 21.9874 1.42678 22.2803 1.71967C22.5732 2.01256 22.5732 2.48732 22.2803 2.78022L20.0901 4.97038C20.3656 5.15657 20.623 5.36653 20.8594 5.5976C21.8781 6.59345 22.5 7.97577 22.5 9.49994C22.5 9.56911 22.4987 9.63802 22.4962 9.70664C22.7862 9.83286 23.0476 10.0123 23.2676 10.2324C23.7192 10.684 24 11.3098 24 11.9999C24 12.5102 23.8466 12.9877 23.582 13.3847C23.3443 13.7415 23.017 14.0343 22.6309 14.2304L22.4619 14.3085L22.4141 14.7119C22.1281 16.7163 21.1428 18.4948 19.7158 19.7919C18.2069 21.1635 16.2001 21.9999 14 21.9999H10C7.79978 21.9999 5.79316 21.1627 4.28418 19.791C2.85721 18.4937 1.87191 16.7156 1.58594 14.7109L1.53809 14.3076L1.36914 14.2294C0.983059 14.0336 0.65562 13.7413 0.417969 13.3847C0.153383 12.9877 0 12.5102 0 11.9999C0 11.3098 0.280832 10.684 0.732422 10.2324C0.95244 10.0123 1.21382 9.83286 1.50385 9.70664C1.50129 9.63802 1.5 9.56911 1.5 9.49994C1.5 7.98137 2.11685 6.60575 3.11133 5.61127C4.10581 4.61679 5.48142 3.99994 7 3.99994L7.23047 3.72651C8.41483 2.3908 10.0899 1.49994 12 1.49994C13.6419 1.49994 15.1297 2.15989 16.2124 3.22707L16.2197 3.21967L19.2197 0.21967ZM19.8115 6.66987C20.5509 7.39261 21 8.39237 21 9.49994H3C3 8.39517 3.4472 7.3965 4.17188 6.67182C4.89655 5.94714 5.89522 5.49994 7 5.49994C7.10297 5.49994 7.20522 5.50417 7.30664 5.51166L7.72754 5.54291L7.97266 5.19916C8.03567 5.11083 8.10161 5.02357 8.16992 4.93842C9.12219 3.75157 10.4842 2.99994 12 2.99994C13.5056 2.99994 14.839 3.73891 15.6572 4.8769C15.7227 4.96801 15.7847 5.06202 15.8438 5.15815L16.083 5.54779L16.5391 5.51362C16.6494 5.50532 16.7616 5.50096 16.875 5.50092C18.0444 5.50052 19.0743 5.94915 19.8115 6.66987ZM2.45526 11.0009C2.19684 11.0122 1.96489 11.121 1.79297 11.2929C1.61118 11.4747 1.5 11.7236 1.5 11.9999C1.5 12.206 1.56108 12.3952 1.66602 12.5527C1.77564 12.7172 1.93214 12.8469 2.11426 12.9228C2.15333 12.9391 2.1937 12.9527 2.23438 12.9638L2.3584 12.9892L2.98535 13.0781L3.00293 13.7109C3.00729 13.8621 3.01687 14.0144 3.03125 14.1669C3.19937 15.9503 4.03716 17.54 5.29297 18.6816C6.53661 19.8121 8.18722 20.4999 10 20.4999H14C15.8128 20.4999 17.4634 19.812 18.707 18.6816C19.9627 17.5401 20.8007 15.9508 20.9688 14.1679L20.9961 13.7119L21.0146 13.081L21.6396 12.9912C21.724 12.979 21.8066 12.9564 21.8848 12.9238C22.0674 12.8475 22.2242 12.7174 22.334 12.5527C22.4389 12.3951 22.5 12.2059 22.5 11.9999C22.5 11.7236 22.3888 11.4747 22.207 11.2929C22.0351 11.121 21.8032 11.0122 21.5447 11.0009H2.45526Z"/>
</mask>
<path fill-rule="evenodd" clip-rule="evenodd" d="M19.2197 0.21967C19.5126 -0.0732233 19.9874 -0.0732233 20.2803 0.21967C20.5732 0.512563 20.5732 0.987324 20.2803 1.28022L17.5246 4.03589C17.9196 4.079 18.3016 4.16119 18.6666 4.27866C18.6831 4.2583 18.7008 4.23861 18.7197 4.21967L21.2197 1.71967C21.5126 1.42678 21.9874 1.42678 22.2803 1.71967C22.5732 2.01256 22.5732 2.48732 22.2803 2.78022L20.0901 4.97038C20.3656 5.15657 20.623 5.36653 20.8594 5.5976C21.8781 6.59345 22.5 7.97577 22.5 9.49994C22.5 9.56911 22.4987 9.63802 22.4962 9.70664C22.7862 9.83286 23.0476 10.0123 23.2676 10.2324C23.7192 10.684 24 11.3098 24 11.9999C24 12.5102 23.8466 12.9877 23.582 13.3847C23.3443 13.7415 23.017 14.0343 22.6309 14.2304L22.4619 14.3085L22.4141 14.7119C22.1281 16.7163 21.1428 18.4948 19.7158 19.7919C18.2069 21.1635 16.2001 21.9999 14 21.9999H10C7.79978 21.9999 5.79316 21.1627 4.28418 19.791C2.85721 18.4937 1.87191 16.7156 1.58594 14.7109L1.53809 14.3076L1.36914 14.2294C0.983059 14.0336 0.65562 13.7413 0.417969 13.3847C0.153383 12.9877 0 12.5102 0 11.9999C0 11.3098 0.280832 10.684 0.732422 10.2324C0.95244 10.0123 1.21382 9.83286 1.50385 9.70664C1.50129 9.63802 1.5 9.56911 1.5 9.49994C1.5 7.98137 2.11685 6.60575 3.11133 5.61127C4.10581 4.61679 5.48142 3.99994 7 3.99994L7.23047 3.72651C8.41483 2.3908 10.0899 1.49994 12 1.49994C13.6419 1.49994 15.1297 2.15989 16.2124 3.22707L16.2197 3.21967L19.2197 0.21967ZM19.8115 6.66987C20.5509 7.39261 21 8.39237 21 9.49994H3C3 8.39517 3.4472 7.3965 4.17188 6.67182C4.89655 5.94714 5.89522 5.49994 7 5.49994C7.10297 5.49994 7.20522 5.50417 7.30664 5.51166L7.72754 5.54291L7.97266 5.19916C8.03567 5.11083 8.10161 5.02357 8.16992 4.93842C9.12219 3.75157 10.4842 2.99994 12 2.99994C13.5056 2.99994 14.839 3.73891 15.6572 4.8769C15.7227 4.96801 15.7847 5.06202 15.8438 5.15815L16.083 5.54779L16.5391 5.51362C16.6494 5.50532 16.7616 5.50096 16.875 5.50092C18.0444 5.50052 19.0743 5.94915 19.8115 6.66987ZM2.45526 11.0009C2.19684 11.0122 1.96489 11.121 1.79297 11.2929C1.61118 11.4747 1.5 11.7236 1.5 11.9999C1.5 12.206 1.56108 12.3952 1.66602 12.5527C1.77564 12.7172 1.93214 12.8469 2.11426 12.9228C2.15333 12.9391 2.1937 12.9527 2.23438 12.9638L2.3584 12.9892L2.98535 13.0781L3.00293 13.7109C3.00729 13.8621 3.01687 14.0144 3.03125 14.1669C3.19937 15.9503 4.03716 17.54 5.29297 18.6816C6.53661 19.8121 8.18722 20.4999 10 20.4999H14C15.8128 20.4999 17.4634 19.812 18.707 18.6816C19.9627 17.5401 20.8007 15.9508 20.9688 14.1679L20.9961 13.7119L21.0146 13.081L21.6396 12.9912C21.724 12.979 21.8066 12.9564 21.8848 12.9238C22.0674 12.8475 22.2242 12.7174 22.334 12.5527C22.4389 12.3951 22.5 12.2059 22.5 11.9999C22.5 11.7236 22.3888 11.4747 22.207 11.2929C22.0351 11.121 21.8032 11.0122 21.5447 11.0009H2.45526Z" fill="var(--fill-0, #1A1A1A)"/>
<path d="M20.2803 0.21967L21.5177 -1.01777V-1.01777L20.2803 0.21967ZM19.2197 0.21967L20.4572 1.45711L20.4572 1.45711L19.2197 0.21967ZM20.2803 1.28022L21.5177 2.51765L21.5177 2.51765L20.2803 1.28022ZM17.5246 4.03589L16.2872 2.79845L13.7061 5.37949L17.3347 5.77556L17.5246 4.03589ZM18.6666 4.27866L18.1305 5.94451L19.2719 6.31187L20.0266 5.38003L18.6666 4.27866ZM21.2197 1.71967L22.4572 2.95711L22.4572 2.95711L21.2197 1.71967ZM22.2803 2.78022L23.5177 4.01765L23.5177 4.01765L22.2803 2.78022ZM20.0901 4.97038L18.8527 3.73295L17.3529 5.23269L19.1102 6.42031L20.0901 4.97038ZM20.8594 5.5976L22.0827 4.34619L22.0826 4.34614L20.8594 5.5976ZM22.4962 9.70664L20.7474 9.64151L20.7029 10.8348L21.7978 11.3113L22.4962 9.70664ZM23.582 13.3847L25.0383 14.3552L25.0383 14.3551L23.582 13.3847ZM22.6309 14.2304L23.3654 15.8188L23.3946 15.8053L23.4233 15.7907L22.6309 14.2304ZM22.4619 14.3085L21.7274 12.7201L20.8394 13.1308L20.7241 14.1024L22.4619 14.3085ZM22.4141 14.7119L24.1465 14.959L24.1494 14.9385L24.1519 14.918L22.4141 14.7119ZM19.7158 19.7919L20.8929 21.0869L20.8929 21.0869L19.7158 19.7919ZM4.28418 19.791L3.10699 21.0858L3.10704 21.0859L4.28418 19.791ZM1.58594 14.7109L-0.151874 14.9171L-0.149441 14.9376L-0.146524 14.958L1.58594 14.7109ZM1.53809 14.3076L3.2759 14.1014L3.16063 13.1298L2.2726 12.7192L1.53809 14.3076ZM1.36914 14.2294L0.577416 15.7901L0.605769 15.8045L0.634625 15.8178L1.36914 14.2294ZM0.417969 13.3847L-1.03827 14.3552L-1.0382 14.3553L0.417969 13.3847ZM0.732422 10.2324L1.96986 11.4698L1.96986 11.4698L0.732422 10.2324ZM1.50385 9.70664L2.20219 11.3113L3.29709 10.8348L3.25263 9.64149L1.50385 9.70664ZM7 3.99994V5.74994H7.81369L8.3381 5.12777L7 3.99994ZM7.23047 3.72651L5.92107 2.56548L5.90651 2.5819L5.89237 2.59868L7.23047 3.72651ZM16.2124 3.22707L14.984 4.47342L16.2297 5.70126L17.4582 4.45615L16.2124 3.22707ZM16.2197 3.21967L14.9823 1.9822L14.974 1.99059L16.2197 3.21967ZM21 9.49994V11.2499H22.75V9.49994H21ZM19.8115 6.66987L21.0348 5.41846L21.0348 5.41845L19.8115 6.66987ZM3 9.49994H1.25V11.2499H3V9.49994ZM7.30664 5.51166L7.43621 3.76647L7.43563 3.76642L7.30664 5.51166ZM7.72754 5.54291L7.59797 7.28811L8.58043 7.36105L9.15239 6.55893L7.72754 5.54291ZM7.97266 5.19916L6.54798 4.18289L6.5478 4.18314L7.97266 5.19916ZM8.16992 4.93842L6.80497 3.84325L6.80494 3.84328L8.16992 4.93842ZM15.6572 4.8769L17.0781 3.85538L17.0781 3.85526L15.6572 4.8769ZM15.8438 5.15815L17.3351 4.24244L17.335 4.24241L15.8438 5.15815ZM16.083 5.54779L14.5917 6.46351L15.1499 7.37263L16.2138 7.2929L16.083 5.54779ZM16.5391 5.51362L16.6699 7.25872L16.6703 7.25869L16.5391 5.51362ZM16.875 5.50092L16.8744 3.75092L16.8743 3.75092L16.875 5.50092ZM1.79297 11.2929L3.03041 12.5303L3.03041 12.5303L1.79297 11.2929ZM2.45526 11.0009V9.25092H2.41703L2.37883 9.25259L2.45526 11.0009ZM1.66602 12.5527L0.20972 13.5231L0.209781 13.5232L1.66602 12.5527ZM2.11426 12.9228L1.44086 14.538L1.44138 14.5383L2.11426 12.9228ZM2.23438 12.9638L1.77375 14.6521L1.82815 14.6669L1.88339 14.6783L2.23438 12.9638ZM2.3584 12.9892L2.00741 14.7036L2.05983 14.7144L2.1128 14.7219L2.3584 12.9892ZM2.98535 13.0781L4.73468 13.0295L4.69366 11.5527L3.23095 11.3454L2.98535 13.0781ZM3.00293 13.7109L1.2536 13.7595L1.25366 13.7613L3.00293 13.7109ZM3.03125 14.1669L1.28897 14.3311L1.28897 14.3312L3.03125 14.1669ZM5.29297 18.6816L4.11582 19.9765L4.11582 19.9765L5.29297 18.6816ZM18.707 18.6816L19.8841 19.9765L19.8842 19.9765L18.707 18.6816ZM20.9688 14.1679L22.711 14.3321L22.7138 14.3024L22.7156 14.2726L20.9688 14.1679ZM20.9961 13.7119L22.743 13.8166L22.7446 13.79L22.7453 13.7633L20.9961 13.7119ZM21.0146 13.081L20.7656 11.3488L19.3087 11.5582L19.2654 13.0296L21.0146 13.081ZM21.6396 12.9912L21.8887 14.7233L21.8892 14.7233L21.6396 12.9912ZM21.8848 12.9238L22.5585 14.5389L22.5593 14.5386L21.8848 12.9238ZM22.334 12.5527L23.7903 13.5231L23.7905 13.5228L22.334 12.5527ZM22.207 11.2929L20.9696 12.5303L20.9696 12.5303L22.207 11.2929ZM21.5447 11.0009L21.6212 9.25259L21.583 9.25092H21.5447V11.0009ZM20.2803 0.21967L21.5177 -1.01777C20.5414 -1.99408 18.9586 -1.99408 17.9823 -1.01777L19.2197 0.21967L20.4572 1.45711C20.0666 1.84763 19.4334 1.84763 19.0428 1.45711L20.2803 0.21967ZM20.2803 1.28022L21.5177 2.51765C22.494 1.54134 22.494 -0.041455 21.5177 -1.01777L20.2803 0.21967L19.0428 1.45711C18.6523 1.06658 18.6523 0.433305 19.0428 0.0427816L20.2803 1.28022ZM17.5246 4.03589L18.762 5.27333L21.5177 2.51765L20.2803 1.28022L19.0428 0.0427797L16.2872 2.79845L17.5246 4.03589ZM18.6666 4.27866L19.2027 2.61281C18.7252 2.45912 18.2271 2.35218 17.7145 2.29622L17.5246 4.03589L17.3347 5.77556C17.612 5.80582 17.878 5.86327 18.1305 5.94451L18.6666 4.27866ZM18.6666 4.27866L20.0266 5.38003C20.0048 5.40695 19.9816 5.43268 19.9572 5.45711L18.7197 4.21967L17.4823 2.98223C17.42 3.04453 17.3614 3.10966 17.3066 3.17729L18.6666 4.27866ZM18.7197 4.21967L19.9572 5.45711L22.4572 2.95711L21.2197 1.71967L19.9823 0.482233L17.4823 2.98223L18.7197 4.21967ZM21.2197 1.71967L22.4572 2.95711C22.0666 3.34763 21.4334 3.34763 21.0428 2.95711L22.2803 1.71967L23.5177 0.482234C22.5414 -0.494078 20.9586 -0.494078 19.9823 0.482234L21.2197 1.71967ZM22.2803 1.71967L21.0428 2.95711C20.6523 2.56658 20.6523 1.93331 21.0428 1.54278L22.2803 2.78022L23.5177 4.01765C24.494 3.04134 24.494 1.45854 23.5177 0.482234L22.2803 1.71967ZM22.2803 2.78022L21.0428 1.54278L18.8527 3.73295L20.0901 4.97038L21.3275 6.20782L23.5177 4.01765L22.2803 2.78022ZM20.8594 5.5976L22.0826 4.34614C21.7711 4.04164 21.4322 3.76527 21.07 3.52046L20.0901 4.97038L19.1102 6.42031C19.2989 6.54786 19.4749 6.69143 19.6361 6.84906L20.8594 5.5976ZM22.5 9.49994H24.25C24.25 7.48932 23.427 5.66035 22.0827 4.34619L20.8594 5.5976L19.6361 6.84901C20.3292 7.52655 20.75 8.46222 20.75 9.49994H22.5ZM22.4962 9.70664L24.2449 9.77178C24.2483 9.68152 24.25 9.59089 24.25 9.49994H22.5H20.75C20.75 9.54733 20.7491 9.59452 20.7474 9.64151L22.4962 9.70664ZM23.2676 10.2324L24.505 8.99493C24.1318 8.62175 23.6881 8.31686 23.1945 8.10202L22.4962 9.70664L21.7978 11.3113C21.8842 11.3489 21.9633 11.4029 22.0301 11.4698L23.2676 10.2324ZM24 11.9999H25.75C25.75 10.8262 25.2708 9.76069 24.505 8.99493L23.2676 10.2324L22.0301 11.4698C22.1676 11.6072 22.25 11.7934 22.25 11.9999H24ZM23.582 13.3847L25.0383 14.3551C25.4892 13.6785 25.75 12.8648 25.75 11.9999H24H22.25C22.25 12.1556 22.204 12.2969 22.1257 12.4143L23.582 13.3847ZM22.6309 14.2304L23.4233 15.7907C24.0801 15.4571 24.6351 14.9601 25.0383 14.3552L23.582 13.3847L22.1258 12.4142C22.0534 12.5228 21.9538 12.6115 21.8384 12.6701L22.6309 14.2304ZM22.4619 14.3085L23.1964 15.8969L23.3654 15.8188L22.6309 14.2304L21.8963 12.642L21.7274 12.7201L22.4619 14.3085ZM22.4141 14.7119L24.1519 14.918L24.1997 14.5147L22.4619 14.3085L20.7241 14.1024L20.6763 14.5057L22.4141 14.7119ZM19.7158 19.7919L20.8929 21.0869C22.6112 19.525 23.8012 17.3801 24.1465 14.959L22.4141 14.7119L20.6816 14.4647C20.4551 16.0525 19.6745 17.4646 18.5387 18.497L19.7158 19.7919ZM14 21.9999V23.7499C16.6519 23.7499 19.0743 22.7399 20.8929 21.0869L19.7158 19.7919L18.5387 18.4969C17.3395 19.587 15.7483 20.2499 14 20.2499V21.9999ZM10 21.9999V23.7499H14V21.9999V20.2499H10V21.9999ZM4.28418 19.791L3.10704 21.0859C4.92538 22.7388 7.34752 23.7499 10 23.7499V21.9999V20.2499C8.25204 20.2499 6.66094 19.5865 5.46132 18.496L4.28418 19.791ZM1.58594 14.7109L-0.146524 14.958C0.198904 17.3795 1.38891 19.5239 3.10699 21.0858L4.28418 19.791L5.46137 18.4961C4.32551 17.4635 3.54493 16.0517 3.3184 14.4637L1.58594 14.7109ZM1.53809 14.3076L-0.199726 14.5137L-0.151874 14.9171L1.58594 14.7109L3.32375 14.5047L3.2759 14.1014L1.53809 14.3076ZM1.36914 14.2294L0.634625 15.8178L0.80357 15.896L1.53809 14.3076L2.2726 12.7192L2.10366 12.641L1.36914 14.2294ZM0.417969 13.3847L-1.0382 14.3553C-0.634451 14.9611 -0.0787082 15.4572 0.577416 15.7901L1.36914 14.2294L2.16087 12.6688C2.04483 12.6099 1.94569 12.5215 1.87414 12.4141L0.417969 13.3847ZM0 11.9999H-1.75C-1.75 12.8647 -1.48928 13.6785 -1.03827 14.3552L0.417969 13.3847L1.8742 12.4142C1.79605 12.2969 1.75 12.1557 1.75 11.9999H0ZM0.732422 10.2324L-0.505015 8.99493C-1.27078 9.76069 -1.75 10.8262 -1.75 11.9999H0H1.75C1.75 11.7934 1.83245 11.6072 1.96986 11.4698L0.732422 10.2324ZM1.50385 9.70664L0.805506 8.10202C0.311857 8.31686 -0.131837 8.62175 -0.505015 8.99493L0.732422 10.2324L1.96986 11.4698C2.03672 11.4029 2.11578 11.3489 2.20219 11.3113L1.50385 9.70664ZM1.5 9.49994H-0.25C-0.25 9.59089 -0.248302 9.68152 -0.244939 9.77179L1.50385 9.70664L3.25263 9.64149C3.25088 9.59452 3.25 9.54733 3.25 9.49994H1.5ZM3.11133 5.61127L1.87389 4.37383C0.565096 5.68263 -0.25 7.49798 -0.25 9.49994H1.5H3.25C3.25 8.46476 3.66859 7.52888 4.34876 6.84871L3.11133 5.61127ZM7 3.99994V2.24994C4.99803 2.24994 3.18269 3.06504 1.87389 4.37383L3.11133 5.61127L4.34876 6.84871C5.02894 6.16854 5.96482 5.74994 7 5.74994V3.99994ZM7.23047 3.72651L5.89237 2.59868L5.6619 2.87212L7 3.99994L8.3381 5.12777L8.56857 4.85433L7.23047 3.72651ZM12 1.49994V-0.250057C9.52025 -0.250057 7.38883 0.910154 5.92107 2.56548L7.23047 3.72651L8.53986 4.88753C9.44082 3.87144 10.6596 3.24994 12 3.24994V1.49994ZM16.2124 3.22707L17.4409 1.98072C16.0443 0.604209 14.1204 -0.250057 12 -0.250057V1.49994V3.24994C13.1634 3.24994 14.2151 3.71558 14.984 4.47342L16.2124 3.22707ZM16.2197 3.21967L14.974 1.99059L14.9667 1.99799L16.2124 3.22707L17.4582 4.45615L17.4655 4.44875L16.2197 3.21967ZM19.2197 0.21967L17.9823 -1.01777L14.9823 1.98223L16.2197 3.21967L17.4572 4.45711L20.4572 1.45711L19.2197 0.21967ZM21 9.49994H22.75C22.75 7.90705 22.1006 6.46033 21.0348 5.41846L19.8115 6.66987L18.5882 7.92127C19.0011 8.32489 19.25 8.87769 19.25 9.49994H21ZM3 9.49994V11.2499H21V9.49994V7.74994H3V9.49994ZM4.17188 6.67182L2.93444 5.43438C1.89518 6.47364 1.25 7.91214 1.25 9.49994H3H4.75C4.75 8.87819 4.99921 8.31935 5.40931 7.90925L4.17188 6.67182ZM7 5.49994V3.74994C5.4122 3.74994 3.9737 4.39512 2.93444 5.43438L4.17188 6.67182L5.40931 7.90925C5.81941 7.49916 6.37825 7.24994 7 7.24994V5.49994ZM7.30664 5.51166L7.43563 3.76642C7.29626 3.75612 7.15073 3.74994 7 3.74994V5.49994V7.24994C7.05521 7.24994 7.11417 7.25221 7.17766 7.2569L7.30664 5.51166ZM7.72754 5.54291L7.85711 3.79772L7.43621 3.76647L7.30664 5.51166L7.17707 7.25686L7.59797 7.28811L7.72754 5.54291ZM7.97266 5.19916L6.5478 4.18314L6.30269 4.52689L7.72754 5.54291L9.15239 6.55893L9.39751 6.21518L7.97266 5.19916ZM8.16992 4.93842L6.80494 3.84328C6.71549 3.95478 6.62968 4.06837 6.54798 4.18289L7.97266 5.19916L9.39733 6.21543C9.44166 6.15328 9.48772 6.09236 9.5349 6.03356L8.16992 4.93842ZM12 2.99994V1.24994C9.87652 1.24994 8.03804 2.30642 6.80497 3.84325L8.16992 4.93842L9.53488 6.03359C10.2063 5.19672 11.0919 4.74994 12 4.74994V2.99994ZM15.6572 4.8769L17.0781 3.85526C15.945 2.27951 14.0924 1.24994 12 1.24994V2.99994V4.74994C12.9187 4.74994 13.7329 5.1983 14.2364 5.89853L15.6572 4.8769ZM15.8438 5.15815L17.335 4.24241C17.2564 4.1144 17.1711 3.98469 17.0781 3.85538L15.6572 4.8769L14.2363 5.89841C14.2744 5.95133 14.313 6.00964 14.3525 6.07389L15.8438 5.15815ZM16.083 5.54779L17.5743 4.63208L17.3351 4.24244L15.8438 5.15815L14.3525 6.07386L14.5917 6.46351L16.083 5.54779ZM16.5391 5.51362L16.4083 3.76851L15.9522 3.80269L16.083 5.54779L16.2138 7.2929L16.6699 7.25872L16.5391 5.51362ZM16.875 5.50092L16.8743 3.75092C16.7167 3.75098 16.5609 3.75703 16.4078 3.76854L16.5391 5.51362L16.6703 7.25869C16.7379 7.2536 16.8066 7.25095 16.8757 7.25092L16.875 5.50092ZM19.8115 6.66987L21.0348 5.41845C19.9711 4.37864 18.5022 3.75036 16.8744 3.75092L16.875 5.50092L16.8756 7.25092C17.5866 7.25068 18.1774 7.51966 18.5882 7.92128L19.8115 6.66987ZM1.79297 11.2929L3.03041 12.5303C2.90494 12.6558 2.72736 12.7407 2.5317 12.7492L2.45526 11.0009L2.37883 9.25259C1.66632 9.28374 1.02484 9.58617 0.55553 10.0555L1.79297 11.2929ZM1.5 11.9999H3.25C3.25 12.206 3.16367 12.3971 3.03041 12.5303L1.79297 11.2929L0.555531 10.0555C0.0586996 10.5523 -0.25 11.2412 -0.25 11.9999H1.5ZM1.66602 12.5527L3.12231 11.5823C3.20462 11.7058 3.25 11.853 3.25 11.9999H1.5H-0.25C-0.25 12.559 -0.0824679 13.0846 0.20972 13.5231L1.66602 12.5527ZM2.11426 12.9228L2.78766 11.3075C2.92827 11.3662 3.04262 11.4627 3.12225 11.5822L1.66602 12.5527L0.209781 13.5232C0.508661 13.9717 0.936019 14.3276 1.44086 14.538L2.11426 12.9228ZM2.23438 12.9638L2.695 11.2755C2.7214 11.2827 2.75232 11.2928 2.78713 11.3073L2.11426 12.9228L1.44138 14.5383C1.55433 14.5853 1.66599 14.6227 1.77375 14.6521L2.23438 12.9638ZM2.3584 12.9892L2.70939 11.2748L2.58536 11.2494L2.23438 12.9638L1.88339 14.6783L2.00741 14.7036L2.3584 12.9892ZM2.98535 13.0781L3.23095 11.3454L2.604 11.2565L2.3584 12.9892L2.1128 14.7219L2.73975 14.8107L2.98535 13.0781ZM3.00293 13.7109L4.75225 13.6623L4.73468 13.0295L2.98535 13.0781L1.23603 13.1267L1.2536 13.7595L3.00293 13.7109ZM3.03125 14.1669L4.77353 14.0027C4.76253 13.886 4.75541 13.7718 4.7522 13.6604L3.00293 13.7109L1.25366 13.7613C1.25917 13.9525 1.27121 14.1427 1.28897 14.3311L3.03125 14.1669ZM5.29297 18.6816L6.47012 17.3867C5.52514 16.5276 4.89924 15.3363 4.77353 14.0027L3.03125 14.1669L1.28897 14.3312C1.4995 16.5644 2.54917 18.5523 4.11582 19.9765L5.29297 18.6816ZM10 20.4999V18.7499C8.63892 18.7499 7.40396 18.2356 6.47011 17.3867L5.29297 18.6816L4.11582 19.9765C5.66927 21.3887 7.73552 22.2499 10 22.2499V20.4999ZM14 20.4999V18.7499H10V20.4999V22.2499H14V20.4999ZM18.707 18.6816L17.5299 17.3866C16.5961 18.2355 15.361 18.7499 14 18.7499V20.4999V22.2499C16.2645 22.2499 18.3308 21.3885 19.8841 19.9765L18.707 18.6816ZM20.9688 14.1679L19.2265 14.0037C19.1009 15.3365 18.475 16.5275 17.5299 17.3867L18.707 18.6816L19.8842 19.9765C21.4505 18.5527 22.5006 16.5651 22.711 14.3321L20.9688 14.1679ZM20.9961 13.7119L19.2492 13.6071L19.2219 14.0632L20.9688 14.1679L22.7156 14.2726L22.743 13.8166L20.9961 13.7119ZM21.0146 13.081L19.2654 13.0296L19.2469 13.6604L20.9961 13.7119L22.7453 13.7633L22.7639 13.1324L21.0146 13.081ZM21.6396 12.9912L21.3906 11.259L20.7656 11.3488L21.0146 13.081L21.2637 14.8132L21.8887 14.7233L21.6396 12.9912ZM21.8848 12.9238L21.211 11.3087C21.2712 11.2836 21.3313 11.2675 21.3901 11.259L21.6396 12.9912L21.8892 14.7233C22.1166 14.6905 22.342 14.6292 22.5585 14.5389L21.8848 12.9238ZM22.334 12.5527L20.8777 11.5823C20.9571 11.4631 21.0708 11.3673 21.2103 11.309L21.8848 12.9238L22.5593 14.5386C23.0641 14.3277 23.4914 13.9716 23.7903 13.5231L22.334 12.5527ZM22.5 11.9999H20.75C20.75 11.8529 20.7954 11.7057 20.8775 11.5825L22.334 12.5527L23.7905 13.5228C24.0824 13.0845 24.25 12.559 24.25 11.9999H22.5ZM22.207 11.2929L20.9696 12.5303C20.8363 12.3971 20.75 12.206 20.75 11.9999H22.5H24.25C24.25 11.2412 23.9413 10.5523 23.4445 10.0555L22.207 11.2929ZM21.5447 11.0009L21.4683 12.7492C21.2726 12.7407 21.0951 12.6558 20.9696 12.5303L22.207 11.2929L23.4445 10.0555C22.9752 9.58617 22.3337 9.28374 21.6212 9.25259L21.5447 11.0009ZM2.45526 11.0009V12.7509H21.5447V11.0009V9.25092H2.45526V11.0009Z" fill="var(--stroke-0, #1A1A1A)" mask="url(#path-1-inside-1_0_4)"/>
</g>
</svg>
