<svg preserveAspectRatio="none" width="100%" height="100%" overflow="visible" style="display: block;" viewBox="0 0 24 21.9999" fill="none" xmlns="http://www.w3.org/2000/svg">
<path id="Union" fill-rule="evenodd" clip-rule="evenodd" d="M19.2197 0.21967C19.5126 -0.0732233 19.9874 -0.0732233 20.2803 0.21967C20.5732 0.512563 20.5732 0.987324 20.2803 1.28022L17.5246 4.03589C17.9196 4.079 18.3016 4.16119 18.6666 4.27866C18.6831 4.2583 18.7008 4.23861 18.7197 4.21967L21.2197 1.71967C21.5126 1.42678 21.9874 1.42678 22.2803 1.71967C22.5732 2.01256 22.5732 2.48732 22.2803 2.78022L20.0901 4.97038C20.3656 5.15657 20.623 5.36653 20.8594 5.5976C21.8781 6.59345 22.5 7.97577 22.5 9.49994C22.5 9.56911 22.4987 9.63802 22.4962 9.70664C22.7862 9.83286 23.0476 10.0123 23.2676 10.2324C23.7192 10.684 24 11.3098 24 11.9999C24 12.5102 23.8466 12.9877 23.582 13.3847C23.3443 13.7415 23.017 14.0343 22.6309 14.2304L22.4619 14.3085L22.4141 14.7119C22.1281 16.7163 21.1428 18.4948 19.7158 19.7919C18.2069 21.1635 16.2001 21.9999 14 21.9999H10C7.79978 21.9999 5.79316 21.1627 4.28418 19.791C2.85721 18.4937 1.87191 16.7156 1.58594 14.7109L1.53809 14.3076L1.36914 14.2294C0.983059 14.0336 0.65562 13.7413 0.417969 13.3847C0.153383 12.9877 0 12.5102 0 11.9999C0 11.3098 0.280832 10.684 0.732422 10.2324C0.95244 10.0123 1.21382 9.83286 1.50385 9.70664C1.50129 9.63802 1.5 9.56911 1.5 9.49994C1.5 7.98137 2.11685 6.60575 3.11133 5.61127C4.10581 4.61679 5.48142 3.99994 7 3.99994L7.23047 3.72651C8.41483 2.3908 10.0899 1.49994 12 1.49994C13.6419 1.49994 15.1297 2.1599 16.2124 3.22707L16.2197 3.21967L19.2197 0.21967ZM19.8115 6.66987C20.5509 7.39261 21 8.39237 21 9.49994H3C3 8.39517 3.4472 7.3965 4.17188 6.67182C4.89655 5.94714 5.89522 5.49994 7 5.49994C7.10297 5.49994 7.20522 5.50417 7.30664 5.51166L7.72754 5.54291L7.97266 5.19916C8.03567 5.11083 8.10161 5.02357 8.16992 4.93842C9.12219 3.75157 10.4842 2.99994 12 2.99994C13.5056 2.99994 14.839 3.73891 15.6572 4.8769C15.7227 4.96801 15.7847 5.06202 15.8438 5.15815L16.083 5.54779L16.5391 5.51362C16.6494 5.50532 16.7616 5.50096 16.875 5.50092C18.0444 5.50052 19.0743 5.94915 19.8115 6.66987ZM2.45524 11.0009C2.19682 11.0122 1.96489 11.121 1.79297 11.2929C1.61118 11.4747 1.5 11.7236 1.5 11.9999C1.5 12.206 1.56108 12.3952 1.66602 12.5527C1.77564 12.7172 1.93214 12.8469 2.11426 12.9228C2.15333 12.9391 2.1937 12.9527 2.23438 12.9638L2.3584 12.9892L2.98535 13.0781L3.00293 13.7109C3.00729 13.8621 3.01687 14.0144 3.03125 14.1669C3.19937 15.9503 4.03716 17.54 5.29297 18.6816C6.53661 19.8121 8.18722 20.4999 10 20.4999H14C15.8128 20.4999 17.4634 19.812 18.707 18.6816C19.9627 17.5401 20.8007 15.9508 20.9688 14.1679L20.9961 13.7119L21.0146 13.081L21.6396 12.9912C21.724 12.979 21.8066 12.9564 21.8848 12.9238C22.0674 12.8475 22.2242 12.7174 22.334 12.5527C22.4389 12.3951 22.5 12.2059 22.5 11.9999C22.5 11.7236 22.3888 11.4747 22.207 11.2929C22.0351 11.121 21.8032 11.0122 21.5448 11.0009H2.45524Z" fill="var(--fill-0, #1A1A1A)"/>
</svg>
