<svg preserveAspectRatio="none" width="100%" height="100%" overflow="visible" style="display: block;" viewBox="0 0 20.5 21.0268" fill="none" xmlns="http://www.w3.org/2000/svg">
<path id="&#233;&#166;&#150;&#233;&#161;&#181;" fill-rule="evenodd" clip-rule="evenodd" d="M18.4854 7.1918C18.8087 7.42699 18.9999 7.80272 19 8.20254V18.2768C19 18.9671 18.4404 19.5268 17.75 19.5268H11V12.277C11 11.8628 10.6642 11.527 10.25 11.527C9.83579 11.527 9.5 11.8628 9.5 12.277V19.5268H2.75C2.05964 19.5268 1.5 18.9671 1.5 18.2768V8.20254C1.50006 7.80272 1.69132 7.42699 2.01465 7.1918L9.51465 1.73867C9.95291 1.42002 10.5471 1.42002 10.9854 1.73867L18.4854 7.1918ZM17.75 21.0268C19.2688 21.0268 20.5 19.7955 20.5 18.2768V8.20254C20.4999 7.32274 20.0787 6.49635 19.3672 5.97891L11.8672 0.525784C10.903 -0.175261 9.59699 -0.175262 8.63281 0.525784L1.13281 5.97891C0.421268 6.49635 6.04233e-05 7.32274 0 8.20254V18.2768C0 19.7955 1.23122 21.0268 2.75 21.0268H17.75Z" fill="var(--fill-0, #1A1A1A)"/>
</svg>
