<svg preserveAspectRatio="none" width="100%" height="100%" overflow="visible" style="display: block;" viewBox="0 0 17 20.8372" fill="none" xmlns="http://www.w3.org/2000/svg">
<g id="Union">
<mask id="path-1-inside-1_0_4" fill="white">
<path fill-rule="evenodd" clip-rule="evenodd" d="M12.7243 11.4403C14.1172 10.2482 15 8.47717 15 6.5C15 2.91015 12.0899 0 8.5 0C4.91015 0 2 2.91015 2 6.5C2 8.4771 2.88271 10.248 4.27554 11.4402C2.01175 12.5416 0.402666 14.501 0.0654297 16.7952L0.0244141 17.1418H0V18.7834L0.0107422 18.9934C0.109101 19.9602 0.877809 20.7284 1.84473 20.8264L2.05469 20.8372H14.9453C16.0089 20.8372 16.8839 20.0292 16.9893 18.9934L17 18.7834V17.1418H16.9756L16.9346 16.7952C16.5973 14.5009 14.9882 12.5416 12.7243 11.4403ZM5.81416 12.4209C6.63281 12.7928 7.54221 13 8.5 13C9.45779 13 10.3672 12.7928 11.1858 12.4209C13.6491 13.2579 15.2954 15.2008 15.4814 17.2756L15.5 17.4827V18.7834C15.4998 19.0894 15.2514 19.3372 14.9453 19.3372H2.05469C1.74865 19.3372 1.50024 19.0894 1.5 18.7834V17.4827L1.51855 17.2756C1.70465 15.2008 3.35088 13.2579 5.81416 12.4209Z"/>
</mask>
<path d="M12.7243 11.4403L11.749 10.3007L10.0108 11.7884L12.0681 12.7892L12.7243 11.4403ZM4.27554 11.4402L4.93178 12.789L6.98888 11.7882L5.25093 10.3006L4.27554 11.4402ZM0.0654297 16.7952L-1.41862 16.577L-1.4217 16.5979L-1.42418 16.6189L0.0654297 16.7952ZM0.0244141 17.1418V18.6418H1.35741L1.51403 17.3181L0.0244141 17.1418ZM0 17.1418V15.6418H-1.5V17.1418H0ZM0 18.7834H-1.5V18.8218L-1.49804 18.8601L0 18.7834ZM0.0107422 18.9934L-1.4873 19.0701L-1.48537 19.1077L-1.48156 19.1452L0.0107422 18.9934ZM1.84473 20.8264L1.69342 22.3188L1.73068 22.3225L1.76808 22.3245L1.84473 20.8264ZM2.05469 20.8372L1.97804 22.3352L2.01634 22.3372H2.05469V20.8372ZM16.9893 18.9934L18.4816 19.1452L18.4854 19.1077L18.4873 19.0701L16.9893 18.9934ZM17 18.7834L18.498 18.8601L18.5 18.8218V18.7834H17ZM17 17.1418H18.5V15.6418H17V17.1418ZM16.9756 17.1418L15.486 17.3181L15.6426 18.6418H16.9756V17.1418ZM16.9346 16.7952L18.4242 16.6189L18.4217 16.5979L18.4186 16.577L16.9346 16.7952ZM5.81416 12.4209L6.43463 11.0552L5.89391 10.8096L5.33156 11.0006L5.81416 12.4209ZM11.1858 12.4209L11.6684 11.0006L11.1061 10.8096L10.5654 11.0552L11.1858 12.4209ZM15.4814 17.2756L16.9755 17.1417L16.9754 17.1416L15.4814 17.2756ZM15.5 17.4827H17V17.4156L16.994 17.3488L15.5 17.4827ZM15.5 18.7834L17 18.7846V18.7834H15.5ZM1.5 18.7834H-4.55803e-07L4.55802e-07 18.7846L1.5 18.7834ZM1.5 17.4827L0.00598811 17.3488L0 17.4156V17.4827H1.5ZM1.51855 17.2756L0.0245517 17.1416L0.0245428 17.1417L1.51855 17.2756ZM15 6.5H13.5C13.5 8.02054 12.8231 9.38138 11.749 10.3007L12.7243 11.4403L13.6997 12.5799C15.4113 11.1149 16.5 8.93381 16.5 6.5H15ZM8.5 0V1.5C11.2614 1.5 13.5 3.73858 13.5 6.5H15H16.5C16.5 2.08172 12.9183 -1.5 8.5 -1.5V0ZM2 6.5H3.5C3.5 3.73858 5.73858 1.5 8.5 1.5V0V-1.5C4.08172 -1.5 0.5 2.08172 0.5 6.5H2ZM4.27554 11.4402L5.25093 10.3006C4.17684 9.38128 3.5 8.02048 3.5 6.5H2H0.5C0.5 8.93372 1.58858 11.1148 3.30015 12.5798L4.27554 11.4402ZM0.0654297 16.7952L1.54948 17.0133C1.80193 15.2959 3.02926 13.7147 4.93178 12.789L4.27554 11.4402L3.61929 10.0914C0.994242 11.3685 -0.996599 13.706 -1.41862 16.577L0.0654297 16.7952ZM0.0244141 17.1418L1.51403 17.3181L1.55504 16.9714L0.0654297 16.7952L-1.42418 16.6189L-1.4652 16.9656L0.0244141 17.1418ZM0 17.1418V18.6418H0.0244141V17.1418V15.6418H0V17.1418ZM0 18.7834H1.5V17.1418H0H-1.5V18.7834H0ZM0.0107422 18.9934L1.50878 18.9168L1.49804 18.7068L0 18.7834L-1.49804 18.8601L-1.4873 19.0701L0.0107422 18.9934ZM1.84473 20.8264L1.99604 19.3341C1.73735 19.3078 1.52928 19.0996 1.50304 18.8416L0.0107422 18.9934L-1.48156 19.1452C-1.31108 20.8209 0.0182693 22.1489 1.69342 22.3188L1.84473 20.8264ZM2.05469 20.8372L2.13133 19.3391L1.92137 19.3284L1.84473 20.8264L1.76808 22.3245L1.97804 22.3352L2.05469 20.8372ZM14.9453 20.8372V19.3372H2.05469V20.8372V22.3372H14.9453V20.8372ZM16.9893 18.9934L15.497 18.8416C15.4687 19.1191 15.2318 19.3372 14.9453 19.3372V20.8372V22.3372C16.786 22.3372 18.299 20.9393 18.4816 19.1452L16.9893 18.9934ZM17 18.7834L15.502 18.7068L15.4912 18.9168L16.9893 18.9934L18.4873 19.0701L18.498 18.8601L17 18.7834ZM17 17.1418H15.5V18.7834H17H18.5V17.1418H17ZM16.9756 17.1418V18.6418H17V17.1418V15.6418H16.9756V17.1418ZM16.9346 16.7952L15.445 16.9714L15.486 17.3181L16.9756 17.1418L18.4652 16.9656L18.4242 16.6189L16.9346 16.7952ZM12.7243 11.4403L12.0681 12.7892C13.9707 13.7147 15.1981 15.2959 15.4505 17.0133L16.9346 16.7952L18.4186 16.577C17.9966 13.7059 16.0056 11.3685 13.3805 10.0915L12.7243 11.4403ZM8.5 13V11.5C7.76048 11.5 7.0623 11.3404 6.43463 11.0552L5.81416 12.4209L5.19368 13.7865C6.20332 14.2453 7.32395 14.5 8.5 14.5V13ZM11.1858 12.4209L10.5654 11.0552C9.9377 11.3404 9.23952 11.5 8.5 11.5V13V14.5C9.67605 14.5 10.7967 14.2453 11.8063 13.7865L11.1858 12.4209ZM15.4814 17.2756L16.9754 17.1416C16.7257 14.3572 14.5715 11.9871 11.6684 11.0006L11.1858 12.4209L10.7032 13.8411C12.7267 14.5287 13.865 16.0444 13.9874 17.4096L15.4814 17.2756ZM15.5 17.4827L16.994 17.3488L16.9755 17.1417L15.4814 17.2756L13.9874 17.4095L14.006 17.6166L15.5 17.4827ZM15.5 18.7834H17V17.4827H15.5H14V18.7834H15.5ZM14.9453 19.3372V20.8372C16.0775 20.8372 16.9991 19.9204 17 18.7846L15.5 18.7834L14 18.7823C14.0004 18.2585 14.4252 17.8372 14.9453 17.8372V19.3372ZM2.05469 19.3372V20.8372H14.9453V19.3372V17.8372H2.05469V19.3372ZM1.5 18.7834L4.55802e-07 18.7846C0.000885879 19.9204 0.9225 20.8372 2.05469 20.8372V19.3372V17.8372C2.5748 17.8372 2.99959 18.2585 3 18.7823L1.5 18.7834ZM1.5 17.4827H0V18.7834H1.5H3V17.4827H1.5ZM1.51855 17.2756L0.0245428 17.1417L0.00598811 17.3488L1.5 17.4827L2.99401 17.6166L3.01257 17.4095L1.51855 17.2756ZM5.81416 12.4209L5.33156 11.0006C2.42846 11.9871 0.27429 14.3572 0.0245517 17.1416L1.51855 17.2756L3.01256 17.4096C3.13501 16.0444 4.27329 14.5287 6.29675 13.8411L5.81416 12.4209Z" fill="var(--stroke-0, #1A1A1A)" mask="url(#path-1-inside-1_0_4)"/>
</g>
</svg>
