<svg preserveAspectRatio="none" width="100%" height="100%" overflow="visible" style="display: block;" viewBox="0 0 24.0997 22.55" fill="none" xmlns="http://www.w3.org/2000/svg">
<g id="Group 9142">
<g id="Union">
</g>
<path id="Vector 307" d="M17.2354 21.7993L6.86423 21.7993" stroke="var(--stroke-0, #333333)" stroke-width="1.5" stroke-linecap="round"/>
<path id="Vector 306" d="M12.0493 17.6305L12.0493 21.8" stroke="var(--stroke-0, #333333)" stroke-width="1.5" stroke-linecap="round"/>
<path id="Vector 309" d="M15.8953 7.33684C15.8728 9.25884 15.8251 11.2275 14.2941 12.2797" stroke="var(--stroke-0, #333333)" stroke-width="1.5" stroke-linecap="round"/>
<g id="Group 9158">
<path id="Union_2" d="M16.999 0C18.9968 5.86214e-05 20.6169 1.61946 20.6172 3.61719V3.67871C21.2065 3.65768 21.8575 3.76146 22.4453 4.07031C23.4192 4.5821 24.0996 5.59239 24.0996 7.15039C24.0994 10.3697 21.976 12.6853 19.7246 13.3057C18.3204 16.1388 15.4019 18.0878 12.0254 18.0879L11.583 18.0771C8.3887 17.9152 5.65626 16.0075 4.31641 13.29C2.08687 12.646 0.00023145 10.3419 0 7.15039C0 5.59239 0.680456 4.5821 1.6543 4.07031C2.22593 3.76998 2.85729 3.66212 3.43359 3.67578V3.61719C3.43384 1.61958 5.05317 0.000249983 7.05078 0H16.999ZM7.05078 1.5C5.8816 1.50025 4.93384 2.44801 4.93359 3.61719V9.49609C4.93359 13.4128 8.10872 16.5879 12.0254 16.5879C15.942 16.5878 19.1172 13.4127 19.1172 9.49609V3.61719C19.117 2.52092 18.2835 1.61914 17.2158 1.51074L16.999 1.5H7.05078ZM20.6172 5.17969V9.49609L20.6055 9.93848C20.5808 10.4258 20.5127 10.9017 20.4102 11.3643C21.5969 10.5935 22.5994 9.12509 22.5996 7.15039C22.5996 6.09216 22.1796 5.6243 21.748 5.39746C21.4076 5.21858 20.9946 5.1585 20.6172 5.17969ZM3.43359 5.17676C3.06963 5.1633 2.67739 5.22627 2.35156 5.39746C1.92004 5.6243 1.5 6.09216 1.5 7.15039C1.50018 9.09241 2.46997 10.5445 3.63086 11.3252C3.503 10.7356 3.43359 10.1239 3.43359 9.49609V5.17676Z" fill="var(--fill-0, #333333)"/>
</g>
</g>
</svg>
