<svg width="12" height="12" viewBox="0 0 12 12" fill="none" xmlns="http://www.w3.org/2000/svg">
<path d="M2.625 9V8.75244H3.375V9C3.375 9.12807 3.3898 8.75024 3.41778 8.86979C3.58613 9.5892 4.23172 10.125 5.00244 10.125H8.49756C9.39636 10.125 10.125 9.39636 10.125 8.49756V4.25244C10.125 3.58507 9.72326 3.01152 9.14845 2.7604C8.94912 2.67332 9.23142 2.62501 9 2.625H8.75244V1.875H9C9.25053 1.87501 8.98957 1.91376 9.21633 1.9856C10.178 2.29027 10.875 3.18996 10.875 4.25244V8.49756C10.875 9.81057 9.81057 10.875 8.49756 10.875H5.00244C3.80216 10.875 2.80964 9.9855 2.64803 8.82974C2.63285 8.72119 2.625 9.11273 2.625 9Z" fill="#1A1A1A"/>
<path d="M1.5 2.7525C1.5 1.64655 2.39655 0.75 3.5025 0.75H6.9975C8.10345 0.75 9 1.64655 9 2.7525V6.9975C9 8.10345 8.10345 9 6.9975 9H3.5025C2.39655 9 1.5 8.10345 1.5 6.9975V2.7525Z" stroke="#1A1A1A" stroke-width="0.75"/>
</svg>
