<svg width="16" height="16" viewBox="0 0 16 16" fill="none" xmlns="http://www.w3.org/2000/svg">
<path d="M3.5 12V11.6699H4.5V12C4.50001 12.1708 4.51974 11.667 4.55704 11.8264C4.7815 12.7856 5.64229 13.5 6.66992 13.5H11.3301C12.5285 13.5 13.5 12.5285 13.5 11.3301V5.66992C13.5 4.78009 12.9643 4.01536 12.1979 3.68053C11.9322 3.56443 12.3086 3.50001 12 3.5H11.6699V2.5H12C12.334 2.50001 11.9861 2.55168 12.2884 2.64747C13.5707 3.05369 14.5 4.25328 14.5 5.66992V11.3301C14.5 13.0808 13.0808 14.5 11.3301 14.5H6.66992C5.06955 14.5 3.74618 13.314 3.53071 11.773C3.51047 11.6283 3.5 12.1503 3.5 12Z" fill="#1A1A1A"/>
<path d="M2 3.67C2 2.1954 3.1954 1 4.67 1H9.33C10.8046 1 12 2.1954 12 3.67V9.33C12 10.8046 10.8046 12 9.33 12H4.67C3.1954 12 2 10.8046 2 9.33V3.67Z" stroke="#1A1A1A"/>
</svg>
