<svg width="24" height="24" viewBox="0 0 24 24" fill="none" xmlns="http://www.w3.org/2000/svg">
<path d="M5.25 18V17.5049H6.75V18C6.75001 18.2561 6.7796 17.5005 6.83555 17.7396C7.17226 19.1784 8.46343 20.2499 10.0049 20.25H16.9951C18.7927 20.2499 20.2499 18.7927 20.25 16.9951V8.50488C20.25 7.17014 19.4465 6.02305 18.2969 5.5208C17.8982 5.34664 18.4628 5.25002 18 5.25H17.5049V3.75H18C18.5011 3.75001 17.9791 3.82752 18.4327 3.9712C20.356 4.58054 21.7499 6.37992 21.75 8.50488V16.9951C21.7499 19.6211 19.6211 21.7499 16.9951 21.75H10.0049C7.60433 21.7499 5.61928 19.971 5.29606 17.6595C5.2657 17.4424 5.25001 18.2255 5.25 18Z" fill="#1A1A1A"/>
<path d="M3 5.505C3 3.2931 4.7931 1.5 7.005 1.5H13.995C16.2069 1.5 18 3.2931 18 5.505V13.995C18 16.2069 16.2069 18 13.995 18H7.005C4.7931 18 3 16.2069 3 13.995V5.505Z" stroke="#1A1A1A" stroke-width="1.5"/>
</svg>
