<svg width="32" height="32" viewBox="0 0 32 32" fill="none" xmlns="http://www.w3.org/2000/svg">
<path d="M7 24V23.3398H9V24C9.00001 24.3415 9.03947 23.334 9.11407 23.6528C9.56301 25.5712 11.2846 26.9999 13.3398 27H22.6602C25.0569 26.9999 26.9999 25.0569 27 22.6602V11.3398C26.9999 9.56018 25.9287 8.03073 24.3959 7.36107C23.8643 7.12885 24.6171 7.00002 24 7H23.3398V5H24C24.6681 5.00002 23.9722 5.10337 24.5769 5.29494C27.1413 6.10739 28.9999 8.50656 29 11.3398V22.6602C28.9999 26.1615 26.1615 28.9999 22.6602 29H13.3398C10.1391 28.9999 7.49237 26.628 7.06141 23.546C7.02094 23.2565 7.00001 24.3006 7 24Z" fill="#1A1A1A"/>
<path d="M4 7.34C4 4.3908 6.3908 2 9.34 2H18.66C21.6092 2 24 4.3908 24 7.34V18.66C24 21.6092 21.6092 24 18.66 24H9.34C6.3908 24 4 21.6092 4 18.66V7.34Z" stroke="#1A1A1A" stroke-width="2"/>
</svg>
