<svg width="12" height="12" viewBox="0 0 12 12" fill="none" xmlns="http://www.w3.org/2000/svg">
<path d="M9.53103 10.4846C8.55387 11.4618 6.05141 10.5436 3.94164 8.43385C1.83186 6.32408 0.913695 3.82163 1.89085 2.84446L2.53424 2.20108C2.9784 1.75692 3.71027 1.76866 4.16892 2.2273L5.16546 3.22385C5.62411 3.6825 5.63585 4.41437 5.19169 4.85853L5.05349 4.99672C4.81368 5.23653 4.79022 5.6234 5.01305 5.89342C5.22798 6.15388 5.4597 6.41331 5.71094 6.66455C5.96218 6.91579 6.22161 7.1475 6.48207 7.36244C6.75209 7.58526 7.13895 7.5618 7.37876 7.32199L7.51696 7.1838C7.96112 6.73964 8.69299 6.75138 9.15164 7.21003L10.1482 8.20657C10.6068 8.66522 10.6186 9.39709 10.1744 9.84125L9.53103 10.4846Z" stroke="#1A1A1A"/>
<path d="M8.8131 4.87535C8.6911 4.57776 8.50929 4.29895 8.26765 4.05731C8.03966 3.82932 7.77858 3.65459 7.49985 3.53311" stroke="#1A1A1A" stroke-linecap="round"/>
<path d="M7.50057 1.8317C8.16789 2.07346 8.794 2.46183 9.329 2.99682C9.87742 3.54524 10.2718 4.18941 10.512 4.87556" stroke="#1A1A1A" stroke-linecap="round"/>
</svg>
