<svg width="16" height="16" viewBox="0 0 16 16" fill="none" xmlns="http://www.w3.org/2000/svg">
<path d="M12.708 13.9795C11.4052 15.2824 8.06855 14.0581 5.25551 11.2451C2.44248 8.43206 1.21826 5.09546 2.52114 3.79258L3.37898 2.93473C3.9712 2.34251 4.94703 2.35817 5.55856 2.9697L6.88728 4.29842C7.49881 4.90995 7.51447 5.88578 6.92225 6.478L6.73799 6.66226C6.41825 6.982 6.38696 7.49782 6.68407 7.85786C6.97064 8.20513 7.2796 8.55104 7.61458 8.88603C7.94957 9.22101 8.29548 9.52997 8.64275 9.81654C9.00279 10.1136 9.51861 10.0824 9.83835 9.76262L10.0226 9.57836C10.6148 8.98614 11.5907 9.0018 12.2022 9.61333L13.5309 10.9421C14.1424 11.5536 14.1581 12.5294 13.5659 13.1216L12.708 13.9795Z" stroke="#1A1A1A"/>
<path d="M11.7508 6.50043C11.5881 6.10364 11.3457 5.73189 11.0235 5.40971C10.7196 5.10572 10.3714 4.87275 9.9998 4.71077" stroke="#1A1A1A" stroke-linecap="round"/>
<path d="M10.0001 2.44215C10.8899 2.76449 11.7247 3.28231 12.438 3.99564C13.1692 4.72687 13.695 5.58576 14.0154 6.50063" stroke="#1A1A1A" stroke-linecap="round"/>
</svg>
