<svg width="32" height="32" viewBox="0 0 32 32" fill="none" xmlns="http://www.w3.org/2000/svg">
<path d="M25.4161 27.9591C22.8103 30.5648 16.1371 28.1164 10.511 22.4903C4.88497 16.8642 2.43652 10.191 5.04227 7.58528L6.75796 5.86959C7.9424 4.68515 9.89406 4.71646 11.1171 5.93952L13.7746 8.59697C14.9976 9.82003 15.0289 11.7717 13.8445 12.9561L13.476 13.3246C12.8365 13.9641 12.7739 14.9958 13.3681 15.7158C13.9413 16.4104 14.5592 17.1022 15.2292 17.7722C15.8991 18.4421 16.591 19.0601 17.2855 19.6332C18.0056 20.2274 19.0372 20.1649 19.6767 19.5254L20.0452 19.1568C21.2297 17.9724 23.1813 18.0037 24.4044 19.2268L27.0618 21.8842C28.2849 23.1073 28.3162 25.0589 27.1318 26.2434L25.4161 27.9591Z" stroke="#1A1A1A" stroke-width="1.75"/>
<path d="M23.5016 13.0011C23.1763 12.2075 22.6914 11.464 22.0471 10.8197C21.4391 10.2117 20.7429 9.74574 19.9996 9.42179" stroke="#1A1A1A" stroke-width="1.75" stroke-linecap="round"/>
<path d="M20.0002 4.88454C21.7797 5.52922 23.4494 6.56487 24.876 7.99153C26.3385 9.45398 27.3901 11.1718 28.0308 13.0015" stroke="#1A1A1A" stroke-width="1.75" stroke-linecap="round"/>
</svg>
