<svg width="12" height="12" viewBox="0 0 12 12" fill="none" xmlns="http://www.w3.org/2000/svg">
<path d="M8 0.5C9.43759 0.5 10.6379 1.51142 10.9307 2.86133L11.1465 2.64648C11.3417 2.45122 11.6583 2.45122 11.8535 2.64648C12.0488 2.84175 12.0488 3.15825 11.8535 3.35352L10.8535 4.35352C10.6583 4.54878 10.3417 4.54878 10.1465 4.35352C10.0489 4.25588 10 4.12794 10 4V3.5C10 2.39543 9.10457 1.5 8 1.5H4C2.89543 1.5 2 2.39543 2 3.5V6.78027C2.0001 7.46624 2.35175 8.10428 2.93164 8.4707L5.26562 9.94531C5.71409 10.2285 6.28591 10.2285 6.73438 9.94531L9.06836 8.4707C9.64825 8.10428 9.9999 7.46624 10 6.78027V5.75879C10.0002 5.48285 10.224 5.25879 10.5 5.25879C10.776 5.25879 10.9998 5.48285 11 5.75879V6.78027C10.9999 7.8095 10.4718 8.7668 9.60156 9.31641L7.26855 10.79C6.49385 11.2793 5.50615 11.2793 4.73145 10.79L2.39844 9.31641C1.52823 8.7668 1.0001 7.8095 1 6.78027V3.5C1 1.84315 2.34315 0.5 4 0.5H8ZM7.22266 3.08398C7.45242 2.93081 7.76284 2.99289 7.91602 3.22266C8.06919 3.45242 8.00711 3.76284 7.77734 3.91602L6.90137 4.5H7.5C7.77614 4.5 8 4.72386 8 5C8 5.27614 7.77614 5.5 7.5 5.5H6.5V6H7.5C7.77614 6 8 6.22386 8 6.5C8 6.77614 7.77614 7 7.5 7H6.5V8C6.5 8.27614 6.27614 8.5 6 8.5C5.72386 8.5 5.5 8.27614 5.5 8V7H4.5C4.22386 7 4 6.77614 4 6.5C4 6.22386 4.22386 6 4.5 6H5.5V5.5H4.5C4.22386 5.5 4 5.27614 4 5C4 4.72386 4.22386 4.5 4.5 4.5H5.09863L4.22266 3.91602C3.99289 3.76284 3.93081 3.45242 4.08398 3.22266C4.23716 2.99289 4.54758 2.93081 4.77734 3.08398L6 3.89844L7.22266 3.08398Z" fill="#1A1A1A"/>
</svg>
