<svg width="16" height="16" viewBox="0 0 16 16" fill="none" xmlns="http://www.w3.org/2000/svg">
<path d="M10.667 0.895752C12.6241 0.895918 14.2324 2.38706 14.4189 4.29517L15.0244 3.69067C15.1952 3.5202 15.4718 3.52009 15.6426 3.69067C15.8133 3.86154 15.8134 4.13901 15.6426 4.30981L14.3096 5.64282C14.1388 5.81346 13.8612 5.81346 13.6904 5.64282C13.6019 5.55416 13.5601 5.43666 13.5635 5.32056C13.5634 5.31698 13.5625 5.31341 13.5625 5.30981V4.66626C13.5623 3.0672 12.2661 1.77093 10.667 1.77075H5.33301C3.73394 1.77093 2.43768 3.0672 2.4375 4.66626V9.04028C2.43764 10.0337 2.94715 10.958 3.78711 11.4885L6.89844 13.4534C7.5712 13.8783 8.4288 13.8783 9.10156 13.4534L12.2129 11.4885C13.0529 10.958 13.5624 10.0337 13.5625 9.04028V7.67896C13.5625 7.43733 13.7584 7.24146 14 7.24146C14.2416 7.24146 14.4375 7.43733 14.4375 7.67896V9.04028C14.4374 10.3338 13.7742 11.5369 12.6807 12.2278L9.56836 14.1936C8.61032 14.7985 7.38968 14.7985 6.43164 14.1936L3.31934 12.2278C2.22579 11.5369 1.56264 10.3338 1.5625 9.04028V4.66626C1.56268 2.58395 3.25069 0.895928 5.33301 0.895752H10.667ZM9.75684 4.302C9.95771 4.1682 10.2302 4.22247 10.3643 4.4231C10.4982 4.62401 10.4439 4.8964 10.2432 5.03052L8.44531 6.22876H10C10.2415 6.22876 10.4373 6.42479 10.4375 6.66626C10.4375 6.90788 10.2416 7.10376 10 7.10376H8.4375V8.22876H10C10.2415 8.22876 10.4373 8.42479 10.4375 8.66626C10.4375 8.90788 10.2416 9.10376 10 9.10376H8.4375V10.6663C8.4375 10.9079 8.24162 11.1038 8 11.1038C7.75838 11.1038 7.5625 10.9079 7.5625 10.6663V9.10376H6C5.75838 9.10376 5.5625 8.90788 5.5625 8.66626C5.56268 8.42479 5.75848 8.22876 6 8.22876H7.5625V7.10376H6C5.75838 7.10376 5.5625 6.90788 5.5625 6.66626C5.56268 6.42479 5.75848 6.22876 6 6.22876H7.55469L5.75684 5.03052C5.5561 4.8964 5.5018 4.62401 5.63574 4.4231C5.76984 4.22247 6.04229 4.1682 6.24316 4.302L8 5.4729L9.75684 4.302Z" fill="#1A1A1A"/>
</svg>
