<svg width="24" height="24" viewBox="0 0 24 24" fill="none" xmlns="http://www.w3.org/2000/svg">
<path d="M16 1.25C18.918 1.25 21.3263 3.42383 21.6982 6.24023L22.4697 5.46973C22.7626 5.17683 23.2374 5.17683 23.5303 5.46973C23.8232 5.76262 23.8232 6.23738 23.5303 6.53027L21.5303 8.53027C21.2374 8.82317 20.7626 8.82317 20.4697 8.53027C20.32 8.38059 20.2477 8.18343 20.251 7.9873C20.2508 7.97984 20.25 7.97236 20.25 7.96484V7C20.25 4.65279 18.3472 2.75 16 2.75H8C5.65279 2.75 3.75 4.65279 3.75 7V13.5596C3.75 15.0178 4.49756 16.3746 5.73047 17.1533L10.3984 20.1016C11.3768 20.7192 12.6232 20.7192 13.6016 20.1016L18.2695 17.1533C19.5024 16.3746 20.25 15.0178 20.25 13.5596V11.5186C20.25 11.1043 20.5858 10.7686 21 10.7686C21.4142 10.7686 21.75 11.1043 21.75 11.5186V13.5596C21.75 15.5325 20.7384 17.3684 19.0703 18.4219L14.4033 21.3691C12.9355 22.2962 11.0645 22.2962 9.59668 21.3691L4.92969 18.4219C3.26162 17.3684 2.25 15.5325 2.25 13.5596V7C2.25 3.82436 4.82436 1.25 8 1.25H16ZM14.584 6.37598C14.9286 6.14621 15.3943 6.23934 15.624 6.58398C15.8538 6.92863 15.7607 7.39426 15.416 7.62402L12.9766 9.25H15C15.4142 9.25 15.75 9.58579 15.75 10C15.75 10.4142 15.4142 10.75 15 10.75H12.75V12.25H15C15.4142 12.25 15.75 12.5858 15.75 13C15.75 13.4142 15.4142 13.75 15 13.75H12.75V16C12.75 16.4142 12.4142 16.75 12 16.75C11.5858 16.75 11.25 16.4142 11.25 16V13.75H9C8.58579 13.75 8.25 13.4142 8.25 13C8.25 12.5858 8.58579 12.25 9 12.25H11.25V10.75H9C8.58579 10.75 8.25 10.4142 8.25 10C8.25 9.58579 8.58579 9.25 9 9.25H11.0234L8.58398 7.62402C8.23934 7.39426 8.14621 6.92863 8.37598 6.58398C8.60574 6.23934 9.07137 6.14621 9.41602 6.37598L12 8.09863L14.584 6.37598Z" fill="#1A1A1A"/>
</svg>
