<svg width="32" height="32" viewBox="0 0 32 32" fill="none" xmlns="http://www.w3.org/2000/svg">
<path d="M21.333 1.79175C25.247 1.79175 28.4641 4.77375 28.8379 8.5896L30.0479 7.38062C30.3894 7.03939 30.9435 7.0395 31.2852 7.38062C31.6268 7.72227 31.6267 8.27717 31.2852 8.6189L28.6191 11.2849C28.2774 11.6266 27.7226 11.6266 27.3809 11.2849C27.2039 11.1077 27.1193 10.8735 27.126 10.6414C27.1258 10.6342 27.125 10.6271 27.125 10.6199V9.33374C27.125 6.13509 24.5317 3.54175 21.333 3.54175H10.667C7.46834 3.54175 4.875 6.13509 4.875 9.33374V18.0798C4.875 20.067 5.89408 21.9152 7.57422 22.9763L13.7969 26.907C15.1424 27.7568 16.8576 27.7568 18.2031 26.907L24.4258 22.9763C26.1059 21.9152 27.125 20.067 27.125 18.0798V15.3582C27.125 14.8749 27.5168 14.4832 28 14.4832C28.4832 14.4832 28.875 14.8749 28.875 15.3582V18.0798C28.875 20.6675 27.5482 23.075 25.3604 24.4568L19.1377 28.3865C17.2213 29.5968 14.7787 29.5968 12.8623 28.3865L6.63965 24.4568C4.45182 23.075 3.125 20.6675 3.125 18.0798V9.33374C3.125 5.16859 6.50184 1.79175 10.667 1.79175H21.333ZM19.5146 8.60522C19.9167 8.33736 20.4605 8.44638 20.7285 8.84839C20.9962 9.25043 20.8873 9.7943 20.4854 10.0623L16.8896 12.4587H20C20.4832 12.4587 20.875 12.8505 20.875 13.3337C20.8748 13.8168 20.4831 14.2087 20 14.2087H16.875V16.4587H20C20.4832 16.4587 20.875 16.8505 20.875 17.3337C20.8748 17.8168 20.4831 18.2087 20 18.2087H16.875V21.3337C16.8748 21.8168 16.4831 22.2087 16 22.2087C15.5169 22.2087 15.1252 21.8168 15.125 21.3337V18.2087H12C11.5169 18.2087 11.1252 17.8168 11.125 17.3337C11.125 16.8505 11.5168 16.4587 12 16.4587H15.125V14.2087H12C11.5169 14.2087 11.1252 13.8168 11.125 13.3337C11.125 12.8505 11.5168 12.4587 12 12.4587H15.1104L11.5146 10.0623C11.1127 9.7943 11.0038 9.25043 11.2715 8.84839C11.5395 8.44638 12.0833 8.33736 12.4854 8.60522L16 10.948L19.5146 8.60522Z" fill="#1A1A1A"/>
</svg>
