<svg preserveAspectRatio="none" width="100%" height="100%" overflow="visible" style="display: block;" viewBox="0 0 24 24" fill="none" xmlns="http://www.w3.org/2000/svg">
<g id="Group 1312321154">
<g id="Rectangle 3140">
</g>
<path id="Union" d="M13.0859 18.5C13.5002 18.5 13.8359 18.8358 13.8359 19.25C13.8359 19.6642 13.5002 20 13.0859 20H10.75C10.3358 20 10 19.6642 10 19.25C10 18.8358 10.3358 18.5 10.75 18.5H13.0859ZM11.75 3.75C15.2018 3.75 18 6.54822 18 10V15.5H19.25C19.6642 15.5 20 15.8358 20 16.25C20 16.6642 19.6642 17 19.25 17H4.25C3.83579 17 3.5 16.6642 3.5 16.25C3.5 15.8358 3.83579 15.5 4.25 15.5H5.5V10C5.5 6.54822 8.29822 3.75 11.75 3.75ZM11.75 5.25C9.12665 5.25 7 7.37665 7 10V15.5H16.5V10C16.5 7.37665 14.3734 5.25 11.75 5.25Z" fill="var(--fill-0, white)"/>
</g>
</svg>
