<svg width="12" height="12" viewBox="0 0 12 12" fill="none" xmlns="http://www.w3.org/2000/svg">
<path d="M9.59961 5.84961L9.09961 5.84944V5.84961H9.59961ZM10.5 7.4502L11 7.45024V7.4502H10.5ZM8.5 9.4502V9.9502V9.4502ZM1.5 7.4502H1V7.45024L1.5 7.4502ZM2.40039 5.84961H2.90039V5.84944L2.40039 5.84961ZM1.5 4.25L1 4.25V4.25H1.5ZM3.5 2.25V1.75V2.25ZM1.65731 4.79119L1.48739 5.26144L1.65731 4.79119ZM1.65728 6.90802L1.82719 7.37827L1.65728 6.90802ZM10.3427 6.90802L10.5126 6.43778L10.3427 6.90802ZM10.3427 4.79119L10.1728 4.32095L10.3427 4.79119ZM8.5 2.25V2.75C9.32843 2.75 10 3.42157 10 4.25H10.5H11C11 2.86929 9.88071 1.75 8.5 1.75V2.25ZM10.5 4.25H10V4.58358H10.5H11V4.25H10.5ZM10.3427 4.79119L10.1728 4.32095C9.54802 4.5467 9.09985 5.14523 9.09961 5.84944L9.59961 5.84961L10.0996 5.84978C10.0997 5.58009 10.2712 5.34868 10.5126 5.26144L10.3427 4.79119ZM9.59961 5.84961H9.09961C9.09961 6.55422 9.54812 7.15256 10.1728 7.37827L10.3427 6.90802L10.5126 6.43778C10.271 6.35046 10.0996 6.11914 10.0996 5.84961H9.59961ZM10.5 7.11561H10V7.4502H10.5H11V7.11561H10.5ZM10.5 7.4502L10 7.45015C9.99992 8.27857 9.32831 8.9502 8.5 8.9502V9.4502V9.9502C9.88069 9.9502 10.9999 8.83078 11 7.45024L10.5 7.4502ZM8.5 9.4502V8.9502H3.5V9.4502V9.9502H8.5V9.4502ZM3.5 9.4502V8.9502C2.67169 8.9502 2.00008 8.27857 2 7.45015L1.5 7.4502L1 7.45024C1.00013 8.83078 2.11931 9.9502 3.5 9.9502V9.4502ZM1.5 7.4502H2V7.11561H1.5H1V7.4502H1.5ZM1.65728 6.90802L1.82719 7.37827C2.45188 7.15256 2.90039 6.55422 2.90039 5.84961H2.40039H1.90039C1.90039 6.11914 1.72903 6.35046 1.48738 6.43778L1.65728 6.90802ZM2.40039 5.84961L2.90039 5.84944C2.90015 5.14523 2.45198 4.5467 1.82722 4.32095L1.65731 4.79119L1.48739 5.26144C1.72883 5.34868 1.9003 5.58009 1.90039 5.84978L2.40039 5.84961ZM1.5 4.58358H2V4.25H1.5H1V4.58358H1.5ZM1.5 4.25L2 4.25C2 3.42157 2.67157 2.75 3.5 2.75V2.25V1.75C2.11929 1.75 1 2.86929 1 4.25L1.5 4.25ZM3.5 2.25V2.75H8.5V2.25V1.75H3.5V2.25ZM1.65731 4.79119L1.82722 4.32095C1.89466 4.34532 2 4.4274 2 4.58358H1.5H1C1 4.93001 1.24103 5.17242 1.48739 5.26144L1.65731 4.79119ZM1.5 7.11561H2C2 7.27177 1.89468 7.35388 1.82719 7.37827L1.65728 6.90802L1.48738 6.43778C1.24098 6.5268 1 6.76923 1 7.11561H1.5ZM10.3427 6.90802L10.1728 7.37827C10.1053 7.35388 10 7.27177 10 7.11561H10.5H11C11 6.76923 10.759 6.5268 10.5126 6.43778L10.3427 6.90802ZM10.5 4.58358H10C10 4.4274 10.1053 4.34532 10.1728 4.32095L10.3427 4.79119L10.5126 5.26144C10.759 5.17242 11 4.93001 11 4.58358H10.5Z" fill="#1A1A1A"/>
<circle cx="5.14941" cy="4.9994" r="0.395769" transform="rotate(45 5.14941 4.9994)" fill="#1A1A1A"/>
<circle cx="6.84961" cy="6.6598" r="0.395769" transform="rotate(45 6.84961 6.6598)" fill="#1A1A1A"/>
<path d="M4.99289 6.8577L7.00781 4.84277" stroke="#1A1A1A" stroke-width="0.75" stroke-linecap="round" stroke-linejoin="round"/>
</svg>
