<svg width="16" height="16" viewBox="0 0 16 16" fill="none" xmlns="http://www.w3.org/2000/svg">
<path d="M2.20974 9.21118L2.03986 8.74092L2.20974 9.21118ZM13.7903 9.21115L13.6204 9.6814L13.7903 9.21115ZM13.7903 6.38884L13.9602 6.85909L13.7903 6.38884ZM4.66667 3V2.5C2.91777 2.5 1.5 3.91776 1.5 5.66667H2H2.5C2.5 4.47005 3.47005 3.5 4.66667 3.5V3ZM11.3333 3V2.5H4.66667V3V3.5H11.3333V3ZM14 5.66667H14.5C14.5 3.91777 13.0822 2.5 11.3333 2.5V3V3.5C12.53 3.5 13.5 4.47005 13.5 5.66667H14ZM14 6.11204H14.5V5.66667H14H13.5V6.11204H14ZM12.8 7.8H13.3C13.3 7.36781 13.5745 6.99845 13.9602 6.85909L13.7903 6.38884L13.6204 5.91859C12.8511 6.19653 12.3 6.93327 12.3 7.8H12.8ZM13.7903 9.21115L13.9602 8.74091C13.5745 8.60155 13.3 8.23218 13.3 7.8H12.8H12.3C12.3 8.66672 12.8511 9.40346 13.6204 9.6814L13.7903 9.21115ZM14 9.93334H14.5V9.48795H14H13.5V9.93334H14ZM11.3333 12.6V13.1C13.0822 13.1 14.5 11.6822 14.5 9.93334H14H13.5C13.5 11.13 12.53 12.1 11.3333 12.1V12.6ZM4.66667 12.6V13.1H11.3333V12.6V12.1H4.66667V12.6ZM2 9.93333H1.5C1.5 11.6822 2.91777 13.1 4.66667 13.1V12.6V12.1C3.47005 12.1 2.5 11.13 2.5 9.93333H2ZM2 9.48798H1.5V9.93333H2H2.5V9.48798H2ZM2.20974 9.21118L2.37962 9.68143C3.14894 9.40351 3.70004 8.66675 3.70004 7.8H3.20004H2.70004C2.70004 8.2322 2.42559 8.60157 2.03986 8.74092L2.20974 9.21118ZM3.20004 7.8H3.70004C3.70004 6.93324 3.14894 6.19648 2.37962 5.91856L2.20974 6.38882L2.03986 6.85907C2.42559 6.99842 2.70004 7.3678 2.70004 7.8H3.20004ZM2 5.66667H1.5V6.11202H2H2.5V5.66667H2ZM2.20974 6.38882L2.37962 5.91856C2.40447 5.92754 2.43103 5.94445 2.45393 5.97371C2.47816 6.00469 2.5 6.05281 2.5 6.11202H2H1.5C1.5 6.49015 1.76364 6.75929 2.03986 6.85907L2.20974 6.38882ZM2 9.48798H2.5C2.5 9.54719 2.47816 9.59531 2.45393 9.62628C2.43103 9.65555 2.40447 9.67246 2.37962 9.68143L2.20974 9.21118L2.03986 8.74092C1.76364 8.84071 1.5 9.10985 1.5 9.48798H2ZM13.7903 9.21115L13.6204 9.6814C13.5955 9.67243 13.569 9.65552 13.5461 9.62625C13.5218 9.59528 13.5 9.54716 13.5 9.48795H14H14.5C14.5 9.10984 14.2364 8.8407 13.9602 8.74091L13.7903 9.21115ZM14 6.11204H13.5C13.5 6.05284 13.5218 6.00472 13.5461 5.97374C13.569 5.94448 13.5955 5.92757 13.6204 5.91859L13.7903 6.38884L13.9602 6.85909C14.2364 6.7593 14.5 6.49016 14.5 6.11204H14Z" fill="#1A1A1A"/>
<circle cx="6.86523" cy="6.6657" r="0.527692" transform="rotate(45 6.86523 6.6657)" fill="#1A1A1A"/>
<circle cx="9.19922" cy="8.94622" r="0.527692" transform="rotate(45 9.19922 8.94622)" fill="#1A1A1A"/>
<path d="M6.6562 9.14311L9.34277 6.45654" stroke="#1A1A1A" stroke-width="0.875" stroke-linecap="round" stroke-linejoin="round"/>
</svg>
