<svg width="32" height="32" viewBox="0 0 32 32" fill="none" xmlns="http://www.w3.org/2000/svg">
<path d="M29.334 10.6663H30.209V10.6662L29.334 10.6663ZM26.667 16.0002H25.792V16.0003L26.667 16.0002ZM29.334 21.3333H30.209V21.3333H29.334ZM8 26.6663L7.99995 27.5413H8V26.6663ZM2.66699 21.3333H1.79199V21.3333H2.66699ZM5.33398 16.0002L6.20898 16.0003V16.0002H5.33398ZM2.66699 10.6663L1.79199 10.6662V10.6663H2.66699ZM8 5.33325V4.45825H7.99995L8 5.33325ZM3.08732 12.8482L3.37253 12.021L3.08732 12.8482ZM28.9136 19.1523L29.1987 18.3251L28.9136 19.1523ZM28.9136 12.8472L29.1988 13.6744L28.9136 12.8472ZM24 5.33325V6.20825C26.4623 6.20825 28.4588 8.20431 28.459 10.6663L29.334 10.6663L30.209 10.6662C30.2088 7.23747 27.4285 4.45825 24 4.45825V5.33325ZM29.334 10.6663H28.459V12.2967H29.334H30.209V10.6663H29.334ZM28.9136 12.8472L28.6284 12.02C26.9787 12.5887 25.792 14.1553 25.792 16.0002H26.667H27.542C27.542 14.9243 28.2336 14.0072 29.1988 13.6744L28.9136 12.8472ZM26.667 16.0002L25.792 16.0003C25.7922 17.8453 26.979 19.411 28.6284 19.9795L28.9136 19.1523L29.1987 18.3251C28.2336 17.9924 27.5421 17.0759 27.542 16.0002L26.667 16.0002ZM29.334 19.7028H28.459V21.3333H29.334H30.209V19.7028H29.334ZM29.334 21.3333L28.459 21.3333C28.459 23.7953 26.4625 25.7913 24 25.7913V26.6663V27.5413C27.4286 27.5413 30.209 24.7622 30.209 21.3333H29.334ZM24 26.6663V25.7913H8V26.6663V27.5413H24V26.6663ZM8 26.6663L8.00005 25.7913C5.53784 25.7911 3.54199 23.7954 3.54199 21.3333H2.66699H1.79199C1.79199 24.762 4.57142 27.5411 7.99995 27.5413L8 26.6663ZM2.66699 21.3333H3.54199V19.7018H2.66699H1.79199V21.3333H2.66699ZM3.08731 19.1513L3.37248 19.9785C5.02138 19.4101 6.20881 17.8455 6.20898 16.0003L5.33398 16.0002L4.45898 16.0002C4.45888 17.0753 3.76753 17.9913 2.80214 18.3241L3.08731 19.1513ZM5.33398 16.0002H6.20898C6.20898 14.1551 5.0217 12.5896 3.37253 12.021L3.08732 12.8482L2.8021 13.6754C3.76746 14.0083 4.45898 14.9248 4.45898 16.0002H5.33398ZM2.66699 12.2977H3.54199V10.6663H2.66699H1.79199V12.2977H2.66699ZM2.66699 10.6663L3.54199 10.6663C3.54214 8.20426 5.538 6.2084 8.00005 6.20825L8 5.33325L7.99995 4.45825C4.57148 4.45846 1.7922 7.23774 1.79199 10.6662L2.66699 10.6663ZM8 5.33325V6.20825H24V5.33325V4.45825H8V5.33325ZM3.08732 12.8482L3.37253 12.021C3.40609 12.0326 3.44285 12.0552 3.47526 12.0965C3.50984 12.1405 3.54199 12.2107 3.54199 12.2977H2.66699H1.79199C1.79199 12.9892 2.27453 13.4935 2.8021 13.6754L3.08732 12.8482ZM2.66699 19.7018H3.54199C3.54199 19.7888 3.50985 19.859 3.47525 19.903C3.44284 19.9443 3.40606 19.9669 3.37248 19.9785L3.08731 19.1513L2.80214 18.3241C2.27451 18.506 1.79199 19.0103 1.79199 19.7018H2.66699ZM28.9136 19.1523L28.6284 19.9795C28.5949 19.968 28.5581 19.9453 28.5257 19.9041C28.4911 19.8601 28.459 19.7898 28.459 19.7028H29.334H30.209C30.209 19.0112 29.7263 18.5069 29.1987 18.3251L28.9136 19.1523ZM29.334 12.2967H28.459C28.459 12.2097 28.4911 12.1394 28.5257 12.0954C28.5581 12.0542 28.5949 12.0316 28.6284 12.02L28.9136 12.8472L29.1988 13.6744C29.7263 13.4926 30.209 12.9883 30.209 12.2967H29.334Z" fill="#1A1A1A"/>
<circle cx="13.0645" cy="13.0646" r="1.05538" transform="rotate(45 13.0645 13.0646)" fill="#1A1A1A"/>
<circle cx="18.9355" cy="18.9349" r="1.05538" transform="rotate(45 18.9355 18.9349)" fill="#1A1A1A"/>
<path d="M13.0152 18.9846L18.9854 13.0144" stroke="#1A1A1A" stroke-width="1.75" stroke-linecap="round" stroke-linejoin="round"/>
</svg>
