<svg width="12" height="12" viewBox="0 0 12 12" fill="none" xmlns="http://www.w3.org/2000/svg">
<path d="M9.75 3C9.75 3.70051 8.34251 4.5 6.375 4.5C4.40749 4.5 2.625 3.70051 2.625 3M9.75 3C9.75 2.29949 8.34251 1.875 6.375 1.875C4.40749 1.875 2.625 2.29949 2.625 3M9.75 3V9.375C9.75 10.0755 8.34251 10.5 6.375 10.5C4.40749 10.5 2.625 10.0755 2.625 9.375V3M9.75 5.25C9.75 5.95051 8.34251 6.375 6.375 6.375C4.40749 6.375 2.625 5.95051 2.625 5.25M9.75 7.125C9.75 7.82551 8.34251 8.25 6.375 8.25C4.40749 8.25 2.625 7.82551 2.625 7.125" stroke="#1A1A1A"/>
</svg>
