<svg preserveAspectRatio="none" width="100%" height="100%" overflow="visible" style="display: block;" viewBox="0 0 19.0752 19.0752" fill="none" xmlns="http://www.w3.org/2000/svg">
<path id="Union" fill-rule="evenodd" clip-rule="evenodd" d="M0 15.3252V3.75C0 1.67893 1.67893 0 3.75 0H8.63672C9.05082 0.000135637 9.38672 0.33587 9.38672 0.75C9.38672 1.16413 9.05082 1.49986 8.63672 1.5H3.75C2.50736 1.5 1.5 2.50736 1.5 3.75V15.3252C1.5 16.5678 2.50736 17.5752 3.75 17.5752H15.3252C16.5678 17.5752 17.5752 16.5678 17.5752 15.3252V11.1152C17.5752 10.7011 17.9111 10.3654 18.3252 10.3652C18.7394 10.3652 19.0752 10.701 19.0752 11.1152V15.3252C19.0752 17.3963 17.3963 19.0752 15.3252 19.0752H3.75C1.67893 19.0752 0 17.3963 0 15.3252ZM17.5751 2.5614V5.48145C17.5751 5.89551 17.9111 6.23121 18.3251 6.23145C18.7393 6.23145 19.0751 5.89566 19.0751 5.48145V2.25C19.0751 1.00736 18.0677 0 16.8251 0H13.5937C13.1794 0 12.8437 0.335786 12.8437 0.75C12.8437 1.16421 13.1794 1.5 13.5937 1.5H16.5154L11.7114 6.30398C11.4187 6.59689 11.4186 7.07169 11.7114 7.36453C12.0043 7.6572 12.4791 7.6572 12.772 7.36453L17.5751 2.5614Z" fill="var(--fill-0, #1A1A1A)"/>
</svg>
