<svg preserveAspectRatio="none" width="100%" height="100%" overflow="visible" style="display: block;" viewBox="0 0 87.5 32.5" fill="none" xmlns="http://www.w3.org/2000/svg">
<g id="&#231;&#188;&#150;&#231;&#187;&#132;">
<path id="&#231;&#159;&#169;&#229;&#189;&#162;" opacity="0.5" d="M0.25 16C0.25 7.30152 7.30151 0.25 16 0.25H71.5C80.1985 0.25 87.25 7.30152 87.25 16V16.5C87.25 25.1985 80.1985 32.25 71.5 32.25H16C7.30152 32.25 0.25 25.1985 0.25 16.5V16Z" fill="var(--fill-0, white)" stroke="var(--stroke-1, #EBEBEB)" stroke-width="0.5"/>
<path id="&#229;&#189;&#162;&#231;&#138;&#182;&#231;&#187;&#147;&#229;&#144;&#136;" d="M65.75 7.47581C70.4444 7.47581 74.25 11.4044 74.25 16.2502C74.2499 21.096 70.4443 25.0246 65.75 25.0246C61.0557 25.0246 57.2501 21.096 57.25 16.2502C57.25 11.4044 61.0556 7.47581 65.75 7.47581ZM65.75 9.54026C62.1601 9.54026 59.25 12.5446 59.25 16.2502C59.2501 19.9558 62.1602 22.9592 65.75 22.9592C69.3398 22.9592 72.2499 19.9558 72.25 16.2502C72.25 12.5446 69.3399 9.54026 65.75 9.54026ZM65.75 12.6369C67.683 12.6369 69.25 14.2549 69.25 16.2502C69.2499 18.2455 67.6829 19.8625 65.75 19.8625C63.8171 19.8625 62.2501 18.2455 62.25 16.2502C62.25 14.2549 63.817 12.6369 65.75 12.6369Z" fill="var(--fill-0, #101010)"/>
<path id="&#229;&#189;&#162;&#231;&#138;&#182;&#231;&#187;&#147;&#229;&#144;&#136;_2" d="M23.25 13.6694C24.9068 13.6694 26.25 15.0558 26.25 16.766C26.25 18.4763 24.9069 19.8627 23.25 19.8627C21.5931 19.8627 20.25 18.4763 20.25 16.766C20.25 15.0558 21.5932 13.6694 23.25 13.6694ZM15.75 14.7016C16.8546 14.7016 17.75 15.6258 17.75 16.766C17.75 17.9062 16.8546 18.8305 15.75 18.8305C14.6454 18.8305 13.75 17.9062 13.75 16.766C13.75 15.6258 14.6454 14.7016 15.75 14.7016ZM30.25 14.7016C31.3546 14.7016 32.25 15.6258 32.25 16.766C32.25 17.9062 31.3546 18.8305 30.25 18.8305C29.1454 18.8305 28.25 17.9062 28.25 16.766C28.25 15.6258 29.1454 14.7016 30.25 14.7016Z" fill="var(--fill-0, black)"/>
<rect id="&#231;&#159;&#169;&#229;&#189;&#162;_2" x="43.75" y="7.47581" width="0.5" height="18.5806" fill="var(--fill-0, #E3E3E3)"/>
</g>
</svg>
