<svg width="12" height="12" viewBox="0 0 12 12" fill="none" xmlns="http://www.w3.org/2000/svg">
<path d="M9.40485 10.0668L9.75688 10.4219V10.4219L9.40485 10.0668ZM1.85952 2.58582L1.50749 2.23075L1.50749 2.23075L1.85952 2.58582ZM2.61405 1.83772L2.26202 1.48265L2.26202 1.48265L2.61405 1.83772ZM4.12312 1.83772L4.47516 1.48265V1.48265L4.12312 1.83772ZM5.25492 2.95987L4.90288 3.31493V3.31493L5.25492 2.95987ZM5.25492 4.45606L4.90288 4.101L5.25492 4.45606ZM9.02758 6.70036L9.37962 6.34529V6.34529L9.02758 6.70036ZM10.1594 7.8225L9.80734 8.17757V8.17757L10.1594 7.8225ZM10.1594 9.3187L9.80734 8.96364V8.96364L10.1594 9.3187ZM5.25 6L4.89645 6.35355L4.91037 6.36747L4.92534 6.38026L5.25 6ZM6.80589 6.70355C6.60107 6.88876 6.58518 7.20494 6.77039 7.40976C6.9556 7.61458 7.27178 7.63048 7.4766 7.44527L7.14125 7.07441L6.80589 6.70355ZM5.56235 8.60957C5.34672 8.43706 5.03207 8.47202 4.85957 8.68765C4.68706 8.90328 4.72202 9.21793 4.93765 9.39043L5.25 9L5.56235 8.60957ZM1.85952 2.58582L1.50749 2.23075C0.776621 2.95539 0.930165 4.02403 1.37216 4.98877C1.83032 5.98877 2.68735 7.10307 3.77108 8.17757L4.12312 7.8225L4.47516 7.46744C3.43637 6.43751 2.67006 5.42081 2.28129 4.57225C1.87636 3.68841 1.95936 3.19093 2.21156 2.94088L1.85952 2.58582ZM4.12312 1.83772L4.47516 1.48265C4.16321 1.17337 3.77405 0.997196 3.3597 1.00003C2.94683 1.00286 2.56425 1.183 2.26202 1.48265L2.61405 1.83772L2.96609 2.19278C3.1107 2.0494 3.25195 2.00079 3.36655 2.00001C3.47966 1.99924 3.62161 2.04458 3.77108 2.19278L4.12312 1.83772ZM5.25492 2.95987L5.60695 2.6048L4.47516 1.48265L4.12312 1.83772L3.77108 2.19278L4.90288 3.31493L5.25492 2.95987ZM5.25492 4.45606L5.60695 4.81113C5.90907 4.51158 6.09263 4.13038 6.09551 3.71686C6.0984 3.30179 5.9188 2.91399 5.60695 2.6048L5.25492 2.95987L4.90288 3.31493C5.05245 3.46323 5.09628 3.602 5.09553 3.7099C5.09477 3.81935 5.04761 3.9575 4.90288 4.101L5.25492 4.45606ZM5.63218 6.32631L5.95685 5.94605L5.57466 5.61974L5.25 6L4.92534 6.38026L5.30752 6.70656L5.63218 6.32631ZM10.1594 7.8225L10.5114 7.46744L9.37962 6.34529L9.02758 6.70036L8.67554 7.05542L9.80734 8.17757L10.1594 7.8225ZM10.1594 9.3187L10.5114 9.67377C10.8135 9.37422 10.9971 8.99302 11 8.5795C11.0029 8.16443 10.8233 7.77663 10.5114 7.46744L10.1594 7.8225L9.80734 8.17757C9.95691 8.32587 10.0007 8.46464 9.99999 8.57254C9.99923 8.68199 9.95207 8.82014 9.80734 8.96364L10.1594 9.3187ZM2.61405 1.83772L2.26202 1.48265L1.50749 2.23075L1.85952 2.58582L2.21156 2.94088L2.96609 2.19278L2.61405 1.83772ZM9.40485 10.0668L9.75688 10.4219L10.5114 9.67377L10.1594 9.3187L9.80734 8.96364L9.05281 9.71174L9.40485 10.0668ZM5.25 9L4.93765 9.39043C5.90404 10.1635 6.81326 10.6708 7.61773 10.8708C8.43059 11.0729 9.20296 10.9711 9.75688 10.4219L9.40485 10.0668L9.05281 9.71174C8.82758 9.93505 8.46003 10.0498 7.85901 9.90036C7.24959 9.74885 6.47096 9.33645 5.56235 8.60957L5.25 9ZM9.02758 6.70036L9.37962 6.34529C9.14846 6.11611 8.89334 5.95998 8.61163 5.89756C8.3274 5.83458 8.06368 5.87753 7.83569 5.96631C7.41729 6.12924 7.05052 6.48234 6.80589 6.70355L7.14125 7.07441L7.4766 7.44527C7.77837 7.17239 7.99185 6.97864 8.19855 6.89815C8.28311 6.86523 8.34316 6.86233 8.39529 6.87388C8.44994 6.88599 8.54378 6.92478 8.67554 7.05542L9.02758 6.70036ZM5.25 6L5.60355 5.64645C5.30352 5.34642 5.33473 5.20314 5.34181 5.17094C5.36189 5.07969 5.44094 4.97573 5.60695 4.81113L5.25492 4.45606L4.90288 4.101C4.75499 4.24763 4.45658 4.54064 4.36517 4.95605C4.26078 5.43051 4.44648 5.90358 4.89645 6.35355L5.25 6Z" fill="#1A1A1A"/>
<path d="M9.70634 2.35724L2.25 9.75" stroke="#1A1A1A" stroke-linecap="round" stroke-linejoin="round"/>
</svg>
