<svg width="16" height="16" viewBox="0 0 16 16" fill="none" xmlns="http://www.w3.org/2000/svg">
<path d="M12.5398 13.4224L12.8918 13.7775V13.7775L12.5398 13.4224ZM2.47936 3.44775L2.12733 3.09269L2.12733 3.09269L2.47936 3.44775ZM3.48541 2.45029L3.13337 2.09523V2.09523L3.48541 2.45029ZM5.49749 2.45029L5.84953 2.09523V2.09523L5.49749 2.45029ZM7.00656 3.94649L6.65452 4.30155V4.30155L7.00656 3.94649ZM7.00656 5.94142L6.65452 5.58635L7.00656 5.94142ZM12.0368 8.93381L12.3888 8.57875V8.57875L12.0368 8.93381ZM13.5458 10.43L13.1938 10.7851V10.7851L13.5458 10.43ZM13.5458 12.4249L13.1938 12.0699V12.0699L13.5458 12.4249ZM7 8L6.64645 8.35355L6.66037 8.36747L6.67534 8.38026L7 8ZM9.18631 9.06168C8.98149 9.24689 8.96559 9.56308 9.1508 9.7679C9.33602 9.97272 9.6522 9.98861 9.85702 9.8034L9.52166 9.43254L9.18631 9.06168ZM7.31235 11.6096C7.09672 11.4371 6.78207 11.472 6.60957 11.6877C6.43706 11.9033 6.47202 12.2179 6.68765 12.3904L7 12L7.31235 11.6096ZM2.47936 3.44775L2.12733 3.09269C1.23262 3.97977 1.39792 5.30944 1.98107 6.58227C2.58039 7.89037 3.70797 9.35984 5.14546 10.7851L5.49749 10.43L5.84953 10.0749C4.45699 8.69428 3.42013 7.32241 2.8902 6.16575C2.34411 4.97382 2.41536 4.21531 2.8314 3.80282L2.47936 3.44775ZM5.49749 2.45029L5.84953 2.09523C5.46068 1.7097 4.983 1.4966 4.48074 1.50004C3.97996 1.50347 3.51008 1.72173 3.13337 2.09523L3.48541 2.45029L3.83744 2.80535C4.05653 2.58813 4.28508 2.5014 4.48759 2.50002C4.68861 2.49864 4.91908 2.5809 5.14546 2.80535L5.49749 2.45029ZM7.00656 3.94649L7.35859 3.59142L5.84953 2.09523L5.49749 2.45029L5.14546 2.80535L6.65452 4.30155L7.00656 3.94649ZM7.00656 5.94142L7.35859 6.29648C7.73519 5.9231 7.95719 5.45534 7.96068 4.95466C7.96418 4.45243 7.74734 3.97686 7.35859 3.59142L7.00656 3.94649L6.65452 4.30155C6.881 4.5261 6.96206 4.75263 6.9607 4.94769C6.95933 5.1443 6.87372 5.36902 6.65452 5.58635L7.00656 5.94142ZM7.50958 8.43508L7.83424 8.05482L7.32466 7.61974L7 8L6.67534 8.38026L7.18492 8.81533L7.50958 8.43508ZM13.5458 10.43L13.8979 10.0749L12.3888 8.57875L12.0368 8.93381L11.6847 9.28887L13.1938 10.7851L13.5458 10.43ZM13.5458 12.4249L13.8979 12.78C14.2745 12.4066 14.4965 11.9389 14.5 11.4382C14.5035 10.9359 14.2866 10.4604 13.8979 10.0749L13.5458 10.43L13.1938 10.7851C13.4203 11.0096 13.5013 11.2362 13.5 11.4312C13.4986 11.6278 13.413 11.8525 13.1938 12.0699L13.5458 12.4249ZM3.48541 2.45029L3.13337 2.09523L2.12733 3.09269L2.47936 3.44775L2.8314 3.80282L3.83744 2.80535L3.48541 2.45029ZM12.5398 13.4224L12.8918 13.7775L13.8979 12.78L13.5458 12.4249L13.1938 12.0699L12.1878 13.0673L12.5398 13.4224ZM7 12L6.68765 12.3904C7.96654 13.4135 9.15706 14.0741 10.1972 14.3327C11.2457 14.5934 12.2081 14.4554 12.8918 13.7775L12.5398 13.4224L12.1878 13.0673C11.8327 13.4194 11.2751 13.5702 10.4385 13.3622C9.5934 13.1521 8.53346 12.5865 7.31235 11.6096L7 12ZM12.0368 8.93381L12.3888 8.57875C12.0972 8.28959 11.7839 8.10098 11.4461 8.02613C11.1058 7.95073 10.7882 8.00132 10.5081 8.11039C9.98548 8.31388 9.52201 8.75812 9.18631 9.06168L9.52166 9.43254L9.85702 9.8034C10.2498 9.44818 10.56 9.16329 10.8709 9.04223C11.0076 8.98902 11.1216 8.97848 11.2298 9.00245C11.3405 9.02698 11.4925 9.09826 11.6847 9.28887L12.0368 8.93381ZM7 8L7.35355 7.64645C6.92852 7.22142 6.93398 6.97542 6.95964 6.85877C6.9983 6.68308 7.14026 6.51295 7.35859 6.29648L7.00656 5.94142L6.65452 5.58635C6.45431 5.78485 6.09299 6.14402 5.983 6.64388C5.86003 7.20278 6.07148 7.77858 6.64645 8.35355L7 8Z" fill="#1A1A1A"/>
<path d="M12.9418 3.14298L3 13" stroke="#1A1A1A" stroke-linecap="round" stroke-linejoin="round"/>
</svg>
