<svg width="24" height="24" viewBox="0 0 24 24" fill="none" xmlns="http://www.w3.org/2000/svg">
<path d="M19.0621 20.2183L19.5924 20.7486V20.7486L19.0621 20.2183ZM3.7817 4.93795L3.25137 4.40762L3.25137 4.40762L3.7817 4.93795ZM5.06847 3.65118L5.5988 4.18151L5.06847 3.65118ZM8.33784 3.70363L8.86817 3.1733L8.33784 3.70363ZM10.3309 5.69672L9.80059 6.22705L10.3309 5.69672ZM10.3834 8.96609L10.9137 9.49642L10.9137 9.49642L10.3834 8.96609ZM15.0339 13.6166L15.5642 14.147L15.5642 14.147L15.0339 13.6166ZM18.3033 13.6691L18.8336 13.1387H18.8336L18.3033 13.6691ZM20.2964 15.6622L19.766 16.1925V16.1925L20.2964 15.6622ZM20.3488 18.9315L19.8185 18.4012V18.4012L20.3488 18.9315ZM14.7575 13.893L14.2272 13.3627L14.2272 13.3627L14.7575 13.893ZM10.107 9.24247L9.57666 8.71214L9.57666 8.71214L10.107 9.24247ZM10.0261 11.0359L9.44763 11.5132L10.0261 11.0359ZM13.8973 13.5266C13.487 13.5833 13.2003 13.9619 13.2571 14.3722C13.3138 14.7825 13.6924 15.0692 14.1027 15.0124L14 14.2695L13.8973 13.5266ZM11.0159 17.8147C10.6804 17.5719 10.2115 17.647 9.96862 17.9826C9.72576 18.3181 9.8009 18.787 10.1365 19.0299L10.5762 18.4223L11.0159 17.8147ZM3.7817 4.93795L3.25137 4.40762C1.94366 5.71534 2.04947 7.85473 2.81319 9.93622C3.60074 12.0827 5.18405 14.4782 7.35294 16.6471L7.88327 16.1167L8.4136 15.5864C6.36295 13.5357 4.91831 11.319 4.22139 9.41954C3.50063 7.45511 3.66544 6.11488 4.31203 5.46828L3.7817 4.93795ZM8.33784 3.70363L8.86817 3.1733C7.67415 1.97928 5.73527 1.92372 4.53814 3.12085L5.06847 3.65118L5.5988 4.18151C6.17832 3.60199 7.16694 3.59339 7.80751 4.23396L8.33784 3.70363ZM10.3309 5.69672L10.8613 5.16639L8.86817 3.1733L8.33784 3.70363L7.80751 4.23396L9.80059 6.22705L10.3309 5.69672ZM10.3834 8.96609L10.9137 9.49642C12.1108 8.29928 12.0553 6.36041 10.8613 5.16639L10.3309 5.69672L9.80059 6.22705C10.4412 6.86762 10.4326 7.85623 9.85304 8.43576L10.3834 8.96609ZM10.107 9.24247L10.6373 9.7728L10.9137 9.49642L10.3834 8.96609L9.85304 8.43576L9.57666 8.71214L10.107 9.24247ZM11.4219 12.5781L11.9522 12.0478C11.4691 11.5647 11.0217 11.064 10.6046 10.5585L10.0261 11.0359L9.44763 11.5132C9.89023 12.0496 10.3697 12.5866 10.8915 13.1085L11.4219 12.5781ZM15.0339 13.6166L14.5036 13.0863L14.2272 13.3627L14.7575 13.893L15.2879 14.4233L15.5642 14.147L15.0339 13.6166ZM18.3033 13.6691L18.8336 13.1387C17.6396 11.9447 15.7007 11.8892 14.5036 13.0863L15.0339 13.6166L15.5642 14.147C16.1438 13.5674 17.1324 13.5588 17.7729 14.1994L18.3033 13.6691ZM20.2964 15.6622L20.8267 15.1318L18.8336 13.1387L18.3033 13.6691L17.7729 14.1994L19.766 16.1925L20.2964 15.6622ZM20.3488 18.9315L20.8791 19.4619C22.0763 18.2647 22.0207 16.3259 20.8267 15.1318L20.2964 15.6622L19.766 16.1925C20.4066 16.8331 20.398 17.8217 19.8185 18.4012L20.3488 18.9315ZM10.107 9.24247L9.57666 8.71214C8.82565 9.46315 8.75424 10.673 9.44763 11.5132L10.0261 11.0359L10.6046 10.5585C10.4067 10.3187 10.4291 9.98103 10.6373 9.7728L10.107 9.24247ZM5.06847 3.65118L4.53814 3.12085L3.25137 4.40762L3.7817 4.93795L4.31203 5.46828L5.5988 4.18151L5.06847 3.65118ZM19.0621 20.2183L19.5924 20.7486L20.8791 19.4619L20.3488 18.9315L19.8185 18.4012L18.5317 19.688L19.0621 20.2183ZM14 14.2695L14.1027 15.0124C14.5392 14.9521 14.9582 14.753 15.2879 14.4233L14.7575 13.893L14.2272 13.3627C14.1355 13.4544 14.0197 13.5096 13.8973 13.5266L14 14.2695ZM12.151 13.2716L12.6546 12.7157C12.4173 12.5008 12.1827 12.2783 11.9522 12.0478L11.4219 12.5781L10.8915 13.1085C11.1407 13.3576 11.3932 13.597 11.6475 13.8274L12.151 13.2716ZM7.88327 16.1167L7.35294 16.6471C7.56324 16.8574 7.7755 17.062 7.98927 17.2608L8.5 16.7115L9.01073 16.1623C8.81026 15.9759 8.61108 15.7839 8.4136 15.5864L7.88327 16.1167ZM10.5762 18.4223L10.1365 19.0299C11.9279 20.3265 13.756 21.219 15.3791 21.5759C16.9781 21.9276 18.5526 21.7884 19.5924 20.7486L19.0621 20.2183L18.5317 19.688C18.0226 20.1971 17.09 20.4163 15.7012 20.1109C14.3366 19.8108 12.6961 19.0308 11.0159 17.8147L10.5762 18.4223Z" fill="#1A1A1A"/>
<path d="M20 5L5 20" stroke="#1A1A1A" stroke-width="1.5" stroke-linecap="round" stroke-linejoin="round"/>
</svg>
