<svg width="32" height="32" viewBox="0 0 32 32" fill="none" xmlns="http://www.w3.org/2000/svg">
<path d="M5.00028 7.00004L4.38157 6.38132L4.38156 6.38132L5.00028 7.00004ZM7.00028 5.00004L6.38157 4.38132V4.38132L7.00028 5.00004ZM11.0003 5.00004L11.619 4.38132V4.38132L11.0003 5.00004ZM14.0003 8.00004L13.3816 8.61875V8.61875L14.0003 8.00004ZM13.0003 12L13.619 12.6188L13.619 12.6188L13.0003 12ZM13.0003 15L12.3254 15.557V15.557L13.0003 15ZM18.3816 18.3813C18.0399 18.723 18.0399 19.277 18.3816 19.6188C18.7233 19.9605 19.2773 19.9605 19.619 19.6188L19.0003 19L18.3816 18.3813ZM14.5133 24.2912C14.1218 24.0079 13.5748 24.0955 13.2915 24.487C13.0081 24.8785 13.0958 25.4255 13.4873 25.7089L14.0003 25L14.5133 24.2912ZM5.00028 7.00004L4.38156 6.38132C3.5141 7.24879 3.19546 8.39268 3.25136 9.61381C3.30643 10.817 3.7231 12.1404 4.37468 13.4964C5.67983 16.2125 8.02829 19.2655 10.8816 22.1187L11.5003 21.5L12.119 20.8813C9.34621 18.1085 7.1418 15.2144 5.95202 12.7384C5.35614 11.4984 5.03984 10.4145 4.99953 9.53379C4.96003 8.67096 5.1836 8.05416 5.619 7.61875L5.00028 7.00004ZM11.0003 5.00004L11.619 4.38132C10.866 3.62831 9.94499 3.21558 8.97976 3.22225C8.01718 3.22889 7.11102 3.65186 6.38157 4.38132L7.00028 5.00004L7.619 5.61875C8.07398 5.16378 8.5563 4.97521 8.99184 4.97221C9.42474 4.96922 9.91152 5.1487 10.3816 5.61875L11.0003 5.00004ZM14.0003 8.00004L14.619 7.38132L11.619 4.38132L11.0003 5.00004L10.3816 5.61875L13.3816 8.61875L14.0003 8.00004ZM15.0003 17L15.619 16.3813C14.8681 15.6304 14.2168 15.0995 13.6752 14.4431L13.0003 15L12.3254 15.557C12.9301 16.2897 13.7925 17.0297 14.3816 17.6188L15.0003 17ZM24.0003 18L24.619 17.3813C23.866 16.6283 22.945 16.2156 21.9798 16.2222C21.0172 16.2289 20.111 16.6519 19.3816 17.3813L20.0003 18L20.619 18.6188C21.074 18.1638 21.5563 17.9752 21.9918 17.9722C22.4247 17.9692 22.9115 18.1487 23.3816 18.6188L24.0003 18ZM27.0003 21L27.619 20.3813L24.619 17.3813L24.0003 18L23.3816 18.6188L26.3816 21.6188L27.0003 21ZM27.0003 25L27.619 25.6188C28.3485 24.8893 28.7714 23.9831 28.7781 23.0206C28.7847 22.0553 28.372 21.1343 27.619 20.3813L27.0003 21L26.3816 21.6188C26.8516 22.0888 27.0311 22.5756 27.0281 23.0085C27.0251 23.444 26.8365 23.9263 26.3816 24.3813L27.0003 25ZM13.0003 12L12.3816 11.3813C11.8192 11.9437 11.6561 12.7995 11.6627 13.4784C11.6695 14.172 11.8548 14.9867 12.3254 15.557L13.0003 15L13.6752 14.4431C13.5516 14.2933 13.4172 13.9277 13.4126 13.4613C13.4079 12.98 13.5419 12.6959 13.619 12.6188L13.0003 12ZM7.00028 5.00004L6.38157 4.38132L4.38157 6.38132L5.00028 7.00004L5.619 7.61875L7.619 5.61875L7.00028 5.00004ZM25.0003 27L25.619 27.6188L27.619 25.6188L27.0003 25L26.3816 24.3813L24.3816 26.3813L25.0003 27ZM16.0003 18L16.5878 17.3516C16.2792 17.072 15.9798 16.7421 15.619 16.3813L15.0003 17L14.3816 17.6188C14.6603 17.8975 15.066 18.3343 15.4128 18.6485L16.0003 18ZM14.0003 25L13.4873 25.7089C15.8727 27.4353 18.2279 28.5233 20.3088 28.8924C22.384 29.2605 24.3115 28.9263 25.619 27.6188L25.0003 27L24.3816 26.3813C23.6238 27.1391 22.3658 27.4799 20.6145 27.1693C18.869 26.8597 16.7569 25.915 14.5133 24.2912L14.0003 25ZM20.0003 18L19.3816 17.3813L18.3816 18.3813L19.0003 19L19.619 19.6188L20.619 18.6188L20.0003 18ZM13.0003 12L13.619 12.6188C14.339 11.8987 15.0917 11.1158 15.4075 10.2676C15.58 9.80447 15.6341 9.29953 15.4889 8.77221C15.3477 8.25927 15.0389 7.80123 14.619 7.38132L14.0003 8.00004L13.3816 8.61875C13.6613 8.89852 13.7648 9.10281 13.8017 9.23669C13.8346 9.35618 13.8325 9.48253 13.7675 9.65695C13.6086 10.0839 13.1615 10.6013 12.3816 11.3813L13.0003 12Z" fill="#1A1A1A"/>
<path d="M26.799 7.20101L7 27" stroke="#1A1A1A" stroke-width="1.75" stroke-linecap="round" stroke-linejoin="round"/>
</svg>
