<svg width="12" height="12" viewBox="0 0 12 12" fill="none" xmlns="http://www.w3.org/2000/svg">
<path d="M7.3125 0.125C7.62316 0.125 7.875 0.37684 7.875 0.6875V2C7.875 2.26201 7.81972 2.51082 7.72266 2.7373C8.2194 2.89582 8.64362 3.21416 8.93848 3.63086C8.95854 3.62754 8.979 3.625 9 3.625H10C10.2071 3.625 10.375 3.79289 10.375 4C10.375 4.20711 10.2071 4.375 10 4.375H9.28906C9.34337 4.57436 9.375 4.78343 9.375 5V6C9.375 6.02072 9.3714 6.04074 9.36816 6.06055C9.97667 6.4906 10.375 7.19819 10.375 8V9C10.375 9.75939 9.75939 10.375 9 10.375H7.32227C7.15895 10.952 6.6293 11.375 6 11.375C5.3707 11.375 4.84105 10.952 4.67773 10.375H3C2.24061 10.375 1.625 9.75939 1.625 9V8C1.625 7.19848 2.02272 6.49064 2.63086 6.06055C2.62764 6.04079 2.625 6.02067 2.625 6V5C2.625 4.78343 2.65663 4.57436 2.71094 4.375H2C1.79289 4.375 1.625 4.20711 1.625 4C1.625 3.79289 1.79289 3.625 2 3.625H3C3.02067 3.625 3.04079 3.62764 3.06055 3.63086C3.35524 3.21418 3.77982 2.89597 4.27637 2.7373C4.1794 2.51091 4.125 2.26188 4.125 2V1.88477C4.125 0.912957 4.91296 0.125 5.88477 0.125H7.3125ZM5.83691 8.375C5.58188 8.37516 5.37516 8.58188 5.375 8.83691V10C5.375 10.3452 5.65482 10.625 6 10.625C6.34518 10.625 6.625 10.3452 6.625 10V8.83691C6.62484 8.58188 6.41812 8.37516 6.16309 8.375H5.83691ZM4 6.375C3.10254 6.375 2.375 7.10254 2.375 8V9C2.375 9.34518 2.65482 9.625 3 9.625H4.625V8.83691C4.62516 8.16766 5.16766 7.62516 5.83691 7.625H6.16309C6.83234 7.62516 7.37484 8.16766 7.375 8.83691V9.625H9C9.34518 9.625 9.625 9.34518 9.625 9V8C9.625 7.10254 8.89746 6.375 8 6.375H4ZM7.24805 3.39551C6.91633 3.69238 6.48019 3.875 6 3.875C5.51955 3.875 5.08276 3.69266 4.75098 3.39551C3.97184 3.51545 3.375 4.18729 3.375 5V5.70996C3.57428 5.6557 3.78352 5.625 4 5.625H8C8.21648 5.625 8.42572 5.6557 8.625 5.70996V5C8.625 4.18696 8.02765 3.51504 7.24805 3.39551ZM5.88477 0.875C5.32717 0.875 4.875 1.32717 4.875 1.88477V2C4.875 2.23428 4.94681 2.4517 5.06934 2.63184C5.22041 2.66011 5.33846 2.77877 5.36719 2.92969C5.54754 3.05268 5.76523 3.125 6 3.125C6.23448 3.125 6.45162 3.05241 6.63184 2.92969C6.66044 2.779 6.779 2.66044 6.92969 2.63184C7.05241 2.45162 7.125 2.23448 7.125 2V0.875H5.88477Z" fill="#1A1A1A"/>
</svg>
