<svg width="16" height="16" viewBox="0 0 16 16" fill="none" xmlns="http://www.w3.org/2000/svg">
<path d="M9.80957 0.5C10.1909 0.500025 10.5 0.809127 10.5 1.19043V3C10.5 3.18557 10.4778 3.36599 10.4395 3.54004C11.0741 3.65265 11.6237 4.00519 11.9961 4.5H14C14.2761 4.5 14.5 4.72386 14.5 5C14.5 5.27614 14.2761 5.5 14 5.5H12.4502C12.483 5.66154 12.5 5.82878 12.5 6V7.83594C13.6827 8.3976 14.5 9.60367 14.5 11V12.5C14.5 13.6046 13.6046 14.5 12.5 14.5H9.99609C9.5399 15.1061 8.81703 15.5 8 15.5C7.18297 15.5 6.4601 15.1061 6.00391 14.5H3.5C2.39543 14.5 1.5 13.6046 1.5 12.5V11C1.5 9.60367 2.31734 8.3976 3.5 7.83594V6C3.5 5.82878 3.51702 5.66154 3.5498 5.5H2C1.72386 5.5 1.5 5.27614 1.5 5C1.5 4.72386 1.72386 4.5 2 4.5H4.00293C4.37517 4.00519 4.92511 3.65287 5.55957 3.54004C5.52124 3.36606 5.5 3.1855 5.5 3C5.5 1.61929 6.61929 0.5 8 0.5H9.80957ZM7.25586 11C6.83843 11 6.5 11.3384 6.5 11.7559V13C6.5 13.8284 7.17157 14.5 8 14.5C8.82843 14.5 9.5 13.8284 9.5 13V11.7559C9.5 11.3384 9.16157 11 8.74414 11H7.25586ZM5 8.5C3.61929 8.5 2.5 9.61929 2.5 11V12.5C2.5 13.0523 2.94772 13.5 3.5 13.5H5.5498C5.51702 13.3385 5.5 13.1712 5.5 13V11.7559C5.5 10.7862 6.28615 10 7.25586 10H8.74414C9.71385 10 10.5 10.7862 10.5 11.7559V13C10.5 13.1712 10.483 13.3385 10.4502 13.5H12.5C13.0523 13.5 13.5 13.0523 13.5 12.5V11C13.5 9.61929 12.3807 8.5 11 8.5H5ZM6 4.5C5.17157 4.5 4.5 5.17157 4.5 6V7.53516C4.66329 7.5118 4.83025 7.5 5 7.5H11C11.1697 7.5 11.3367 7.5118 11.5 7.53516V6C11.5 5.17157 10.8284 4.5 10 4.5H9.99609C9.5399 5.10611 8.81703 5.5 8 5.5C7.18297 5.5 6.4601 5.10611 6.00391 4.5H6ZM8 1.5C7.17157 1.5 6.5 2.17157 6.5 3C6.5 3.82843 7.17157 4.5 8 4.5C8.82843 4.5 9.5 3.82843 9.5 3V1.5H8Z" fill="#1A1A1A"/>
</svg>
