<svg width="24" height="24" viewBox="0 0 24 24" fill="none" xmlns="http://www.w3.org/2000/svg">
<path d="M14.667 1.25C15.265 1.25018 15.7498 1.73496 15.75 2.33301V4C15.75 4.53631 15.6354 5.04546 15.4326 5.50684C15.8684 5.67946 16.2624 5.93379 16.5977 6.25H21C21.4142 6.25 21.75 6.58579 21.75 7C21.75 7.41421 21.4142 7.75 21 7.75H17.5596C17.6826 8.11665 17.75 8.50893 17.75 8.91699V9.75488C19.5238 10.5975 20.75 12.4057 20.75 14.5V17.75C20.75 19.4069 19.4069 20.75 17.75 20.75H15.3164C14.6876 21.9392 13.4388 22.75 12 22.75C10.5612 22.75 9.31242 21.9392 8.68359 20.75H6.25C4.59315 20.75 3.25 19.4069 3.25 17.75V14.5C3.25 12.4057 4.47622 10.5975 6.25 9.75488V8.5C6.25 8.24179 6.28099 7.99082 6.33789 7.75H3C2.58579 7.75 2.25 7.41421 2.25 7C2.25 6.58579 2.58579 6.25 3 6.25H7C7.04949 6.25 7.09772 6.2555 7.14453 6.26465C7.49922 5.89102 7.94016 5.60074 8.4375 5.42871C8.31645 5.07721 8.25 4.70021 8.25 4.30762C8.25004 2.61896 9.61896 1.25004 11.3076 1.25H14.667ZM10.9531 15.75C10.2887 15.7502 9.7502 16.2887 9.75 16.9531V19C9.75 20.2426 10.7574 21.25 12 21.25C13.2426 21.25 14.25 20.2426 14.25 19V16.9531C14.2498 16.2887 13.7113 15.7502 13.0469 15.75H10.9531ZM8.5 10.75C6.42893 10.75 4.75 12.4289 4.75 14.5V17.75C4.75 18.5784 5.42157 19.25 6.25 19.25H8.25879C8.25335 19.1674 8.25 19.084 8.25 19V16.9531C8.2502 15.4603 9.46032 14.2502 10.9531 14.25H13.0469C14.5397 14.2502 15.7498 15.4603 15.75 16.9531V19C15.75 19.084 15.7467 19.1674 15.7412 19.25H17.75C18.5784 19.25 19.25 18.5784 19.25 17.75V14.5C19.25 12.4289 17.5711 10.75 15.5 10.75H8.5ZM9.28125 6.76465C8.41806 6.87236 7.75 7.60763 7.75 8.5V9.30371C7.99498 9.26867 8.24533 9.25 8.5 9.25H15.5C15.7547 9.25 16.005 9.26867 16.25 9.30371V8.91699C16.25 7.86406 15.4986 6.98663 14.5029 6.79102C13.839 7.38677 12.9622 7.75 12 7.75H11.6924C10.7535 7.75 9.9023 7.37417 9.28125 6.76465ZM11.3076 2.75C10.4474 2.75004 9.75004 3.44739 9.75 4.30762C9.75 5.38032 10.6197 6.25 11.6924 6.25H12C13.2426 6.25 14.25 5.24264 14.25 4V2.75H11.3076Z" fill="#1A1A1A"/>
</svg>
