<svg width="32" height="32" viewBox="0 0 32 32" fill="none" xmlns="http://www.w3.org/2000/svg">
<path d="M19.5332 2.125C20.2742 2.125 20.875 2.72581 20.875 3.4668V6C20.875 6.49292 20.8011 6.96851 20.665 7.41699C21.582 7.75019 22.3694 8.35138 22.9355 9.125H28C28.4832 9.125 28.875 9.51675 28.875 10C28.875 10.4832 28.4832 10.875 28 10.875H23.7432C23.8285 11.2362 23.875 11.6127 23.875 12V13.7549C26.2358 14.8435 27.875 17.2297 27.875 20V24C27.875 26.1401 26.1401 27.875 24 27.875H20.501C19.7663 29.6366 18.0279 30.875 16 30.875C13.9721 30.875 12.2337 29.6366 11.499 27.875H8C5.8599 27.875 4.125 26.1401 4.125 24V20C4.125 17.2297 5.76419 14.8435 8.125 13.7549V11.2305C8.12501 11.1107 8.13154 10.9922 8.1416 10.875H4C3.51675 10.875 3.125 10.4832 3.125 10C3.125 9.51675 3.51675 9.125 4 9.125H8.70605C9.25921 8.2011 10.1646 7.51163 11.2373 7.24512C11.1645 6.91845 11.125 6.57906 11.125 6.23047C11.1252 3.96315 12.9632 2.12516 15.2305 2.125H19.5332ZM14.5117 21.875C13.6078 21.875 12.875 22.6078 12.875 23.5117V26C12.875 27.7259 14.2741 29.125 16 29.125C17.7259 29.125 19.125 27.7259 19.125 26V23.5117C19.125 22.6078 18.3922 21.875 17.4883 21.875H14.5117ZM11 14.875C8.16954 14.875 5.875 17.1695 5.875 20V24C5.875 25.1736 6.8264 26.125 8 26.125H11.1279C11.1269 26.0834 11.125 26.0418 11.125 26V23.5117C11.125 21.6413 12.6413 20.125 14.5117 20.125H17.4883C19.3587 20.125 20.875 21.6413 20.875 23.5117V26C20.875 26.0418 20.8731 26.0834 20.8721 26.125H24C25.1736 26.125 26.125 25.1736 26.125 24V20C26.125 17.1695 23.8305 14.875 21 14.875H11ZM11.9629 8.89062C10.7881 9.02363 9.87515 10.0201 9.875 11.2305V13.2178C10.2411 13.1575 10.6168 13.125 11 13.125H21C21.3832 13.125 21.7589 13.1575 22.125 13.2178V12C22.125 10.5676 21.161 9.36142 19.8467 8.99219C18.9546 10.1373 17.564 10.875 16 10.875H15.7695C14.1943 10.875 12.8027 10.0901 11.9629 8.89062ZM15.2305 3.875C13.9297 3.87516 12.8752 4.92965 12.875 6.23047C12.875 7.82891 14.1711 9.125 15.7695 9.125H16C17.7259 9.125 19.125 7.72589 19.125 6V3.875H15.2305Z" fill="#1A1A1A"/>
</svg>
