<svg width="12" height="12" viewBox="0 0 12 12" fill="none" xmlns="http://www.w3.org/2000/svg">
<path d="M9.00586 2.99463L8.65231 3.34818L8.65231 3.34819L9.00586 2.99463ZM10.25 6.00049H9.75V6.00076L10.25 6.00049ZM9.00586 9.00537L8.65231 8.65182L8.65227 8.65185L9.00586 9.00537ZM6.00098 10.2505L6.00123 9.75049H6.00098V10.2505ZM2.99512 9.00537L3.34867 8.65182L3.34863 8.65178L2.99512 9.00537ZM1.75098 6.00049L2.25098 6.00076V6.00049H1.75098ZM2.99512 2.99463L3.34867 3.34818L3.34868 3.34818L2.99512 2.99463ZM6 1.75049L5.99974 2.25049H6V1.75049ZM4.00034 10.5828L3.79987 11.0408L4.00034 10.5828ZM10.5829 7.99914L11.041 8.19944L10.5829 7.99914ZM10.654 4.17144L10.1886 4.35437L10.654 4.17144ZM10.5828 4L10.1247 4.2002L10.5828 4ZM4.17178 10.654L3.98858 11.1192L4.17178 10.654ZM7.82753 1.34592L7.64486 1.81135C7.69654 1.83164 7.74776 1.85285 7.79849 1.87498L7.99838 1.41667L8.19826 0.958367C8.13617 0.931286 8.07348 0.905317 8.01021 0.880486L7.82753 1.34592ZM10.5828 4L10.1247 4.2002C10.1469 4.25111 10.1682 4.3025 10.1886 4.35437L10.654 4.17144L11.1193 3.98851C11.0943 3.92502 11.0682 3.86211 11.041 3.7998L10.5828 4ZM10.654 7.82774L10.1887 7.64471C10.1683 7.69656 10.147 7.74795 10.1248 7.79884L10.5829 7.99914L11.041 8.19944C11.0682 8.13714 11.0944 8.07425 11.1193 8.01077L10.654 7.82774ZM7.99985 10.5828L7.79927 10.1248C7.74836 10.1471 7.69695 10.1684 7.64508 10.1889L7.82838 10.6541L8.01168 11.1192C8.07518 11.0942 8.1381 11.0681 8.20042 11.0408L7.99985 10.5828ZM4.17178 10.654L4.35499 10.1888C4.30313 10.1684 4.25173 10.147 4.20082 10.1247L4.00034 10.5828L3.79987 11.0408C3.86217 11.0681 3.92508 11.0942 3.98858 11.1192L4.17178 10.654ZM1.41671 7.99809L1.87488 7.79788C1.85288 7.74754 1.83179 7.69673 1.8116 7.64546L1.34635 7.82859L0.881096 8.01173C0.905802 8.07449 0.931627 8.13669 0.958546 8.19829L1.41671 7.99809ZM1.34642 4.17058L1.81171 4.35362C1.83188 4.30236 1.85296 4.25155 1.87494 4.20122L1.41672 4.00112L0.958509 3.80102C0.931612 3.86261 0.905809 3.9248 0.881125 3.98755L1.34642 4.17058ZM4.00178 1.41655L4.20165 1.87487C4.25191 1.85295 4.30265 1.83193 4.35384 1.81181L4.17101 1.34644L3.98819 0.881063C3.92552 0.905681 3.86342 0.931415 3.80191 0.95824L4.00178 1.41655ZM4.17101 1.34644L4.35384 1.81181C4.42534 1.78372 4.54945 1.79124 4.87874 1.92739C5.01217 1.98256 5.19935 2.06656 5.37113 2.1274C5.54982 2.19069 5.76629 2.25036 5.99974 2.25049L6 1.75049L6.00026 1.25049C5.93101 1.25045 5.83794 1.23187 5.70498 1.18478C5.56511 1.13524 5.43853 1.07674 5.26083 1.00327C4.96785 0.882127 4.48017 0.687781 3.98819 0.881063L4.17101 1.34644ZM2.99512 2.99463L3.34868 3.34818C3.51377 3.18308 3.62465 2.98785 3.70622 2.81678C3.78465 2.65231 3.8575 2.46068 3.91278 2.32735C4.0492 1.99831 4.13147 1.90547 4.20165 1.87487L4.00178 1.41655L3.80191 0.95824C3.31749 1.1695 3.11034 1.65177 2.98903 1.94435C2.91545 2.12183 2.86736 2.25263 2.80359 2.38636C2.74296 2.51351 2.69038 2.59226 2.64156 2.64108L2.99512 2.99463ZM1.41672 4.00112L1.87494 4.20122C1.90562 4.13096 1.99861 4.04868 2.32772 3.91228C2.46111 3.857 2.65273 3.78417 2.81724 3.70574C2.98832 3.62417 3.18357 3.51328 3.34867 3.34818L2.99512 2.99463L2.64156 2.64108C2.59275 2.68989 2.51401 2.74247 2.38687 2.80309C2.25315 2.86684 2.12231 2.91493 1.94485 2.98848C1.65225 3.10975 1.16997 3.31679 0.958509 3.80102L1.41672 4.00112ZM1.75098 6.00049H2.25098C2.25098 5.76678 2.19124 5.5501 2.12786 5.37126C2.06692 5.19932 1.9828 5.01207 1.92752 4.87853C1.7911 4.54897 1.78364 4.42499 1.81171 4.35362L1.34642 4.17058L0.881125 3.98755C0.687438 4.47991 0.882258 4.96799 1.00355 5.26101C1.07713 5.43876 1.13573 5.56542 1.1853 5.7053C1.23243 5.83828 1.25098 5.93131 1.25098 6.00049H1.75098ZM1.34635 7.82859L1.8116 7.64546C1.78364 7.57442 1.79095 7.45084 1.92732 7.1217C1.98255 6.98837 2.0667 6.80126 2.12764 6.62951C2.19104 6.45085 2.25085 6.23433 2.25098 6.00076L1.75098 6.00049L1.25098 6.00021C1.25094 6.06932 1.23236 6.16224 1.18522 6.29508C1.13563 6.43485 1.07706 6.56131 1.00347 6.73893C0.88218 7.03168 0.687338 7.51949 0.881096 8.01173L1.34635 7.82859ZM4.00034 10.5828L4.20082 10.1247C4.13062 10.094 4.04848 10.001 3.9123 9.67218C3.85709 9.53887 3.78439 9.34742 3.70602 9.18299C3.62452 9.012 3.51371 8.81686 3.34867 8.65182L2.99512 9.00537L2.64156 9.35892C2.6903 9.40766 2.74279 9.48627 2.8033 9.61324C2.86695 9.74677 2.91497 9.87749 2.98839 10.0548C3.10945 10.3471 3.31615 10.8291 3.79987 11.0408L4.00034 10.5828ZM7.82838 10.6541L7.64508 10.1889C7.57411 10.2168 7.45059 10.2096 7.12158 10.0735C6.98834 10.0184 6.80124 9.93441 6.6296 9.87358C6.45102 9.8103 6.23463 9.75061 6.00123 9.75049L6.00098 10.2505L6.00072 10.7505C6.06983 10.7505 6.16275 10.7691 6.29558 10.8161C6.43535 10.8657 6.56175 10.9241 6.73937 10.9976C7.03208 11.1187 7.51975 11.3131 8.01168 11.1192L7.82838 10.6541ZM9.00586 9.00537L8.65227 8.65185C8.48733 8.81683 8.37649 9.01188 8.29493 9.18281C8.21651 9.34718 8.14368 9.53859 8.08839 9.67189C7.95203 10.0006 7.86972 10.0939 7.79927 10.1248L7.99985 10.5828L8.20042 11.0408C8.68386 10.8291 8.8908 10.3474 9.01208 10.055C9.08562 9.87775 9.13373 9.74702 9.19746 9.61344C9.25807 9.48642 9.31063 9.40772 9.35945 9.35889L9.00586 9.00537ZM10.5829 7.99914L10.1248 7.79884C10.094 7.86919 10.0009 7.95147 9.67224 8.08786C9.539 8.14315 9.34757 8.216 9.18323 8.29443C9.01231 8.376 8.81727 8.48685 8.65231 8.65182L9.00586 9.00537L9.35941 9.35892C9.40823 9.3101 9.48693 9.25754 9.61394 9.19692C9.74753 9.13317 9.87822 9.08507 10.0555 9.0115C10.3479 8.89018 10.8295 8.68313 11.041 8.19944L10.5829 7.99914ZM2.99512 9.00537L3.34863 8.65178C3.1836 8.48678 2.98845 8.37587 2.81742 8.29424C2.65298 8.21575 2.46139 8.1428 2.32802 8.08743C1.999 7.95084 1.90569 7.86839 1.87488 7.79788L1.41671 7.99809L0.958546 8.19829C1.17001 8.68223 1.65196 8.88952 1.9446 9.01101C2.12205 9.08468 2.2529 9.13286 2.38666 9.1967C2.51385 9.25741 2.59269 9.31006 2.6416 9.35896L2.99512 9.00537ZM10.654 4.17144L10.1886 4.35437C10.2167 4.4258 10.2092 4.54979 10.073 4.87912C10.0178 5.01258 9.9338 5.19974 9.87295 5.3716C9.80965 5.55035 9.75 5.76692 9.75 6.00049H10.25H10.75C10.75 5.9313 10.7685 5.8383 10.8156 5.70539C10.8651 5.56558 10.9236 5.43899 10.9971 5.26132C11.1183 4.96839 11.3128 4.48062 11.1193 3.98851L10.654 4.17144ZM9.00586 2.99463L8.65231 3.34819C8.81735 3.51322 9.01248 3.62403 9.18345 3.70552C9.34785 3.78388 9.53931 3.85661 9.67254 3.9118C10.0013 4.04799 10.094 4.1301 10.1247 4.2002L10.5828 4L11.041 3.7998C10.8295 3.31583 10.3476 3.10903 10.0553 2.98794C9.87795 2.91449 9.74728 2.86648 9.61373 2.80283C9.48677 2.74231 9.40815 2.68981 9.35941 2.64107L9.00586 2.99463ZM10.25 6.00049L9.75 6.00076C9.75013 6.2342 9.80984 6.45059 9.87317 6.62918C9.93403 6.80083 10.0181 6.98786 10.0732 7.1211C10.2094 7.45002 10.2167 7.5736 10.1887 7.64471L10.654 7.82774L11.1193 8.01077C11.3129 7.51878 11.1183 7.03128 10.9972 6.73862C10.9237 6.56107 10.8652 6.43469 10.8157 6.29499C10.7686 6.16222 10.75 6.06932 10.75 6.00021L10.25 6.00049ZM6.00098 10.2505V9.75049C5.76745 9.75049 5.55089 9.81012 5.37214 9.87338C5.20031 9.9342 5.01308 10.0182 4.87962 10.0733C4.55021 10.2095 4.42628 10.2169 4.35499 10.1888L4.17178 10.654L3.98858 11.1192C4.48062 11.313 4.96856 11.1186 5.26156 10.9975C5.4393 10.9241 5.5659 10.8656 5.70578 10.8161C5.83875 10.769 5.93178 10.7505 6.00098 10.7505V10.2505ZM7.99838 1.41667L7.79849 1.87498C7.86889 1.90569 7.9513 1.99875 8.08789 2.32767C8.14325 2.46098 8.21622 2.65258 8.29471 2.81699C8.37635 2.988 8.48727 3.18315 8.65231 3.34818L9.00586 2.99463L9.35941 2.64108C9.31051 2.59217 9.25786 2.51334 9.19715 2.38617C9.13328 2.2524 9.08512 2.12161 9.01142 1.94415C8.88991 1.65154 8.68251 1.16957 8.19826 0.958367L7.99838 1.41667ZM7.82753 1.34592L8.01021 0.880486C7.51811 0.68734 7.03065 0.882139 6.73807 1.00337C6.5606 1.0769 6.43415 1.13543 6.29455 1.18493C6.16184 1.23198 6.06902 1.25049 6 1.25049V1.75049V2.25049C6.23358 2.25049 6.45008 2.19078 6.62874 2.12743C6.80052 2.06652 6.9875 1.98246 7.12085 1.92721C7.44989 1.79087 7.5736 1.78339 7.64486 1.81135L7.82753 1.34592Z" fill="#1A1A1A"/>
<circle cx="4.7998" cy="4.9073" r="0.5" transform="rotate(45 4.7998 4.9073)" fill="#1A1A1A"/>
<circle cx="7.10059" cy="7.24837" r="0.5" transform="rotate(45 7.10059 7.24837)" fill="#1A1A1A"/>
<path d="M4.88033 7.11942L7.11914 4.88062" stroke="#1A1A1A" stroke-width="0.75" stroke-linecap="round" stroke-linejoin="round"/>
</svg>
