<svg width="16" height="16" viewBox="0 0 16 16" fill="none" xmlns="http://www.w3.org/2000/svg">
<path d="M12.0069 3.99288L12.3604 3.63933L12.0069 3.99288ZM3.99295 12.0071L4.34651 11.6535L4.34651 11.6535L3.99295 12.0071ZM3.99297 3.99303L4.34652 4.34658L4.34652 4.34658L3.99297 3.99303ZM5.3366 14.1135L5.13667 14.5718L5.3366 14.1135ZM10.6631 14.1135L10.8631 14.5718L10.6631 14.1135ZM14.1134 10.6632L13.6551 10.4633L14.1134 10.6632ZM14.2059 10.4401L14.6712 10.6232L14.2059 10.4401ZM10.6633 1.88676L10.8632 1.42848C10.7839 1.39385 10.7038 1.36062 10.6229 1.32881L10.4399 1.79409L10.2568 2.25937C10.3263 2.28671 10.3951 2.31527 10.4634 2.34504L10.6633 1.88676ZM14.2059 5.56015L14.6712 5.37708C14.6393 5.29614 14.6061 5.21593 14.5714 5.13647L14.1131 5.33643L13.6548 5.53639C13.6847 5.6047 13.7133 5.67366 13.7406 5.74322L14.2059 5.56015ZM14.1134 10.6632L14.5717 10.8631C14.6062 10.7839 14.6394 10.7039 14.6712 10.6232L14.2059 10.4401L13.7406 10.257C13.7133 10.3264 13.6848 10.3952 13.6551 10.4633L14.1134 10.6632ZM10.4399 14.2061L10.623 14.6714C10.7037 14.6396 10.7838 14.6064 10.8631 14.5718L10.6631 14.1135L10.4632 13.6553C10.3951 13.685 10.3262 13.7135 10.2568 13.7408L10.4399 14.2061ZM5.3366 14.1135L5.13667 14.5718C5.21601 14.6064 5.2961 14.6397 5.37691 14.6714L5.55998 14.2062L5.74305 13.7409C5.67359 13.7136 5.60474 13.685 5.53653 13.6552L5.3366 14.1135ZM1.79385 10.4401L1.32857 10.6232C1.36036 10.704 1.39357 10.784 1.42818 10.8633L1.88647 10.6634L2.34475 10.4635C2.315 10.3953 2.28645 10.3265 2.25913 10.257L1.79385 10.4401ZM1.88654 5.33664L1.42826 5.13669C1.39363 5.21608 1.36039 5.29621 1.32857 5.37707L1.79385 5.56014L2.25913 5.74322C2.28648 5.67372 2.31505 5.60483 2.34483 5.53658L1.88654 5.33664ZM5.55991 1.79409L5.37683 1.32881C5.29605 1.36059 5.21598 1.3938 5.13667 1.42841L5.3366 1.88669L5.53653 2.34498C5.60472 2.31524 5.67354 2.28669 5.74298 2.25936L5.55991 1.79409ZM3.99297 3.99303L4.34652 4.34658C4.54737 4.14573 4.68561 3.90466 4.79099 3.68371C4.89323 3.46934 4.98635 3.22376 5.06322 3.03838C5.24286 2.60523 5.37361 2.41606 5.53653 2.34498L5.3366 1.88669L5.13667 1.42841C4.5596 1.68015 4.30398 2.25872 4.13951 2.65531C4.04433 2.8848 3.97597 3.06959 3.88839 3.25323C3.80394 3.4303 3.724 3.55489 3.63941 3.63947L3.99297 3.99303ZM1.88654 5.33664L2.34483 5.53658C2.41591 5.37366 2.60509 5.24291 3.03827 5.06328C3.22366 4.98641 3.46925 4.89329 3.68363 4.79105C3.90459 4.68568 4.14566 4.54744 4.34652 4.34658L3.99297 3.99303L3.63942 3.63947C3.55483 3.72406 3.43024 3.80399 3.25317 3.88844C3.06952 3.97603 2.88472 4.04439 2.65522 4.13955C2.25862 4.30401 1.68003 4.55963 1.42826 5.13669L1.88654 5.33664ZM2.33321 8.00011H2.83321C2.83321 7.71595 2.76042 7.44764 2.67864 7.21684C2.59929 6.99292 2.49139 6.75333 2.41463 6.56788C2.23526 6.13449 2.1941 5.90848 2.25913 5.74322L1.79385 5.56014L1.32857 5.37707C1.09789 5.96334 1.32641 6.5535 1.49065 6.95031C1.5857 7.17997 1.66808 7.35898 1.73607 7.55084C1.80161 7.73582 1.83321 7.88047 1.83321 8.00011H2.33321ZM1.79385 10.4401L2.25913 10.257C2.1941 10.0918 2.23526 9.86574 2.41463 9.43234C2.49139 9.2469 2.59929 9.00731 2.67864 8.78339C2.76042 8.55259 2.83321 8.28428 2.83321 8.00011H2.33321H1.83321C1.83321 8.11976 1.80161 8.26441 1.73607 8.44939C1.66808 8.64125 1.5857 8.82026 1.49065 9.04992C1.32641 9.44672 1.09789 10.0369 1.32857 10.6232L1.79385 10.4401ZM3.99295 12.0071L4.34651 11.6535C4.14565 11.4526 3.90456 11.3144 3.68359 11.209C3.46921 11.1068 3.2236 11.0137 3.03821 10.9368C2.60501 10.7572 2.41583 10.6264 2.34475 10.4635L1.88647 10.6634L1.42818 10.8633C1.67994 11.4404 2.25855 11.6961 2.65517 11.8605C2.88468 11.9557 3.06948 12.024 3.25314 12.1116C3.43022 12.1961 3.55482 12.276 3.6394 12.3606L3.99295 12.0071ZM5.3366 14.1135L5.53653 13.6552C5.3736 13.5842 5.24285 13.395 5.06322 12.9618C4.98634 12.7764 4.89323 12.5308 4.79099 12.3164C4.68561 12.0954 4.54737 11.8544 4.34651 11.6535L3.99295 12.0071L3.6394 12.3606C3.72399 12.4452 3.80392 12.5698 3.88838 12.7469C3.97596 12.9305 4.04432 13.1153 4.13949 13.3448C4.30395 13.7415 4.55958 14.3201 5.13667 14.5718L5.3366 14.1135ZM12.0068 12.0069L11.6533 11.6533C11.4524 11.8542 11.3141 12.0953 11.2088 12.3163C11.1065 12.5307 11.0134 12.7763 10.9365 12.9617C10.7569 13.395 10.6261 13.5842 10.4632 13.6553L10.6631 14.1135L10.8631 14.5718C11.4402 14.3201 11.6958 13.7414 11.8603 13.3447C11.9554 13.1152 12.0238 12.9304 12.1114 12.7467C12.1958 12.5696 12.2758 12.445 12.3604 12.3604L12.0068 12.0069ZM14.1134 10.6632L13.6551 10.4633C13.584 10.6262 13.3948 10.757 12.9616 10.9366C12.7762 11.0135 12.5306 11.1066 12.3162 11.2088C12.0952 11.3142 11.8541 11.4525 11.6533 11.6533L12.0068 12.0069L12.3604 12.3604C12.445 12.2758 12.5696 12.1959 12.7466 12.1115C12.9303 12.0239 13.1151 11.9555 13.3446 11.8603C13.7413 11.6959 14.3199 11.4402 14.5717 10.8631L14.1134 10.6632ZM13.6665 8.00012H13.1665C13.1665 8.28428 13.2393 8.55259 13.3211 8.78339C13.4005 9.00731 13.5084 9.2469 13.5851 9.43235C13.7645 9.86574 13.8057 10.0917 13.7406 10.257L14.2059 10.4401L14.6712 10.6232C14.9019 10.0369 14.6733 9.44672 14.5091 9.04992C14.4141 8.82026 14.3317 8.64125 14.2637 8.44939C14.1981 8.26441 14.1665 8.11976 14.1665 8.00012H13.6665ZM12.0069 3.99288L11.6533 4.34643C11.8542 4.54728 12.0952 4.68551 12.3162 4.79088C12.5305 4.89312 12.7761 4.98623 12.9615 5.06311C13.3946 5.24273 13.5838 5.37347 13.6548 5.53639L14.1131 5.33643L14.5714 5.13647C14.3196 4.55946 13.7411 4.30385 13.3445 4.13939C13.1151 4.04422 12.9303 3.97587 12.7467 3.88829C12.5696 3.80384 12.445 3.72391 12.3604 3.63933L12.0069 3.99288ZM7.99996 13.6668V13.1668C7.71579 13.1668 7.44748 13.2396 7.21668 13.3214C6.99276 13.4007 6.75316 13.5086 6.56772 13.5854C6.13433 13.7648 5.90831 13.8059 5.74305 13.7409L5.55998 14.2062L5.37691 14.6714C5.96319 14.9021 6.55335 14.6736 6.95016 14.5094C7.17981 14.4143 7.35882 14.3319 7.55069 14.2639C7.73566 14.1984 7.88031 14.1668 7.99996 14.1668V13.6668ZM10.6633 1.88676L10.4634 2.34504C10.6263 2.41612 10.757 2.60527 10.9367 3.03837C11.0135 3.22372 11.1067 3.46928 11.2089 3.68363C11.3143 3.90455 11.4525 4.1456 11.6533 4.34643L12.0069 3.99288L12.3604 3.63933C12.2759 3.55474 12.1959 3.43017 12.1115 3.25312C12.0239 3.06949 11.9555 2.88473 11.8604 2.65526C11.6959 2.25871 11.4403 1.68022 10.8632 1.42848L10.6633 1.88676ZM7.99988 2.33345V2.83345C8.28405 2.83345 8.55235 2.76066 8.78316 2.67887C9.00708 2.59953 9.24667 2.49162 9.43211 2.41487C9.8655 2.23549 10.0915 2.19434 10.2568 2.25937L10.4399 1.79409L10.6229 1.32881C10.0367 1.09813 9.44649 1.32665 9.04969 1.49088C8.82003 1.58593 8.64102 1.66831 8.44915 1.7363C8.26418 1.80185 8.11953 1.83345 7.99988 1.83345V2.33345ZM14.2059 5.56015L13.7406 5.74322C13.8057 5.90848 13.7645 6.1345 13.5851 6.56789C13.5084 6.75333 13.4005 6.99292 13.3211 7.21684C13.2393 7.44764 13.1665 7.71595 13.1665 8.00012H13.6665H14.1665C14.1665 7.88047 14.1981 7.73582 14.2637 7.55085C14.3317 7.35898 14.4141 7.17997 14.5091 6.95032C14.6733 6.55351 14.9019 5.96335 14.6712 5.37708L14.2059 5.56015ZM10.4399 14.2061L10.2568 13.7408C10.0916 13.8059 9.86556 13.7647 9.43217 13.5853C9.24674 13.5086 9.00714 13.4007 8.78323 13.3214C8.55243 13.2396 8.28412 13.1668 7.99996 13.1668V13.6668V14.1668C8.1196 14.1668 8.26425 14.1984 8.44923 14.2639C8.64109 14.3319 8.8201 14.4143 9.04976 14.5093C9.44656 14.6736 10.0367 14.9021 10.623 14.6714L10.4399 14.2061ZM7.99988 2.33345V1.83345C7.88024 1.83345 7.73558 1.80185 7.55061 1.7363C7.35874 1.66831 7.17973 1.58593 6.95008 1.49088C6.55327 1.32665 5.96311 1.09812 5.37683 1.32881L5.55991 1.79409L5.74298 2.25936C5.90824 2.19434 6.13426 2.23549 6.56765 2.41487C6.75309 2.49162 6.99268 2.59953 7.2166 2.67887C7.44741 2.76066 7.71572 2.83345 7.99988 2.83345V2.33345Z" fill="#1A1A1A"/>
<circle cx="6.5332" cy="6.5324" r="0.527692" transform="rotate(45 6.5332 6.5324)" fill="#1A1A1A"/>
<circle cx="9.46875" cy="9.4677" r="0.527692" transform="rotate(45 9.46875 9.4677)" fill="#1A1A1A"/>
<path d="M6.50809 9.49264L9.49316 6.50757" stroke="#1A1A1A" stroke-linecap="round" stroke-linejoin="round"/>
</svg>
