<svg width="24" height="24" viewBox="0 0 24 24" fill="none" xmlns="http://www.w3.org/2000/svg">
<path d="M18.0098 5.98877L17.4792 6.51891L17.4794 6.5191L18.0098 5.98877ZM20.5 12.0005H19.75V12.0007L20.5 12.0005ZM18.0098 18.0103L17.4794 17.4799L17.4793 17.48L18.0098 18.0103ZM12 20.5005L12.0001 19.7505H12V20.5005ZM5.98926 18.0103L6.51959 17.4799L6.51953 17.4799L5.98926 18.0103ZM3.5 12.0005L4.25 12.0007V12.0005H3.5ZM5.98926 5.98975L6.5195 6.52017L6.51959 6.52008L5.98926 5.98975ZM12 3.50049V4.25049H12.0001L12 3.50049ZM8.34236 2.69122L8.61653 3.38932L8.34236 2.69122ZM8.00257 2.83198L7.70276 2.14452L8.00257 2.83198ZM2.69075 8.34281L1.99266 8.06864L2.69075 8.34281ZM2.69068 15.6564L1.99262 15.9306L2.69068 15.6564ZM8.00111 21.1674L7.70081 21.8546L8.00111 21.1674ZM15.6559 21.309L15.3813 20.6111L15.6559 21.309ZM15.9972 21.1674L15.6968 20.4801L15.9972 21.1674ZM21.3085 8.34285L20.6106 8.61739L21.3085 8.34285ZM21.1669 8.00148L21.8541 7.70117L21.1669 8.00148ZM15.6559 2.69116L15.3816 3.38922C15.4876 3.43087 15.5927 3.47443 15.6968 3.51985L15.9968 2.83246L16.2968 2.14507C16.1757 2.09223 16.0535 2.04156 15.9301 1.9931L15.6559 2.69116ZM21.1669 8.00148L20.4796 8.3018C20.5251 8.40601 20.5688 8.51122 20.6106 8.61739L21.3085 8.34285L22.0065 8.06832C21.9579 7.9448 21.9071 7.8224 21.8541 7.70117L21.1669 8.00148ZM21.3084 15.6562L20.6105 15.3815C20.5688 15.4874 20.5252 15.5924 20.4797 15.6964L21.1669 15.9968L21.8541 16.2973C21.907 16.1764 21.9577 16.0542 22.0062 15.931L21.3084 15.6562ZM15.9972 21.1674L15.6968 20.4801C15.5926 20.5257 15.4874 20.5694 15.3813 20.6111L15.6559 21.309L15.9305 22.007C16.054 21.9584 16.1764 21.9075 16.2976 21.8546L15.9972 21.1674ZM8.34232 21.309L8.61686 20.611C8.51074 20.5693 8.40558 20.5256 8.30141 20.4801L8.00111 21.1674L7.70081 21.8546C7.82198 21.9076 7.94432 21.9584 8.06778 22.0069L8.34232 21.309ZM2.8315 15.9962L3.51893 15.6963C3.47367 15.5925 3.43026 15.4878 3.38875 15.3821L2.69068 15.6564L1.99262 15.9306C2.04092 16.0535 2.09142 16.1754 2.14407 16.2961L2.8315 15.9962ZM2.69075 8.34281L3.38884 8.61699C3.43035 8.51131 3.47374 8.40657 3.51899 8.30283L2.83153 8.003L2.14407 7.70317C2.09143 7.82385 2.04095 7.94569 1.99266 8.06864L2.69075 8.34281ZM8.00257 2.83198L8.30239 3.51945C8.40613 3.47421 8.51085 3.43082 8.61653 3.38932L8.34236 2.69122L8.0682 1.99313C7.94526 2.04141 7.82343 2.09189 7.70276 2.14452L8.00257 2.83198ZM8.34236 2.69122L8.61653 3.38932C8.86444 3.29195 9.20324 3.3538 9.8528 3.6228C10.1308 3.73791 10.4899 3.89971 10.8256 4.0187C11.1716 4.14135 11.5739 4.25049 12 4.25049V3.50049V2.75049C11.8207 2.75049 11.6039 2.70314 11.3267 2.60489C11.0392 2.50298 10.7709 2.37946 10.4267 2.23693C9.83195 1.99063 8.94739 1.64784 8.0682 1.99313L8.34236 2.69122ZM5.98926 5.98975L6.51959 6.52008C6.82084 6.21882 7.02806 5.85727 7.18596 5.52594C7.33915 5.20449 7.4786 4.83626 7.59371 4.55837C7.86271 3.909 8.05844 3.62585 8.30239 3.51945L8.00257 2.83198L7.70276 2.14452C6.83713 2.52204 6.45418 3.38979 6.2079 3.98432C6.06538 4.32839 5.96304 4.60537 5.83186 4.88063C5.70539 5.14602 5.58565 5.33269 5.45893 5.45942L5.98926 5.98975ZM2.83153 8.003L3.51899 8.30283C3.62539 8.05887 3.90856 7.86311 4.55788 7.59411C4.83574 7.47901 5.20397 7.33954 5.52539 7.18638C5.8567 7.0285 6.21823 6.82133 6.5195 6.52017L5.98926 5.98975L5.45902 5.45932C5.33225 5.58605 5.14554 5.70579 4.88012 5.83226C4.60483 5.96345 4.32786 6.06578 3.98378 6.20832C3.38924 6.45463 2.52157 6.83761 2.14407 7.70317L2.83153 8.003ZM3.5 12.0005H4.25C4.25 11.5744 4.14086 11.1721 4.01821 10.8261C3.89922 10.4904 3.73743 10.1313 3.62231 9.85327C3.35332 9.2037 3.29148 8.86489 3.38884 8.61699L2.69075 8.34281L1.99266 8.06864C1.64736 8.94782 1.99015 9.83241 2.23644 10.4272C2.37897 10.7714 2.50249 11.0397 2.6044 11.3272C2.70265 11.6044 2.75 11.8212 2.75 12.0005H3.5ZM2.69068 15.6564L3.38875 15.3821C3.29147 15.1345 3.35318 14.7961 3.62212 14.1469C3.7372 13.8691 3.89901 13.5102 4.01801 13.1747C4.14068 12.8288 4.24988 12.4267 4.25 12.0007L3.5 12.0005L2.75 12.0003C2.74995 12.1795 2.70257 12.3962 2.6043 12.6732C2.50236 12.9606 2.37887 13.2287 2.23634 13.5728C1.99006 14.1673 1.64728 15.0516 1.99262 15.9306L2.69068 15.6564ZM8.00111 21.1674L8.30141 20.4801C8.05752 20.3736 7.86196 20.0903 7.5932 19.4411C7.47818 19.1633 7.33887 18.7952 7.18574 18.4738C7.02793 18.1426 6.82078 17.7811 6.51959 17.4799L5.98926 18.0103L5.45893 18.5406C5.58557 18.6672 5.70522 18.8538 5.83158 19.119C5.96264 19.3941 6.0649 19.671 6.20727 20.0149C6.45331 20.6092 6.83584 21.4767 7.70081 21.8546L8.00111 21.1674ZM15.6559 21.309L15.3813 20.6111C15.1339 20.7085 14.7957 20.647 14.1464 20.3781C13.8687 20.2631 13.5096 20.1013 13.1741 19.9824C12.8283 19.8597 12.4261 19.7506 12.0001 19.7505L12 20.5005L11.9999 21.2505C12.1791 21.2505 12.3958 21.2979 12.6729 21.3961C12.9603 21.498 13.2284 21.6215 13.5725 21.764C14.1671 22.0102 15.0515 22.3528 15.9305 22.007L15.6559 21.309ZM18.0098 18.0103L17.4793 17.48C17.1783 17.7812 16.9712 18.1426 16.8133 18.4737C16.6601 18.7951 16.5207 19.1631 16.4056 19.4409C16.1367 20.09 15.9409 20.3734 15.6968 20.4801L15.9972 21.1674L16.2976 21.8546C17.1623 21.4766 17.5451 20.6094 17.7914 20.0151C17.9338 19.6712 18.0362 19.3943 18.1673 19.1192C18.2938 18.8539 18.4135 18.6672 18.5402 18.5405L18.0098 18.0103ZM21.1669 15.9968L20.4797 15.6964C20.3729 15.9407 20.0892 16.1365 19.4402 16.4057C19.1623 16.5209 18.7943 16.6604 18.473 16.8136C18.1419 16.9716 17.7805 17.1788 17.4794 17.4799L18.0098 18.0103L18.5401 18.5406C18.6669 18.4138 18.8535 18.294 19.1188 18.1675C19.3939 18.0363 19.6708 17.9339 20.0147 17.7913C20.6091 17.5448 21.4761 17.1619 21.8541 16.2973L21.1669 15.9968ZM5.98926 18.0103L6.51953 17.4799C6.21832 17.1787 5.85685 16.9715 5.52557 16.8135C5.20418 16.6603 4.83598 16.5207 4.55812 16.4055C3.90883 16.1363 3.62544 15.9404 3.51893 15.6963L2.8315 15.9962L2.14407 16.2961C2.52161 17.1614 3.38907 17.5446 3.98363 17.7911C4.3277 17.9338 4.60467 18.0362 4.87998 18.1675C5.14541 18.2941 5.33217 18.4139 5.45899 18.5406L5.98926 18.0103ZM21.3085 8.34285L20.6106 8.61739C20.708 8.86508 20.6464 9.20374 20.3775 9.85332C20.2624 10.1313 20.1007 10.4904 19.9817 10.8261C19.8591 11.1721 19.75 11.5744 19.75 12.0005H20.5H21.25C21.25 11.8212 21.2973 11.6044 21.3956 11.3271C21.4975 11.0395 21.621 10.7712 21.7635 10.427C22.0097 9.83217 22.3523 8.94744 22.0065 8.06832L21.3085 8.34285ZM18.0098 5.98877L17.4794 6.5191C17.7806 6.82025 18.142 7.02744 18.4732 7.18533C18.7945 7.33852 19.1626 7.47795 19.4404 7.59306C20.0895 7.86201 20.373 8.05774 20.4796 8.3018L21.1669 8.00148L21.8541 7.70117C21.4762 6.83632 20.6089 6.45355 20.0146 6.2073C19.6707 6.06481 19.3938 5.96246 19.1187 5.83131C18.8534 5.70486 18.6668 5.58514 18.5401 5.45844L18.0098 5.98877ZM20.5 12.0005L19.75 12.0007C19.7501 12.4267 19.8593 12.8288 19.9819 13.1746C20.1009 13.5101 20.2626 13.8691 20.3776 14.1468C20.6464 14.796 20.7079 15.1342 20.6105 15.3815L21.3084 15.6562L22.0062 15.931C22.3523 15.052 22.0097 14.1675 21.7635 13.573C21.621 13.2289 21.4976 12.9608 21.3957 12.6733C21.2974 12.3962 21.2501 12.1795 21.25 12.0003L20.5 12.0005ZM12 20.5005V19.7505C11.5739 19.7505 11.1717 19.8596 10.8256 19.9822C10.4899 20.1012 10.1308 20.2629 9.85283 20.378C9.20322 20.6468 8.86455 20.7085 8.61686 20.611L8.34232 21.309L8.06778 22.0069C8.94689 22.3527 9.83164 22.0101 10.4265 21.7639C10.7707 21.6214 11.039 21.498 11.3266 21.3961C11.6039 21.2978 11.8207 21.2505 12 21.2505V20.5005ZM15.9968 2.83246L15.6968 3.51985C15.9408 3.62633 16.1366 3.9095 16.4056 4.55839C16.5207 4.83606 16.6602 5.2041 16.8134 5.52532C16.9712 5.85644 17.1783 6.21776 17.4792 6.51891L18.0098 5.98877L18.5403 5.45863C18.4136 5.33183 18.2938 5.14513 18.1674 4.87982C18.0362 4.60461 17.9338 4.32782 17.7912 3.9839C17.5448 3.3896 17.1618 2.52258 16.2968 2.14507L15.9968 2.83246ZM15.6559 2.69116L15.9301 1.9931C15.051 1.64774 14.1667 1.99057 13.5723 2.23686C13.2283 2.37941 12.9601 2.5029 12.6728 2.60483C12.3957 2.70309 12.1791 2.75045 11.9999 2.75049L12 3.50049L12.0001 4.25049C12.4262 4.25041 12.8283 4.14122 13.1742 4.01854C13.5097 3.89953 13.8687 3.73772 14.1464 3.62263C14.7956 3.35366 15.134 3.29194 15.3816 3.38922L15.6559 2.69116Z" fill="#1A1A1A"/>
<circle cx="9.79785" cy="9.7986" r="0.791538" transform="rotate(45 9.79785 9.7986)" fill="#1A1A1A"/>
<circle cx="14.2012" cy="14.2017" r="0.791538" transform="rotate(45 14.2012 14.2017)" fill="#1A1A1A"/>
<path d="M9.76067 14.2388L14.2383 9.76123" stroke="#1A1A1A" stroke-width="1.5" stroke-linecap="round" stroke-linejoin="round"/>
</svg>
