<svg width="32" height="32" viewBox="0 0 32 32" fill="none" xmlns="http://www.w3.org/2000/svg">
<path d="M24.1279 7.87158L23.5092 8.4903L23.5093 8.49038L24.1279 7.87158ZM27.7021 16.4995L26.8271 16.4994V16.4995H27.7021ZM24.1279 25.1274L23.5093 24.5087L23.5092 24.5087L24.1279 25.1274ZM15.5 28.7017L15.5001 27.8267H15.5V28.7017ZM6.87207 25.1284L7.49098 24.5099L7.49079 24.5097L6.87207 25.1284ZM3.29785 16.4995H4.17285V16.4994L3.29785 16.4995ZM6.87207 7.87158L7.49079 8.4903L7.49085 8.49024L6.87207 7.87158ZM15.5 4.29736V5.17236H15.5001L15.5 4.29736ZM10.2487 3.13618L9.92868 2.32181L10.2487 3.13618ZM2.13545 11.2492L1.32105 10.9292L2.13545 11.2492ZM20.7486 29.864L21.0687 30.6784L20.7486 29.864ZM28.6614 22.2371L29.4633 22.587L28.6614 22.2371ZM10.2482 29.8632L9.92794 30.6775L10.2482 29.8632ZM20.7488 3.13508L20.4287 3.94942L20.7488 3.13508ZM20.7488 3.13508L20.4287 3.94942C20.5831 4.01011 20.736 4.07356 20.8876 4.13972L21.2377 3.33782L21.5878 2.53592C21.4165 2.46111 21.2435 2.38936 21.0689 2.32074L20.7488 3.13508ZM28.6603 10.7598L27.8584 11.11C27.9248 11.2619 27.9884 11.4153 28.0492 11.5701L28.8636 11.25L29.678 10.93C29.6092 10.755 29.5372 10.5815 29.4622 10.4097L28.6603 10.7598ZM28.8637 21.7491L28.0493 21.429C27.9887 21.5831 27.9254 21.7358 27.8594 21.8871L28.6614 22.2371L29.4633 22.587C29.538 22.416 29.6096 22.2433 29.678 22.0691L28.8637 21.7491ZM21.2377 29.6612L20.8876 28.8593C20.736 28.9255 20.5829 28.989 20.4285 29.0497L20.7486 29.864L21.0687 30.6784C21.2433 30.6098 21.4164 30.538 21.5878 30.4631L21.2377 29.6612ZM10.2482 29.8632L10.5684 29.0489C10.4144 28.9884 10.2617 28.925 10.1105 28.859L9.76031 29.6608L9.41013 30.4627C9.58111 30.5374 9.75374 30.609 9.92794 30.6775L10.2482 29.8632ZM2.33724 22.2368L3.13925 21.887C3.07341 21.736 3.01025 21.5837 2.94985 21.4299L2.13546 21.7499L1.32107 22.0699C1.38937 22.2437 1.46079 22.416 1.53523 22.5867L2.33724 22.2368ZM2.13545 11.2492L2.94985 11.5692C3.01026 11.4154 3.07341 11.263 3.13925 11.1121L2.33724 10.7622L1.53522 10.4124C1.46077 10.5831 1.38936 10.7554 1.32105 10.9292L2.13545 11.2492ZM9.76157 3.33812L10.1115 4.14009C10.2625 4.0742 10.415 4.011 10.5688 3.95054L10.2487 3.13618L9.92868 2.32181C9.75474 2.39017 9.58237 2.46164 9.41162 2.53614L9.76157 3.33812ZM10.2487 3.13618L10.5688 3.95054C11.0094 3.77736 11.5693 3.90379 12.4945 4.28681C12.9025 4.4557 13.4059 4.68278 13.8814 4.85127C14.3689 5.02402 14.9215 5.17236 15.5 5.17236V4.29736V3.42236C15.2094 3.42236 14.8732 3.34608 14.4659 3.20176C14.0466 3.05318 13.6492 2.87075 13.1639 2.66986C12.3025 2.31333 11.1059 1.85917 9.92868 2.32181L10.2487 3.13618ZM6.87207 7.87158L7.49085 8.49024C7.89981 8.0812 8.18546 7.58566 8.40784 7.11887C8.62474 6.66359 8.81986 6.14723 8.98874 5.73939C9.37171 4.8145 9.67777 4.32936 10.1115 4.14009L9.76157 3.33812L9.41162 2.53614C8.25271 3.04185 7.72833 4.20902 7.37186 5.0699C7.17102 5.55494 7.01918 5.96484 6.82797 6.36621C6.64224 6.75606 6.45864 7.04754 6.25329 7.25293L6.87207 7.87158ZM2.33724 10.7622L3.13925 11.1121C3.32853 10.6782 3.81388 10.3719 4.73914 9.98879C5.14714 9.81983 5.66366 9.62463 6.11909 9.40764C6.58601 9.18516 7.08169 8.8994 7.49079 8.4903L6.87207 7.87158L6.25335 7.25286C6.04792 7.45829 5.75635 7.64198 5.36635 7.8278C4.96486 8.01909 4.55479 8.17102 4.06959 8.37194C3.20843 8.72855 2.04089 9.25313 1.53522 10.4124L2.33724 10.7622ZM3.29785 16.4995L4.17285 16.4994C4.17278 15.9209 4.02431 15.3683 3.85142 14.8809C3.68281 14.4055 3.45558 13.9022 3.28657 13.4943C2.90329 12.5692 2.77677 12.0097 2.94985 11.5692L2.13545 11.2492L1.32105 10.9292C0.858496 12.1065 1.31308 13.3031 1.66985 14.1641C1.87088 14.6493 2.05341 15.0466 2.20209 15.4658C2.34649 15.873 2.42282 16.2091 2.42285 16.4996L3.29785 16.4995ZM2.13546 21.7499L2.94985 21.4299C2.77676 20.9894 2.90329 20.4299 3.28662 19.5048C3.45565 19.0969 3.68289 18.5936 3.85151 18.1182C4.02439 17.6307 4.17285 17.0781 4.17285 16.4995H3.29785H2.42285C2.42285 16.79 2.34655 17.1261 2.20216 17.5332C2.0535 17.9524 1.87095 18.3497 1.66992 18.8349C1.31313 19.696 0.858457 20.8925 1.32107 22.0699L2.13546 21.7499ZM9.76031 29.6608L10.1105 28.859C9.6769 28.6696 9.37094 28.1846 8.98814 27.26C8.81933 26.8523 8.62429 26.3361 8.4075 25.8809C8.18522 25.4143 7.89971 24.9189 7.49098 24.5099L6.87207 25.1284L6.25316 25.7469C6.45841 25.9523 6.64193 26.2437 6.82757 26.6335C7.0187 27.0348 7.17047 27.4445 7.37124 27.9294C7.72757 28.7901 8.25174 29.9569 9.41013 30.4627L9.76031 29.6608ZM20.7486 29.864L20.4285 29.0497C19.9883 29.2227 19.4293 29.0963 18.5045 28.713C18.0968 28.544 17.5937 28.3167 17.1184 28.1481C16.6311 27.9752 16.0786 27.8267 15.5001 27.8267L15.5 28.7017L15.4999 29.5767C15.7903 29.5767 16.1263 29.653 16.5332 29.7974C16.9523 29.9461 17.3494 30.1286 17.8344 30.3296C18.6952 30.6864 19.8914 31.1411 21.0687 30.6784L20.7486 29.864ZM24.1279 25.1274L23.5092 24.5087C23.1002 24.9177 22.8145 25.4132 22.592 25.88C22.375 26.3353 22.1798 26.8516 22.0109 27.2595C21.6277 28.1845 21.3215 28.6699 20.8876 28.8593L21.2377 29.6612L21.5878 30.4631C22.7465 29.9573 23.271 28.7902 23.6276 27.9293C23.8285 27.4442 23.9805 27.0343 24.1718 26.6329C24.3576 26.2431 24.5412 25.9516 24.7466 25.7462L24.1279 25.1274ZM28.6614 22.2371L27.8594 21.8871C27.6701 22.321 27.1848 22.6272 26.2599 23.0104C25.8521 23.1794 25.3357 23.3746 24.8805 23.5916C24.4137 23.814 23.9183 24.0997 23.5093 24.5087L24.1279 25.1274L24.7466 25.7462C24.952 25.5408 25.2436 25.3571 25.6334 25.1713C26.0348 24.98 26.4447 24.8281 26.9298 24.6271C27.7906 24.2704 28.9576 23.7458 29.4633 22.587L28.6614 22.2371ZM6.87207 25.1284L7.49079 24.5097C7.08173 24.1006 6.58611 23.8148 6.11922 23.5923C5.66384 23.3752 5.14733 23.1799 4.73933 23.0108C3.81412 22.6274 3.3286 22.321 3.13925 21.887L2.33724 22.2368L1.53523 22.5867C2.04088 23.7458 3.20824 24.2707 4.06942 24.6275C4.55461 24.8286 4.96469 24.9806 5.36622 25.172C5.75624 25.3579 6.04787 25.5417 6.25335 25.7471L6.87207 25.1284ZM28.8636 11.25L28.0492 11.5701C28.2223 12.0105 28.0959 12.5699 27.7129 13.4948C27.544 13.9026 27.3169 14.4059 27.1484 14.8812C26.9756 15.3685 26.8272 15.921 26.8271 16.4994L27.7021 16.4995L28.5771 16.4996C28.5772 16.2091 28.6535 15.873 28.7978 15.4659C28.9464 15.0468 29.1288 14.6495 29.3298 14.1644C29.6863 13.3034 30.1406 12.1071 29.678 10.93L28.8636 11.25ZM24.1279 7.87158L23.5093 8.49038C23.9183 8.89925 24.4137 9.18482 24.8804 9.40712C25.3356 9.62394 25.8518 9.81896 26.2595 9.98774C27.1841 10.3705 27.6691 10.6764 27.8584 11.11L28.6603 10.7598L29.4622 10.4097C28.9564 9.25116 27.7895 8.72707 26.9288 8.37081C26.4439 8.17008 26.0342 8.01832 25.633 7.82721C25.2433 7.64158 24.9519 7.45806 24.7466 7.25279L24.1279 7.87158ZM27.7021 16.4995H26.8271C26.8271 17.078 26.9755 17.6305 27.1483 18.1179C27.3168 18.5932 27.544 19.0964 27.7129 19.5043C28.096 20.4292 28.2224 20.9886 28.0493 21.429L28.8637 21.7491L29.678 22.0691C30.1406 20.892 29.6863 19.6956 29.3297 18.8346C29.1288 18.3495 28.9463 17.9523 28.7977 17.5331C28.6534 17.126 28.5771 16.79 28.5771 16.4995H27.7021ZM15.5 28.7017V27.8267C14.9214 27.8267 14.3687 27.9751 13.8811 28.1479C13.4056 28.3165 12.9021 28.5437 12.4941 28.7126C11.5687 29.0958 11.009 29.2222 10.5684 29.0489L10.2482 29.8632L9.92794 30.6775C11.1053 31.1406 12.3022 30.6862 13.1636 30.3295C13.649 30.1285 14.0464 29.946 14.4658 29.7974C14.8731 29.653 15.2093 29.5767 15.5 29.5767V28.7017ZM21.2377 3.33782L20.8876 4.13972C21.3215 4.32917 21.6277 4.81459 22.0109 5.73952C22.1798 6.14741 22.375 6.66374 22.592 7.11903C22.8145 7.58581 23.1002 8.08131 23.5092 8.4903L24.1279 7.87158L24.7466 7.25286C24.5412 7.04746 24.3576 6.75596 24.1718 6.36611C23.9805 5.96476 23.8285 5.55482 23.6276 5.06979C23.271 4.20887 22.7465 3.04181 21.5878 2.53592L21.2377 3.33782ZM20.7488 3.13508L21.0689 2.32074C19.8917 1.85798 18.6953 2.31266 17.8346 2.66942C17.3495 2.87045 16.9523 3.05298 16.5333 3.20164C16.1263 3.34604 15.7903 3.42234 15.4999 3.42236L15.5 4.29736L15.5001 5.17236C16.0786 5.17232 16.631 5.02382 17.1184 4.85093C17.5937 4.68231 18.0968 4.45507 18.5046 4.28607C19.4294 3.90278 19.9885 3.77639 20.4287 3.94942L20.7488 3.13508Z" fill="#1A1A1A"/>
<circle cx="12.3398" cy="13.3396" r="1.13629" transform="rotate(45 12.3398 13.3396)" fill="#1A1A1A"/>
<circle cx="18.6611" cy="19.6599" r="1.13629" transform="rotate(45 18.6611 19.6599)" fill="#1A1A1A"/>
<path d="M12.287 19.7134L18.7148 13.2856" stroke="#1A1A1A" stroke-width="1.75" stroke-linecap="round" stroke-linejoin="round"/>
</svg>
