<svg width="24" height="24" viewBox="0 0 24 24" fill="none" xmlns="http://www.w3.org/2000/svg">
<mask id="path-1-inside-1_105_4277" fill="white">
<path d="M10.8447 19.9924C11.3386 20.9803 12.6951 21.1142 13.3721 20.2414L13.6572 19.8722C14.2219 19.1442 14.3577 18.1713 14.0137 17.3166L13.3018 15.547H18.9082C20.3395 15.547 21.5 14.3866 21.5 12.9552V12.3527C21.5 12.023 21.4369 11.6959 21.3145 11.3898L19.7432 7.46111C19.0101 5.62833 17.2999 4.36734 15.3291 4.25505C13.7001 4.16224 11.7453 4.07407 10.1992 4.07537C8.42758 4.07686 6.10971 4.19633 4.39062 4.30291C3.04001 4.38671 2 5.51217 2 6.86541V12.1203C2 13.5516 3.16047 14.7121 4.5918 14.7121H7.54004L10.1992 18.7004L10.8447 19.9924Z"/>
</mask>
<path d="M10.8447 19.9924C11.3386 20.9803 12.6951 21.1142 13.3721 20.2414L13.6572 19.8722C14.2219 19.1442 14.3577 18.1713 14.0137 17.3166L13.3018 15.547H18.9082C20.3395 15.547 21.5 14.3866 21.5 12.9552V12.3527C21.5 12.023 21.4369 11.6959 21.3145 11.3898L19.7432 7.46111C19.0101 5.62833 17.2999 4.36734 15.3291 4.25505C13.7001 4.16224 11.7453 4.07407 10.1992 4.07537C8.42758 4.07686 6.10971 4.19633 4.39062 4.30291C3.04001 4.38671 2 5.51217 2 6.86541V12.1203C2 13.5516 3.16047 14.7121 4.5918 14.7121H7.54004L10.1992 18.7004L10.8447 19.9924Z" fill="#1A1A1A"/>
<path d="M10.8447 19.9924L9.50302 20.663L9.50288 20.6628L10.8447 19.9924ZM13.3721 20.2414L14.5591 21.1584L14.5573 21.1607L13.3721 20.2414ZM13.6572 19.8722L12.4702 18.9552L12.4719 18.953L13.6572 19.8722ZM14.0137 17.3166L12.6221 17.8766L12.6221 17.8764L14.0137 17.3166ZM13.3018 15.547L11.9102 16.1069C11.7242 15.6447 11.7799 15.1202 12.0588 14.7073C12.3377 14.2945 12.8035 14.047 13.3018 14.047V15.547ZM21.5 12.9552H23V12.9553L21.5 12.9552ZM21.5 12.3527L23 12.3527V12.3527H21.5ZM21.3145 11.3898L19.9217 11.9469L19.9217 11.9468L21.3145 11.3898ZM19.7432 7.46111L21.1359 6.90402L21.1359 6.90408L19.7432 7.46111ZM15.3291 4.25505L15.4144 2.75748V2.75748L15.3291 4.25505ZM10.1992 4.07537L10.198 2.57537H10.198L10.1992 4.07537ZM4.39062 4.30291L4.29773 2.80578L4.29781 2.80578L4.39062 4.30291ZM7.54004 14.7121V13.2121C8.04154 13.2121 8.50986 13.4627 8.78807 13.88L7.54004 14.7121ZM10.1992 18.7004L11.4472 17.8682C11.4819 17.9201 11.5132 17.9742 11.5411 18.03L10.1992 18.7004ZM10.8447 19.9924L12.1864 19.3217L12.1868 19.3221L13.3721 20.2414L14.5573 21.1607C13.203 22.9069 10.4904 22.6383 9.50302 20.663L10.8447 19.9924ZM13.3721 20.2414L12.185 19.3244L12.4702 18.9552L13.6572 19.8722L14.8443 20.7892L14.5591 21.1584L13.3721 20.2414ZM13.6572 19.8722L12.4719 18.953C12.7099 18.6461 12.7669 18.2364 12.6221 17.8766L14.0137 17.3166L15.4052 16.7565C15.9484 18.1062 15.7338 19.6422 14.8426 20.7915L13.6572 19.8722ZM14.0137 17.3166L12.6221 17.8764L11.9102 16.1069L13.3018 15.547L14.6934 14.9872L15.4053 16.7567L14.0137 17.3166ZM13.3018 15.547V14.047H18.9082V15.547V17.047H13.3018V15.547ZM18.9082 15.547V14.047C19.5111 14.047 20 13.5581 20 12.9552L21.5 12.9552L23 12.9553C23 15.215 21.168 17.047 18.9082 17.047V15.547ZM21.5 12.9552H20V12.3527H21.5H23V12.9552H21.5ZM21.5 12.3527L20 12.3528C20 12.2142 19.9734 12.0761 19.9217 11.9469L21.3145 11.3898L22.7072 10.8327C22.9004 11.3157 23 11.8319 23 12.3527L21.5 12.3527ZM21.3145 11.3898L19.9217 11.9468L18.3504 8.01814L19.7432 7.46111L21.1359 6.90408L22.7072 10.8328L21.3145 11.3898ZM19.7432 7.46111L18.3504 8.0182C17.8278 6.71155 16.6176 5.8309 15.2438 5.75263L15.3291 4.25505L15.4144 2.75748C17.9821 2.90377 20.1923 4.54511 21.1359 6.90402L19.7432 7.46111ZM15.3291 4.25505L15.2438 5.75263C13.6208 5.66016 11.7014 5.57411 10.2005 5.57537L10.1992 4.07537L10.198 2.57537C11.7891 2.57403 13.7794 2.66433 15.4144 2.75748L15.3291 4.25505ZM10.1992 4.07537L10.2005 5.57537C8.4778 5.57681 6.19878 5.69369 4.48344 5.80003L4.39062 4.30291L4.29781 2.80578C6.02065 2.69897 8.37735 2.5769 10.198 2.57537L10.1992 4.07537ZM4.39062 4.30291L4.48352 5.80003C3.9378 5.83389 3.5 6.29035 3.5 6.86541H2H0.5C0.5 4.73399 2.14221 2.93953 4.29773 2.80578L4.39062 4.30291ZM2 6.86541H3.5V12.1203H2H0.5V6.86541H2ZM2 12.1203H3.5C3.5 12.7232 3.9889 13.2121 4.5918 13.2121V14.7121V16.2121C2.33204 16.2121 0.5 14.38 0.5 12.1203H2ZM4.5918 14.7121V13.2121H7.54004V14.7121V16.2121H4.5918V14.7121ZM7.54004 14.7121L8.78807 13.88L11.4472 17.8682L10.1992 18.7004L8.95119 19.5325L6.29201 15.5442L7.54004 14.7121ZM10.1992 18.7004L11.5411 18.03L12.1866 19.3219L10.8447 19.9924L9.50288 20.6628L8.85738 19.3708L10.1992 18.7004Z" fill="#1A1A1A" mask="url(#path-1-inside-1_105_4277)"/>
<mask id="mask0_105_4277" style="mask-type:alpha" maskUnits="userSpaceOnUse" x="2" y="4" width="20" height="17">
<mask id="path-3-inside-2_105_4277" fill="white">
<path d="M10.8447 19.992C11.3385 20.9802 12.695 21.1139 13.3721 20.241L13.6572 19.8728C14.2219 19.1447 14.3578 18.171 14.0137 17.3162L13.3018 15.5466H18.9082C20.3395 15.5466 21.5 14.3862 21.5 12.9549V12.3533C21.5 12.0236 21.4369 11.6965 21.3145 11.3904L19.7432 7.46071C19.0101 5.62793 17.2999 4.36694 15.3291 4.25466C13.7001 4.16184 11.7453 4.07465 10.1992 4.07594C8.42758 4.07743 6.10971 4.19691 4.39062 4.30348C3.04002 4.3873 2 5.51179 2 6.86501V12.1209C2.00022 13.552 3.1606 14.7117 4.5918 14.7117H7.54004L10.1992 18.7009L10.8447 19.992Z"/>
</mask>
<path d="M10.8447 19.992C11.3385 20.9802 12.695 21.1139 13.3721 20.241L13.6572 19.8728C14.2219 19.1447 14.3578 18.171 14.0137 17.3162L13.3018 15.5466H18.9082C20.3395 15.5466 21.5 14.3862 21.5 12.9549V12.3533C21.5 12.0236 21.4369 11.6965 21.3145 11.3904L19.7432 7.46071C19.0101 5.62793 17.2999 4.36694 15.3291 4.25466C13.7001 4.16184 11.7453 4.07465 10.1992 4.07594C8.42758 4.07743 6.10971 4.19691 4.39062 4.30348C3.04002 4.3873 2 5.51179 2 6.86501V12.1209C2.00022 13.552 3.1606 14.7117 4.5918 14.7117H7.54004L10.1992 18.7009L10.8447 19.992Z" fill="#1A1A1A"/>
<path d="M10.8447 19.992L12.1864 19.3211L12.1866 19.3216L10.8447 19.992ZM13.3721 20.241L14.558 21.1595L14.5574 21.1603L13.3721 20.241ZM13.6572 19.8728L12.4713 18.9543L12.4719 18.9535L13.6572 19.8728ZM14.0137 17.3162L12.6222 17.8763L12.6221 17.876L14.0137 17.3162ZM13.3018 15.5466L11.9102 16.1065C11.7242 15.6443 11.7799 15.1198 12.0588 14.7069C12.3377 14.2941 12.8035 14.0466 13.3018 14.0466V15.5466ZM21.3145 11.3904L19.9217 11.9475L19.9217 11.9473L21.3145 11.3904ZM19.7432 7.46071L21.1359 6.90362L21.136 6.9038L19.7432 7.46071ZM15.3291 4.25466L15.4144 2.75708V2.75708L15.3291 4.25466ZM10.1992 4.07594L10.198 2.57594H10.198L10.1992 4.07594ZM4.39062 4.30348L4.29771 2.80636L4.29781 2.80636L4.39062 4.30348ZM2 6.86501H0.5V6.86501L2 6.86501ZM2 12.1209L0.5 12.1211V12.1209H2ZM7.54004 14.7117V13.2117C8.0416 13.2117 8.50997 13.4624 8.78816 13.8797L7.54004 14.7117ZM10.1992 18.7009L11.4473 17.869C11.4818 17.9207 11.5131 17.9745 11.5409 18.0301L10.1992 18.7009ZM10.8447 19.992L12.1866 19.3216L12.1868 19.3217L13.3721 20.241L14.5574 21.1603C13.2032 22.9063 10.4902 22.6386 9.50287 20.6624L10.8447 19.992ZM13.3721 20.241L12.1862 19.3225L12.4713 18.9543L13.6572 19.8728L14.8431 20.7913L14.558 21.1595L13.3721 20.241ZM13.6572 19.8728L12.4719 18.9535C12.7099 18.6467 12.7671 18.2362 12.6222 17.8763L14.0137 17.3162L15.4052 16.756C15.9485 18.1057 15.734 19.6427 14.8425 20.7921L13.6572 19.8728ZM14.0137 17.3162L12.6221 17.876L11.9102 16.1065L13.3018 15.5466L14.6934 14.9868L15.4053 16.7563L14.0137 17.3162ZM13.3018 15.5466V14.0466H18.9082V15.5466V17.0466H13.3018V15.5466ZM18.9082 15.5466V14.0466C19.5111 14.0466 20 13.5577 20 12.9549H21.5H23C23 15.2146 21.168 17.0466 18.9082 17.0466V15.5466ZM21.5 12.9549H20V12.3533H21.5H23V12.9549H21.5ZM21.5 12.3533H20C20 12.2148 19.9734 12.0767 19.9217 11.9475L21.3145 11.3904L22.7072 10.8333C22.9004 11.3163 23 11.8324 23 12.3533H21.5ZM21.3145 11.3904L19.9217 11.9473L18.3504 8.01762L19.7432 7.46071L21.136 6.9038L22.7072 10.8335L21.3145 11.3904ZM19.7432 7.46071L18.3504 8.0178C17.8278 6.71115 16.6176 5.8305 15.2438 5.75223L15.3291 4.25466L15.4144 2.75708C17.9821 2.90338 20.1923 4.54471 21.1359 6.90362L19.7432 7.46071ZM15.3291 4.25466L15.2438 5.75223C13.6216 5.6598 11.7018 5.57469 10.2005 5.57594L10.1992 4.07594L10.198 2.57594C11.7887 2.57461 13.7786 2.66389 15.4144 2.75708L15.3291 4.25466ZM10.1992 4.07594L10.2005 5.57594C8.4778 5.57739 6.19878 5.69427 4.48344 5.80061L4.39062 4.30348L4.29781 2.80636C6.02065 2.69955 8.37735 2.57747 10.198 2.57594L10.1992 4.07594ZM4.39062 4.30348L4.48354 5.8006C3.93709 5.83452 3.5 6.29072 3.5 6.86501L2 6.86501L0.5 6.86501C0.500002 4.73286 2.14296 2.94009 4.29771 2.80636L4.39062 4.30348ZM2 6.86501H3.5V12.1209H2H0.5V6.86501H2ZM2 12.1209L3.5 12.1206C3.50009 12.723 3.98852 13.2117 4.5918 13.2117V14.7117V16.2117C2.33269 16.2117 0.500342 14.381 0.5 12.1211L2 12.1209ZM4.5918 14.7117V13.2117H7.54004V14.7117V16.2117H4.5918V14.7117ZM7.54004 14.7117L8.78816 13.8797L11.4473 17.869L10.1992 18.7009L8.9511 19.5329L6.29192 15.5437L7.54004 14.7117ZM10.1992 18.7009L11.5409 18.0301L12.1864 19.3211L10.8447 19.992L9.50309 20.6628L8.85758 19.3718L10.1992 18.7009Z" fill="#1A1A1A" mask="url(#path-3-inside-2_105_4277)"/>
</mask>
<g mask="url(#mask0_105_4277)">
<path fill-rule="evenodd" clip-rule="evenodd" d="M7.31836 15.7126V3.7406Z" fill="white"/>
<path d="M7.31836 15.7126V3.7406" stroke="white" stroke-width="1.5" stroke-linecap="round" stroke-linejoin="round"/>
</g>
</svg>
