<svg width="16" height="16" viewBox="0 0 16 16" fill="none" xmlns="http://www.w3.org/2000/svg">
<mask id="path-1-inside-1_105_4293" fill="white">
<path d="M7.22949 13.3286C7.55882 13.9871 8.46281 14.0755 8.91406 13.4937L9.10449 13.2486C9.48096 12.7631 9.57119 12.1143 9.3418 11.5445L8.86719 10.3648H12.6055C13.5595 10.3647 14.3329 9.59124 14.333 8.63723V8.23489C14.333 8.01523 14.2906 7.79724 14.209 7.59329L13.1611 4.97415C12.6724 3.75229 11.5326 2.91131 10.2188 2.83645C9.13281 2.77458 7.82943 2.71645 6.79883 2.71731C5.61778 2.71832 4.07271 2.79763 2.92676 2.86868C2.02638 2.92454 1.33306 3.67457 1.33301 4.57669V8.08059C1.3331 9.03465 2.10649 9.80801 3.06055 9.80813H5.02637L6.79883 12.4673L7.22949 13.3286Z"/>
</mask>
<path d="M7.22949 13.3286C7.55882 13.9871 8.46281 14.0755 8.91406 13.4937L9.10449 13.2486C9.48096 12.7631 9.57119 12.1143 9.3418 11.5445L8.86719 10.3648H12.6055C13.5595 10.3647 14.3329 9.59124 14.333 8.63723V8.23489C14.333 8.01523 14.2906 7.79724 14.209 7.59329L13.1611 4.97415C12.6724 3.75229 11.5326 2.91131 10.2188 2.83645C9.13281 2.77458 7.82943 2.71645 6.79883 2.71731C5.61778 2.71832 4.07271 2.79763 2.92676 2.86868C2.02638 2.92454 1.33306 3.67457 1.33301 4.57669V8.08059C1.3331 9.03465 2.10649 9.80801 3.06055 9.80813H5.02637L6.79883 12.4673L7.22949 13.3286Z" fill="#1A1A1A"/>
<path d="M7.22949 13.3286L6.33513 13.776L6.33506 13.7759L7.22949 13.3286ZM8.91406 13.4937L8.12386 12.8808L8.12437 12.8802L8.91406 13.4937ZM9.10449 13.2486L9.89469 13.8614L9.89418 13.8621L9.10449 13.2486ZM9.3418 11.5445L8.41414 11.9179L8.41406 11.9177L9.3418 11.5445ZM8.86719 10.3648L7.93945 10.738C7.81547 10.4298 7.85261 10.0802 8.03856 9.80497C8.22451 9.52972 8.53501 9.36477 8.86719 9.36477V10.3648ZM12.6055 10.3648L12.6056 11.3648H12.6055V10.3648ZM14.333 8.63723H15.333V8.63739L14.333 8.63723ZM14.333 8.23489L15.333 8.23463V8.23489H14.333ZM14.209 7.59329L15.1374 7.22184L15.1375 7.2219L14.209 7.59329ZM13.1611 4.97415L12.2327 5.3456L12.2327 5.34554L13.1611 4.97415ZM10.2188 2.83645L10.2756 1.83807H10.2756L10.2188 2.83645ZM6.79883 2.71731L6.79798 1.71731H6.79799L6.79883 2.71731ZM2.92676 2.86868L2.86483 1.8706L2.86488 1.87059L2.92676 2.86868ZM1.33301 4.57669H0.333008V4.57663L1.33301 4.57669ZM1.33301 8.08059L0.333008 8.08069V8.08059H1.33301ZM3.06055 9.80813V10.8081H3.06042L3.06055 9.80813ZM5.02637 9.80813V8.80813C5.36075 8.80813 5.67301 8.97526 5.85846 9.2535L5.02637 9.80813ZM6.79883 12.4673L7.63093 11.9127C7.65391 11.9472 7.67472 11.983 7.69326 12.0201L6.79883 12.4673ZM7.22949 13.3286L8.12386 12.8813L8.12386 12.8808L8.91406 13.4937L9.70426 14.1065C8.80229 15.2695 6.99419 15.0936 6.33513 13.776L7.22949 13.3286ZM8.91406 13.4937L8.12437 12.8802L8.3148 12.6351L9.10449 13.2486L9.89418 13.8621L9.70375 14.1072L8.91406 13.4937ZM9.10449 13.2486L8.31429 12.6357C8.47272 12.4314 8.51086 12.1582 8.41414 11.9179L9.3418 11.5445L10.2695 11.171C10.6315 12.0705 10.4892 13.0949 9.89469 13.8614L9.10449 13.2486ZM9.3418 11.5445L8.41406 11.9177L7.93945 10.738L8.86719 10.3648L9.79492 9.99153L10.2695 11.1712L9.3418 11.5445ZM8.86719 10.3648V9.36477H12.6055V10.3648V11.3648H8.86719V10.3648ZM12.6055 10.3648L12.6053 9.36477C13.0071 9.36472 13.3329 9.03896 13.333 8.63707L14.333 8.63723L15.333 8.63739C15.3328 10.1435 14.1118 11.3646 12.6056 11.3648L12.6055 10.3648ZM14.333 8.63723H13.333V8.23489H14.333H15.333V8.63723H14.333ZM14.333 8.23489L13.333 8.23514C13.333 8.14377 13.3153 8.05165 13.2805 7.96468L14.209 7.59329L15.1375 7.2219C15.2658 7.54282 15.3329 7.8867 15.333 8.23463L14.333 8.23489ZM14.209 7.59329L13.2805 7.96474L12.2327 5.3456L13.1611 4.97415L14.0896 4.6027L15.1374 7.22184L14.209 7.59329ZM13.1611 4.97415L12.2327 5.34554C11.8841 4.47417 11.0775 3.887 10.1619 3.83483L10.2188 2.83645L10.2756 1.83807C11.9877 1.93561 13.4607 3.03042 14.0896 4.60276L13.1611 4.97415ZM10.2188 2.83645L10.1619 3.83483C9.08045 3.77322 7.80045 3.71647 6.79967 3.71731L6.79883 2.71731L6.79799 1.71731C7.85841 1.71642 9.18517 1.77595 10.2756 1.83807L10.2188 2.83645ZM6.79883 2.71731L6.79968 3.71731C5.65116 3.71829 4.13187 3.79589 2.98863 3.86676L2.92676 2.86868L2.86488 1.87059C4.01355 1.79938 5.58439 1.71835 6.79798 1.71731L6.79883 2.71731ZM2.92676 2.86868L2.98868 3.86676C2.62472 3.88934 2.33303 4.19356 2.33301 4.57674L1.33301 4.57669L0.333008 4.57663C0.333085 3.15558 1.42803 1.95974 2.86483 1.8706L2.92676 2.86868ZM1.33301 4.57669H2.33301V8.08059H1.33301H0.333008V4.57669H1.33301ZM1.33301 8.08059L2.33301 8.08049C2.33305 8.48232 2.65877 8.80808 3.06067 8.80813L3.06055 9.80813L3.06042 10.8081C1.55421 10.8079 0.333155 9.58699 0.333008 8.08069L1.33301 8.08059ZM3.06055 9.80813V8.80813H5.02637V9.80813V10.8081H3.06055V9.80813ZM5.02637 9.80813L5.85846 9.2535L7.63093 11.9127L6.79883 12.4673L5.96673 13.0219L4.19427 10.3628L5.02637 9.80813ZM6.79883 12.4673L7.69326 12.0201L8.12392 12.8814L7.22949 13.3286L6.33506 13.7759L5.9044 12.9145L6.79883 12.4673Z" fill="#1A1A1A" mask="url(#path-1-inside-1_105_4293)"/>
<mask id="mask0_105_4293" style="mask-type:alpha" maskUnits="userSpaceOnUse" x="1" y="2" width="14" height="12">
<mask id="path-3-inside-2_105_4293" fill="white">
<path d="M7.22949 13.3283C7.5587 13.9869 8.46272 14.076 8.91406 13.4944L9.10449 13.2483C9.48094 12.7628 9.57119 12.114 9.3418 11.5442L8.86719 10.3645H12.6055C13.5596 10.3644 14.333 9.59107 14.333 8.63693V8.23556C14.333 8.01581 14.2906 7.79801 14.209 7.59396L13.1611 4.97384C12.6723 3.75209 11.5325 2.91198 10.2188 2.83713C9.1328 2.77526 7.82944 2.71614 6.79883 2.71701C5.61778 2.71802 4.07271 2.79831 2.92676 2.86935C2.02649 2.92523 1.3332 3.67441 1.33301 4.57638V8.08029C1.33301 9.03443 2.10643 9.80771 3.06055 9.80783H5.02637L6.79883 12.467L7.22949 13.3283Z"/>
</mask>
<path d="M7.22949 13.3283C7.5587 13.9869 8.46272 14.076 8.91406 13.4944L9.10449 13.2483C9.48094 12.7628 9.57119 12.114 9.3418 11.5442L8.86719 10.3645H12.6055C13.5596 10.3644 14.333 9.59107 14.333 8.63693V8.23556C14.333 8.01581 14.2906 7.79801 14.209 7.59396L13.1611 4.97384C12.6723 3.75209 11.5325 2.91198 10.2188 2.83713C9.1328 2.77526 7.82944 2.71614 6.79883 2.71701C5.61778 2.71802 4.07271 2.79831 2.92676 2.86935C2.02649 2.92523 1.3332 3.67441 1.33301 4.57638V8.08029C1.33301 9.03443 2.10643 9.80771 3.06055 9.80783H5.02637L6.79883 12.467L7.22949 13.3283Z" fill="#1A1A1A"/>
<path d="M7.22949 13.3283L8.12392 12.8811L8.12396 12.8812L7.22949 13.3283ZM8.91406 13.4944L9.70493 14.1063L9.70413 14.1074L8.91406 13.4944ZM9.10449 13.2483L8.31362 12.6363L8.31428 12.6354L9.10449 13.2483ZM9.3418 11.5442L8.41414 11.9176L8.41406 11.9174L9.3418 11.5442ZM8.86719 10.3645L7.93945 10.7377C7.81547 10.4295 7.85261 10.0799 8.03856 9.80467C8.22451 9.52942 8.53501 9.36447 8.86719 9.36447V10.3645ZM12.6055 10.3645L12.6056 11.3645H12.6055V10.3645ZM14.333 8.63693H15.333V8.63694L14.333 8.63693ZM14.209 7.59396L15.1375 7.22263L15.1375 7.22265L14.209 7.59396ZM13.1611 4.97384L14.0896 4.6024L14.0896 4.60251L13.1611 4.97384ZM10.2188 2.83713L10.2756 1.83875H10.2756L10.2188 2.83713ZM6.79883 2.71701L6.79798 1.71701H6.79799L6.79883 2.71701ZM2.92676 2.86935L2.86481 1.87127L2.86488 1.87127L2.92676 2.86935ZM1.33301 4.57638H0.333008V4.57618L1.33301 4.57638ZM3.06055 9.80783V10.8078H3.06042L3.06055 9.80783ZM5.02637 9.80783V8.80783C5.36075 8.80783 5.67301 8.97496 5.85846 9.2532L5.02637 9.80783ZM6.79883 12.467L7.63093 11.9124C7.65391 11.9469 7.67472 11.9827 7.69326 12.0198L6.79883 12.467ZM7.22949 13.3283L8.12396 12.8812L8.124 12.8813L8.91406 13.4944L9.70413 14.1074C8.80128 15.271 6.99334 15.0924 6.33502 13.7755L7.22949 13.3283ZM8.91406 13.4944L8.12319 12.8824L8.31362 12.6363L9.10449 13.2483L9.89536 13.8602L9.70493 14.1063L8.91406 13.4944ZM9.10449 13.2483L8.31428 12.6354C8.47271 12.4311 8.51085 12.1578 8.41414 11.9176L9.3418 11.5442L10.2695 11.1707C10.6315 12.0702 10.4892 13.0946 9.89471 13.8611L9.10449 13.2483ZM9.3418 11.5442L8.41406 11.9174L7.93945 10.7377L8.86719 10.3645L9.79492 9.99123L10.2695 11.1709L9.3418 11.5442ZM8.86719 10.3645V9.36447H12.6055V10.3645V11.3645H8.86719V10.3645ZM12.6055 10.3645L12.6053 9.36447C13.0074 9.36442 13.333 9.03866 13.333 8.63692L14.333 8.63693L15.333 8.63694C15.333 10.1435 14.1118 11.3643 12.6056 11.3645L12.6055 10.3645ZM14.333 8.63693H13.333V8.23556H14.333H15.333V8.63693H14.333ZM14.333 8.23556H13.333C13.333 8.14449 13.3154 8.05261 13.2805 7.96527L14.209 7.59396L15.1375 7.22265C15.2658 7.5434 15.333 7.88713 15.333 8.23556H14.333ZM14.209 7.59396L13.2805 7.96529L12.2326 5.34518L13.1611 4.97384L14.0896 4.60251L15.1375 7.22263L14.209 7.59396ZM13.1611 4.97384L12.2327 5.34529C11.8843 4.4744 11.0779 3.88769 10.1619 3.83551L10.2188 2.83713L10.2756 1.83875C11.9872 1.93626 13.4604 3.02979 14.0896 4.6024L13.1611 4.97384ZM10.2188 2.83713L10.1619 3.83551C9.07971 3.77386 7.80009 3.71617 6.79967 3.71701L6.79883 2.71701L6.79799 1.71701C7.85879 1.71612 9.18589 1.77666 10.2756 1.83875L10.2188 2.83713ZM6.79883 2.71701L6.79968 3.71701C5.65146 3.71799 4.13253 3.79652 2.98863 3.86744L2.92676 2.86935L2.86488 1.87127C4.0129 1.8001 5.58409 1.71804 6.79798 1.71701L6.79883 2.71701ZM2.92676 2.86935L2.98871 3.86743C2.62424 3.89005 2.33309 4.19404 2.33301 4.57659L1.33301 4.57638L0.333008 4.57618C0.333303 3.15478 1.42874 1.96041 2.86481 1.87127L2.92676 2.86935ZM1.33301 4.57638H2.33301V8.08029H1.33301H0.333008V4.57638H1.33301ZM1.33301 8.08029H2.33301C2.33301 8.48202 2.65862 8.80778 3.06067 8.80783L3.06055 9.80783L3.06042 10.8078C1.55425 10.8076 0.333008 9.58684 0.333008 8.08029H1.33301ZM3.06055 9.80783V8.80783H5.02637V9.80783V10.8078H3.06055V9.80783ZM5.02637 9.80783L5.85846 9.2532L7.63093 11.9124L6.79883 12.467L5.96673 13.0216L4.19427 10.3625L5.02637 9.80783ZM6.79883 12.467L7.69326 12.0198L8.12392 12.8811L7.22949 13.3283L6.33506 13.7756L5.9044 12.9142L6.79883 12.467Z" fill="#1A1A1A" mask="url(#path-3-inside-2_105_4293)"/>
</mask>
<g mask="url(#mask0_105_4293)">
<path fill-rule="evenodd" clip-rule="evenodd" d="M4.87891 10.8083V2.16032Z" fill="white"/>
<path d="M4.87891 10.8083V2.16032" stroke="white" stroke-linecap="round" stroke-linejoin="round"/>
</g>
</svg>
