<svg width="12" height="12" viewBox="0 0 12 12" fill="none" xmlns="http://www.w3.org/2000/svg">
<mask id="path-1-inside-1_105_4301" fill="white">
<path d="M5.42188 9.99559C5.66869 10.4896 6.34697 10.5568 6.68555 10.1206L6.8291 9.93602C7.11127 9.57199 7.17884 9.08498 7.00684 8.6577L6.65039 7.77293H9.4541C10.1696 7.77293 10.7497 7.19346 10.75 6.47801V6.17625C10.75 6.01143 10.7184 5.84785 10.6572 5.69481L9.87109 3.72997C9.50451 2.81393 8.65009 2.18373 7.66504 2.12743C6.85053 2.08102 5.87265 2.03693 5.09961 2.03758C4.21379 2.03833 3.05486 2.09855 2.19531 2.15184C1.52012 2.19375 1.00016 2.75565 1 3.43211V6.06004C1 6.77571 1.58024 7.35594 2.2959 7.35594H3.77051L5.09961 9.35008L5.42188 9.99559Z"/>
</mask>
<path d="M5.42188 9.99559C5.66869 10.4896 6.34697 10.5568 6.68555 10.1206L6.8291 9.93602C7.11127 9.57199 7.17884 9.08498 7.00684 8.6577L6.65039 7.77293H9.4541C10.1696 7.77293 10.7497 7.19346 10.75 6.47801V6.17625C10.75 6.01143 10.7184 5.84785 10.6572 5.69481L9.87109 3.72997C9.50451 2.81393 8.65009 2.18373 7.66504 2.12743C6.85053 2.08102 5.87265 2.03693 5.09961 2.03758C4.21379 2.03833 3.05486 2.09855 2.19531 2.15184C1.52012 2.19375 1.00016 2.75565 1 3.43211V6.06004C1 6.77571 1.58024 7.35594 2.2959 7.35594H3.77051L5.09961 9.35008L5.42188 9.99559Z" fill="#1A1A1A"/>
<path d="M5.42188 9.99559L4.5273 10.4425L4.52718 10.4423L5.42188 9.99559ZM6.68555 10.1206L5.89558 9.50744L5.89619 9.50665L6.68555 10.1206ZM6.8291 9.93602L7.61947 10.5487L7.61845 10.55L6.8291 9.93602ZM7.00684 8.6577L7.93439 8.28402L7.93449 8.28426L7.00684 8.6577ZM6.65039 7.77293L5.72283 8.14662C5.59867 7.83843 5.6357 7.48869 5.82163 7.21333C6.00757 6.93796 6.31813 6.77293 6.65039 6.77293V7.77293ZM10.75 6.47801H11.75V6.47836L10.75 6.47801ZM10.75 6.17625L11.75 6.17619V6.17625H10.75ZM10.6572 5.69481L11.5857 5.32334L11.5857 5.32342L10.6572 5.69481ZM9.87109 3.72997L10.7995 3.35843L10.7995 3.3585L9.87109 3.72997ZM7.66504 2.12743L7.72192 1.12905L7.72211 1.12906L7.66504 2.12743ZM5.09961 2.03758L5.09877 1.03758H5.09877L5.09961 2.03758ZM2.19531 2.15184L2.13336 1.15376L2.13344 1.15376L2.19531 2.15184ZM1 3.43211H0V3.43188L1 3.43211ZM3.77051 7.35594V6.35594C4.1049 6.35594 4.41716 6.52308 4.60262 6.80134L3.77051 7.35594ZM5.09961 9.35008L5.93172 8.79548C5.95481 8.83012 5.97571 8.86616 5.99431 8.90341L5.09961 9.35008ZM5.42188 9.99559L6.31645 9.54866C6.23451 9.38465 6.00891 9.36143 5.89558 9.50744L6.68555 10.1206L7.47552 10.7337C6.68504 11.7522 5.10288 11.5946 4.5273 10.4425L5.42188 9.99559ZM6.68555 10.1206L5.89619 9.50665L6.03975 9.32208L6.8291 9.93602L7.61845 10.55L7.4749 10.7345L6.68555 10.1206ZM6.8291 9.93602L6.03873 9.32339C6.10289 9.24061 6.1186 9.12906 6.07918 9.03114L7.00684 8.6577L7.93449 8.28426C8.23908 9.04089 8.11964 9.90337 7.61947 10.5487L6.8291 9.93602ZM7.00684 8.6577L6.07928 9.03138L5.72283 8.14662L6.65039 7.77293L7.57795 7.39925L7.93439 8.28402L7.00684 8.6577ZM6.65039 7.77293V6.77293H9.4541V7.77293V8.77293H6.65039V7.77293ZM9.4541 7.77293V6.77293C9.61796 6.77293 9.74994 6.64047 9.75 6.47766L10.75 6.47801L11.75 6.47836C11.7496 7.74646 10.7213 8.77293 9.4541 8.77293V7.77293ZM10.75 6.47801H9.75V6.17625H10.75H11.75V6.47801H10.75ZM10.75 6.17625L9.75 6.17632C9.75 6.13885 9.74279 6.10129 9.72875 6.0662L10.6572 5.69481L11.5857 5.32342C11.6941 5.59441 11.75 5.88401 11.75 6.17619L10.75 6.17625ZM10.6572 5.69481L9.72878 6.06628L8.94265 4.10144L9.87109 3.72997L10.7995 3.3585L11.5857 5.32334L10.6572 5.69481ZM9.87109 3.72997L8.94268 4.1015C8.71636 3.53598 8.19508 3.15936 7.60797 3.1258L7.66504 2.12743L7.72211 1.12906C9.10509 1.20811 10.2927 2.09188 10.7995 3.35843L9.87109 3.72997ZM7.66504 2.12743L7.60816 3.12581C6.7977 3.07963 5.84343 3.03696 5.10045 3.03758L5.09961 2.03758L5.09877 1.03758C5.90186 1.03691 6.90335 1.08241 7.72192 1.12905L7.66504 2.12743ZM5.09961 2.03758L5.10045 3.03758C4.24747 3.0383 3.11467 3.09676 2.25719 3.14992L2.19531 2.15184L2.13344 1.15376C2.99504 1.10034 4.1801 1.03835 5.09877 1.03758L5.09961 2.03758ZM2.19531 2.15184L2.25726 3.14992C2.1179 3.15857 2.00004 3.27525 2 3.43235L1 3.43211L0 3.43188C0.000281572 2.23604 0.922343 1.22893 2.13336 1.15376L2.19531 2.15184ZM1 3.43211H2V6.06004H1H0V3.43211H1ZM1 6.06004H2C2 6.22342 2.13252 6.35594 2.2959 6.35594V7.35594V8.35594C1.02795 8.35594 0 7.32799 0 6.06004H1ZM2.2959 7.35594V6.35594H3.77051V7.35594V8.35594H2.2959V7.35594ZM3.77051 7.35594L4.60262 6.80134L5.93172 8.79548L5.09961 9.35008L4.2675 9.90469L2.93839 7.91055L3.77051 7.35594ZM5.09961 9.35008L5.99431 8.90341L6.31657 9.54892L5.42188 9.99559L4.52718 10.4423L4.20491 9.79675L5.09961 9.35008Z" fill="#1A1A1A" mask="url(#path-1-inside-1_105_4301)"/>
<mask id="mask0_105_4301" style="mask-type:alpha" maskUnits="userSpaceOnUse" x="1" y="2" width="10" height="9">
<mask id="path-3-inside-2_105_4301" fill="white">
<path d="M5.42188 9.99559C5.66869 10.4896 6.34697 10.5568 6.68555 10.1206L6.8291 9.93602C7.11127 9.57199 7.17884 9.08498 7.00684 8.6577L6.65039 7.77293H9.4541C10.1696 7.77293 10.7497 7.19346 10.75 6.47801V6.17625C10.75 6.01143 10.7184 5.84785 10.6572 5.69481L9.87109 3.72997C9.50451 2.81393 8.65009 2.18373 7.66504 2.12743C6.85053 2.08102 5.87265 2.03693 5.09961 2.03758C4.21379 2.03833 3.05486 2.09855 2.19531 2.15184C1.52012 2.19375 1.00016 2.75565 1 3.43211V6.06004C1 6.77571 1.58024 7.35594 2.2959 7.35594H3.77051L5.09961 9.35008L5.42188 9.99559Z"/>
</mask>
<path d="M5.42188 9.99559C5.66869 10.4896 6.34697 10.5568 6.68555 10.1206L6.8291 9.93602C7.11127 9.57199 7.17884 9.08498 7.00684 8.6577L6.65039 7.77293H9.4541C10.1696 7.77293 10.7497 7.19346 10.75 6.47801V6.17625C10.75 6.01143 10.7184 5.84785 10.6572 5.69481L9.87109 3.72997C9.50451 2.81393 8.65009 2.18373 7.66504 2.12743C6.85053 2.08102 5.87265 2.03693 5.09961 2.03758C4.21379 2.03833 3.05486 2.09855 2.19531 2.15184C1.52012 2.19375 1.00016 2.75565 1 3.43211V6.06004C1 6.77571 1.58024 7.35594 2.2959 7.35594H3.77051L5.09961 9.35008L5.42188 9.99559Z" fill="#1A1A1A"/>
<path d="M5.42188 9.99559L4.5273 10.4425L4.52718 10.4423L5.42188 9.99559ZM6.68555 10.1206L5.89558 9.50744L5.89619 9.50665L6.68555 10.1206ZM6.8291 9.93602L7.61947 10.5487L7.61845 10.55L6.8291 9.93602ZM7.00684 8.6577L7.93439 8.28402L7.93449 8.28426L7.00684 8.6577ZM6.65039 7.77293L5.72283 8.14662C5.59867 7.83843 5.6357 7.48869 5.82163 7.21333C6.00757 6.93796 6.31813 6.77293 6.65039 6.77293V7.77293ZM10.75 6.47801H11.75V6.47836L10.75 6.47801ZM10.75 6.17625L11.75 6.17619V6.17625H10.75ZM10.6572 5.69481L11.5857 5.32334L11.5857 5.32342L10.6572 5.69481ZM9.87109 3.72997L10.7995 3.35843L10.7995 3.3585L9.87109 3.72997ZM7.66504 2.12743L7.72192 1.12905L7.72211 1.12906L7.66504 2.12743ZM5.09961 2.03758L5.09877 1.03758H5.09877L5.09961 2.03758ZM2.19531 2.15184L2.13336 1.15376L2.13344 1.15376L2.19531 2.15184ZM1 3.43211H0V3.43188L1 3.43211ZM3.77051 7.35594V6.35594C4.1049 6.35594 4.41716 6.52308 4.60262 6.80134L3.77051 7.35594ZM5.09961 9.35008L5.93172 8.79548C5.95481 8.83012 5.97571 8.86616 5.99431 8.90341L5.09961 9.35008ZM5.42188 9.99559L6.31645 9.54866C6.23451 9.38465 6.00891 9.36143 5.89558 9.50744L6.68555 10.1206L7.47552 10.7337C6.68504 11.7522 5.10288 11.5946 4.5273 10.4425L5.42188 9.99559ZM6.68555 10.1206L5.89619 9.50665L6.03975 9.32208L6.8291 9.93602L7.61845 10.55L7.4749 10.7345L6.68555 10.1206ZM6.8291 9.93602L6.03873 9.32339C6.10289 9.24061 6.1186 9.12906 6.07918 9.03114L7.00684 8.6577L7.93449 8.28426C8.23908 9.04089 8.11964 9.90337 7.61947 10.5487L6.8291 9.93602ZM7.00684 8.6577L6.07928 9.03138L5.72283 8.14662L6.65039 7.77293L7.57795 7.39925L7.93439 8.28402L7.00684 8.6577ZM6.65039 7.77293V6.77293H9.4541V7.77293V8.77293H6.65039V7.77293ZM9.4541 7.77293V6.77293C9.61796 6.77293 9.74994 6.64047 9.75 6.47766L10.75 6.47801L11.75 6.47836C11.7496 7.74646 10.7213 8.77293 9.4541 8.77293V7.77293ZM10.75 6.47801H9.75V6.17625H10.75H11.75V6.47801H10.75ZM10.75 6.17625L9.75 6.17632C9.75 6.13885 9.74279 6.10129 9.72875 6.0662L10.6572 5.69481L11.5857 5.32342C11.6941 5.59441 11.75 5.88401 11.75 6.17619L10.75 6.17625ZM10.6572 5.69481L9.72878 6.06628L8.94265 4.10144L9.87109 3.72997L10.7995 3.3585L11.5857 5.32334L10.6572 5.69481ZM9.87109 3.72997L8.94268 4.1015C8.71636 3.53598 8.19508 3.15936 7.60797 3.1258L7.66504 2.12743L7.72211 1.12906C9.10509 1.20811 10.2927 2.09188 10.7995 3.35843L9.87109 3.72997ZM7.66504 2.12743L7.60816 3.12581C6.7977 3.07963 5.84343 3.03696 5.10045 3.03758L5.09961 2.03758L5.09877 1.03758C5.90186 1.03691 6.90335 1.08241 7.72192 1.12905L7.66504 2.12743ZM5.09961 2.03758L5.10045 3.03758C4.24747 3.0383 3.11467 3.09676 2.25719 3.14992L2.19531 2.15184L2.13344 1.15376C2.99504 1.10034 4.1801 1.03835 5.09877 1.03758L5.09961 2.03758ZM2.19531 2.15184L2.25726 3.14992C2.1179 3.15857 2.00004 3.27525 2 3.43235L1 3.43211L0 3.43188C0.000281572 2.23604 0.922343 1.22893 2.13336 1.15376L2.19531 2.15184ZM1 3.43211H2V6.06004H1H0V3.43211H1ZM1 6.06004H2C2 6.22342 2.13252 6.35594 2.2959 6.35594V7.35594V8.35594C1.02795 8.35594 0 7.32799 0 6.06004H1ZM2.2959 7.35594V6.35594H3.77051V7.35594V8.35594H2.2959V7.35594ZM3.77051 7.35594L4.60262 6.80134L5.93172 8.79548L5.09961 9.35008L4.2675 9.90469L2.93839 7.91055L3.77051 7.35594ZM5.09961 9.35008L5.99431 8.90341L6.31657 9.54892L5.42188 9.99559L4.52718 10.4423L4.20491 9.79675L5.09961 9.35008Z" fill="#1A1A1A" mask="url(#path-3-inside-2_105_4301)"/>
</mask>
<g mask="url(#mask0_105_4301)">
<path fill-rule="evenodd" clip-rule="evenodd" d="M3.65918 7.3562V2.37018Z" fill="white"/>
<path d="M3.65918 7.3562V2.37018" stroke="white" stroke-linecap="round" stroke-linejoin="round"/>
</g>
</svg>
