<svg width="32" height="32" viewBox="0 0 32 32" fill="none" xmlns="http://www.w3.org/2000/svg">
<mask id="path-1-inside-1_105_4285" fill="white">
<path d="M14.459 26.6565C15.1173 27.9739 16.9254 28.1522 17.8281 26.9885L18.209 26.4973C18.9618 25.5266 19.1432 24.2287 18.6846 23.0891L17.7344 20.7297H25.2109C27.1192 20.7295 28.666 19.1819 28.666 17.2736V16.4709C28.666 16.0314 28.5821 15.5958 28.4189 15.1877L26.3232 9.94748C25.3457 7.50403 23.0659 5.82386 20.4385 5.67404C18.2665 5.5503 15.66 5.43306 13.5986 5.43478C11.2364 5.43676 8.14567 5.59541 5.85352 5.73752C4.05271 5.84925 2.66605 7.34925 2.66602 9.15353V16.1613C2.66627 18.0694 4.21303 19.6162 6.12109 19.6164H10.0527L13.5986 24.9348L14.459 26.6565Z"/>
</mask>
<path d="M14.459 26.6565C15.1173 27.9739 16.9254 28.1522 17.8281 26.9885L18.209 26.4973C18.9618 25.5266 19.1432 24.2287 18.6846 23.0891L17.7344 20.7297H25.2109C27.1192 20.7295 28.666 19.1819 28.666 17.2736V16.4709C28.666 16.0314 28.5821 15.5958 28.4189 15.1877L26.3232 9.94748C25.3457 7.50403 23.0659 5.82386 20.4385 5.67404C18.2665 5.5503 15.66 5.43306 13.5986 5.43478C11.2364 5.43676 8.14567 5.59541 5.85352 5.73752C4.05271 5.84925 2.66605 7.34925 2.66602 9.15353V16.1613C2.66627 18.0694 4.21303 19.6162 6.12109 19.6164H10.0527L13.5986 24.9348L14.459 26.6565Z" fill="#1A1A1A"/>
<path d="M14.459 26.6565L12.8936 27.4387L12.8936 27.4387L14.459 26.6565ZM17.8281 26.9885L19.2111 28.0608L19.2109 28.0611L17.8281 26.9885ZM18.209 26.4973L16.826 25.425L16.8261 25.4248L18.209 26.4973ZM18.6846 23.0891L20.3079 22.4353L20.308 22.4358L18.6846 23.0891ZM17.7344 20.7297L16.1111 21.3835C15.8939 20.8441 15.9587 20.2321 16.2841 19.7503C16.6095 19.2685 17.153 18.9797 17.7344 18.9797V20.7297ZM25.2109 20.7297L25.2112 22.4797H25.2109V20.7297ZM28.4189 15.1877L30.0438 14.5379L30.0439 14.538L28.4189 15.1877ZM26.3232 9.94748L27.948 9.29747L27.9481 9.29765L26.3232 9.94748ZM20.4385 5.67404L20.538 3.92687L20.5381 3.92688L20.4385 5.67404ZM13.5986 5.43478L13.5972 3.68478H13.5972L13.5986 5.43478ZM5.85352 5.73752L5.74514 3.99088L5.74523 3.99087L5.85352 5.73752ZM2.66602 9.15353H0.916016V9.1535L2.66602 9.15353ZM2.66602 16.1613L0.916016 16.1616V16.1613H2.66602ZM6.12109 19.6164V21.3664H6.12087L6.12109 19.6164ZM10.0527 19.6164V17.8664C10.6378 17.8664 11.1842 18.1588 11.5088 18.6456L10.0527 19.6164ZM13.5986 24.9348L15.0547 23.964C15.095 24.0245 15.1316 24.0875 15.1641 24.1525L13.5986 24.9348ZM14.459 26.6565L16.0244 25.8742C16.1068 26.0392 16.3328 26.061 16.4454 25.9159L17.8281 26.9885L19.2109 28.0611C17.5181 30.2433 14.1278 29.9086 12.8936 27.4387L14.459 26.6565ZM17.8281 26.9885L16.4451 25.9162L16.826 25.425L18.209 26.4973L19.592 27.5696L19.2111 28.0608L17.8281 26.9885ZM18.209 26.4973L16.8261 25.4248C17.198 24.9453 17.2873 24.3045 17.0611 23.7424L18.6846 23.0891L20.308 22.4358C20.9991 24.1529 20.7257 26.1078 19.5918 27.5698L18.209 26.4973ZM18.6846 23.0891L17.0613 23.7428L16.1111 21.3835L17.7344 20.7297L19.3577 20.0759L20.3079 22.4353L18.6846 23.0891ZM17.7344 20.7297V18.9797H25.2109V20.7297V22.4797H17.7344V20.7297ZM25.2109 20.7297L25.2107 18.9797C26.1522 18.9796 26.916 18.2159 26.916 17.2737H28.666H30.416C30.416 20.148 28.0861 22.4793 25.2112 22.4797L25.2109 20.7297ZM28.666 17.2737H26.916V16.4709H28.666H30.416V17.2737H28.666ZM28.666 16.4709H26.916C26.916 16.2541 26.8746 16.0389 26.794 15.8375L28.4189 15.1877L30.0439 14.538C30.2896 15.1526 30.416 15.8088 30.416 16.4709H28.666ZM28.4189 15.1877L26.7941 15.8375L24.6984 10.5973L26.3232 9.94748L27.9481 9.29765L30.0438 14.5379L28.4189 15.1877ZM26.3232 9.94748L24.6984 10.5975C23.9666 8.76814 22.2703 7.53133 20.3389 7.4212L20.4385 5.67404L20.5381 3.92688C23.8615 4.11638 26.7249 6.23993 27.948 9.29747L26.3232 9.94748ZM20.4385 5.67404L20.3389 7.42121C18.1743 7.29788 15.609 7.18311 13.6001 7.18478L13.5986 5.43478L13.5972 3.68478C15.7111 3.68302 18.3588 3.80271 20.538 3.92687L20.4385 5.67404ZM13.5986 5.43478L13.6001 7.18478C11.2948 7.18671 8.24919 7.34236 5.9618 7.48416L5.85352 5.73752L5.74523 3.99087C8.04214 3.84847 11.178 3.68681 13.5972 3.68478L13.5986 5.43478ZM5.85352 5.73752L5.96189 7.48416C5.09975 7.53765 4.41603 8.25753 4.41602 9.15356L2.66602 9.15353L0.916016 9.1535C0.91606 6.44097 3.00567 4.16085 5.74514 3.99088L5.85352 5.73752ZM2.66602 9.15353H4.41602V16.1613H2.66602H0.916016V9.15353H2.66602ZM2.66602 16.1613L4.41602 16.1611C4.41614 17.1029 5.17959 17.8663 6.12132 17.8664L6.12109 19.6164L6.12087 21.3664C3.24646 21.3661 0.916406 19.0359 0.916016 16.1616L2.66602 16.1613ZM6.12109 19.6164V17.8664H10.0527V19.6164V21.3664H6.12109V19.6164ZM10.0527 19.6164L11.5088 18.6456L15.0547 23.964L13.5986 24.9348L12.1426 25.9056L8.59669 20.5872L10.0527 19.6164ZM13.5986 24.9348L15.1641 24.1525L16.0244 25.8742L14.459 26.6565L12.8936 27.4387L12.0332 25.7171L13.5986 24.9348Z" fill="#1A1A1A" mask="url(#path-1-inside-1_105_4285)"/>
<mask id="mask0_105_4285" style="mask-type:alpha" maskUnits="userSpaceOnUse" x="2" y="5" width="27" height="23">
<mask id="path-3-inside-2_105_4285" fill="white">
<path d="M14.459 26.6565C15.1173 27.9739 16.9254 28.1522 17.8281 26.9885L18.209 26.4973C18.9618 25.5266 19.1432 24.2287 18.6846 23.0891L17.7344 20.7297H25.2109C27.1192 20.7295 28.666 19.1819 28.666 17.2736V16.4709C28.666 16.0314 28.5821 15.5958 28.4189 15.1877L26.3232 9.94748C25.3457 7.50403 23.0659 5.82386 20.4385 5.67404C18.2665 5.5503 15.66 5.43306 13.5986 5.43478C11.2364 5.43676 8.14567 5.59541 5.85352 5.73752C4.05271 5.84925 2.66605 7.34925 2.66602 9.15353V16.1613C2.66627 18.0694 4.21303 19.6162 6.12109 19.6164H10.0527L13.5986 24.9348L14.459 26.6565Z"/>
</mask>
<path d="M14.459 26.6565C15.1173 27.9739 16.9254 28.1522 17.8281 26.9885L18.209 26.4973C18.9618 25.5266 19.1432 24.2287 18.6846 23.0891L17.7344 20.7297H25.2109C27.1192 20.7295 28.666 19.1819 28.666 17.2736V16.4709C28.666 16.0314 28.5821 15.5958 28.4189 15.1877L26.3232 9.94748C25.3457 7.50403 23.0659 5.82386 20.4385 5.67404C18.2665 5.5503 15.66 5.43306 13.5986 5.43478C11.2364 5.43676 8.14567 5.59541 5.85352 5.73752C4.05271 5.84925 2.66605 7.34925 2.66602 9.15353V16.1613C2.66627 18.0694 4.21303 19.6162 6.12109 19.6164H10.0527L13.5986 24.9348L14.459 26.6565Z" fill="#1A1A1A"/>
<path d="M14.459 26.6565L12.8936 27.4387L12.8936 27.4387L14.459 26.6565ZM17.8281 26.9885L19.2111 28.0608L19.2109 28.0611L17.8281 26.9885ZM18.209 26.4973L16.826 25.425L16.8261 25.4248L18.209 26.4973ZM18.6846 23.0891L20.3079 22.4353L20.308 22.4358L18.6846 23.0891ZM17.7344 20.7297L16.1111 21.3835C15.8939 20.8441 15.9587 20.2321 16.2841 19.7503C16.6095 19.2685 17.153 18.9797 17.7344 18.9797V20.7297ZM25.2109 20.7297L25.2112 22.4797H25.2109V20.7297ZM28.4189 15.1877L30.0438 14.5379L30.0439 14.538L28.4189 15.1877ZM26.3232 9.94748L27.948 9.29747L27.9481 9.29765L26.3232 9.94748ZM20.4385 5.67404L20.538 3.92687L20.5381 3.92688L20.4385 5.67404ZM13.5986 5.43478L13.5972 3.68478H13.5972L13.5986 5.43478ZM5.85352 5.73752L5.74514 3.99088L5.74523 3.99087L5.85352 5.73752ZM2.66602 9.15353H0.916016V9.1535L2.66602 9.15353ZM2.66602 16.1613L0.916016 16.1616V16.1613H2.66602ZM6.12109 19.6164V21.3664H6.12087L6.12109 19.6164ZM10.0527 19.6164V17.8664C10.6378 17.8664 11.1842 18.1588 11.5088 18.6456L10.0527 19.6164ZM13.5986 24.9348L15.0547 23.964C15.095 24.0245 15.1316 24.0875 15.1641 24.1525L13.5986 24.9348ZM14.459 26.6565L16.0244 25.8742C16.1068 26.0392 16.3328 26.061 16.4454 25.9159L17.8281 26.9885L19.2109 28.0611C17.5181 30.2433 14.1278 29.9086 12.8936 27.4387L14.459 26.6565ZM17.8281 26.9885L16.4451 25.9162L16.826 25.425L18.209 26.4973L19.592 27.5696L19.2111 28.0608L17.8281 26.9885ZM18.209 26.4973L16.8261 25.4248C17.198 24.9453 17.2873 24.3045 17.0611 23.7424L18.6846 23.0891L20.308 22.4358C20.9991 24.1529 20.7257 26.1078 19.5918 27.5698L18.209 26.4973ZM18.6846 23.0891L17.0613 23.7428L16.1111 21.3835L17.7344 20.7297L19.3577 20.0759L20.3079 22.4353L18.6846 23.0891ZM17.7344 20.7297V18.9797H25.2109V20.7297V22.4797H17.7344V20.7297ZM25.2109 20.7297L25.2107 18.9797C26.1522 18.9796 26.916 18.2159 26.916 17.2737H28.666H30.416C30.416 20.148 28.0861 22.4793 25.2112 22.4797L25.2109 20.7297ZM28.666 17.2737H26.916V16.4709H28.666H30.416V17.2737H28.666ZM28.666 16.4709H26.916C26.916 16.2541 26.8746 16.0389 26.794 15.8375L28.4189 15.1877L30.0439 14.538C30.2896 15.1526 30.416 15.8088 30.416 16.4709H28.666ZM28.4189 15.1877L26.7941 15.8375L24.6984 10.5973L26.3232 9.94748L27.9481 9.29765L30.0438 14.5379L28.4189 15.1877ZM26.3232 9.94748L24.6984 10.5975C23.9666 8.76814 22.2703 7.53133 20.3389 7.4212L20.4385 5.67404L20.5381 3.92688C23.8615 4.11638 26.7249 6.23993 27.948 9.29747L26.3232 9.94748ZM20.4385 5.67404L20.3389 7.42121C18.1743 7.29788 15.609 7.18311 13.6001 7.18478L13.5986 5.43478L13.5972 3.68478C15.7111 3.68302 18.3588 3.80271 20.538 3.92687L20.4385 5.67404ZM13.5986 5.43478L13.6001 7.18478C11.2948 7.18671 8.24919 7.34236 5.9618 7.48416L5.85352 5.73752L5.74523 3.99087C8.04214 3.84847 11.178 3.68681 13.5972 3.68478L13.5986 5.43478ZM5.85352 5.73752L5.96189 7.48416C5.09975 7.53765 4.41603 8.25753 4.41602 9.15356L2.66602 9.15353L0.916016 9.1535C0.91606 6.44097 3.00567 4.16085 5.74514 3.99088L5.85352 5.73752ZM2.66602 9.15353H4.41602V16.1613H2.66602H0.916016V9.15353H2.66602ZM2.66602 16.1613L4.41602 16.1611C4.41614 17.1029 5.17959 17.8663 6.12132 17.8664L6.12109 19.6164L6.12087 21.3664C3.24646 21.3661 0.916406 19.0359 0.916016 16.1616L2.66602 16.1613ZM6.12109 19.6164V17.8664H10.0527V19.6164V21.3664H6.12109V19.6164ZM10.0527 19.6164L11.5088 18.6456L15.0547 23.964L13.5986 24.9348L12.1426 25.9056L8.59669 20.5872L10.0527 19.6164ZM13.5986 24.9348L15.1641 24.1525L16.0244 25.8742L14.459 26.6565L12.8936 27.4387L12.0332 25.7171L13.5986 24.9348Z" fill="#1A1A1A" mask="url(#path-3-inside-2_105_4285)"/>
</mask>
<g mask="url(#mask0_105_4285)">
<path fill-rule="evenodd" clip-rule="evenodd" d="M9.75684 20.6165V5.3204Z" fill="white"/>
<path d="M9.75684 20.6165V5.3204" stroke="white" stroke-width="1.75" stroke-linecap="round" stroke-linejoin="round"/>
</g>
</svg>
