<svg width="12" height="12" viewBox="0 0 12 12" fill="none" xmlns="http://www.w3.org/2000/svg">
<rect x="1.5" y="3.42847" width="9" height="2.14286" rx="1.07143" stroke="#1A1A1A"/>
<path d="M5.7998 2.19992C5.7998 2.47797 5.68761 2.72675 5.50712 2.90724C5.32663 3.08773 5.07785 3.19992 4.7998 3.19992H4.78517C4.51688 3.19504 4.2681 3.08285 4.09249 2.90724C3.912 2.72675 3.7998 2.47797 3.7998 2.19992C3.7998 1.6487 4.24371 1.19992 4.7998 1.19992C5.07785 1.19992 5.32663 1.31212 5.50712 1.4926C5.68761 1.67309 5.7998 1.92187 5.7998 2.19992Z" stroke="#1A1A1A" stroke-linecap="round" stroke-linejoin="round"/>
<path d="M7.2002 1.19995C6.64898 1.19995 6.2002 1.64873 6.2002 2.19995C6.2002 2.75117 6.64898 3.19995 7.2002 3.19995C7.75142 3.19995 8.2002 2.75117 8.2002 2.19995C8.2002 1.64873 7.75142 1.19995 7.2002 1.19995Z" stroke="#1A1A1A" stroke-linecap="round" stroke-linejoin="round"/>
<path d="M2.14258 5.57141H9.64258V7.99998C9.64258 9.3807 8.52329 10.5 7.14258 10.5H4.64258C3.26187 10.5 2.14258 9.38069 2.14258 7.99998V5.57141Z" stroke="#1A1A1A"/>
<path d="M6 4V10" stroke="#1A1A1A" stroke-linecap="round" stroke-linejoin="round"/>
</svg>
