<svg width="16" height="16" viewBox="0 0 16 16" fill="none" xmlns="http://www.w3.org/2000/svg">
<rect x="2" y="4.57141" width="12" height="2.85714" rx="1.42857" stroke="#1A1A1A"/>
<path d="M8 3.00006C8 3.41713 7.8317 3.79031 7.56097 4.06104C7.29024 4.33177 6.91707 4.50006 6.5 4.50006H6.47805C6.07561 4.49274 5.70244 4.32445 5.43903 4.06104C5.1683 3.79031 5 3.41713 5 3.00006C5 2.17323 5.66585 1.50006 6.5 1.50006C6.91707 1.50006 7.29024 1.66835 7.56097 1.93908C7.8317 2.20982 8 2.58299 8 3.00006Z" stroke="#1A1A1A" stroke-linecap="round" stroke-linejoin="round"/>
<path d="M9.50001 1.50006C8.67317 1.50006 8 2.17323 8 3.00006C8 3.82689 8.67317 4.50006 9.50001 4.50006C10.3268 4.50006 11 3.82689 11 3.00006C11 2.17323 10.3268 1.50006 9.50001 1.50006Z" stroke="#1A1A1A" stroke-linecap="round" stroke-linejoin="round"/>
<path d="M2.85742 7.42859H12.8574V10.6667C12.8574 12.5076 11.365 14 9.52409 14H6.19076C4.34981 14 2.85742 12.5076 2.85742 10.6667V7.42859Z" stroke="#1A1A1A"/>
<path d="M8.00028 4.42856V13.7143" stroke="#1A1A1A" stroke-linecap="round" stroke-linejoin="round"/>
</svg>
