<svg width="24" height="24" viewBox="0 0 24 24" fill="none" xmlns="http://www.w3.org/2000/svg">
<rect x="3" y="6.85718" width="18" height="4.28571" rx="2.14286" stroke="#1A1A1A" stroke-width="1.5"/>
<path d="M12.1 4.05C12.1 4.62 11.87 5.13 11.5 5.5C11.13 5.87 10.62 6.1 10.05 6.1H10.02C9.47 6.09 8.96001 5.86 8.60001 5.5C8.23001 5.13 8 4.62 8 4.05C8 2.92 8.91 2 10.05 2C10.62 2 11.13 2.23 11.5 2.6C11.87 2.97 12.1 3.48 12.1 4.05Z" stroke="#1A1A1A" stroke-width="1.5" stroke-linecap="round" stroke-linejoin="round"/>
<path d="M14.1799 2C13.0499 2 12.1299 2.92 12.1299 4.05C12.1299 5.18 13.0499 6.1 14.1799 6.1C15.3099 6.1 16.2299 5.18 16.2299 4.05C16.2299 2.92 15.3099 2 14.1799 2Z" stroke="#1A1A1A" stroke-width="1.5" stroke-linecap="round" stroke-linejoin="round"/>
<path d="M4.28613 11.1429H19.2861V16C19.2861 18.7615 17.0476 21 14.2861 21H9.28613C6.52471 21 4.28613 18.7614 4.28613 16V11.1429Z" stroke="#1A1A1A" stroke-width="1.5"/>
<path d="M12.0004 6.64287V20.5714" stroke="#1A1A1A" stroke-width="1.5" stroke-linecap="round" stroke-linejoin="round"/>
</svg>
