<svg width="12" height="12" viewBox="0 0 12 12" fill="none" xmlns="http://www.w3.org/2000/svg">
<path d="M8.85943 4.76364L9.92208 5.33848L10.1445 5.46346C10.6185 5.72974 10.6185 6.41624 10.1445 6.68252L7.12623 8.3783C6.42622 8.77159 5.57378 8.77159 4.87377 8.3783L1.85546 6.68252C1.38151 6.41624 1.38151 5.72974 1.85546 5.46346L2.07792 5.33848L3.08167 4.76364M9.09055 7.32304L10.0565 7.80927C10.5546 8.06003 10.5706 8.76988 10.0843 9.04312L7.12623 10.705C6.42622 11.0983 5.57378 11.0983 4.87377 10.705L1.9589 9.06737C1.4642 8.78943 1.49146 8.06388 2.0056 7.82436L3.08167 7.32304M7.12623 5.90558L10.1445 4.2098C10.6185 3.94352 10.6185 3.25703 10.1445 2.99075L7.12623 1.29496C6.42622 0.901679 5.57378 0.901678 4.87377 1.29496L1.85546 2.99074C1.38151 3.25702 1.38151 3.94352 1.85546 4.2098L4.87377 5.90558C5.57378 6.29887 6.42622 6.29887 7.12623 5.90558Z" stroke="#1A1A1A"/>
</svg>
