<svg width="16" height="16" viewBox="0 0 16 16" fill="none" xmlns="http://www.w3.org/2000/svg">
<path d="M11.8126 6.35156L13.2294 7.11801L13.526 7.28466C14.158 7.6397 14.158 8.55503 13.526 8.91007L9.50164 11.1711C8.56829 11.6955 7.4317 11.6955 6.49836 11.1711L2.47395 8.91007C1.84202 8.55503 1.84202 7.6397 2.47395 7.28466L2.77057 7.11801L4.10889 6.35156M12.1207 9.7641L13.4086 10.4124C14.0728 10.7467 14.0941 11.6932 13.4457 12.0575L9.50164 14.2734C8.56829 14.7978 7.4317 14.7978 6.49836 14.2734L2.61187 12.0899C1.95226 11.7193 1.98861 10.7519 2.67413 10.4325L4.10889 9.7641M9.50164 7.87415L13.526 5.61311C14.158 5.25807 14.158 4.34274 13.5261 3.9877L9.50164 1.72666C8.5683 1.20228 7.43171 1.20228 6.49836 1.72666L2.47395 3.9877C1.84202 4.34274 1.84202 5.25807 2.47395 5.61311L6.49836 7.87415C7.4317 8.39853 8.56829 8.39854 9.50164 7.87415Z" stroke="#1A1A1A"/>
</svg>
