<svg width="32" height="32" viewBox="0 0 32 32" fill="none" xmlns="http://www.w3.org/2000/svg">
<path d="M23.6252 12.703L26.4589 14.2359L27.0521 14.5692C28.316 15.2793 28.316 17.1099 27.0521 17.82L19.0033 22.3421C17.1366 23.3909 14.8634 23.3909 12.9967 22.3421L4.9479 17.82C3.68403 17.1099 3.68403 15.2793 4.9479 14.5692L5.54113 14.2359L8.21779 12.703M24.2415 19.5281L26.8172 20.8247C28.1456 21.4934 28.1883 23.3863 26.8913 24.115L19.0033 28.5467C17.1366 29.5955 14.8634 29.5955 12.9967 28.5467L5.22373 24.1796C3.90453 23.4384 3.97722 21.5036 5.34826 20.8649L8.21779 19.5281M19.0033 15.7482L27.0521 11.2261C28.316 10.516 28.316 8.68536 27.0521 7.97528L19.0033 3.4532C17.1366 2.40444 14.8634 2.40443 12.9967 3.4532L4.9479 7.97528C3.68404 8.68536 3.68403 10.516 4.9479 11.2261L12.9967 15.7482C14.8634 16.7969 17.1366 16.7969 19.0033 15.7482Z" stroke="#1A1A1A" stroke-width="1.75"/>
</svg>
