<svg width="12" height="12" viewBox="0 0 12 12" fill="none" xmlns="http://www.w3.org/2000/svg">
<path d="M8 0.25C9.65685 0.25 11 1.59315 11 3.25V8C11 9.65685 9.65685 11 8 11H3.25C1.59315 11 0.25 9.65685 0.25 8V3.25C0.25 1.59315 1.59315 0.25 3.25 0.25H8ZM3.25 3.5C2.14543 3.5 1.25 4.39543 1.25 5.5V8C1.25 9.10457 2.14543 10 3.25 10H8C9.10457 10 10 9.10457 10 8V5.5C10 4.39543 9.10457 3.5 8 3.5V7.10449C7.99987 7.68437 7.3258 8.00392 6.87695 7.63672L6 6.91895L5.12305 7.63672C4.6742 8.00392 4.00013 7.68437 4 7.10449V3.5H3.25ZM5 6.44434L5.36719 6.14453C5.73541 5.84356 6.26459 5.84356 6.63281 6.14453L7 6.44434V3.5H5V6.44434ZM3.25 1.25C2.14543 1.25 1.25 2.14543 1.25 3.25V3.26758C1.78098 2.79156 2.48076 2.5 3.25 2.5H8C8.76924 2.5 9.46902 2.79156 10 3.26758V3.25C10 2.14543 9.10457 1.25 8 1.25H3.25Z" fill="#1A1A1A"/>
</svg>
