<svg width="16" height="16" viewBox="0 0 16 16" fill="none" xmlns="http://www.w3.org/2000/svg">
<path d="M10.667 0.5625C12.7493 0.562676 14.4373 2.25069 14.4375 4.33301V10.667C14.4373 12.7493 12.7493 14.4373 10.667 14.4375H4.33301C2.25069 14.4373 0.562676 12.7493 0.5625 10.667V4.33301C0.562676 2.25069 2.25069 0.562676 4.33301 0.5625H10.667ZM4.33301 4.4375C2.73394 4.43768 1.43768 5.73394 1.4375 7.33301V10.667C1.43768 12.2661 2.73394 13.5623 4.33301 13.5625H10.667C12.2661 13.5623 13.5623 12.2661 13.5625 10.667V7.33301C13.5623 5.73394 12.2661 4.43768 10.667 4.4375H10.4375V9.47266C10.4373 10.0525 9.76329 10.372 9.31445 10.0049L8.14551 9.04785C8.06109 8.97878 7.93891 8.97878 7.85449 9.04785L6.68555 10.0049C6.23671 10.372 5.56267 10.0525 5.5625 9.47266V4.4375H4.33301ZM6.4375 9.07617L7.30078 8.37012C7.70746 8.03749 8.29254 8.03749 8.69922 8.37012L9.5625 9.07617V4.4375H6.4375V9.07617ZM4.33301 1.4375C2.73394 1.43768 1.43768 2.73394 1.4375 4.33301V4.91797C2.12914 4.08964 3.16952 3.5626 4.33301 3.5625H10.667C11.8305 3.5626 12.8709 4.08964 13.5625 4.91797V4.33301C13.5623 2.73394 12.2661 1.43768 10.667 1.4375H4.33301Z" fill="#1A1A1A"/>
</svg>
