<svg width="24" height="24" viewBox="0 0 24 24" fill="none" xmlns="http://www.w3.org/2000/svg">
<path d="M17 1.25C20.1756 1.25 22.75 3.82436 22.75 7V17C22.75 20.1756 20.1756 22.75 17 22.75H7C3.82436 22.75 1.25 20.1756 1.25 17V7C1.25 3.82436 3.82436 1.25 7 1.25H17ZM7 7.75C4.65279 7.75 2.75 9.65279 2.75 12V17C2.75 19.3472 4.65279 21.25 7 21.25H17C19.3472 21.25 21.25 19.3472 21.25 17V12C21.25 9.65279 19.3472 7.75 17 7.75H15.75V14.2988C15.75 15.1974 14.7486 15.7338 14.001 15.2354L12.1387 13.9941C12.0547 13.9382 11.9453 13.9382 11.8613 13.9941L9.99902 15.2354C9.2514 15.7338 8.25 15.1974 8.25 14.2988V7.75H7ZM9.75 13.5986L11.0293 12.7461C11.6171 12.3542 12.3829 12.3542 12.9707 12.7461L14.25 13.5986V7.75H9.75V13.5986ZM7 2.75C4.65279 2.75 2.75 4.65279 2.75 7V8.12695C3.80159 6.97367 5.31629 6.25 7 6.25H17C18.6837 6.25 20.1984 6.97367 21.25 8.12695V7C21.25 4.65279 19.3472 2.75 17 2.75H7Z" fill="#1A1A1A"/>
</svg>
