<svg width="32" height="32" viewBox="0 0 32 32" fill="none" xmlns="http://www.w3.org/2000/svg">
<path d="M22.333 2.125C26.4982 2.125 29.875 5.50184 29.875 9.66699V22.333C29.875 26.4982 26.4982 29.875 22.333 29.875H9.66699C5.50184 29.875 2.125 26.4982 2.125 22.333V9.66699C2.125 5.50184 5.50184 2.125 9.66699 2.125H22.333ZM9.66699 9.875C6.46834 9.875 3.875 12.4683 3.875 15.667V22.333C3.875 25.5317 6.46834 28.125 9.66699 28.125H22.333C25.5317 28.125 28.125 25.5317 28.125 22.333V15.667C28.125 12.4683 25.5317 9.875 22.333 9.875H20.875V19C20.875 20.1331 19.5813 20.7794 18.6748 20.0996L16.2754 18.2998C16.1124 18.1776 15.8876 18.1776 15.7246 18.2998L13.3252 20.0996C12.4187 20.7794 11.125 20.1331 11.125 19V9.875H9.66699ZM12.875 18.25L14.6748 16.9004C15.46 16.3115 16.54 16.3115 17.3252 16.9004L19.125 18.25V9.875H12.875V18.25ZM9.66699 3.875C6.46834 3.875 3.875 6.46834 3.875 9.66699V10.8379C5.2585 9.18035 7.33924 8.125 9.66699 8.125H22.333C24.6608 8.125 26.7415 9.18035 28.125 10.8379V9.66699C28.125 6.46834 25.5317 3.875 22.333 3.875H9.66699Z" fill="#1A1A1A"/>
</svg>
