<svg width="12" height="12" viewBox="0 0 12 12" fill="none" xmlns="http://www.w3.org/2000/svg">
<path d="M7.5 2.99352C7.5 2.19482 6.60985 1.71843 5.9453 2.16147L3.25192 3.95705C3.08766 4.06656 2.89465 4.125 2.69722 4.125H2C1.30964 4.125 0.75 4.68464 0.75 5.375V7.375C0.75 8.06536 1.30964 8.625 2 8.625H2.69722C2.89465 8.625 3.08766 8.68344 3.25192 8.79295L5.9453 10.5885C6.60985 11.0316 7.5 10.5552 7.5 9.75648V6.375V2.99352Z" stroke="#1A1A1A"/>
<path d="M9 7.875C9.23547 7.45717 9.375 6.9378 9.375 6.375C9.375 5.8122 9.23547 5.29283 9 4.875" stroke="#1A1A1A" stroke-linecap="round"/>
<path d="M9.75 9.375C10.4564 8.53934 10.875 7.50061 10.875 6.375C10.875 5.24939 10.4564 4.21066 9.75 3.375" stroke="#1A1A1A" stroke-linecap="round"/>
</svg>
