<svg width="16" height="16" viewBox="0 0 16 16" fill="none" xmlns="http://www.w3.org/2000/svg">
<path d="M10 3.99136C10 2.92643 8.81314 2.29124 7.92707 2.88196L4.3359 5.27607C4.11688 5.42208 3.85953 5.5 3.5963 5.5H2.66667C1.74619 5.5 1 6.24619 1 7.16667V9.83333C1 10.7538 1.74619 11.5 2.66667 11.5H3.5963C3.85953 11.5 4.11688 11.5779 4.3359 11.7239L7.92707 14.118C8.81314 14.7088 10 14.0736 10 13.0086V8.5V3.99136Z" stroke="#1A1A1A"/>
<path d="M12 10.5C12.314 9.94289 12.5 9.2504 12.5 8.5C12.5 7.7496 12.314 7.05711 12 6.5" stroke="#1A1A1A" stroke-linecap="round"/>
<path d="M13 12.5C13.9419 11.3858 14.5 10.0008 14.5 8.5C14.5 6.99919 13.9419 5.61421 13 4.5" stroke="#1A1A1A" stroke-linecap="round"/>
</svg>
