<svg width="24" height="24" viewBox="0 0 24 24" fill="none" xmlns="http://www.w3.org/2000/svg">
<path d="M15 5.98703C15 4.38964 13.2197 3.43686 11.8906 4.32293L6.50385 7.9141C6.17531 8.13312 5.7893 8.25 5.39445 8.25H4C2.61929 8.25 1.5 9.36929 1.5 10.75V14.75C1.5 16.1307 2.61929 17.25 4 17.25H5.39445C5.7893 17.25 6.17531 17.3669 6.50385 17.5859L11.8906 21.1771C13.2197 22.0631 15 21.1104 15 19.513V12.75V5.98703Z" stroke="#1A1A1A" stroke-width="1.5"/>
<path d="M18 15.75C18.4709 14.9143 18.75 13.8756 18.75 12.75C18.75 11.6244 18.4709 10.5857 18 9.75" stroke="#1A1A1A" stroke-width="1.5" stroke-linecap="round"/>
<path d="M19.5 18.75C20.9128 17.0787 21.75 15.0012 21.75 12.75C21.75 10.4988 20.9128 8.42132 19.5 6.75" stroke="#1A1A1A" stroke-width="1.5" stroke-linecap="round"/>
</svg>
