<svg width="32" height="32" viewBox="0 0 32 32" fill="none" xmlns="http://www.w3.org/2000/svg">
<path d="M20 7.98271C20 5.85286 17.6263 4.58248 15.8541 5.76391L8.6718 10.5521C8.23375 10.8442 7.71906 11 7.1926 11H5.33333C3.49238 11 2 12.4924 2 14.3333V19.6667C2 21.5076 3.49238 23 5.33333 23H7.1926C7.71906 23 8.23375 23.1558 8.6718 23.4479L15.8541 28.2361C17.6263 29.4175 20 28.1471 20 26.0173V17V7.98271Z" stroke="#1A1A1A" stroke-width="1.75"/>
<path d="M24 21C24.6279 19.8858 25 18.5008 25 17C25 15.4992 24.6279 14.1142 24 13" stroke="#1A1A1A" stroke-width="1.75" stroke-linecap="round"/>
<path d="M26 25C27.8838 22.7716 29 20.0016 29 17C29 13.9984 27.8838 11.2284 26 9" stroke="#1A1A1A" stroke-width="1.75" stroke-linecap="round"/>
</svg>
