<svg width="12" height="12" viewBox="0 0 12 12" fill="none" xmlns="http://www.w3.org/2000/svg">
<rect x="1.5" y="2.25" width="9" height="7.3" rx="1.125" stroke="#1A1A1A"/>
<path d="M3 4.5H4.19712C4.30067 4.5 4.38462 4.58395 4.38462 4.6875V7.08173C4.38462 7.18528 4.30067 7.26923 4.19712 7.26923H3" stroke="#1A1A1A" stroke-width="0.75" stroke-linecap="round"/>
<path d="M3 5.88452H4.38462" stroke="#1A1A1A" stroke-width="0.75" stroke-linecap="round"/>
<path d="M7.15415 4.5H5.95703C5.85348 4.5 5.76953 4.58395 5.76953 4.6875V5.69712C5.76953 5.80067 5.85348 5.88462 5.95703 5.88462H6.96665C7.0702 5.88462 7.15415 5.96856 7.15415 6.07212V7.08173C7.15415 7.18528 7.0702 7.26923 6.96665 7.26923H5.76953" stroke="#1A1A1A" stroke-width="0.75" stroke-linecap="round"/>
<path d="M8.53809 4.5L8.53809 7.26923" stroke="#1A1A1A" stroke-width="0.75" stroke-linecap="round"/>
</svg>
