<svg width="24" height="24" viewBox="0 0 24 24" fill="none" xmlns="http://www.w3.org/2000/svg">
<rect x="2" y="3" width="20" height="17" rx="2.25" stroke="#1A1A1A" stroke-width="1.5"/>
<path d="M6 8H8.625C8.83211 8 9 8.16789 9 8.375V13.625C9 13.8321 8.83211 14 8.625 14H6" stroke="#1A1A1A" stroke-width="1.5" stroke-linecap="round"/>
<path d="M6 11H9" stroke="#1A1A1A" stroke-width="1.5" stroke-linecap="round"/>
<path d="M15 8H12.375C12.1679 8 12 8.16789 12 8.375V10.625C12 10.8321 12.1679 11 12.375 11H14.625C14.8321 11 15 11.1679 15 11.375V13.625C15 13.8321 14.8321 14 14.625 14H12" stroke="#1A1A1A" stroke-width="1.5" stroke-linecap="round"/>
<path d="M18 8L18 14" stroke="#1A1A1A" stroke-width="1.5" stroke-linecap="round"/>
</svg>
