<svg width="32" height="32" viewBox="0 0 32 32" fill="none" xmlns="http://www.w3.org/2000/svg">
<rect x="2" y="3" width="28" height="24" rx="3" stroke="#1A1A1A" stroke-width="1.75"/>
<path d="M8 10.6667H11.5C11.7761 10.6667 12 10.8906 12 11.1667V18.1667C12 18.4429 11.7761 18.6667 11.5 18.6667H8" stroke="#1A1A1A" stroke-width="1.75" stroke-linecap="round"/>
<path d="M8 14.6667H12" stroke="#1A1A1A" stroke-width="1.75" stroke-linecap="round"/>
<path d="M20 10.6667H16.5C16.2239 10.6667 16 10.8906 16 11.1667V14.1667C16 14.4429 16.2239 14.6667 16.5 14.6667H19.5C19.7761 14.6667 20 14.8906 20 15.1667V18.1667C20 18.4429 19.7761 18.6667 19.5 18.6667H16" stroke="#1A1A1A" stroke-width="1.75" stroke-linecap="round"/>
<path d="M24 10.6667L24 18.6667" stroke="#1A1A1A" stroke-width="1.75" stroke-linecap="round"/>
</svg>
