<svg width="12" height="12" viewBox="0 0 12 12" fill="none" xmlns="http://www.w3.org/2000/svg">
<path d="M7.5 5.5L6.19509 6.47868C6.17617 6.49288 6.15815 6.50852 6.14146 6.52529C6.00021 6.66731 5.99979 6.66731 5.85854 6.52529C5.84185 6.50852 5.82383 6.49288 5.80491 6.47868L4.5 5.5M10.5 8.16667L10.5 3.83333C10.5 2.59069 9.40931 1.5 8.16667 1.5L3.83333 1.5C2.59069 1.5 1.5 2.59069 1.5 3.83333L1.5 8.16667C1.5 9.40931 2.59069 10.5 3.83333 10.5L8.16667 10.5C9.40931 10.5 10.5 9.40931 10.5 8.16667Z" stroke="#1A1A1A" stroke-linecap="round"/>
</svg>
