<svg width="16" height="16" viewBox="0 0 16 16" fill="none" xmlns="http://www.w3.org/2000/svg">
<path d="M10 7.33333L8.26013 8.63824C8.23489 8.65717 8.21087 8.67802 8.18862 8.70039C8.00028 8.88974 7.99972 8.88974 7.81138 8.70039C7.78914 8.67802 7.76511 8.65717 7.73988 8.63824L6 7.33333M14 10.8889L14 5.11111C14 3.45426 12.5457 2 10.8889 2L5.11111 2C3.45426 2 2 3.45426 2 5.11111L2 10.8889C2 12.5457 3.45426 14 5.11111 14L10.8889 14C12.5457 14 14 12.5457 14 10.8889Z" stroke="#1A1A1A" stroke-linecap="round"/>
</svg>
