<svg width="32" height="32" viewBox="0 0 32 32" fill="none" xmlns="http://www.w3.org/2000/svg">
<path d="M20.6667 14.4444L16.5943 17.4987C16.5439 17.5366 16.4957 17.5783 16.4512 17.623C15.9969 18.0798 16.0031 18.0798 15.5488 17.623C15.5043 17.5783 15.4562 17.5366 15.4057 17.4987L11.3333 14.4444M30 22.7407L30 9.25926C30 5.39327 26.6067 2 22.7407 2L9.25926 2C5.39327 2 2 5.39327 2 9.25926L2 22.7407C2 26.6067 5.39327 30 9.25926 30L22.7407 30C26.6067 30 30 26.6067 30 22.7407Z" stroke="#1A1A1A" stroke-width="1.75" stroke-linecap="round"/>
</svg>
