<svg width="12" height="12" viewBox="0 0 12 12" fill="none" xmlns="http://www.w3.org/2000/svg">
<path d="M10.3997 5.60779L10.8384 5.36789L10.3997 5.60779ZM10.3997 6.39228L10.8384 6.63219L10.3997 6.39228ZM1.60029 5.60772L2.03897 5.84763L1.60029 5.60772ZM1.60028 6.39221L1.1616 6.63212H1.1616L1.60028 6.39221ZM9.84906 4.06504C9.65135 3.87226 9.33479 3.87625 9.14201 4.07397C8.94923 4.27168 8.95323 4.58824 9.15094 4.78102L9.5 4.42303L9.84906 4.06504ZM4.87419 8.35873C4.6067 8.29014 4.33425 8.45139 4.26567 8.71888C4.19708 8.98637 4.35832 9.25881 4.62581 9.32739L4.75 8.84306L4.87419 8.35873ZM7.302 3.17057L7.17259 3.65353L7.302 3.17057ZM3.53632 8.35444L3.29039 8.78978L3.82439 7.94577L3.53632 8.35444ZM1.60029 5.60772L2.03897 5.84763C2.80436 4.44812 4.29137 3.5 5.99999 3.5V3V2.5C3.91199 2.5 2.09565 3.65991 1.16161 5.36781L1.60029 5.60772ZM10.3997 6.39228L9.96103 6.15237C9.19565 7.55188 7.70863 8.5 6.00002 8.5V9V9.5C8.08802 9.5 9.90435 8.3401 10.8384 6.63219L10.3997 6.39228ZM10.3997 5.60779L9.96103 5.8477C10.013 5.94271 10.013 6.05735 9.96103 6.15237L10.3997 6.39228L10.8384 6.63219C11.0539 6.2382 11.0539 5.76189 10.8384 5.36789L10.3997 5.60779ZM1.60029 5.60772L1.16161 5.36781C0.946134 5.76181 0.94613 6.23812 1.1616 6.63212L1.60028 6.39221L2.03897 6.15231C1.98701 6.05729 1.98701 5.94265 2.03897 5.84763L1.60029 5.60772ZM9.5 4.42303L9.15094 4.78102C9.47126 5.09334 9.74502 5.45271 9.96103 5.8477L10.3997 5.60779L10.8384 5.36789C10.5743 4.88492 10.2399 4.44611 9.84906 4.06504L9.5 4.42303ZM6.00002 9V8.5C5.61065 8.5 5.23352 8.45087 4.87419 8.35873L4.75 8.84306L4.62581 9.32739C5.06563 9.44017 5.52619 9.5 6.00002 9.5V9ZM5.99999 3V3.5C6.40626 3.5 6.79924 3.5535 7.17259 3.65353L7.302 3.17057L7.43141 2.68761C6.9744 2.56515 6.49443 2.5 5.99999 2.5V3ZM2.71953 7.7787L3.04679 7.40068C2.64063 7.04905 2.29821 6.62635 2.03897 6.15231L1.60028 6.39221L1.1616 6.63212C1.47855 7.21169 1.89673 7.72772 2.39227 8.15672L2.71953 7.7787ZM3.53632 8.35444L3.78226 7.91911C3.51967 7.77077 3.27338 7.59684 3.04679 7.40068L2.71953 7.7787L2.39227 8.15672C2.66879 8.39611 2.96953 8.60852 3.29039 8.78978L3.53632 8.35444ZM2.71953 7.7787L2.43146 8.18738L3.24825 8.76312L3.53632 8.35444L3.82439 7.94577L3.0076 7.37002L2.71953 7.7787ZM7.302 3.17057L7.17259 3.65353C7.52135 3.74698 7.85346 3.88117 8.16355 4.05076L8.40347 3.61208L8.64338 3.1734C8.26436 2.96612 7.85814 2.80195 7.43141 2.68761L7.302 3.17057Z" fill="#1A1A1A"/>
<path d="M9.73242 2.23218L2.23242 9.73218" stroke="#1A1A1A" stroke-linecap="round" stroke-linejoin="round"/>
<path d="M4.5 6C4.5 5.17157 5.17157 4.5 6 4.5" stroke="#1A1A1A" stroke-linecap="round"/>
</svg>
