<svg width="16" height="16" viewBox="0 0 16 16" fill="none" xmlns="http://www.w3.org/2000/svg">
<path d="M13.8663 7.47705L14.305 7.23715L13.8663 7.47705ZM13.8663 8.52304L14.305 8.76295L13.8663 8.52304ZM2.13372 7.47696L2.5724 7.71687L2.13372 7.47696ZM2.13371 8.52295L1.69503 8.76285V8.76285L2.13371 8.52295ZM13.0157 5.53938C12.818 5.3466 12.5015 5.3506 12.3087 5.54831C12.1159 5.74602 12.1199 6.06258 12.3176 6.25536L12.6667 5.89737L13.0157 5.53938ZM6.45752 11.3064C6.19003 11.2378 5.91759 11.3991 5.849 11.6666C5.78041 11.9341 5.94166 12.2065 6.20915 12.2751L6.33333 11.7908L6.45752 11.3064ZM9.736 4.22743L9.6066 4.71039L9.736 4.22743ZM4.7151 11.1393L4.46916 11.5746L5.00317 10.7306L4.7151 11.1393ZM2.13372 7.47696L2.5724 7.71687C3.62102 5.79946 5.6586 4.5 7.99998 4.5V4V3.5C5.27921 3.5 2.91231 5.01124 1.69504 7.23705L2.13372 7.47696ZM13.8663 8.52304L13.4276 8.28313C12.379 10.2005 10.3414 11.5 8.00002 11.5V12V12.5C10.7208 12.5 13.0877 10.9888 14.305 8.76295L13.8663 8.52304ZM13.8663 7.47705L13.4276 7.71696C13.5241 7.89348 13.5241 8.10661 13.4276 8.28313L13.8663 8.52304L14.305 8.76295C14.565 8.28746 14.565 7.71265 14.305 7.23715L13.8663 7.47705ZM2.13372 7.47696L1.69504 7.23705C1.43499 7.71255 1.43499 8.28735 1.69503 8.76285L2.13371 8.52295L2.5724 8.28304C2.47587 8.10652 2.47587 7.89339 2.5724 7.71687L2.13372 7.47696ZM12.6667 5.89737L12.3176 6.25536C12.7564 6.68325 13.1316 7.17565 13.4276 7.71696L13.8663 7.47705L14.305 7.23715C13.9608 6.60786 13.5251 6.03602 13.0157 5.53938L12.6667 5.89737ZM8.00002 12V11.5C7.46679 11.5 6.95004 11.4327 6.45752 11.3064L6.33333 11.7908L6.20915 12.2751C6.78215 12.422 7.38233 12.5 8.00002 12.5V12ZM7.99998 4V4.5C8.55638 4.5 9.09485 4.57327 9.6066 4.71039L9.736 4.22743L9.86541 3.74446C9.27001 3.58493 8.64454 3.5 7.99998 3.5V4ZM3.62604 10.3716L3.9533 9.99358C3.39686 9.51185 2.92767 8.93269 2.5724 8.28304L2.13371 8.52295L1.69503 8.76285C2.10801 9.51803 2.65296 10.1905 3.29878 10.7496L3.62604 10.3716ZM4.7151 11.1393L4.96103 10.7039C4.60121 10.5007 4.26374 10.2623 3.9533 9.99358L3.62604 10.3716L3.29878 10.7496C3.65915 11.0616 4.05106 11.3384 4.46916 11.5746L4.7151 11.1393ZM3.62604 10.3716L3.33797 10.7803L4.42703 11.5479L4.7151 11.1393L5.00317 10.7306L3.91411 9.96292L3.62604 10.3716ZM9.736 4.22743L9.6066 4.71039C10.0846 4.83847 10.5398 5.02239 10.9647 5.25479L11.2046 4.81611L11.4445 4.37743C10.9507 4.10733 10.4214 3.89344 9.86541 3.74446L9.736 4.22743Z" fill="#1A1A1A"/>
<path d="M12.9766 2.97632L2.97656 12.9763" stroke="#1A1A1A" stroke-linecap="round" stroke-linejoin="round"/>
<path d="M6 8C6 6.89543 6.89543 6 8 6" stroke="#1A1A1A" stroke-linecap="round"/>
</svg>
