<svg width="32" height="32" viewBox="0 0 32 32" fill="none" xmlns="http://www.w3.org/2000/svg">
<path d="M27.7326 15.4661L28.5003 15.0462L27.7326 15.4661ZM27.7326 17.558L28.5003 17.9779L27.7326 17.558ZM4.26744 15.4659L5.03514 15.8857L4.26744 15.4659ZM4.26743 17.5579L3.49972 17.9777V17.9777L4.26743 17.5579ZM25.9442 11.6802C25.5982 11.3429 25.0442 11.3499 24.7068 11.6958C24.3695 12.0418 24.3765 12.5958 24.7225 12.9332L25.3333 12.3067L25.9442 11.6802ZM12.884 23.2459C12.4159 23.1259 11.9391 23.408 11.8191 23.8761C11.6991 24.3442 11.9812 24.821 12.4493 24.941L12.6667 24.0935L12.884 23.2459ZM19.472 8.96682L19.2455 9.812L19.472 8.96682ZM9.43019 22.7905L8.99981 23.5523L9.93431 22.0753L9.43019 22.7905ZM4.26744 15.4659L5.03514 15.8857C7.15346 12.0124 11.2698 9.38696 16 9.38696V8.51196V7.63696C10.6058 7.63696 5.91322 10.633 3.49975 15.046L4.26744 15.4659ZM27.7326 17.558L26.9649 17.1382C24.8465 21.0116 20.7302 23.637 16 23.637V24.512V25.387C21.3942 25.387 26.0868 22.391 28.5003 17.9779L27.7326 17.558ZM27.7326 15.4661L26.9649 15.8859C27.1784 16.2763 27.1784 16.7478 26.9649 17.1382L27.7326 17.558L28.5003 17.9779C28.9999 17.0643 28.9999 15.9599 28.5003 15.0462L27.7326 15.4661ZM4.26744 15.4659L3.49975 15.046C3.00009 15.9597 3.00008 17.0641 3.49972 17.9777L4.26743 17.5579L5.03513 17.138C4.82162 16.7476 4.82162 16.2761 5.03514 15.8857L4.26744 15.4659ZM25.3333 12.3067L24.7225 12.9332C25.609 13.7976 26.3668 14.7923 26.9649 15.8859L27.7326 15.4661L28.5003 15.0462C27.818 13.7987 26.9541 12.6649 25.9442 11.6802L25.3333 12.3067ZM16 24.512V23.637C14.923 23.637 13.8791 23.501 12.884 23.2459L12.6667 24.0935L12.4493 24.941C13.5853 25.2323 14.7752 25.387 16 25.387V24.512ZM16 8.51196V9.38696C17.1238 9.38696 18.2116 9.53496 19.2455 9.812L19.472 8.96682L19.6985 8.12163C18.5181 7.80536 17.2781 7.63696 16 7.63696V8.51196ZM7.25208 21.2552L7.82479 20.5936C6.70073 19.6205 5.75289 18.4505 5.03513 17.138L4.26743 17.5579L3.49972 17.9777C4.31849 19.4749 5.3989 20.8082 6.67937 21.9167L7.25208 21.2552ZM9.43019 22.7905L9.86058 22.0286C9.13365 21.618 8.4519 21.1365 7.82479 20.5936L7.25208 21.2552L6.67937 21.9167C7.39388 22.5353 8.17089 23.084 8.99981 23.5523L9.43019 22.7905ZM7.25208 21.2552L6.74795 21.9703L8.92607 23.5057L9.43019 22.7905L9.93431 22.0753L7.7562 20.54L7.25208 21.2552ZM19.472 8.96682L19.2455 9.812C20.2113 10.0708 21.1309 10.4424 21.9894 10.9119L22.4092 10.1442L22.8291 9.3765C21.85 8.84101 20.8007 8.41697 19.6985 8.12163L19.472 8.96682Z" fill="#1A1A1A"/>
<path d="M25.9531 6.46436L5.95312 26.4644" stroke="#1A1A1A" stroke-width="1.75" stroke-linecap="round" stroke-linejoin="round"/>
<path d="M12 16.512C12 14.3028 13.7909 12.512 16 12.512" stroke="#1A1A1A" stroke-width="1.75" stroke-linecap="round"/>
</svg>
