<svg width="12" height="12" viewBox="0 0 12 12" fill="none" xmlns="http://www.w3.org/2000/svg">
<path d="M7.375 4.18698C7.375 4.46312 7.59886 4.68698 7.875 4.68698C8.15114 4.68698 8.375 4.46312 8.375 4.18698H7.875H7.375ZM8.34494 6.92074C8.43924 6.6612 8.30528 6.37435 8.04574 6.28006C7.7862 6.18576 7.49935 6.31972 7.40506 6.57926L7.875 6.75L8.34494 6.92074ZM6.375 7.375C6.09886 7.375 5.875 7.59886 5.875 7.875C5.875 8.15114 6.09886 8.375 6.375 8.375V7.875V7.375ZM3.75 5.625H4.25V3.375H3.75H3.25V5.625H3.75ZM6 1.125V1.625C6.41246 1.625 6.74046 1.79717 6.97577 2.08835C7.21777 2.38781 7.375 2.83326 7.375 3.375H7.875H8.375C8.375 2.64762 8.16428 1.96807 7.75355 1.45982C7.33613 0.943275 6.72662 0.625 6 0.625V1.125ZM6 1.125V0.625C4.60355 0.625 3.25 1.81133 3.25 3.375H3.75H4.25C4.25 2.40044 5.11828 1.625 6 1.625V1.125ZM7.875 3.375H7.375V4.18698H7.875H8.375V3.375H7.875ZM6.375 7.875V8.375C6.81317 8.375 7.23744 8.18605 7.56966 7.93464C7.90423 7.68145 8.19771 7.326 8.34494 6.92074L7.875 6.75L7.40506 6.57926C7.33582 6.76983 7.17812 6.97688 6.96622 7.13723C6.75198 7.29937 6.53448 7.375 6.375 7.375V7.875ZM4.875 7.5L5.16268 7.09105C4.64557 6.72729 4.25 6.20964 4.25 5.625H3.75H3.25C3.25 6.67782 3.94725 7.45869 4.58732 7.90895L4.875 7.5Z" fill="#1A1A1A"/>
<path d="M9.75 6C9.75 8.27817 8.17462 10.125 6 10.125C5.517 10.125 4.92757 9.91671 4.5 9.75M1.875 6C1.875 7.32271 2.5 8.5 3 9" stroke="#1A1A1A" stroke-linecap="round"/>
<path d="M6 11.25V10.125" stroke="#1A1A1A" stroke-linecap="round"/>
<path d="M9.56932 2.59655L2.25 10.125" stroke="#1A1A1A" stroke-linecap="round" stroke-linejoin="round"/>
</svg>
