<svg width="16" height="16" viewBox="0 0 16 16" fill="none" xmlns="http://www.w3.org/2000/svg">
<path d="M10 5.5C10 5.77614 10.2239 6 10.5 6C10.7761 6 11 5.77614 11 5.5H10.5H10ZM10.9699 9.17074C11.0642 8.9112 10.9303 8.62435 10.6707 8.53006C10.4112 8.43576 10.1244 8.56972 10.0301 8.82926L10.5 9L10.9699 9.17074ZM8.5 10C8.22386 10 8 10.2239 8 10.5C8 10.7761 8.22386 11 8.5 11V10.5V10ZM5 7.5H5.5V4.5H5H4.5V7.5H5ZM8 1.5V2C8.60231 2 9.08656 2.25391 9.43065 2.67971C9.78144 3.11379 10 3.74675 10 4.5H10.5H11C11 3.5611 10.728 2.69405 10.2084 2.05118C9.68223 1.40002 8.91647 1 8 1V1.5ZM8 1.5V1C6.22385 1 4.5 2.51329 4.5 4.5H5H5.5C5.5 3.1024 6.73858 2 8 2V1.5ZM10.5 4.5H10V5.5H10.5H11V4.5H10.5ZM8.5 10.5V11C9.76566 11 10.6304 10.1052 10.9699 9.17074L10.5 9L10.0301 8.82926C9.79229 9.48368 9.23434 10 8.5 10V10.5ZM6.5 10L6.78768 9.59105C6.0777 9.09162 5.5 8.35755 5.5 7.5H5H4.5C4.5 8.82573 5.37938 9.82302 6.21232 10.409L6.5 10Z" fill="#1A1A1A"/>
<path d="M13 8C13 11.0376 10.8995 13.5 8 13.5C7.356 13.5 6.5701 13.2223 6 13M2.5 8C2.5 9.76362 3 11 4 12" stroke="#1A1A1A" stroke-linecap="round"/>
<path d="M8 15V13.5" stroke="#1A1A1A" stroke-linecap="round"/>
<path d="M12.7591 3.46207L3 13.5" stroke="#1A1A1A" stroke-linecap="round" stroke-linejoin="round"/>
</svg>
