<svg width="32" height="32" viewBox="0 0 32 32" fill="none" xmlns="http://www.w3.org/2000/svg">
<path d="M20.125 11C20.125 11.4832 20.5168 11.875 21 11.875C21.4832 11.875 21.875 11.4832 21.875 11H21H20.125ZM21.8224 18.2988C21.9874 17.8446 21.753 17.3426 21.2988 17.1776C20.8446 17.0126 20.3426 17.247 20.1776 17.7012L21 18L21.8224 18.2988ZM17 20.125C16.5168 20.125 16.125 20.5168 16.125 21C16.125 21.4832 16.5168 21.875 17 21.875V21V20.125ZM10 15H10.875V9H10H9.125V15H10ZM16 3V3.875C17.2439 3.875 18.2476 4.40108 18.9585 5.28085C19.6812 6.17512 20.125 7.47028 20.125 9H21H21.875C21.875 7.14541 21.3376 5.44058 20.3196 4.18092C19.29 2.90677 17.7937 2.125 16 2.125V3ZM16 3V2.125C12.512 2.125 9.125 5.10023 9.125 9H10H10.875C10.875 6.13116 13.4128 3.875 16 3.875V3ZM21 9H20.125V11H21H21.875V9H21ZM17 21V21.875C17.9993 21.875 19.0349 21.4186 19.8687 20.7976C20.7093 20.1715 21.4614 19.2923 21.8224 18.2988L21 18L20.1776 17.7012C19.9613 18.2965 19.4635 18.9173 18.8234 19.3941C18.1765 19.8759 17.5007 20.125 17 20.125V21ZM13 20L13.5034 19.2843C12.0681 18.2747 10.875 16.7736 10.875 15H10H9.125C9.125 17.5929 10.8461 19.5546 12.4966 20.7157L13 20Z" fill="#1A1A1A"/>
<path d="M26 16C26 22.0751 21.799 27 16 27C14.712 27 13.1402 26.4445 12 26M5 16C5 19.5272 6.03578 21.987 8.5 24" stroke="#1A1A1A" stroke-width="2" stroke-linecap="round"/>
<path d="M16 30V27" stroke="#1A1A1A" stroke-width="2" stroke-linecap="round"/>
<path d="M25.5182 6.92414L6 27" stroke="#1A1A1A" stroke-width="1.75" stroke-linecap="round" stroke-linejoin="round"/>
</svg>
