<svg width="60" height="22" viewBox="0 0 60 22" fill="none" xmlns="http://www.w3.org/2000/svg">
<path d="M52.7928 17.9313C52.2405 17.9313 51.7928 17.4836 51.7928 16.9313V8.87744C51.7928 8.71175 51.9271 8.57744 52.0928 8.57744H58.2178C58.77 8.57744 59.2178 9.02515 59.2178 9.57744V11.6699C59.2178 12.221 59.1616 12.7466 59.0494 13.2467C58.9828 13.5433 58.8947 13.8201 58.7851 14.0771C58.6478 14.399 58.3151 14.5786 57.9652 14.5786H56.893C56.624 14.5786 56.4818 14.2416 56.64 14.0239C56.8126 13.7865 56.9472 13.5427 57.0439 13.2927C57.2276 12.8436 57.3194 12.3078 57.3194 11.6852V10.5461C57.3194 10.3805 57.1851 10.2461 57.0194 10.2461H54.1136C53.9479 10.2461 53.8136 10.3805 53.8136 10.5461V15.9473C53.8136 16.113 53.9479 16.2473 54.1136 16.2473H59.4536C59.6193 16.2473 59.7536 16.3816 59.7536 16.5473V16.9313C59.7536 17.4836 59.3059 17.9313 58.7536 17.9313H52.7928ZM47.445 6.28107V4.3C47.445 4.13431 47.5793 4 47.745 4H49.2117C49.3774 4 49.5117 4.13431 49.5117 4.3V6.28107H50.6814C50.8471 6.28107 50.9814 6.41538 50.9814 6.58107V7.66507C50.9814 7.83076 50.8471 7.96507 50.6814 7.96507H49.5117V10.6595L50.7073 10.3899C50.8949 10.3476 51.0733 10.4902 51.0733 10.6826V11.9046C51.0733 12.0448 50.9761 12.1664 50.8393 12.1972L49.5117 12.4966V14.0122C49.5117 14.8695 49.4556 15.635 49.3433 16.3086C49.2751 16.7121 49.186 17.0703 49.0762 17.3832C48.9542 17.7308 48.6083 17.9313 48.2399 17.9313H46.9911C46.7493 17.9313 46.6024 17.6564 46.7156 17.4426C47.2019 16.5242 47.445 15.3807 47.445 14.0122V12.9559L46.2308 13.2152C46.0441 13.2551 45.8682 13.1127 45.8682 12.9218V11.6983C45.8682 11.5567 45.9671 11.4344 46.1055 11.4049L47.445 11.1188V7.96507H46.1682C46.0025 7.96507 45.8682 7.83076 45.8682 7.66507V6.58107C45.8682 6.41538 46.0025 6.28107 46.1682 6.28107H47.445ZM57.6024 8.24064C57.5021 8.24064 57.4084 8.19057 57.3532 8.10676C56.9995 7.56889 56.6718 7.02666 56.3703 6.48008C56.1288 6.02841 55.9023 5.5589 55.6906 5.07157C55.6187 4.90622 55.3785 4.907 55.3069 5.07249C55.0981 5.55564 54.8657 6.02994 54.6097 6.49539C54.3007 7.05721 53.9831 7.59326 53.6569 8.10354C53.6022 8.18921 53.5073 8.24064 53.4056 8.24064H51.7222C51.4717 8.24064 51.3297 7.95029 51.477 7.7477C51.6106 7.56408 51.7414 7.37628 51.8694 7.18431C52.1245 6.81689 52.3593 6.44947 52.5736 6.08205C52.7879 5.71463 52.9818 5.35231 53.1553 4.9951C53.2925 4.71271 53.4105 4.44627 53.5094 4.19578C53.5556 4.07871 53.6677 4 53.7935 4H57.0817C57.2064 4 57.3175 4.07725 57.3651 4.19248C57.4655 4.43591 57.588 4.69834 57.7328 4.97979C57.9267 5.32679 58.1359 5.68911 58.3604 6.06674C58.5952 6.44436 58.835 6.82199 59.08 7.19962C59.2129 7.39105 59.3445 7.57695 59.4746 7.7573C59.6193 7.95776 59.4773 8.24064 59.2301 8.24064H57.6024Z" fill="#1A1A1A"/>
<path fill-rule="evenodd" clip-rule="evenodd" d="M42.3759 17.2266C42.4725 17.6501 42.8556 17.9313 43.2899 17.9313H43.9739C44.1969 17.9313 44.3505 17.6924 44.2783 17.4814C44.2623 17.4346 44.2461 17.3856 44.2297 17.3343C44.148 17.0791 44.0715 16.7934 44 16.477C43.9286 16.1708 43.8674 15.8391 43.8163 15.4819C43.7755 15.1247 43.7551 14.7674 43.7551 14.4102V8.06183C43.7551 7.50955 43.3074 7.06183 42.7551 7.06183H35.5585C35.3928 7.06183 35.2585 7.19615 35.2585 7.36183V14.4102C35.2585 14.7776 35.2279 15.14 35.1667 15.4972C35.1156 15.8544 35.0493 16.1861 34.9676 16.4923C34.886 16.7985 34.7992 17.074 34.7074 17.319C34.6828 17.3845 34.659 17.4471 34.6359 17.5068C34.5577 17.7085 34.7048 17.9313 34.9211 17.9313H35.64C36.0704 17.9313 36.452 17.6556 36.559 17.2386C36.6118 17.033 36.6682 16.7996 36.7282 16.5382C36.8813 15.9258 36.9578 15.2165 36.9578 14.4102V8.93868C36.9578 8.77299 37.0921 8.63868 37.2578 8.63868H41.7558C41.9215 8.63868 42.0558 8.77299 42.0558 8.93868V14.4255C42.0558 15.2624 42.117 15.982 42.2395 16.5841C42.2873 16.8232 42.3328 17.0373 42.3759 17.2266ZM32.6713 5.08077V10.5676L30.7324 11.4668C30.6264 11.516 30.5586 11.6222 30.5586 11.739V12.8657C30.5586 13.0856 30.7874 13.2308 30.9864 13.1371L32.6713 12.3435V13.5529C32.6713 13.8693 32.6202 14.2112 32.5182 14.5786C32.4161 14.9358 32.2732 15.3084 32.0895 15.6962C31.916 16.0738 31.7068 16.4515 31.4618 16.8291C31.3333 17.0326 31.1978 17.2304 31.0552 17.4227C30.9028 17.6283 31.0447 17.9313 31.3006 17.9313H32.3146C32.6088 17.9313 32.8919 17.8045 33.0626 17.565C33.182 17.3974 33.2965 17.2185 33.4061 17.0281C33.6 16.6913 33.7684 16.3392 33.9113 15.9718C34.0542 15.5941 34.1665 15.2063 34.2481 14.8083C34.34 14.4102 34.3859 14.0224 34.3859 13.6448V6.65761C34.3859 6.49193 34.5202 6.35761 34.6859 6.35761H44.1593C44.325 6.35761 44.4593 6.2233 44.4593 6.05761V5.08077C44.4593 4.91508 44.325 4.78077 44.1593 4.78077H39.5757C39.5349 4.63788 39.494 4.5001 39.4532 4.36742C39.4399 4.30527 39.4256 4.24698 39.4104 4.19255C39.3773 4.07443 39.2656 4 39.1429 4H37.6428C37.452 4 37.313 4.18156 37.3559 4.36742C37.3865 4.5001 37.4171 4.63788 37.4477 4.78077H32.9713C32.8056 4.78077 32.6713 4.91508 32.6713 5.08077ZM30.961 9.46825C30.9766 9.62262 31.1061 9.74094 31.2612 9.74094H32.0795C32.257 9.74094 32.3957 9.58771 32.3772 9.41119C32.3336 8.99534 32.2836 8.55412 32.2273 8.08755C32.168 7.59635 32.1052 7.14381 32.0389 6.72991C32.0158 6.58549 31.8907 6.48008 31.7444 6.48008H30.9733C30.7934 6.48008 30.654 6.63724 30.6744 6.81594C30.692 6.96943 30.7095 7.12795 30.727 7.29147C30.7678 7.57724 30.8035 7.86811 30.8342 8.16409C30.8648 8.44986 30.8903 8.73053 30.9107 9.0061C30.9294 9.16772 30.9461 9.32177 30.961 9.46825Z" fill="#1A1A1A"/>
<path d="M26.8919 4.30621C27.4442 4.30621 27.8919 4.75393 27.8919 5.30621V16.9314C27.8919 17.4837 27.4442 17.9314 26.8919 17.9314H16.8479C16.6822 17.9314 16.5479 17.7971 16.5479 17.6314V4.60621C16.5479 4.44053 16.6822 4.30621 16.8479 4.30621H26.8919ZM25.418 16.1555C25.5837 16.1555 25.718 16.0212 25.718 15.8555V11.8996H19.0064C18.8408 11.8996 18.7064 12.0339 18.7064 12.1996V15.8555C18.7064 16.0212 18.8408 16.1555 19.0064 16.1555H25.418ZM18.7064 9.82369C18.7064 9.98938 18.8408 10.1237 19.0064 10.1237H25.718V6.41269C25.718 6.24701 25.5837 6.11269 25.418 6.11269H19.0064C18.8408 6.11269 18.7064 6.24701 18.7064 6.41269V9.82369Z" fill="#1A1A1A"/>
<path d="M11.7077 10.9657C12.4142 10.9657 12.8979 11.6786 12.6192 12.3278C12.4944 12.6185 12.3705 12.8993 12.2473 13.1702C11.9412 13.8336 11.6401 14.4511 11.3441 15.0226C11.0481 15.5839 10.7521 16.0993 10.4562 16.5688C10.2555 16.894 10.0525 17.2075 9.8472 17.5092C9.6655 17.7762 9.36125 17.9313 9.0383 17.9313H7.21672C6.96617 17.9313 6.82508 17.6416 6.9759 17.4416C7.50419 16.7408 7.97536 16.0467 8.38942 15.3594C8.82284 14.6455 9.21381 13.9352 9.56231 13.2284C9.65953 13.0312 9.51465 12.8028 9.29482 12.8028H1.08077C0.915082 12.8028 0.780768 12.6685 0.780768 12.5028V11.2657C0.780768 11.1 0.915082 10.9657 1.08077 10.9657H11.7077ZM0.734957 9.58784C0.466192 9.58784 0.332331 9.26087 0.52224 9.07068C0.830346 8.76213 1.12575 8.45994 1.40844 8.16409C1.85751 7.70482 2.28107 7.25065 2.6791 6.80158C3.07714 6.3423 3.45477 5.88303 3.81198 5.42375C4.06074 5.10393 4.30206 4.77668 4.53597 4.44201C4.72751 4.16796 5.03853 4 5.37288 4H8.70231C9.02481 4 9.32672 4.15604 9.51861 4.41524C9.99381 5.05716 10.5411 5.75054 11.1604 6.49539C11.8049 7.26182 12.5609 8.12487 13.4283 9.08454C13.6031 9.27793 13.4663 9.58784 13.2056 9.58784H11.3511C11.0555 9.58784 10.775 9.45709 10.5853 9.23037C9.95297 8.47446 9.35879 7.75672 8.80277 7.07714C8.26695 6.40305 7.76041 5.72895 7.28313 5.05486C7.15993 4.88085 6.89934 4.88452 6.78027 5.06138C6.27748 5.80822 5.73711 6.53627 5.15919 7.24554C4.58826 7.95701 4.00221 8.63446 3.40104 9.27789C3.21494 9.47708 2.95363 9.58784 2.68103 9.58784H0.734957ZM6.49208 10.3227C6.34908 10.3227 6.22616 10.2217 6.1966 10.0818C6.10515 9.64883 5.99919 9.20862 5.87872 8.76115C5.78672 8.38607 5.68736 8.03797 5.58063 7.71687C5.51436 7.51747 5.65995 7.30678 5.87007 7.30678H7.6297C7.75509 7.30678 7.8675 7.38462 7.90923 7.50287C8.02315 7.82564 8.14749 8.21445 8.28226 8.66929C8.40956 9.09895 8.52446 9.5286 8.62696 9.95825C8.67149 10.1449 8.52886 10.3227 8.33693 10.3227H6.49208Z" fill="#1A1A1A"/>
<path fill-rule="evenodd" clip-rule="evenodd" d="M40.138 8.82211L39.003 10.1756L36.7513 12.9715C36.559 13.2102 36.6956 13.5676 36.9981 13.6171L38.438 13.8532L37.7267 16.9486C37.6325 17.3582 38.1529 17.6173 38.423 17.2952L39.6223 15.865L41.8731 13.0702C42.0656 12.8312 41.9284 12.4735 41.6255 12.4245L40.0621 12.1713L40.8319 9.17878C40.938 8.76628 40.4116 8.49575 40.138 8.82211Z" fill="url(#paint0_linear_19359_28965)"/>
<defs>
<linearGradient id="paint0_linear_19359_28965" x1="37.5216" y1="18.7619" x2="42.1782" y2="5.00328" gradientUnits="userSpaceOnUse">
<stop offset="0.1383" stop-color="#FF2828"/>
<stop offset="1" stop-color="#FFA620"/>
</linearGradient>
</defs>
</svg>
