<svg width="12" height="12" viewBox="0 0 12 12" fill="none" xmlns="http://www.w3.org/2000/svg">
<path d="M10.5 7.125V6C10.5 3.51472 8.48528 1.5 6 1.5C3.51472 1.5 1.5 3.51472 1.5 6V6.75" stroke="#1A1A1A" stroke-linecap="round"/>
<path d="M10.5 6.375V7.65C10.5 9.22401 9.22401 10.5 7.65 10.5H6.5" stroke="#333333" stroke-linecap="round"/>
<path d="M7.875 5.875C7.875 5.32272 8.32272 4.875 8.875 4.875H9.5C10.0523 4.875 10.5 5.32272 10.5 5.875V6.875C10.5 7.42728 10.0523 7.875 9.5 7.875H8.875C8.32272 7.875 7.875 7.42728 7.875 6.875V5.875Z" stroke="#1A1A1A"/>
<path d="M4.125 5.875C4.125 5.32272 3.67728 4.875 3.125 4.875H2.5C1.94772 4.875 1.5 5.32272 1.5 5.875V6.875C1.5 7.42728 1.94772 7.875 2.5 7.875H3.125C3.67728 7.875 4.125 7.42728 4.125 6.875V5.875Z" stroke="#1A1A1A"/>
<path d="M5.5 10.5H6.5" stroke="#333333" stroke-linecap="round"/>
</svg>
