<svg width="16" height="16" viewBox="0 0 16 16" fill="none" xmlns="http://www.w3.org/2000/svg">
<path d="M14 9.5V8C14 4.68629 11.3137 2 8 2C4.68629 2 2 4.68629 2 8V9" stroke="#1A1A1A" stroke-linecap="round"/>
<path d="M14 8.5V10.2C14 12.2987 12.2987 14 10.2 14H9" stroke="#333333" stroke-linecap="round"/>
<path d="M10.5 7.83333C10.5 7.09695 11.097 6.5 11.8333 6.5H12.6667C13.403 6.5 14 7.09695 14 7.83333V9.16667C14 9.90305 13.403 10.5 12.6667 10.5H11.8333C11.097 10.5 10.5 9.90305 10.5 9.16667V7.83333Z" stroke="#1A1A1A"/>
<path d="M5.5 7.83333C5.5 7.09695 4.90305 6.5 4.16667 6.5H3.33333C2.59695 6.5 2 7.09695 2 7.83333V9.16667C2 9.90305 2.59695 10.5 3.33333 10.5H4.16667C4.90305 10.5 5.5 9.90305 5.5 9.16667V7.83333Z" stroke="#1A1A1A"/>
<path d="M7 14H9" stroke="#333333" stroke-width="1.75" stroke-linecap="round"/>
</svg>
