<svg width="24" height="24" viewBox="0 0 24 24" fill="none" xmlns="http://www.w3.org/2000/svg">
<path d="M21 14V12C21 7.02944 16.9706 3 12 3C7.02944 3 3 7.02944 3 12V14" stroke="#1A1A1A" stroke-width="1.5" stroke-linecap="round"/>
<path d="M21 13V14C21 17.866 17.866 21 14 21" stroke="#333333" stroke-width="1.5" stroke-linecap="round"/>
<path d="M16 12C16 10.8954 16.8954 10 18 10H19C20.1046 10 21 10.8954 21 12V14C21 15.1046 20.1046 16 19 16H18C16.8954 16 16 15.1046 16 14V12Z" stroke="#1A1A1A" stroke-width="1.5"/>
<path d="M8 12C8 10.8954 7.10457 10 6 10H5C3.89543 10 3 10.8954 3 12V14C3 15.1046 3.89543 16 5 16H6C7.10457 16 8 15.1046 8 14V12Z" stroke="#1A1A1A" stroke-width="1.5"/>
<path d="M11 21H13" stroke="#333333" stroke-width="2.5" stroke-linecap="round"/>
</svg>
