<svg width="12" height="12" viewBox="0 0 12 12" fill="none" xmlns="http://www.w3.org/2000/svg">
<path d="M9.4638 4.00006C9.09496 3.3612 8.55663 2.83679 7.90833 2.48479C7.26004 2.1328 6.52703 1.96694 5.79036 2.00554C5.05368 2.04415 4.34202 2.28573 3.73408 2.70356C3.12613 3.12139 2.64556 3.6992 2.34552 4.37312M10.3838 2.75774L10.0191 4.33751C9.95697 4.60658 9.68849 4.77434 9.41942 4.71223L7.83966 4.34752M2.53558 8.00001C2.90442 8.63887 3.44275 9.16328 4.09105 9.51528C4.73934 9.86727 5.47235 10.0331 6.20902 9.99453C6.9457 9.95592 7.65736 9.71434 8.26531 9.29651C8.87325 8.87868 9.35382 8.30087 9.65386 7.62695M1.61559 9.24233L1.9803 7.66256C2.04241 7.39349 2.31089 7.22573 2.57996 7.28784L4.15972 7.65255" stroke="#1A1A1A" stroke-linecap="round"/>
</svg>
