<svg width="16" height="16" viewBox="0 0 16 16" fill="none" xmlns="http://www.w3.org/2000/svg">
<path d="M12.6191 5.33342C12.1273 4.48161 11.4095 3.78238 10.5451 3.31306C9.68071 2.84373 8.70336 2.62258 7.72113 2.67406C6.73889 2.72554 5.79002 3.04764 4.97942 3.60474C4.16882 4.16185 3.52807 4.93227 3.12801 5.83082M13.8457 3.67699L13.3594 5.78335C13.2766 6.1421 12.9186 6.36579 12.5599 6.28297L10.4535 5.79669M3.38142 10.6667C3.87322 11.5185 4.59099 12.2177 5.45538 12.687C6.31977 13.1564 7.29711 13.3775 8.27935 13.326C9.26159 13.2746 10.2105 12.9525 11.0211 12.3953C11.8317 11.8382 12.4724 11.0678 12.8725 10.1693M2.15477 12.3231L2.64105 10.2167C2.72387 9.85799 3.08184 9.6343 3.44059 9.71712L5.54695 10.2034" stroke="#1A1A1A" stroke-linecap="round"/>
</svg>
