<svg width="24" height="24" viewBox="0 0 24 24" fill="none" xmlns="http://www.w3.org/2000/svg">
<path d="M5.07142 8.00012C5.80911 6.72241 6.88577 5.67358 8.18235 4.96959C9.47894 4.2656 10.945 3.93387 12.4183 4.01109C13.8917 4.0883 15.315 4.57145 16.5309 5.40712C17.7468 6.24278 18.7079 7.39841 19.308 8.74623M3.23145 5.51549L3.96086 8.67502C4.08509 9.21316 4.62204 9.54869 5.16017 9.42445L8.31971 8.69504M18.9279 16C18.1902 17.2777 17.1135 18.3266 15.8169 19.0306C14.5203 19.7345 13.0543 20.0663 11.581 19.9891C10.1076 19.9118 8.68431 19.4287 7.46841 18.593C6.25252 17.7574 5.29139 16.6017 4.6913 15.2539M20.7678 18.4847L20.0384 15.3251C19.9142 14.787 19.3772 14.4515 18.8391 14.5757L15.6796 15.3051" stroke="#1A1A1A" stroke-width="1.5" stroke-linecap="round"/>
</svg>
