<svg width="32" height="32" viewBox="0 0 32 32" fill="none" xmlns="http://www.w3.org/2000/svg">
<path d="M25.4993 11C24.5158 9.29635 22.818 7.56471 21.0892 6.62606C19.3604 5.6874 17.4057 5.2451 15.4413 5.34806C13.4768 5.45101 11.5791 6.09521 9.95786 7.20943C8.33666 8.32365 7.05516 9.86448 6.25504 11.6616M27.6904 7.35392L26.7179 11.5666C26.5522 12.2841 25.8363 12.7315 25.1188 12.5659L20.9061 11.5933M6.49934 21C7.48293 22.7036 9.18099 24.4354 10.9098 25.374C12.6386 26.3127 14.5932 26.755 16.5577 26.652C18.5222 26.5491 20.4199 25.9049 22.0411 24.7906C23.6623 23.6764 24.9438 22.1356 25.744 20.3385M4.30857 24.6461L5.28112 20.4334C5.44676 19.7159 6.1627 19.2685 6.8802 19.4342L11.0929 20.4067" stroke="#1A1A1A" stroke-width="1.75" stroke-linecap="round"/>
</svg>
