<svg width="12" height="12" viewBox="0 0 12 12" fill="none" xmlns="http://www.w3.org/2000/svg">
<path d="M1.5 5.25C1.5 4.00736 2.50736 3 3.75 3H8.25C9.49264 3 10.5 4.00736 10.5 5.25V7.5C10.5 8.74264 9.49264 9.75 8.25 9.75H3.75C2.50736 9.75 1.5 8.74264 1.5 7.5V5.25Z" stroke="#1A1A1A"/>
<path d="M5.25 7.75V5.25C5.25 4.94098 5.60279 4.76459 5.85 4.95L7.51667 6.2C7.71667 6.35 7.71667 6.65 7.51667 6.8L5.85 8.05C5.60279 8.23541 5.25 8.05902 5.25 7.75Z" stroke="#1A1A1A" stroke-linecap="round"/>
<path d="M4.5 1.5L6 3" stroke="#1A1A1A" stroke-linecap="round"/>
<path d="M7.5 1.5L6 3" stroke="#1A1A1A" stroke-linecap="round"/>
</svg>
