<svg width="24" height="24" viewBox="0 0 24 24" fill="none" xmlns="http://www.w3.org/2000/svg">
<path d="M2 11C2 8.23858 4.23858 6 7 6L17 6C19.7614 6 22 8.23858 22 11V16C22 18.7614 19.7614 21 17 21H7C4.23858 21 2 18.7614 2 16V11Z" stroke="#1A1A1A" stroke-width="1.5"/>
<path d="M10 16.5V10.5C10 9.88197 10.7056 9.52918 11.2 9.9L15.2 12.9C15.6 13.2 15.6 13.8 15.2 14.1L11.2 17.1C10.7056 17.4708 10 17.118 10 16.5Z" stroke="#1A1A1A" stroke-width="1.5" stroke-linecap="round"/>
<path d="M9 3L12 6" stroke="#1A1A1A" stroke-width="1.5" stroke-linecap="round"/>
<path d="M15 3L12 6" stroke="#1A1A1A" stroke-width="1.5" stroke-linecap="round"/>
</svg>
