<svg width="12" height="12" viewBox="0 0 12 12" fill="none" xmlns="http://www.w3.org/2000/svg">
<path d="M1.5 2.5C1.5 1.94771 1.94772 1.5 2.5 1.5H9.5C10.0523 1.5 10.5 1.94772 10.5 2.5V2.63122C10.5 2.97749 10.3802 3.31309 10.1609 3.58108L7.72604 6.55706C7.57986 6.73572 7.5 6.95945 7.5 7.1903V8.84173C7.5 9.03932 7.38363 9.21839 7.20307 9.29864L5.20307 10.1875C4.87243 10.3345 4.5 10.0924 4.5 9.73062V7.1903C4.5 6.95945 4.42014 6.73572 4.27396 6.55706L1.83906 3.58108C1.6198 3.31308 1.5 2.97749 1.5 2.63122V2.5Z" stroke="#1A1A1A"/>
</svg>
