<svg width="16" height="16" viewBox="0 0 16 16" fill="none" xmlns="http://www.w3.org/2000/svg">
<path d="M2 3.33333C2 2.59695 2.59695 2 3.33333 2H12.6667C13.403 2 14 2.59695 14 3.33333V3.5083C14 3.96998 13.8403 4.41745 13.5479 4.77477L10.3014 8.74275C10.1065 8.98096 10 9.27927 10 9.58706V11.789C10 12.0524 9.84484 12.2912 9.60409 12.3982L6.93743 13.5834C6.49657 13.7793 6 13.4566 6 12.9742V9.58706C6 9.27927 5.89351 8.98096 5.69861 8.74275L2.45209 4.77477C2.15973 4.41745 2 3.96998 2 3.5083V3.33333Z" stroke="#1A1A1A"/>
</svg>
