<svg width="32" height="32" viewBox="0 0 32 32" fill="none" xmlns="http://www.w3.org/2000/svg">
<path d="M3 5.66667C3 4.19391 4.19391 3 5.66667 3H27.3333C28.8061 3 30 4.19391 30 5.66667V6.57215C30 7.49552 29.6805 8.39045 29.0958 9.1051L21.6028 18.2633C21.213 18.7397 21 19.3363 21 19.9519V25.1335C21 25.6604 20.6897 26.1379 20.2082 26.3519L13.8749 29.1667C12.9931 29.5586 12 28.9132 12 27.9483V19.9519C12 19.3363 11.787 18.7397 11.3972 18.2633L3.90417 9.1051C3.31946 8.39045 3 7.49552 3 6.57215V5.66667Z" stroke="#1A1A1A" stroke-width="1.75"/>
</svg>
