<svg width="12" height="12" viewBox="0 0 12 12" fill="none" xmlns="http://www.w3.org/2000/svg">
<path d="M9.75 9.24982C10.0261 9.24993 10.2498 9.47375 10.25 9.74982C10.2501 10.026 10.0261 10.2499 9.75 10.2498L6.75 10.2488C6.47417 10.2485 6.25032 10.0247 6.25 9.74884C6.2499 9.4727 6.47386 9.24874 6.75 9.24884L9.75 9.24982ZM6.43945 1.47834C7.02503 0.892461 7.97458 0.892816 8.56055 1.47834L9.79883 2.71466C10.3847 3.30012 10.385 4.24972 9.7998 4.83576L5.11426 9.52521C4.73937 9.9003 4.23051 10.1109 3.7002 10.1111L2.41992 10.1121C1.72963 10.1123 1.17023 9.55242 1.16992 8.86212L1.16895 7.58185C1.16887 7.05167 1.3792 6.54288 1.75391 6.16779L6.43945 1.47834ZM2.46094 6.87482C2.27377 7.06237 2.16887 7.31688 2.16895 7.58185V8.86212C2.16904 9.00013 2.28191 9.11213 2.41992 9.11212L3.69922 9.11115C3.96434 9.11105 4.2188 9.00566 4.40625 8.81818L7.75684 5.46369L5.8125 3.52033L2.46094 6.87482ZM7.85449 2.18537C7.65927 1.9903 7.34268 1.99038 7.14746 2.18537L6.51855 2.8133L8.46387 4.75666L9.0918 4.1297C9.28695 3.9344 9.28704 3.61787 9.0918 3.42267L7.85449 2.18537Z" fill="#1A1A1A"/>
</svg>
