<svg width="16" height="16" viewBox="0 0 16 16" fill="none" xmlns="http://www.w3.org/2000/svg">
<path d="M12.999 12.4995C13.2752 12.4996 13.4989 12.7243 13.499 13.0004C13.4989 13.2763 13.2759 13.4994 13 13.4995L9 13.4985C8.72397 13.4984 8.50028 13.2745 8.5 12.9985C8.4999 12.7224 8.72302 12.4985 8.99902 12.4985L12.999 12.4995ZM8.7041 2.0893C9.41972 1.37366 10.5798 1.37313 11.2959 2.08832L12.9473 3.73774C13.6632 4.45333 13.6635 5.61433 12.9482 6.33051L6.7002 12.5825C6.23155 13.0513 5.59556 13.3156 4.93262 13.3159H3.22559C2.39735 13.316 1.72596 12.6451 1.72559 11.8168L1.72461 10.1098C1.72437 9.44698 1.98767 8.81119 2.45605 8.34223L8.7041 2.0893ZM3.16309 9.04828C2.88202 9.32967 2.72446 9.71208 2.72461 10.1098L2.72559 11.8168C2.72594 12.0927 2.94965 12.3159 3.22559 12.3159H4.93262C5.33024 12.3157 5.71204 12.1576 5.99316 11.8764L10.5781 7.28559L7.74902 4.45844L3.16309 9.04828ZM10.5889 2.79535C10.2633 2.47072 9.73626 2.4712 9.41113 2.79633L8.45605 3.75141L11.2852 6.57758L12.2402 5.62348C12.5652 5.29802 12.5654 4.77101 12.2402 4.44574L10.5889 2.79535Z" fill="#1A1A1A"/>
</svg>
