<svg width="24" height="24" viewBox="0 0 24 24" fill="none" xmlns="http://www.w3.org/2000/svg">
<path d="M13.5137 3.80605C14.5868 2.73135 16.3275 2.73031 17.4014 3.8041L19.8936 6.29628C20.958 7.36097 20.9686 9.0842 19.918 10.1625L10.6846 19.6361C9.97917 20.3599 9.01134 20.7679 8.00104 20.768H5.24908C3.9701 20.7678 2.94845 19.702 3.00201 18.4232L3.12018 15.6137C3.15979 14.6748 3.55023 13.7842 4.21393 13.1195L13.5137 3.80605ZM20.5147 19.1947C20.9287 19.1947 21.2646 19.5304 21.2647 19.9447C21.2647 20.3591 20.9288 20.6947 20.5147 20.6947H14.3936C13.9796 20.6947 13.6436 20.3591 13.6436 19.9447C13.6437 19.5304 13.9796 19.1947 14.3936 19.1947H20.5147ZM5.27447 14.181C4.87633 14.5799 4.64192 15.1138 4.61822 15.6771L4.50006 18.4857C4.48214 18.912 4.82287 19.2677 5.24908 19.268H8.00201C8.60797 19.2678 9.18824 19.0224 9.61139 18.5883L16.1436 11.8852L11.8506 7.59316L5.27447 14.181ZM16.3419 4.86562C15.8537 4.37746 15.0621 4.37807 14.5743 4.8666L12.9102 6.53164L17.1905 10.8109L18.8438 9.11562C19.3214 8.62557 19.3177 7.84183 18.834 7.35781L16.3419 4.86562Z" fill="#1A1A1A"/>
</svg>
