<svg width="32" height="32" viewBox="0 0 32 32" fill="none" xmlns="http://www.w3.org/2000/svg">
<path d="M25.999 25.1251C26.4822 25.1253 26.8747 25.517 26.875 26.0001C26.8752 26.4834 26.4832 26.8753 26 26.8751L18 26.8722C17.5168 26.872 17.1252 26.4794 17.125 25.9962C17.1251 25.5133 17.5161 25.1222 17.999 25.1222L25.999 25.1251ZM17.4961 4.26769C18.8787 2.88452 21.1214 2.88429 22.5049 4.26672L25.8057 7.56457C27.189 8.94709 27.1899 11.1898 25.8076 12.5734L13.3135 25.0773C12.3998 25.9916 11.1598 26.5053 9.86719 26.506L6.45313 26.5079C4.8653 26.5085 3.57677 25.2207 3.57617 23.6329L3.5752 20.2189C3.57488 18.9262 4.08821 17.686 5.00195 16.7716L17.4961 4.26769ZM6.23926 18.0089C5.65372 18.5951 5.32495 19.3903 5.3252 20.2189L5.32617 23.6329C5.32659 24.2541 5.83094 24.7582 6.45215 24.7579L9.86621 24.756C10.6948 24.7556 11.4895 24.4261 12.0752 23.84L21.335 14.5734L15.498 8.74132L6.23926 18.0089ZM21.2676 5.50402C20.5676 4.80479 19.4328 4.80511 18.7334 5.505L16.7354 7.50304L22.5723 13.3351L24.5693 11.337C25.2688 10.6371 25.2683 9.5013 24.5684 8.80187L21.2676 5.50402Z" fill="#1A1A1A"/>
</svg>
