<svg width="12" height="12" viewBox="0 0 12 12" fill="none" xmlns="http://www.w3.org/2000/svg">
<path d="M8.25 2.99352C8.25 2.19482 7.35985 1.71843 6.6953 2.16147L4.00192 3.95705C3.83766 4.06656 3.64465 4.125 3.44722 4.125H2.75C2.05964 4.125 1.5 4.68464 1.5 5.375V7.375C1.5 8.06536 2.05964 8.625 2.75 8.625H3.44722C3.64465 8.625 3.83766 8.68344 4.00192 8.79295L6.6953 10.5885C7.35985 11.0316 8.25 10.5552 8.25 9.75648V6.375V2.99352Z" stroke="#1A1A1A"/>
<path d="M9.75 7.875C9.98547 7.45717 10.125 6.9378 10.125 6.375C10.125 5.8122 9.98547 5.29283 9.75 4.875" stroke="#1A1A1A" stroke-linecap="round"/>
</svg>
