<svg width="24" height="24" viewBox="0 0 24 24" fill="none" xmlns="http://www.w3.org/2000/svg">
<path d="M16.5 5.98703C16.5 4.38964 14.7197 3.43686 13.3906 4.32293L8.00385 7.9141C7.67531 8.13312 7.2893 8.25 6.89445 8.25H5.5C4.11929 8.25 3 9.36929 3 10.75V14.75C3 16.1307 4.11929 17.25 5.5 17.25H6.89445C7.2893 17.25 7.67531 17.3669 8.00385 17.5859L13.3906 21.1771C14.7197 22.0631 16.5 21.1104 16.5 19.513V12.75V5.98703Z" stroke="#1A1A1A" stroke-width="1.5"/>
<path d="M19.5 15.75C19.9709 14.9143 20.25 13.8756 20.25 12.75C20.25 11.6244 19.9709 10.5857 19.5 9.75" stroke="#1A1A1A" stroke-width="1.5" stroke-linecap="round"/>
</svg>
