<svg width="16" height="16" viewBox="0 0 16 16" fill="none" xmlns="http://www.w3.org/2000/svg">
<path d="M11 3.99136C11 2.92643 9.81314 2.29124 8.92707 2.88196L5.3359 5.27607C5.11688 5.42208 4.85953 5.5 4.5963 5.5H3.66667C2.74619 5.5 2 6.24619 2 7.16667V9.83333C2 10.7538 2.74619 11.5 3.66667 11.5H4.5963C4.85953 11.5 5.11688 11.5779 5.3359 11.7239L8.92707 14.118C9.81314 14.7088 11 14.0736 11 13.0086V8.5V3.99136Z" stroke="#1A1A1A"/>
<path d="M13 10.5C13.314 9.94289 13.5 9.2504 13.5 8.5C13.5 7.7496 13.314 7.05711 13 6.5" stroke="#1A1A1A" stroke-linecap="round"/>
</svg>
