<svg width="32" height="32" viewBox="0 0 32 32" fill="none" xmlns="http://www.w3.org/2000/svg">
<path d="M22 7.98271C22 5.85286 19.6263 4.58248 17.8541 5.76391L10.6718 10.5521C10.2338 10.8442 9.71906 11 9.1926 11H7.33333C5.49238 11 4 12.4924 4 14.3333V19.6667C4 21.5076 5.49238 23 7.33333 23H9.1926C9.71906 23 10.2338 23.1558 10.6718 23.4479L17.8541 28.2361C19.6263 29.4175 22 28.1471 22 26.0173V17V7.98271Z" stroke="#1A1A1A" stroke-width="1.75"/>
<path d="M26 21C26.6279 19.8858 27 18.5008 27 17C27 15.4992 26.6279 14.1142 26 13" stroke="#1A1A1A" stroke-width="1.75" stroke-linecap="round"/>
</svg>
