<svg width="24" height="24" viewBox="0 0 24 24" fill="none" xmlns="http://www.w3.org/2000/svg">
<path d="M18 18.2003C20.2459 17.9773 22 16.0824 22 13.7778C22 11.1049 19.5452 9.00249 16.9198 9.37847C16.9155 9.37908 16.9113 9.3769 16.9093 9.37305C15.9052 7.37277 13.8351 6 11.4444 6C8.25974 6 5.64402 8.43609 5.35907 11.5465C5.3586 11.5516 5.35421 11.5556 5.34902 11.5556C3.52707 11.554 2 13.0606 2 14.8889C2 16.7298 3.49238 18.2222 5.33333 18.2222H6" stroke="#1A1A1A" stroke-width="1.5" stroke-linecap="round"/>
<path d="M9.5 18.5L11.6464 20.6464C11.8417 20.8417 12.1583 20.8417 12.3535 20.6464L14.5 18.5" stroke="#1A1A1A" stroke-width="1.5" stroke-linecap="round"/>
<path d="M12 20L12 14" stroke="#1A1A1A" stroke-width="1.5" stroke-linecap="round"/>
</svg>
