<svg width="12" height="12" viewBox="0 0 12 12" fill="none" xmlns="http://www.w3.org/2000/svg">
<path d="M4.125 4.875C4.125 4.875 4.59375 6 6 6C7.40625 6 7.875 4.875 7.875 4.875" stroke="#1A1A1A" stroke-linecap="round"/>
<path d="M1.125 3.625C1.125 2.24429 2.24429 1.125 3.625 1.125H8.75C10.1307 1.125 11.25 2.24429 11.25 3.625V7.25C11.25 8.63071 10.1307 9.75 8.75 9.75H8.49632C8.0985 9.75 7.71696 9.90804 7.43566 10.1893L6.84967 10.7753C6.57944 11.0456 6.14924 11.0694 5.85082 10.8307L4.91087 10.0787C4.6449 9.86592 4.31444 9.75 3.97383 9.75H3.625C2.24429 9.75 1.125 8.63071 1.125 7.25V3.625Z" stroke="#1A1A1A"/>
</svg>
