<svg width="16" height="16" viewBox="0 0 16 16" fill="none" xmlns="http://www.w3.org/2000/svg">
<path d="M5.5 6.5C5.5 6.5 6.125 8 8 8C9.875 8 10.5 6.5 10.5 6.5" stroke="#1A1A1A" stroke-linecap="round"/>
<path d="M1.5 4.83333C1.5 2.99238 2.99238 1.5 4.83333 1.5H11.6667C13.5076 1.5 15 2.99238 15 4.83333V9.66667C15 11.5076 13.5076 13 11.6667 13H11.3284C10.798 13 10.2893 13.2107 9.91421 13.5858L9.13289 14.3671C8.77258 14.7274 8.19898 14.7592 7.80109 14.4409L6.54783 13.4383C6.1932 13.1546 5.75258 13 5.29844 13H4.83333C2.99238 13 1.5 11.5076 1.5 9.66667V4.83333Z" stroke="#1A1A1A"/>
</svg>
