<svg width="24" height="24" viewBox="0 0 24 24" fill="none" xmlns="http://www.w3.org/2000/svg">
<path d="M8 10C8 10 8.94675 11.8935 11.787 11.8935C14.6272 11.8935 15.574 10 15.574 10" stroke="#1A1A1A" stroke-width="1.5" stroke-linecap="round"/>
<path d="M2 7C2 4.23858 4.23858 2 7 2H17C19.7614 2 22 4.23858 22 7V13.9565C22 16.7179 19.7614 18.9565 17 18.9565H16.6642C15.9487 18.9565 15.2569 19.2122 14.7133 19.6774L12.9754 21.1651C12.4139 21.6457 11.5861 21.6457 11.0246 21.1651L9.28666 19.6774C8.74315 19.2122 8.05126 18.9565 7.33582 18.9565H7C4.23858 18.9565 2 16.7179 2 13.9565V7Z" stroke="#1A1A1A" stroke-width="1.5"/>
</svg>
