<svg width="32" height="32" viewBox="0 0 32 32" fill="none" xmlns="http://www.w3.org/2000/svg">
<path d="M11 13C11 13 12.25 16 16 16C19.75 16 21 13 21 13" stroke="#1A1A1A" stroke-width="1.75" stroke-linecap="round"/>
<path d="M3 9.66667C3 5.98477 5.98477 3 9.66667 3H23.3333C27.0152 3 30 5.98477 30 9.66667V19.3333C30 23.0152 27.0152 26 23.3333 26H22.6569C21.596 26 20.5786 26.4214 19.8284 27.1716L18.2658 28.7342C17.5452 29.4548 16.398 29.5184 15.6022 28.8817L13.0957 26.8765C12.3864 26.3091 11.5052 26 10.5969 26H9.66667C5.98477 26 3 23.0152 3 19.3333V9.66667Z" stroke="#1A1A1A" stroke-width="1.75"/>
</svg>
