<svg width="175" height="26" overflow="visible" style="display: block;" viewBox="0 0 174.998 25.958" fill="none" xmlns="http://www.w3.org/2000/svg">
<g id="Group 1312321349" filter="url(#filter0_d_0_45)">
<path id="Vector" d="M64.2131 14.1717V11.9625H57.4523L58.0282 10.5491C58.6771 8.95793 58.9707 8.23788 59.286 7.39218H56.9206C56.6937 7.97099 56.4203 8.64158 55.9825 9.71481C55.7363 10.3187 55.4382 11.0497 55.0676 11.9625H48.3468C47.7368 11.9625 47.2422 12.4571 47.2422 13.0671C47.2422 13.6771 47.7368 14.1717 48.3468 14.1717H54.0531C52.2672 17.3047 49.809 18.1148 47.4882 18.4518V20.6818C48.9673 20.49 50.5299 20.1541 52.0838 19.2684C53.9659 18.196 55.4586 16.4821 56.5321 14.1717H64.2131Z" fill="var(--fill-0, white)"/>
<path id="Vector_2" d="M62.0269 8.68588H64.2361V5.2595C64.2361 4.64954 63.7414 4.15491 63.1315 4.15491H47.5859V6.3641H62.0269V8.68588Z" fill="var(--fill-0, white)"/>
<path id="Vector_3" d="M58.8264 15.0735C58.3216 14.731 57.6346 14.8626 57.2922 15.3675C56.9497 15.8722 57.0813 16.5588 57.5858 16.9015L63.5604 20.958L64.8014 19.1305L58.8264 15.0735Z" fill="var(--fill-0, white)"/>
<path id="Vector_4" d="M50.188 10.9141C49.5848 11.0057 49.0213 10.591 48.9296 9.9876L48.7471 8.78513C48.6553 8.18169 49.0702 7.61845 49.6734 7.52668C50.2768 7.43512 50.8401 7.84998 50.9319 8.45321L51.1146 9.65588C51.2061 10.2591 50.7913 10.8226 50.188 10.9141Z" fill="var(--fill-0, white)"/>
<path id="Vector_5" d="M53.6412 10.9141C53.0379 11.0057 52.4745 10.591 52.3829 9.9876L52.2002 8.78513C52.1084 8.18169 52.5233 7.61845 53.1265 7.52668C53.73 7.43512 54.2932 7.84998 54.385 8.45321L54.5677 9.65588C54.6592 10.2591 54.2444 10.8226 53.6412 10.9141Z" fill="var(--fill-0, white)"/>
<path id="Vector_6" d="M81.7068 15.5774H84.6387V13.3683H68.3496C67.7396 13.3683 67.245 13.8627 67.245 14.4729C67.245 15.0828 67.7396 15.5774 68.3496 15.5774H70.122C69.4708 16.6597 68.4908 17.9489 67.0625 19.1108L68.4569 20.8247C70.6543 19.0369 71.9384 17.0091 72.6421 15.5774H74.8098V20.6117H77.019V15.5774H79.1865C79.8903 17.0091 81.1745 19.0369 83.3719 20.8247L84.7663 19.1108C83.338 17.9489 82.358 16.6597 81.7068 15.5774Z" fill="var(--fill-0, white)"/>
<path id="Vector_7" d="M69.3931 7.46109H71.6023V6.88185H80.176V7.46109H82.3851V6.88185H84.539V4.67267H82.3851V3.68048H80.176V4.67267H71.6023V3.68048H69.3931V4.67267H67.2656V6.88185H69.3931V7.46109Z" fill="var(--fill-0, white)"/>
<path id="Vector_8" d="M70.2533 12.8968C70.8565 12.8052 71.2713 12.2418 71.1798 11.6384L71.0712 10.9244C72.1118 10.904 73.1334 10.8709 74.1168 10.8293L74.2902 11.9703C74.3818 12.5737 74.9452 12.9884 75.5485 12.8968C76.1519 12.8052 76.5666 12.2418 76.475 11.6384L76.3352 10.7186H76.3376C77.8454 10.6321 79.2074 10.5325 80.3364 10.4397L80.3377 10.4395L80.0058 11.4634C79.8176 12.0439 80.1356 12.6672 80.7161 12.8553C81.2966 13.0435 81.9199 12.7255 82.108 12.145L82.7308 10.2235C83.0514 10.1917 83.2962 10.1661 83.4526 10.1492C84.0594 10.0842 84.4984 9.53988 84.4334 8.93328C84.3684 8.32669 83.8241 7.887 83.2175 7.95267L83.1158 7.9634C83.1158 7.9634 74.7409 8.79942 67.5284 8.73228L67.5078 10.9412C67.8256 10.9442 68.1426 10.9459 68.461 10.9459C68.5851 10.9459 68.709 10.9456 68.8327 10.945H68.8391L68.9948 11.9703C69.0866 12.5737 69.65 12.9884 70.2533 12.8968Z" fill="var(--fill-0, white)"/>
<path id="Vector_9" d="M29.6229 14.1151C29.6229 14.9507 28.9428 15.6305 28.1072 15.6305C27.2718 15.6305 26.592 14.9507 26.592 14.1151V9.11599C26.592 8.28039 27.2718 7.60054 28.1072 7.60054C28.9428 7.60054 29.6229 8.28039 29.6229 9.11599V14.1151ZM28.1072 5.39136C26.0536 5.39136 24.3828 7.06235 24.3828 9.11599V14.1151C24.3828 16.1689 26.0536 17.8397 28.1072 17.8397C30.1611 17.8397 31.8321 16.1689 31.8321 14.1151V9.11599C31.8321 7.06235 30.1611 5.39136 28.1072 5.39136Z" fill="var(--fill-0, white)"/>
<path id="Vector_10" d="M9.24007 14.115C9.24007 14.9506 8.56002 15.6305 7.72442 15.6305C6.88903 15.6305 6.20918 14.9506 6.20918 14.115V9.11596C6.20918 8.28036 6.88903 7.60052 7.72442 7.60052C8.56002 7.60052 9.24007 8.28036 9.24007 9.11596V14.115ZM7.72442 5.39133C5.67078 5.39133 4 7.06232 4 9.11596V14.115C4 16.1689 5.67078 17.8397 7.72442 17.8397C9.77827 17.8397 11.4493 16.1689 11.4493 14.115V9.11596C11.4493 7.06232 9.77827 5.39133 7.72442 5.39133Z" fill="var(--fill-0, white)"/>
<path id="Vector_11" d="M23.095 3.87186V6.08104H20.3146V14.6315C20.3146 18.0171 17.5605 20.7714 14.1747 20.7714V18.5622C16.3422 18.5622 18.1054 16.7988 18.1054 14.6315V6.08104H12.6515C12.0413 6.08104 11.5469 5.58642 11.5469 4.97645C11.5469 4.36649 12.0413 3.87186 12.6515 3.87186H23.095Z" fill="var(--fill-0, white)"/>
<path id="Vector_12" d="M42.6045 8.99345L40.3766 10.0789L43.8924 11.242L43.1985 13.3398L37.5326 11.4649L33.877 13.2356C33.7211 13.3114 33.5567 13.3472 33.3946 13.3472C32.985 13.3472 32.5912 13.1184 32.4003 12.7254C32.1339 12.1767 32.3624 11.5154 32.9109 11.2487L34.5186 10.4674L33.7891 10.226C33.2098 10.0343 32.8958 9.40957 33.0873 8.83033C33.2791 8.2513 33.904 7.93748 34.4832 8.1286L37.3668 9.0829L41.1771 7.23069V6.70471H33.8842C33.274 6.70471 32.7796 6.21029 32.7796 5.60012V3.47007H34.9888V4.49552H42.2817C42.8918 4.49552 43.3862 4.98994 43.3862 5.60012V7.92191C43.3862 8.54345 42.8996 8.83601 42.8996 8.83601C42.8996 8.83601 42.7944 8.91094 42.6045 8.99345Z" fill="var(--fill-0, white)"/>
<path id="Vector_13" d="M33.484 18.6644C32.8894 18.5286 32.5173 17.9366 32.6529 17.3417C32.7886 16.7471 33.3805 16.3754 33.9747 16.5103L43.1221 18.5905L42.6321 20.745L33.484 18.6644Z" fill="var(--fill-0, white)"/>
<path id="Vector_14" d="M35.2949 15.4507C34.7003 15.3141 34.3292 14.7214 34.4658 14.127C34.6022 13.5329 35.1936 13.1618 35.7882 13.2973L42.232 14.7694L41.7401 16.9232L35.2949 15.4507Z" fill="var(--fill-0, white)"/>
<path id="Vector_15" d="M94.6372 14.7269C94.447 14.7269 94.3443 14.9169 94.3443 15.0957V18.4346C94.3443 18.5683 94.3886 18.7275 94.6001 18.7275H98.1176C98.3036 18.7275 98.4103 18.6208 98.4103 18.4346V15.0584C98.4103 14.8541 98.3053 14.7269 98.136 14.7269H94.6372ZM93.5239 20.6088C92.8884 20.6088 92.3516 20.0547 92.3516 19.3991V14.037C92.3516 13.3574 92.8523 12.8645 93.5424 12.8645H99.2493C99.8641 12.8645 100.403 13.421 100.403 14.0555V19.3991C100.403 20.0888 99.9072 20.6088 99.2493 20.6088H93.5239Z" fill="var(--fill-0, white)"/>
<path id="Vector_16" d="M104.168 14.7272C103.978 14.7272 103.876 14.9171 103.876 15.096V18.4348C103.876 18.5685 103.92 18.7277 104.131 18.7277H107.649C107.835 18.7277 107.942 18.6211 107.942 18.4348V15.0587C107.942 14.8543 107.837 14.7272 107.667 14.7272H104.168ZM103.055 20.609C102.42 20.609 101.883 20.055 101.883 19.3993V14.0373C101.883 13.3577 102.384 12.8647 103.074 12.8647H108.781C109.395 12.8647 109.934 13.4212 109.934 14.0557V19.3993C109.934 20.089 109.439 20.609 108.781 20.609H103.055Z" fill="var(--fill-0, white)"/>
<path id="Vector_17" d="M97.1904 5.88587C97.0653 5.88587 96.9162 5.93367 96.9162 6.16137V9.17585C96.9162 9.38715 97.0754 9.43166 97.2089 9.43166H105.077C105.252 9.43166 105.37 9.3215 105.37 9.15739V6.16137C105.37 6.00711 105.242 5.88587 105.077 5.88587H97.1904ZM96.0585 11.3686C95.2195 11.3686 94.7188 10.8469 94.7188 9.97302V5.30738C94.7188 4.43145 95.2078 3.94897 96.0956 3.94897H106.265C107.093 3.94897 107.568 4.42365 107.568 5.25159V10.0101C107.568 10.8352 107.042 11.3686 106.228 11.3686H96.0585Z" fill="var(--fill-0, white)"/>
<path id="Vector_18" d="M118.919 17.2053C118.364 17.2053 117.895 16.7281 117.895 16.1632V12.0992C117.895 11.3554 118.435 10.8157 119.179 10.8157H122.415V9.33829H117.219V7.51155H122.415V7.33513C122.415 6.75521 122.887 6.28298 123.467 6.28298C124.047 6.28298 124.519 6.75521 124.519 7.33513V7.51155H129.387C129.88 7.51155 130.281 7.92121 130.281 8.42482C130.281 8.93704 129.888 9.33829 129.387 9.33829H124.546V10.8157H127.938C128.682 10.8157 129.222 11.3554 129.222 12.0992V16.0889C129.222 16.6438 128.753 17.1124 128.197 17.1124C127.622 17.1124 127.155 16.6533 127.155 16.0889V12.9895C127.155 12.6911 127.086 12.6221 126.787 12.6221H120.33C120.03 12.6221 119.961 12.6911 119.961 12.9895V16.1632C119.961 16.7476 119.504 17.2053 118.919 17.2053Z" fill="var(--fill-0, white)"/>
<path id="Vector_19" d="M113.768 20.9406C113.505 20.9402 113.261 20.8584 113.081 20.7093C112.621 20.2871 112.555 19.731 112.892 19.1404C114.048 17.0722 114.42 15.14 114.42 11.1895V5.47455C114.42 4.66672 114.887 4.19183 115.702 4.17193C120.346 4.11675 124.892 3.89212 128.851 3.52267C128.912 3.51857 128.971 3.51631 129.029 3.51631C129.653 3.51631 130.058 3.76494 130.231 4.25481C130.314 4.51205 130.281 4.78098 130.138 5.01484C129.988 5.25998 129.738 5.4325 129.469 5.47681C127.428 5.81159 118.845 6.05181 116.966 6.07191C116.646 6.08791 116.542 6.1952 116.542 6.51357V11.2639C116.542 15.7851 116.092 18.0244 114.692 20.4793C114.514 20.7648 114.16 20.9406 113.768 20.9406Z" fill="var(--fill-0, white)"/>
<path id="Vector_20" d="M129.246 20.9403C129.106 20.9403 128.97 20.9112 128.841 20.8534L124.312 18.6018L125.125 16.7867L129.657 19.0406C130.154 19.2631 130.378 19.8521 130.154 20.3524C129.995 20.7095 129.638 20.9403 129.246 20.9403Z" fill="var(--fill-0, white)"/>
<path id="Vector_21" d="M117.148 20.9035V18.9168H118.279C119.551 18.8778 120.551 18.4776 121.25 17.7276C122.177 16.7339 122.468 15.3074 122.549 14.2856L122.556 14.1968C122.608 13.6979 123.032 13.3065 123.543 13.3065C123.822 13.3065 124.092 13.4226 124.283 13.6257C124.46 13.8124 124.549 14.0516 124.534 14.2989C124.416 16.2693 123.784 17.9233 122.703 19.0821C121.61 20.2545 120.111 20.8672 118.248 20.9035H118.247H117.148Z" fill="var(--fill-0, white)"/>
<path id="Vector_22" d="M168.99 10.9118V10.3829H155.916V10.9118H153.953V9.49489L153.964 9.43376L153.963 9.42433L153.958 9.41879L153.953 9.37386C153.968 8.8481 154.408 8.42039 154.934 8.42039H156.812V7.24331C156.812 6.77273 157.195 6.39015 157.665 6.39015H157.923C158.393 6.39015 158.776 6.77273 158.776 7.24331V8.42039H161.158V7.24331C161.158 6.77273 161.541 6.39015 162.011 6.39015H162.269C162.739 6.39015 163.122 6.77273 163.122 7.24331V8.42039H164.691L166.338 6.72473C166.521 6.51364 166.792 6.39015 167.077 6.39015C167.313 6.39015 167.541 6.47569 167.72 6.63036C168.129 6.98525 168.173 7.6064 167.818 8.01545L167.378 8.42039H169.972C170.462 8.42039 170.871 8.80174 170.923 9.30719C170.928 9.33776 170.934 9.36381 170.942 9.38945L170.954 10.9118H168.99Z" fill="var(--fill-0, white)"/>
<path id="Vector_23" d="M153.914 4.33509L154.01 4.33448C163.102 4.26412 169.598 3.55763 169.87 3.52788C169.906 3.52378 169.937 3.52255 169.968 3.52255C170.453 3.52255 170.88 3.91108 170.941 4.40689C170.974 4.67398 170.903 4.93389 170.74 5.13882C170.586 5.33247 170.367 5.45309 170.125 5.47853C170.124 5.47873 169.613 5.52838 169.266 5.55976C168.566 5.61576 164.893 5.90316 161.255 6.06789C157.566 6.23528 154.047 6.29559 154.012 6.2962L153.914 6.29764V4.33509Z" fill="var(--fill-0, white)"/>
<path id="Vector_24" d="M160.292 16.4465C161.028 16.8344 162.153 17.2849 163.377 17.6823L163.412 17.6935L163.449 17.6884C164.687 17.2849 165.797 16.842 166.546 16.4465L166.87 16.2748L166.855 16.211H159.983L159.967 16.2748L160.292 16.4465ZM156.842 19.0741L156.929 19.0657C157.877 18.9752 158.887 18.8206 159.932 18.606L160.307 18.5284L159.959 18.3699C159.183 18.0162 158.463 17.6279 157.82 17.2156L157.714 17.1483L157.647 17.2541C156.626 18.8618 155.646 19.8382 154.262 20.6247L154.168 20.6783L153.328 18.6702L153.395 18.6263C155.914 16.9606 156.608 15.2147 156.954 13.726L156.989 13.5734H154.942C154.393 13.5734 153.947 13.1264 153.947 12.5772C153.947 12.0283 154.393 11.5819 154.942 11.5819H157.21V11.0079H159.259V11.5819H170.947V13.5734H159.119L159.097 13.6712C159.059 13.8461 159.015 14.0314 158.964 14.2269L158.923 14.3828H169.436C169.911 14.3828 170.298 14.7699 170.298 15.2454V15.9753C170.298 16.1741 170.209 16.3587 170.055 16.4816C169.869 16.6295 168.836 17.4141 166.752 18.349L166.402 18.5065L166.778 18.5842C167.964 18.8341 170.046 19.0427 170.065 19.0448C170.583 19.0823 170.984 19.4778 170.997 19.9644C171.004 20.2128 170.918 20.4424 170.755 20.61C170.598 20.7716 170.379 20.8645 170.156 20.8645C170.119 20.8645 170.081 20.8619 170.044 20.8565C170.027 20.8565 165.389 20.2013 163.398 19.6241L163.365 19.6146L163.329 19.6183C161.31 20.2409 159.154 20.6844 156.949 20.9322L156.842 20.9446V19.0741Z" fill="var(--fill-0, white)"/>
<path id="Vector_25" d="M147.748 20.6422C145.433 20.6422 143.56 20.6092 141.855 20.539C139.811 20.4498 138.133 20.0022 136.583 18.1083C136.53 18.0443 136.451 18.0117 136.348 18.0117C136.199 18.0117 136.013 18.0804 135.851 18.1959L134.736 18.8456C134.561 18.9482 134.362 19.0029 134.16 19.0029C133.749 19.0029 133.367 18.7781 133.161 18.4162C132.845 17.8579 133.034 17.1407 133.583 16.818L135.62 15.6319C135.645 15.6169 135.67 15.6018 135.694 15.5893L135.715 15.5782L135.721 15.5774C135.96 15.4584 136.179 15.4005 136.39 15.4005C136.545 15.4005 136.712 15.4307 136.876 15.4879C140.253 13.3727 143.573 10.8707 146.23 8.43879C146.261 8.40761 146.263 8.37254 146.254 8.35079C146.244 8.32699 146.218 8.31387 146.18 8.31387H134.803C134.202 8.31387 133.732 7.82708 133.732 7.20551C133.732 6.61554 134.212 6.13531 134.803 6.13531H140.89L140.147 4.51883C139.887 4.01768 140.077 3.38873 140.575 3.12124C140.722 3.04185 140.887 3 141.052 3C141.432 3 141.779 3.21232 141.956 3.55366L143.142 6.13531H148.15C148.943 6.13531 149.541 6.61164 149.604 7.29434C149.666 8.00965 149.38 8.64085 148.731 9.22426C145.722 12.0865 142.404 14.6233 138.592 16.9743C139.72 18.0462 140.738 18.2913 142.305 18.3801C143.566 18.4128 144.75 18.4288 145.922 18.4288C147.296 18.4288 148.649 18.406 149.944 18.3607H149.946L150.626 18.3611L150.642 18.4573V20.6059L150.557 20.6161C150.453 20.6286 149.74 20.6352 149.661 20.6352C149.007 20.6397 148.369 20.642 147.748 20.6422Z" fill="var(--fill-0, white)"/>
</g>
<defs>
<filter id="filter0_d_0_45" x="0" y="3.1534e-08" width="174.998" height="25.958" filterUnits="userSpaceOnUse" color-interpolation-filters="sRGB">
<feFlood flood-opacity="0" result="BackgroundImageFix"/>
<feColorMatrix in="SourceAlpha" type="matrix" values="0 0 0 0 0 0 0 0 0 0 0 0 0 0 0 0 0 0 127 0" result="hardAlpha"/>
<feOffset dy="1"/>
<feGaussianBlur stdDeviation="2"/>
<feComposite in2="hardAlpha" operator="out"/>
<feColorMatrix type="matrix" values="0 0 0 0 0 0 0 0 0 0 0 0 0 0 0 0 0 0 0.6 0"/>
<feBlend mode="normal" in2="BackgroundImageFix" result="effect1_dropShadow_0_45"/>
<feBlend mode="normal" in="SourceGraphic" in2="effect1_dropShadow_0_45" result="shape"/>
</filter>
</defs>
</svg>
