<svg width="32" height="32" viewBox="0 0 32 32" fill="none" xmlns="http://www.w3.org/2000/svg">
<path d="M24.667 5L24.667 4.125H24.667V5ZM30 10.333H30.875V10.333L30 10.333ZM30 20.667L30.875 20.667V20.667H30ZM24.667 26V26.875H24.667L24.667 26ZM8.33301 26L8.33296 26.875H8.33301V26ZM3 20.667H2.125V20.667L3 20.667ZM3 10.333L2.125 10.333V10.333H3ZM8.33301 5V4.125H8.33296L8.33301 5ZM3.45221 12.1308L3.21465 12.9729L3.45221 12.1308ZM3.4522 18.8682L3.21468 18.0261L3.4522 18.8682ZM29.5478 18.8682L29.3103 19.7104L29.5478 18.8682ZM29.5478 12.1308L29.7854 12.9729L29.5478 12.1308ZM24.667 5L24.6669 5.875C27.129 5.87515 29.1249 7.87101 29.125 10.3331L30 10.333L30.875 10.333C30.8748 6.90449 28.0955 4.1252 24.667 4.125L24.667 5ZM30 10.333H29.125V11.5727H30H30.875V10.333H30ZM29.5478 12.1308L29.3102 11.2887C27.4728 11.807 26.125 13.4951 26.125 15.5H27H27.875C27.875 14.299 28.6823 13.2841 29.7854 12.9729L29.5478 12.1308ZM27 15.5H26.125C26.125 17.5051 27.4731 19.1922 29.3103 19.7104L29.5478 18.8682L29.7853 18.0261C28.6821 17.7149 27.875 16.7007 27.875 15.5H27ZM30 19.4263H29.125V20.667H30H30.875V19.4263H30ZM30 20.667L29.125 20.6669C29.1249 23.129 27.129 25.1249 24.6669 25.125L24.667 26L24.667 26.875C28.0955 26.8748 30.8748 24.0955 30.875 20.667L30 20.667ZM24.667 26V25.125H8.33301V26V26.875H24.667V26ZM8.33301 26L8.33306 25.125C5.87101 25.1249 3.87515 23.129 3.875 20.6669L3 20.667L2.125 20.667C2.1252 24.0955 4.90449 26.8748 8.33296 26.875L8.33301 26ZM3 20.667H3.875V19.4263H3H2.125V20.667H3ZM3.4522 18.8682L3.68971 19.7104C5.52689 19.1922 6.875 17.5051 6.875 15.5H6H5.125C5.125 16.7007 4.31794 17.7149 3.21468 18.0261L3.4522 18.8682ZM6 15.5H6.875C6.875 13.4951 5.5272 11.807 3.68978 11.2887L3.45221 12.1308L3.21465 12.9729C4.31773 13.2841 5.125 14.299 5.125 15.5H6ZM3 11.5727H3.875V10.333H3H2.125V11.5727H3ZM3 10.333L3.875 10.3331C3.87515 7.87101 5.87101 5.87515 8.33306 5.875L8.33301 5L8.33296 4.125C4.90449 4.1252 2.12521 6.90449 2.125 10.333L3 10.333ZM8.33301 5V5.875H24.667V5V4.125H8.33301V5ZM3.45221 12.1308L3.68978 11.2887C3.72744 11.2993 3.7675 11.3221 3.80252 11.3641C3.84 11.4091 3.875 11.4821 3.875 11.5727H3H2.125C2.125 12.2962 2.65014 12.8137 3.21465 12.9729L3.45221 12.1308ZM3 19.4263H3.875C3.875 19.5169 3.84001 19.5899 3.80252 19.6349C3.76749 19.677 3.72741 19.6997 3.68971 19.7104L3.4522 18.8682L3.21468 18.0261C2.6501 18.1853 2.125 18.7029 2.125 19.4263H3ZM29.5478 18.8682L29.3103 19.7104C29.2726 19.6997 29.2325 19.677 29.1975 19.6349C29.16 19.5899 29.125 19.5169 29.125 19.4263H30H30.875C30.875 18.7029 30.3499 18.1853 29.7853 18.0261L29.5478 18.8682ZM30 11.5727H29.125C29.125 11.4821 29.16 11.4091 29.1975 11.3641C29.2325 11.3221 29.2726 11.2993 29.3102 11.2887L29.5478 12.1308L29.7854 12.9729C30.3499 12.8137 30.875 12.2962 30.875 11.5727H30Z" fill="#1A1A1A"/>
<path d="M15.968 10.7044C16.2347 10.3512 16.7653 10.3512 17.032 10.7044L18.4143 12.5347C18.4941 12.6404 18.6035 12.7198 18.7286 12.7631L20.8965 13.5121C21.3148 13.6567 21.4787 14.1612 21.2253 14.524L19.9117 16.4043C19.8359 16.5128 19.7941 16.6414 19.7917 16.7738L19.7492 19.067C19.741 19.5095 19.3118 19.8214 18.8884 19.6924L16.6942 19.0242C16.5676 18.9856 16.4324 18.9856 16.3058 19.0242L14.1116 19.6924C13.6882 19.8214 13.259 19.5095 13.2508 19.067L13.2083 16.7738C13.2059 16.6414 13.1641 16.5128 13.0883 16.4043L11.7747 14.524C11.5213 14.1612 11.6852 13.6567 12.1035 13.5121L14.2714 12.7631C14.3965 12.7198 14.5059 12.6404 14.5857 12.5347L15.968 10.7044Z" stroke="#1A1A1A" stroke-width="1.75"/>
</svg>
