<svg width="24" height="24" viewBox="0 0 24 24" fill="none" xmlns="http://www.w3.org/2000/svg">
<path d="M5 3.5H19V19.4656C19 20.2959 18.0466 20.7645 17.3892 20.2574L16.0584 19.2307C15.7236 18.9725 15.2625 18.9527 14.9068 19.1813L13.0815 20.3547C12.4227 20.7783 11.5773 20.7783 10.9185 20.3547L9.0932 19.1813C8.73751 18.9527 8.27644 18.9725 7.94164 19.2307L6.6108 20.2574C5.95338 20.7645 5 20.2959 5 19.4656V3.5Z" stroke="#1A1A1A" stroke-width="1.5"/>
<path d="M9 9.5H12" stroke="#1A1A1A" stroke-width="1.5" stroke-linecap="round" stroke-linejoin="round"/>
<path d="M3 3.5H21" stroke="#1A1A1A" stroke-width="1.5" stroke-linecap="round" stroke-linejoin="round"/>
<path d="M9 13.5H12" stroke="#1A1A1A" stroke-width="1.5" stroke-linecap="round" stroke-linejoin="round"/>
<path d="M15 9.5H15.5" stroke="#1A1A1A" stroke-width="1.5" stroke-linecap="round" stroke-linejoin="round"/>
<path d="M15 13.5H15.5" stroke="#1A1A1A" stroke-width="1.5" stroke-linecap="round" stroke-linejoin="round"/>
</svg>
