<svg width="32" height="32" viewBox="0 0 32 32" fill="none" xmlns="http://www.w3.org/2000/svg">
<path d="M6.66699 4.66669H25.3337V25.9542C25.3337 27.0612 24.0625 27.6861 23.1859 27.0099L21.4115 25.641C20.9651 25.2966 20.3503 25.2703 19.8761 25.5751L17.4423 27.1397C16.5639 27.7044 15.4367 27.7044 14.5583 27.1397L12.1246 25.5751C11.6503 25.2703 11.0356 25.2966 10.5892 25.641L8.81473 27.0099C7.93816 27.6861 6.66699 27.0612 6.66699 25.9542V4.66669Z" stroke="#1A1A1A" stroke-width="1.75"/>
<path d="M12 12.6667H16" stroke="#1A1A1A" stroke-width="1.75" stroke-linecap="round" stroke-linejoin="round"/>
<path d="M4 4.66667H28" stroke="#1A1A1A" stroke-width="1.75" stroke-linecap="round" stroke-linejoin="round"/>
<path d="M12 18H16" stroke="#1A1A1A" stroke-width="1.75" stroke-linecap="round" stroke-linejoin="round"/>
<path d="M20 12.6667H20.6667" stroke="#1A1A1A" stroke-width="1.75" stroke-linecap="round" stroke-linejoin="round"/>
<path d="M20 18H20.6667" stroke="#1A1A1A" stroke-width="1.75" stroke-linecap="round" stroke-linejoin="round"/>
</svg>
