<svg width="12" height="12" viewBox="0 0 12 12" fill="none" xmlns="http://www.w3.org/2000/svg">
<path d="M10.9012 1.60135C11.4867 2.18715 11.4868 3.13697 10.9012 3.72267L7.28345 7.34038C7.05395 7.56987 6.75538 7.71847 6.43409 7.76436L5.14417 7.94943C4.48421 8.04371 3.91812 7.4776 4.01239 6.81764L4.19676 5.52703C4.24269 5.20582 4.39199 4.90781 4.62144 4.67837L8.23914 1.06066C8.82493 0.474884 9.77468 0.474884 10.3605 1.06066L10.9012 1.60135ZM7.8338 2.88022L5.32854 5.38547C5.25205 5.46197 5.20159 5.5615 5.18629 5.66859L5.00192 6.9592L6.29253 6.77483C6.39962 6.75953 6.49984 6.70976 6.57634 6.63327L9.0816 4.12801L7.8338 2.88022ZM9.65336 1.76777C9.4581 1.57252 9.14151 1.57251 8.94625 1.76777L8.54091 2.17311L9.7887 3.42091L10.194 3.01556C10.3892 2.82038 10.3891 2.50373 10.194 2.30846L9.65336 1.76777Z" fill="#1A1A1A"/>
<path d="M10.5 6V8C10.5 9.38071 9.38071 10.5 8 10.5H4C2.61929 10.5 1.5 9.38071 1.5 8V4C1.5 2.61929 2.61929 1.5 4 1.5H6" stroke="#1A1A1A" stroke-linecap="round"/>
</svg>
