<svg width="16" height="16" viewBox="0 0 16 16" fill="none" xmlns="http://www.w3.org/2000/svg">
<path fill-rule="evenodd" clip-rule="evenodd" d="M13.3582 1.81332C12.7151 1.17289 11.6728 1.17328 11.0302 1.8142L6.05987 6.77215C5.66235 7.16862 5.42863 7.69935 5.40498 8.25934L5.33422 9.93446C5.30201 10.6972 5.91378 11.3331 6.67984 11.3332L8.32793 11.3333C8.93301 11.3333 9.51248 11.0899 9.93497 10.6582L14.8653 5.60528C15.4947 4.96221 15.488 3.93427 14.8504 3.2993L13.3582 1.81332ZM11.6653 2.44671C11.9574 2.15538 12.4312 2.1552 12.7235 2.44631L14.2157 3.93229C14.5056 4.22091 14.5086 4.68816 14.2225 4.98046L13.2323 5.99216L10.6694 3.43997L11.6653 2.44671ZM10.0347 4.07296L6.69503 7.40466C6.45652 7.64254 6.31629 7.96098 6.3021 8.29697L6.23134 9.9721C6.2206 10.2264 6.42453 10.4383 6.67988 10.4383L8.32796 10.4384C8.69101 10.4384 9.0387 10.2924 9.29219 10.0334L12.6053 6.63279L10.0347 4.07296Z" fill="#1A1A1A"/>
<path d="M14 8.6665V11.3332C14 13.1741 12.5076 14.6665 10.6667 14.6665H5.33333C3.49239 14.6665 2 13.1741 2 11.3332V5.99984C2 4.15889 3.49238 2.6665 5.33333 2.6665H8" stroke="#1A1A1A" stroke-linecap="round"/>
</svg>
