<svg width="32" height="32" viewBox="0 0 32 32" fill="none" xmlns="http://www.w3.org/2000/svg">
<path fill-rule="evenodd" clip-rule="evenodd" d="M26.7174 3.62688C25.4312 2.34602 23.3466 2.3468 22.0613 3.62863L12.1207 13.5445C11.3257 14.3375 10.8582 15.399 10.8109 16.5189L10.6694 19.8692C10.605 21.3947 11.8285 22.6665 13.3607 22.6666L16.6568 22.6667C17.867 22.6668 19.0259 22.18 19.8709 21.3166L29.7315 11.2108C30.9903 9.92466 30.9771 7.86878 29.7018 6.59885L26.7174 3.62688ZM23.3316 4.89366C23.9158 4.31101 24.8634 4.31065 25.448 4.89286L28.4324 7.86482C29.0121 8.44207 29.0181 9.37656 28.4459 9.96117L26.4656 11.9846L21.3398 6.88019L23.3316 4.89366ZM20.0704 8.14616L13.391 14.8096C12.914 15.2853 12.6336 15.9222 12.6052 16.5942L12.4637 19.9444C12.4422 20.453 12.85 20.8769 13.3607 20.8769L16.6569 20.8771C17.383 20.8771 18.0784 20.585 18.5854 20.067L25.2116 13.2658L20.0704 8.14616Z" fill="#1A1A1A"/>
<path d="M28 17.3335V22.6668C28 26.3487 25.0152 29.3335 21.3333 29.3335H10.6667C6.98477 29.3335 4 26.3487 4 22.6668V12.0002C4 8.31827 6.98477 5.3335 10.6667 5.3335H16" stroke="#1A1A1A" stroke-width="1.75" stroke-linecap="round"/>
</svg>
