<svg width="12" height="12" viewBox="0 0 12 12" fill="none" xmlns="http://www.w3.org/2000/svg">
<path d="M10.5 8.25V4.57012C10.5 3.49586 9.62914 2.625 8.55488 2.625C8.30795 2.625 8.0728 2.5194 7.90875 2.33484L7.61418 2.00345C7.32953 1.68322 6.92142 1.5 6.49296 1.5H5.61804C5.13167 1.5 4.68129 1.75658 4.43333 2.175C4.26803 2.45395 3.96472 2.625 3.64047 2.625C2.46532 2.625 1.5 3.57765 1.5 4.75281V8.25C1.5 9.49264 2.50736 10.5 3.75 10.5H8.25C9.49264 10.5 10.5 9.49264 10.5 8.25Z" stroke="#1A1A1A"/>
<path d="M4.07129 5.25H7.92843" stroke="#1A1A1A" stroke-linecap="round"/>
<path d="M4.07129 7.5H6.64272" stroke="#1A1A1A" stroke-linecap="round"/>
</svg>
