<svg width="16" height="16" viewBox="0 0 16 16" fill="none" xmlns="http://www.w3.org/2000/svg">
<path d="M15 12V5.54336C15 4.00063 13.7494 2.75 12.2066 2.75C11.6747 2.75 11.1682 2.52253 10.8148 2.12497L10.4115 1.67127C10.032 1.2443 9.48773 1 8.91645 1H7.2025C6.57202 1 5.98809 1.3326 5.66667 1.875C5.34525 2.4174 4.76153 2.75 4.13105 2.75H4C2.34315 2.75 1 4.09315 1 5.75V12C1 13.6569 2.34315 15 4 15H12C13.6569 15 15 13.6569 15 12Z" stroke="#1A1A1A"/>
<path d="M4.66699 7H10.5003" stroke="#1A1A1A" stroke-linecap="round"/>
<path d="M4.66699 10.5L9.33366 10.5" stroke="#1A1A1A" stroke-linecap="round"/>
</svg>
