<svg width="32" height="32" viewBox="0 0 32 32" fill="none" xmlns="http://www.w3.org/2000/svg">
<path d="M30 23.3333V11.1717C30 7.76316 27.2368 5 23.8283 5C23.1183 5 22.4232 4.79585 21.8259 4.41188L20.6179 3.63529C19.9727 3.22052 19.2218 3 18.4548 3H13.811C12.8868 3 11.9986 3.35847 11.3333 4C10.668 4.64153 9.77986 5 8.85566 5H8.66667C4.98477 5 2 7.98477 2 11.6667V23.3333C2 27.0152 4.98477 30 8.66667 30H23.3333C27.0152 30 30 27.0152 30 23.3333Z" stroke="#1A1A1A" stroke-width="1.75"/>
<path d="M10 12H22" stroke="#1A1A1A" stroke-width="1.75" stroke-linecap="round"/>
<path d="M10 20H19" stroke="#1A1A1A" stroke-width="1.75" stroke-linecap="round"/>
</svg>
