<svg  width="6.12326" height="7.08308" overflow="hidden" style="display: block;" viewBox="0 0 6.12326 7.08308" fill="none" xmlns="http://www.w3.org/2000/svg">
<g id="&#194;&#165;" filter="url(#filter0_di_0_1995)">
<path d="M2.69537 5.53939V5.18098H1.73962C1.46882 5.18098 1.33342 5.06151 1.33342 4.82258C1.33342 4.58364 1.46882 4.47213 1.73962 4.48806H2.69537V4.10576H1.73962C1.45289 4.12169 1.31749 4.00222 1.33342 3.74735C1.31749 3.50841 1.45289 3.39691 1.73962 3.41284H2.31307L1.19006 1.69248C1.06263 1.45354 1.09448 1.27832 1.28564 1.16682C1.49272 1.05531 1.66794 1.11903 1.8113 1.35797L3.05378 3.22169L4.27237 1.35797C4.44759 1.11903 4.63874 1.05531 4.84582 1.16682C5.03697 1.27832 5.06086 1.46151 4.9175 1.71638L3.79449 3.41284H4.34405C4.6467 3.39691 4.79006 3.51638 4.77414 3.77125C4.79006 3.99426 4.65467 4.10576 4.36794 4.10576H3.41219V4.48806H4.36794C4.6706 4.47213 4.81396 4.5916 4.79803 4.84647C4.79803 5.06948 4.65467 5.18098 4.36794 5.18098H3.41219V5.53939C3.41219 5.82612 3.29272 5.96948 3.05378 5.96948C2.81484 5.96948 2.69537 5.82612 2.69537 5.53939Z" fill="url(#paint0_linear_0_1995)" fill-opacity="0.9" shape-rendering="crispEdges"/>
</g>
<defs>
<filter id="filter0_di_0_1995" x="2.43185e-09" y="1.92583e-09" width="6.12326" height="7.08308" filterUnits="userSpaceOnUse" color-interpolation-filters="sRGB">
<feFlood flood-opacity="0" result="BackgroundImageFix"/>
<feColorMatrix in="SourceAlpha" type="matrix" values="0 0 0 0 0 0 0 0 0 0 0 0 0 0 0 0 0 0 127 0" result="hardAlpha"/>
<feOffset/>
<feGaussianBlur stdDeviation="0.5568"/>
<feComposite in2="hardAlpha" operator="out"/>
<feColorMatrix type="matrix" values="0 0 0 0 0.775796 0 0 0 0 0.56576 0 0 0 0 0.0256673 0 0 0 0.25 0"/>
<feBlend mode="normal" in2="BackgroundImageFix" result="effect1_dropShadow_0_1995"/>
<feBlend mode="normal" in="SourceGraphic" in2="effect1_dropShadow_0_1995" result="shape"/>
<feColorMatrix in="SourceAlpha" type="matrix" values="0 0 0 0 0 0 0 0 0 0 0 0 0 0 0 0 0 0 127 0" result="hardAlpha"/>
<feOffset dy="0.117547"/>
<feGaussianBlur stdDeviation="0.0587733"/>
<feComposite in2="hardAlpha" operator="arithmetic" k2="-1" k3="1"/>
<feColorMatrix type="matrix" values="0 0 0 0 1 0 0 0 0 1 0 0 0 0 1 0 0 0 0.25 0"/>
<feBlend mode="normal" in2="shape" result="effect2_innerShadow_0_1995"/>
</filter>
<linearGradient id="paint0_linear_0_1995" x1="2.04151" y1="1.88113" x2="3.46456" y2="5.83178" gradientUnits="userSpaceOnUse">
<stop stop-color="white"/>
<stop offset="1" stop-color="white" stop-opacity="0.8"/>
</linearGradient>
</defs>
</svg>
