<svg  width="9.33337" height="9.66672" overflow="hidden" style="display: block;" viewBox="0 0 9.33337 9.66672" fill="none" xmlns="http://www.w3.org/2000/svg">
<g id="Group 9107">
<circle id="Ellipse 6" cx="4.66667" cy="5.00005" r="4.66667" fill="url(#paint0_radial_0_254)"/>
<g id="Ellipse 8">
<circle cx="4.66668" cy="4.66667" r="4.62179" fill="url(#paint1_linear_0_254)"/>
<circle cx="4.66668" cy="4.66667" r="4.62179" fill="url(#paint2_radial_0_254)" fill-opacity="0.4"/>
<circle cx="4.66668" cy="4.66667" r="4.62179" stroke="url(#paint3_radial_0_254)" stroke-width="0.0897436"/>
</g>
<g id="Ellipse 7">
<g filter="url(#filter0_i_0_254)">
<circle cx="4.66657" cy="4.66682" r="3.58974" fill="url(#paint4_linear_0_254)"/>
</g>
<circle cx="4.66657" cy="4.66682" r="3.5" stroke="url(#paint5_linear_0_254)" stroke-width="0.179487"/>
</g>
<g id="logo">
<path id="Vector" d="M5.46329 1.90591C5.4433 1.89342 5.41582 1.87843 5.41582 1.87843C5.25843 1.80598 5.08355 1.85095 4.97113 1.96837C4.97113 1.96837 4.83623 2.09578 4.78626 2.32562C4.73629 2.09578 4.60139 1.96837 4.60139 1.96837C4.49147 1.85095 4.31409 1.80598 4.1567 1.87843C4.1567 1.87843 4.12672 1.89342 4.10923 1.90591C3.96433 1.99835 3.90937 2.17073 3.94435 2.32562C3.97932 2.47302 4.06926 2.53547 4.13671 2.60542C4.2916 2.76281 4.68133 3.13755 4.71381 3.16753C4.7363 3.18752 4.75878 3.19501 4.78376 3.19501C4.80875 3.19501 4.82873 3.18752 4.85371 3.16753C4.88869 3.14005 5.27592 2.76531 5.43081 2.60542C5.50076 2.53547 5.5907 2.47052 5.62318 2.32562C5.66315 2.17073 5.60819 1.99835 5.46329 1.90591Z" fill="url(#paint6_radial_0_254)"/>
<path id="Vector_2" d="M4.57141 3.40459C4.52894 3.36961 4.37405 3.21722 4.22665 3.07482C3.93686 3.16226 3.66205 3.32215 3.43221 3.55199C2.68523 4.29897 2.68523 5.51312 3.43221 6.2601L4.72131 7.5492C4.75628 7.58418 4.81624 7.58418 4.85122 7.5492L6.14032 6.2601C6.8873 5.51312 6.8873 4.29897 6.14032 3.55199C5.91048 3.32215 5.63817 3.16226 5.34587 3.07482C5.19847 3.21972 5.04109 3.36961 5.00111 3.40459C4.93866 3.45955 4.86621 3.48703 4.78626 3.48703C4.70632 3.48703 4.63387 3.45955 4.57141 3.40459Z" fill="url(#paint7_radial_0_254)"/>
<path id="Vector_3" d="M5.46329 1.85723C5.4433 1.84474 5.41582 1.82975 5.41582 1.82975C5.25843 1.7573 5.08355 1.80227 4.97113 1.91969C4.97113 1.91969 4.83623 2.0471 4.78626 2.27694C4.73629 2.0471 4.60139 1.91969 4.60139 1.91969C4.49147 1.80227 4.31409 1.7573 4.1567 1.82975C4.1567 1.82975 4.12672 1.84474 4.10923 1.85723C3.96433 1.94967 3.90937 2.12205 3.94435 2.27694C3.97932 2.42434 4.06926 2.48679 4.13671 2.55675C4.2916 2.71414 4.68133 3.08887 4.71381 3.11885C4.7363 3.13884 4.75878 3.14634 4.78376 3.14634C4.80875 3.14634 4.82873 3.13884 4.85371 3.11885C4.88869 3.09137 5.27592 2.71663 5.43081 2.55675C5.50076 2.48679 5.5907 2.42184 5.62318 2.27694C5.66315 2.12205 5.60819 1.94967 5.46329 1.85723Z" fill="url(#paint8_linear_0_254)"/>
<path id="Vector_4" d="M4.57141 3.28402C4.52894 3.24905 4.37405 3.09665 4.22665 2.95425C3.93686 3.04169 3.66205 3.20158 3.43221 3.43142C2.68523 4.1784 2.68523 5.39255 3.43221 6.13953L4.72131 7.42863C4.75628 7.46361 4.81624 7.46361 4.85122 7.42863L6.14032 6.13953C6.8873 5.39255 6.8873 4.1784 6.14032 3.43142C5.91048 3.20158 5.63817 3.04169 5.34587 2.95425C5.19847 3.09915 5.04109 3.24905 5.00111 3.28402C4.93866 3.33898 4.86621 3.36646 4.78626 3.36646C4.70632 3.36646 4.63387 3.33898 4.57141 3.28402Z" fill="url(#paint9_linear_0_254)"/>
</g>
</g>
<defs>
<filter id="filter0_i_0_254" x="1.07682" y="1.07707" width="7.17949" height="7.17949" filterUnits="userSpaceOnUse" color-interpolation-filters="sRGB">
<feFlood flood-opacity="0" result="BackgroundImageFix"/>
<feBlend mode="normal" in="SourceGraphic" in2="BackgroundImageFix" result="shape"/>
<feColorMatrix in="SourceAlpha" type="matrix" values="0 0 0 0 0 0 0 0 0 0 0 0 0 0 0 0 0 0 127 0" result="hardAlpha"/>
<feOffset/>
<feGaussianBlur stdDeviation="0.538462"/>
<feComposite in2="hardAlpha" operator="arithmetic" k2="-1" k3="1"/>
<feColorMatrix type="matrix" values="0 0 0 0 0.933333 0 0 0 0 0.391611 0 0 0 0 0.159444 0 0 0 1 0"/>
<feBlend mode="normal" in2="shape" result="effect1_innerShadow_0_254"/>
</filter>
<radialGradient id="paint0_radial_0_254" cx="0" cy="0" r="1" gradientUnits="userSpaceOnUse" gradientTransform="translate(4.66667 9.66672) rotate(-49.844) scale(6.73751)">
<stop stop-color="#FFB865"/>
<stop offset="0.40625" stop-color="#F4982C"/>
<stop offset="0.91797" stop-color="#FFDA7B"/>
</radialGradient>
<linearGradient id="paint1_linear_0_254" x1="4.66668" y1="0" x2="4.66668" y2="9.33333" gradientUnits="userSpaceOnUse">
<stop stop-color="#FDFDCC"/>
<stop offset="1" stop-color="#FDCC54"/>
</linearGradient>
<radialGradient id="paint2_radial_0_254" cx="0" cy="0" r="1" gradientUnits="userSpaceOnUse" gradientTransform="translate(4.49429 0.643678) rotate(180) scale(4.58621 1.77434)">
<stop stop-color="white"/>
<stop offset="1" stop-color="white" stop-opacity="0"/>
</radialGradient>
<radialGradient id="paint3_radial_0_254" cx="0" cy="0" r="1" gradientUnits="userSpaceOnUse" gradientTransform="translate(4.57475 9.33333) rotate(-90) scale(4.18391)">
<stop stop-color="white"/>
<stop offset="1" stop-color="white" stop-opacity="0"/>
</radialGradient>
<linearGradient id="paint4_linear_0_254" x1="4.66657" y1="1.07707" x2="4.66657" y2="8.25656" gradientUnits="userSpaceOnUse">
<stop stop-color="#FFE299"/>
<stop offset="1" stop-color="#FAAE3B"/>
</linearGradient>
<linearGradient id="paint5_linear_0_254" x1="4.66657" y1="1.07707" x2="4.66657" y2="8.25656" gradientUnits="userSpaceOnUse">
<stop stop-color="#F3C44E"/>
<stop offset="1" stop-color="#FEFBC5"/>
</linearGradient>
<radialGradient id="paint6_radial_0_254" cx="0" cy="0" r="1" gradientTransform="matrix(0.792172 -0.74569 0.938871 0.629176 4.785 3.19501)" gradientUnits="userSpaceOnUse">
<stop stop-color="#FEB84F"/>
<stop offset="0.339303" stop-color="#F2B04C"/>
<stop offset="0.696785" stop-color="#FFD25E"/>
</radialGradient>
<radialGradient id="paint7_radial_0_254" cx="0" cy="0" r="1" gradientTransform="matrix(1.78227 -2.4831 2.11232 2.09511 4.78626 7.57543)" gradientUnits="userSpaceOnUse">
<stop stop-color="#F49A4A"/>
<stop offset="0.420401" stop-color="#FC894C"/>
<stop offset="0.91797" stop-color="#FFC145"/>
</radialGradient>
<linearGradient id="paint8_linear_0_254" x1="4.785" y1="1.79477" x2="4.83356" y2="3.99985" gradientUnits="userSpaceOnUse">
<stop stop-color="#FDFDCC"/>
<stop offset="1" stop-color="#FDCC54"/>
</linearGradient>
<linearGradient id="paint9_linear_0_254" x1="4.78626" y1="2.95425" x2="4.78626" y2="7.45486" gradientUnits="userSpaceOnUse">
<stop stop-color="#FDFDCC"/>
<stop offset="1" stop-color="#FDCC54"/>
</linearGradient>
</defs>
</svg>
