<svg width="24" height="24" viewBox="0 0 24 24" fill="none" xmlns="http://www.w3.org/2000/svg">
<path d="M15 6.3706C15 4.65827 12.9884 3.73774 11.6926 4.85712L8.36317 7.73321C7.99988 8.04704 7.53583 8.21972 7.05576 8.21973L5.49998 8.21974C4.11928 8.21975 3 9.33903 3 10.7197V14.0127C3 15.3934 4.11929 16.5127 5.5 16.5127H7.0558C7.53587 16.5127 7.99993 16.6854 8.36322 16.9992L11.6926 19.8753C12.9884 20.9947 15 20.0741 15 18.3618V12.3662V6.3706Z" stroke="#1A1A1A" stroke-width="1.5"/>
<path d="M18.0078 12.2004H20.804" stroke="#333333" stroke-width="1.5" stroke-linecap="round" stroke-linejoin="round"/>
<path d="M18.1563 8.2581L19.8039 7.16234" stroke="#333333" stroke-width="1.5" stroke-linecap="round" stroke-linejoin="round"/>
<path d="M18.1563 16.1623L19.8039 17.2581" stroke="#333333" stroke-width="1.5" stroke-linecap="round" stroke-linejoin="round"/>
</svg>
