<svg width="32" height="32" viewBox="0 0 32 32" fill="none" xmlns="http://www.w3.org/2000/svg">
<path d="M20 8.49422C20 6.21111 17.3178 4.98374 15.5901 6.47624L11.1509 10.311C10.6665 10.7295 10.0478 10.9597 9.40768 10.9597L7.33331 10.9597C5.49237 10.9597 4 12.4521 4 14.2931V18.6837C4 20.5247 5.49238 22.017 7.33333 22.017H9.40773C10.0478 22.017 10.6666 22.2473 11.151 22.6657L15.5901 26.5005C17.3178 27.993 20 26.7656 20 24.4825V16.4883V8.49422Z" stroke="#1A1A1A" stroke-width="1.75"/>
<path d="M24.0107 16.2672H27.739" stroke="#333333" stroke-width="1.75" stroke-linecap="round" stroke-linejoin="round"/>
<path d="M24.2081 11.0109L26.4049 9.54987" stroke="#333333" stroke-width="1.75" stroke-linecap="round" stroke-linejoin="round"/>
<path d="M24.2081 21.5499L26.4049 23.0109" stroke="#333333" stroke-width="1.75" stroke-linecap="round" stroke-linejoin="round"/>
</svg>
