<svg width="12" height="12" viewBox="0 0 12 12" fill="none" xmlns="http://www.w3.org/2000/svg">
<path d="M6 2.55268V9.96275M6 2.55268H6.5C7.62657 2.14911 9.0401 2.14911 10.1667 2.55268C10.4657 2.65979 10.5 2.90863 10.5 3.19703V8.99622C10.5 9.39224 9.91057 9.78765 9.5 9.64057C8.60589 9.32028 7.72744 9.32028 6.83333 9.64057L6.16667 9.96275C6.16371 9.96381 6 9.9656 6 9.96275M6 2.55268H5.5C4.37343 2.14911 2.9599 2.14911 1.83333 2.55268C1.53433 2.65979 1.5 2.90863 1.5 3.19703V8.99622C1.5 9.39224 2.08943 9.78765 2.5 9.64057C3.39411 9.32028 4.27256 9.32028 5.16667 9.64057L5.83333 9.96275C5.83629 9.96381 6 9.9656 6 9.96275" stroke="#1A1A1A"/>
</svg>
