<svg width="16" height="16" viewBox="0 0 16 16" fill="none" xmlns="http://www.w3.org/2000/svg">
<path d="M8 3.40357V13.2837M8 3.40357H8.66667C10.1688 2.86548 12.0535 2.86548 13.5556 3.40357C13.9542 3.54638 14 3.87817 14 4.26271V11.995C14 12.523 13.2141 13.0502 12.6667 12.8541C11.4745 12.427 10.3033 12.427 9.11111 12.8541L8.22222 13.2837C8.21828 13.2851 8 13.2875 8 13.2837M8 3.40357H7.33333C5.83124 2.86548 3.94653 2.86548 2.44444 3.40357C2.04578 3.54638 2 3.87817 2 4.26271V11.995C2 12.523 2.78591 13.0502 3.33333 12.8541C4.52548 12.427 5.69675 12.427 6.88889 12.8541L7.77778 13.2837C7.78172 13.2851 8 13.2875 8 13.2837" stroke="#1A1A1A"/>
</svg>
