<svg width="32" height="32" viewBox="0 0 32 32" fill="none" xmlns="http://www.w3.org/2000/svg">
<path d="M16 4.94166V27.9952M16 4.94166H17.5556C21.0604 3.68611 25.4581 3.68611 28.963 4.94166C29.8932 5.2749 30 6.04906 30 6.94632V24.9882C30 26.2203 28.1662 27.4505 26.8889 26.9929C24.1072 25.9964 21.3743 25.9964 18.5926 26.9929L16 27.9952M16 4.94166H14.4444C10.9396 3.68611 6.54191 3.68611 3.03704 4.94166C2.10681 5.2749 2 6.04906 2 6.94632V24.9882C2 26.2203 3.83378 27.4505 5.11111 26.9929C7.89278 25.9964 10.6257 25.9964 13.4074 26.9929L15.4815 27.9952C15.4907 27.9985 16 28.0041 16 27.9952M16 27.9952C16 28.0041 15.9908 27.9985 16 27.9952Z" stroke="#1A1A1A" stroke-width="1.75"/>
</svg>
